%TF.GenerationSoftware,KiCad,Pcbnew,8.0.0*%
%TF.CreationDate,2024-06-08T15:13:20+02:00*%
%TF.ProjectId,goos-right,676f6f73-2d72-4696-9768-742e6b696361,rev?*%
%TF.SameCoordinates,Original*%
%TF.FileFunction,Legend,Top*%
%TF.FilePolarity,Positive*%
%FSLAX46Y46*%
G04 Gerber Fmt 4.6, Leading zero omitted, Abs format (unit mm)*
G04 Created by KiCad (PCBNEW 8.0.0) date 2024-06-08 15:13:20*
%MOMM*%
%LPD*%
G01*
G04 APERTURE LIST*
%ADD10C,0.100000*%
%ADD11C,0.150000*%
%ADD12C,0.120000*%
G04 APERTURE END LIST*
D10*
G36*
X237003722Y-43433846D02*
G01*
X237022609Y-43480538D01*
X237016953Y-43530042D01*
X237010642Y-43562847D01*
X237002976Y-43611737D01*
X236999908Y-43660515D01*
X236999895Y-43690586D01*
X237006840Y-43744385D01*
X237025754Y-43790377D01*
X237056635Y-43828561D01*
X237099485Y-43858938D01*
X237129344Y-43872792D01*
X237177551Y-43887339D01*
X237229099Y-43896888D01*
X237280241Y-43902710D01*
X237337806Y-43906350D01*
X237390683Y-43907718D01*
X237345651Y-43883132D01*
X237304931Y-43852891D01*
X237273447Y-43819302D01*
X237248145Y-43775368D01*
X237235742Y-43726516D01*
X237234604Y-43706462D01*
X237375052Y-43706462D01*
X237385115Y-43757936D01*
X237412021Y-43804156D01*
X237446615Y-43841284D01*
X237487712Y-43873241D01*
X237532643Y-43896878D01*
X237577285Y-43908451D01*
X237627130Y-43917672D01*
X237677895Y-43925358D01*
X237730253Y-43932309D01*
X237781029Y-43938434D01*
X237790020Y-43939470D01*
X237814290Y-43895153D01*
X237818841Y-43882317D01*
X237828032Y-43833003D01*
X237828367Y-43821256D01*
X237824428Y-43766928D01*
X237812612Y-43718280D01*
X237789462Y-43669638D01*
X237756024Y-43628414D01*
X237746057Y-43619268D01*
X237701241Y-43588334D01*
X237656052Y-43569337D01*
X237605826Y-43558338D01*
X237557745Y-43555276D01*
X237505219Y-43558973D01*
X237457633Y-43571580D01*
X237420725Y-43593134D01*
X237389503Y-43633458D01*
X237376167Y-43683796D01*
X237375052Y-43706462D01*
X237234604Y-43706462D01*
X237234368Y-43702310D01*
X237238505Y-43650141D01*
X237250917Y-43602413D01*
X237275235Y-43553305D01*
X237310360Y-43509997D01*
X237320830Y-43500077D01*
X237361123Y-43469718D01*
X237406348Y-43446816D01*
X237456506Y-43431370D01*
X237511595Y-43423381D01*
X237545289Y-43422164D01*
X237602576Y-43424763D01*
X237656286Y-43432563D01*
X237706418Y-43445562D01*
X237752972Y-43463761D01*
X237795948Y-43487160D01*
X237842797Y-43522102D01*
X237850104Y-43528653D01*
X237884371Y-43564944D01*
X237912830Y-43605122D01*
X237935481Y-43649189D01*
X237952324Y-43697143D01*
X237963359Y-43748985D01*
X237968586Y-43804715D01*
X237969050Y-43828095D01*
X237965825Y-43880114D01*
X237954238Y-43929833D01*
X237952198Y-43935318D01*
X237926448Y-43979422D01*
X237901884Y-44001263D01*
X237887236Y-44048863D01*
X237842249Y-44072986D01*
X237818841Y-44074780D01*
X237769006Y-44072022D01*
X237716021Y-44065267D01*
X237685973Y-44060370D01*
X237636574Y-44052483D01*
X237585855Y-44045213D01*
X237554570Y-44041808D01*
X237319853Y-44025932D01*
X237269174Y-44023679D01*
X237214608Y-44019293D01*
X237164950Y-44013014D01*
X237114208Y-44003519D01*
X237091242Y-43997844D01*
X237044512Y-43982508D01*
X236998091Y-43960660D01*
X236954771Y-43930570D01*
X236924180Y-43898926D01*
X236895756Y-43853069D01*
X236877547Y-43805431D01*
X236865556Y-43750781D01*
X236860226Y-43698356D01*
X236859211Y-43660545D01*
X236860332Y-43611480D01*
X236864205Y-43562403D01*
X236872505Y-43511066D01*
X236873377Y-43507160D01*
X236892029Y-43457934D01*
X236930377Y-43424835D01*
X236955687Y-43420698D01*
X237003722Y-43433846D01*
G37*
G36*
X238140997Y-44350042D02*
G01*
X238154541Y-44302266D01*
X238161514Y-44292889D01*
X238205963Y-44269164D01*
X238211339Y-44268953D01*
X238256999Y-44288612D01*
X238260921Y-44292889D01*
X238280951Y-44337986D01*
X238281681Y-44350042D01*
X238267976Y-44397496D01*
X238260921Y-44406706D01*
X238216714Y-44430190D01*
X238211339Y-44430398D01*
X238165479Y-44410940D01*
X238161514Y-44406706D01*
X238141498Y-44360120D01*
X238140997Y-44350042D01*
G37*
G36*
X237570690Y-44381061D02*
G01*
X237518483Y-44381611D01*
X237465624Y-44382744D01*
X237445394Y-44383259D01*
X237392873Y-44384650D01*
X237343453Y-44385549D01*
X237319853Y-44385702D01*
X237273301Y-44370456D01*
X237269539Y-44367139D01*
X237250076Y-44322031D01*
X237250000Y-44318291D01*
X237267173Y-44272352D01*
X237269539Y-44269930D01*
X237316050Y-44251197D01*
X237319853Y-44251124D01*
X237372243Y-44250513D01*
X237425160Y-44249254D01*
X237445394Y-44248681D01*
X237497886Y-44247291D01*
X237547197Y-44246392D01*
X237570690Y-44246239D01*
X237619698Y-44247047D01*
X237670913Y-44249184D01*
X237722431Y-44252250D01*
X237734577Y-44253078D01*
X237787237Y-44256502D01*
X237839721Y-44258992D01*
X237890125Y-44260133D01*
X237898464Y-44260161D01*
X237945742Y-44275606D01*
X237949511Y-44278967D01*
X237969031Y-44325506D01*
X237969050Y-44327328D01*
X237951877Y-44373295D01*
X237949511Y-44375688D01*
X237904267Y-44394571D01*
X237898464Y-44394739D01*
X237849456Y-44393930D01*
X237798241Y-44391793D01*
X237746724Y-44388728D01*
X237734577Y-44387900D01*
X237681917Y-44384594D01*
X237629434Y-44382190D01*
X237579030Y-44381088D01*
X237570690Y-44381061D01*
G37*
G36*
X237836182Y-45070314D02*
G01*
X237837404Y-45036120D01*
X237838869Y-45002171D01*
X237833905Y-44951355D01*
X237828367Y-44908870D01*
X237430251Y-44921815D01*
X237400697Y-44922547D01*
X237366259Y-44923280D01*
X237316124Y-44921566D01*
X237265414Y-44910811D01*
X237225796Y-44880222D01*
X237218736Y-44851228D01*
X237235240Y-44804631D01*
X237236322Y-44803357D01*
X237280286Y-44783085D01*
X237330400Y-44784094D01*
X237357222Y-44785039D01*
X237406810Y-44786816D01*
X237434159Y-44787237D01*
X237828367Y-44773559D01*
X237831402Y-44724211D01*
X237835438Y-44674456D01*
X237840334Y-44620907D01*
X237861767Y-44575112D01*
X237909455Y-44559847D01*
X237956650Y-44575092D01*
X237960502Y-44578409D01*
X237980754Y-44624001D01*
X237980774Y-44625792D01*
X237969050Y-44769896D01*
X238019750Y-44768655D01*
X238058688Y-44766720D01*
X238109551Y-44764434D01*
X238139776Y-44763790D01*
X238185450Y-44783573D01*
X238203506Y-44830629D01*
X238203524Y-44832422D01*
X238182272Y-44879205D01*
X238134667Y-44900248D01*
X238106803Y-44904718D01*
X238056581Y-44906641D01*
X238048185Y-44906672D01*
X238009839Y-44905450D01*
X237969050Y-44904718D01*
X237975308Y-44954691D01*
X237980041Y-45002171D01*
X237978913Y-45052133D01*
X237973203Y-45095716D01*
X237938521Y-45132546D01*
X237907257Y-45137481D01*
X237860062Y-45121835D01*
X237856210Y-45118430D01*
X237836202Y-45072136D01*
X237836182Y-45070314D01*
G37*
G36*
X237218736Y-45845053D02*
G01*
X237236991Y-45798927D01*
X237270516Y-45781061D01*
X237319242Y-45769681D01*
X237369923Y-45760722D01*
X237423366Y-45753067D01*
X237429762Y-45752240D01*
X237482602Y-45746337D01*
X237534743Y-45742044D01*
X237584107Y-45740076D01*
X237592184Y-45740028D01*
X237641714Y-45741531D01*
X237646161Y-45741738D01*
X237695395Y-45743421D01*
X237700139Y-45743448D01*
X237750103Y-45740362D01*
X237800192Y-45725250D01*
X237828241Y-45682934D01*
X237828367Y-45678967D01*
X237820615Y-45626155D01*
X237797359Y-45577015D01*
X237763174Y-45535930D01*
X237748988Y-45522896D01*
X237708172Y-45492877D01*
X237663902Y-45465585D01*
X237621375Y-45441525D01*
X237593893Y-45426665D01*
X237530558Y-45426321D01*
X237474031Y-45425291D01*
X237424313Y-45423573D01*
X237371738Y-45420461D01*
X237322691Y-45415309D01*
X237277843Y-45404683D01*
X237240482Y-45372263D01*
X237234368Y-45344843D01*
X237251112Y-45298189D01*
X237253419Y-45295506D01*
X237298367Y-45274278D01*
X237300069Y-45274257D01*
X237330111Y-45280363D01*
X237380741Y-45286158D01*
X237429762Y-45287935D01*
X237530879Y-45290133D01*
X238033286Y-45292087D01*
X238085002Y-45294868D01*
X238134408Y-45296800D01*
X238147348Y-45296972D01*
X238197540Y-45293262D01*
X238213293Y-45290377D01*
X238263400Y-45284098D01*
X238278018Y-45283783D01*
X238324216Y-45302349D01*
X238325401Y-45303566D01*
X238344134Y-45349061D01*
X238344207Y-45352659D01*
X238327871Y-45399370D01*
X238286322Y-45418605D01*
X238236425Y-45425563D01*
X238187378Y-45429089D01*
X238171039Y-45429351D01*
X238118374Y-45428699D01*
X238068650Y-45426954D01*
X238026936Y-45424711D01*
X237976718Y-45422433D01*
X237925808Y-45421310D01*
X237878925Y-45421291D01*
X237818597Y-45422024D01*
X237858035Y-45454359D01*
X237894786Y-45491692D01*
X237926617Y-45534466D01*
X237931437Y-45542436D01*
X237952852Y-45587521D01*
X237966075Y-45638812D01*
X237969050Y-45678723D01*
X237964425Y-45731281D01*
X237948164Y-45779716D01*
X237916365Y-45820255D01*
X237895045Y-45835283D01*
X237845849Y-45854322D01*
X237795834Y-45863778D01*
X237741936Y-45868713D01*
X237719434Y-45869721D01*
X237588520Y-45875339D01*
X237445638Y-45889016D01*
X237392812Y-45896085D01*
X237344489Y-45904192D01*
X237304466Y-45912464D01*
X237284682Y-45915150D01*
X237238728Y-45895667D01*
X237237543Y-45894390D01*
X237218810Y-45848623D01*
X237218736Y-45845053D01*
G37*
G36*
X237655687Y-46638598D02*
G01*
X237605157Y-46638738D01*
X237552730Y-46639045D01*
X237513538Y-46639330D01*
X237463980Y-46639685D01*
X237413589Y-46639960D01*
X237371388Y-46640063D01*
X237327180Y-46642261D01*
X237283217Y-46644704D01*
X237237950Y-46625908D01*
X237236810Y-46624676D01*
X237218754Y-46577864D01*
X237218736Y-46576071D01*
X237232879Y-46528656D01*
X237263433Y-46508660D01*
X237241827Y-46458351D01*
X237228557Y-46410128D01*
X237220875Y-46358608D01*
X237218736Y-46310824D01*
X237222553Y-46257653D01*
X237235566Y-46206108D01*
X237257815Y-46161836D01*
X237292044Y-46123236D01*
X237335624Y-46097104D01*
X237383356Y-46084166D01*
X237438120Y-46076497D01*
X237490976Y-46070127D01*
X237541923Y-46065057D01*
X237590963Y-46061288D01*
X237647291Y-46058480D01*
X237700872Y-46057544D01*
X237754695Y-46059167D01*
X237805944Y-46063334D01*
X237860399Y-46070066D01*
X237910676Y-46078060D01*
X237956224Y-46101209D01*
X237969050Y-46143273D01*
X237952950Y-46190099D01*
X237950732Y-46192610D01*
X237905384Y-46212619D01*
X237903593Y-46212638D01*
X237854133Y-46209108D01*
X237805408Y-46202624D01*
X237755917Y-46196299D01*
X237707133Y-46192893D01*
X237702581Y-46192854D01*
X237648879Y-46193328D01*
X237599145Y-46194747D01*
X237547938Y-46197476D01*
X237511584Y-46200426D01*
X237460705Y-46206497D01*
X237410101Y-46215905D01*
X237384089Y-46222896D01*
X237365771Y-46267593D01*
X237359420Y-46310824D01*
X237361700Y-46363430D01*
X237368539Y-46417659D01*
X237378446Y-46467225D01*
X237388241Y-46505241D01*
X237524773Y-46504753D01*
X237655198Y-46503287D01*
X237708264Y-46503742D01*
X237758650Y-46505107D01*
X237814049Y-46507851D01*
X237865801Y-46511833D01*
X237907257Y-46516232D01*
X237953602Y-46536687D01*
X237969050Y-46582910D01*
X237952736Y-46629736D01*
X237950488Y-46632247D01*
X237904570Y-46651054D01*
X237655687Y-46638598D01*
G37*
G36*
X237885565Y-46815532D02*
G01*
X237939378Y-46815745D01*
X237990956Y-46815990D01*
X238024249Y-46816162D01*
X238073165Y-46816411D01*
X238122375Y-46816637D01*
X238173213Y-46816823D01*
X238213293Y-46816895D01*
X238263572Y-46824258D01*
X238287055Y-46833992D01*
X238322737Y-46869064D01*
X238328576Y-46896518D01*
X238305297Y-46940806D01*
X238268981Y-46948053D01*
X238240893Y-46944634D01*
X238212805Y-46941214D01*
X238062840Y-46939261D01*
X237887962Y-46937795D01*
X237915519Y-46981816D01*
X237938939Y-47027567D01*
X237948778Y-47051368D01*
X237963329Y-47100523D01*
X237969031Y-47149761D01*
X237969050Y-47152729D01*
X237965066Y-47206184D01*
X237953114Y-47255723D01*
X237933193Y-47301347D01*
X237905303Y-47343055D01*
X237869445Y-47380848D01*
X237855722Y-47392575D01*
X237814071Y-47421959D01*
X237768985Y-47445263D01*
X237720465Y-47462488D01*
X237668510Y-47473633D01*
X237613120Y-47478699D01*
X237593893Y-47479037D01*
X237536841Y-47475482D01*
X237483103Y-47464818D01*
X237432679Y-47447043D01*
X237385570Y-47422159D01*
X237341775Y-47390165D01*
X237327913Y-47377921D01*
X237290810Y-47338350D01*
X237261384Y-47295294D01*
X237239633Y-47248752D01*
X237225560Y-47198723D01*
X237219163Y-47145208D01*
X237218736Y-47126595D01*
X237359420Y-47126595D01*
X237364714Y-47179808D01*
X237380595Y-47227342D01*
X237407063Y-47269196D01*
X237426343Y-47289993D01*
X237466732Y-47320927D01*
X237512338Y-47341736D01*
X237563161Y-47352423D01*
X237593649Y-47353985D01*
X237646191Y-47349908D01*
X237693632Y-47337679D01*
X237740363Y-47314528D01*
X237757292Y-47302450D01*
X237794773Y-47263900D01*
X237818372Y-47217861D01*
X237828089Y-47164333D01*
X237828367Y-47152729D01*
X237822570Y-47103014D01*
X237806805Y-47055845D01*
X237798080Y-47037446D01*
X237772203Y-46995175D01*
X237742149Y-46951308D01*
X237733112Y-46938528D01*
X237619295Y-46937062D01*
X237516713Y-46937795D01*
X237408757Y-46938528D01*
X237389995Y-46984123D01*
X237371877Y-47031340D01*
X237362157Y-47079390D01*
X237359420Y-47126595D01*
X237218736Y-47126595D01*
X237221774Y-47075273D01*
X237230887Y-47026333D01*
X237246076Y-46979774D01*
X237267341Y-46935597D01*
X237236429Y-46897266D01*
X237234368Y-46882108D01*
X237252442Y-46837656D01*
X237297871Y-46819582D01*
X237347988Y-46821186D01*
X237350139Y-46821291D01*
X237399202Y-46822986D01*
X237402651Y-46823001D01*
X237454849Y-46822619D01*
X237506704Y-46821764D01*
X237559441Y-46820616D01*
X237610114Y-46819333D01*
X237619050Y-46819093D01*
X237670648Y-46817848D01*
X237724441Y-46816721D01*
X237777477Y-46815862D01*
X237826375Y-46815444D01*
X237835694Y-46815429D01*
X237885565Y-46815532D01*
G37*
G36*
X237187473Y-47724257D02*
G01*
X237201487Y-47676813D01*
X237212386Y-47663685D01*
X237256075Y-47640558D01*
X237273447Y-47639016D01*
X237320799Y-47652892D01*
X237334019Y-47663685D01*
X237357833Y-47707099D01*
X237359420Y-47724257D01*
X237345132Y-47771243D01*
X237334019Y-47784341D01*
X237290513Y-47807925D01*
X237273447Y-47809498D01*
X237225545Y-47795347D01*
X237212386Y-47784341D01*
X237189030Y-47741201D01*
X237187473Y-47724257D01*
G37*
G36*
X237218736Y-48294564D02*
G01*
X237221639Y-48243365D01*
X237232361Y-48187799D01*
X237250984Y-48136722D01*
X237277508Y-48090133D01*
X237301290Y-48059602D01*
X237341866Y-48021059D01*
X237387724Y-47991983D01*
X237438865Y-47972373D01*
X237486904Y-47963099D01*
X237529902Y-47960684D01*
X237580944Y-47963947D01*
X237632587Y-47973736D01*
X237684831Y-47990051D01*
X237737676Y-48012891D01*
X237782173Y-48036910D01*
X237809071Y-48053496D01*
X237855159Y-48086344D01*
X237893435Y-48120468D01*
X237929056Y-48163100D01*
X237953427Y-48207571D01*
X237967644Y-48261775D01*
X237969050Y-48285771D01*
X237964482Y-48338413D01*
X237952269Y-48390651D01*
X237936566Y-48436225D01*
X237914523Y-48482173D01*
X237883707Y-48521147D01*
X237838225Y-48541147D01*
X237834473Y-48541249D01*
X237787920Y-48524975D01*
X237786601Y-48523908D01*
X237765840Y-48481410D01*
X237776831Y-48446727D01*
X237798569Y-48418395D01*
X237818938Y-48373055D01*
X237826941Y-48323590D01*
X237828367Y-48285771D01*
X237814917Y-48237752D01*
X237783907Y-48198722D01*
X237741225Y-48164222D01*
X237714549Y-48147041D01*
X237670254Y-48122678D01*
X237622894Y-48102162D01*
X237573774Y-48088423D01*
X237533810Y-48084515D01*
X237481210Y-48091817D01*
X237436922Y-48113722D01*
X237403872Y-48146309D01*
X237378564Y-48189833D01*
X237363761Y-48241150D01*
X237359420Y-48294564D01*
X237367428Y-48345475D01*
X237382135Y-48382492D01*
X237426099Y-48462115D01*
X237437578Y-48491668D01*
X237415840Y-48535632D01*
X237369744Y-48554122D01*
X237366259Y-48554194D01*
X237320111Y-48533952D01*
X237287949Y-48494706D01*
X237262700Y-48448437D01*
X237241448Y-48398742D01*
X237225992Y-48349416D01*
X237218779Y-48298411D01*
X237218736Y-48294564D01*
G37*
G36*
X237614265Y-48666158D02*
G01*
X237668418Y-48673785D01*
X237719961Y-48687475D01*
X237768893Y-48707228D01*
X237815216Y-48733042D01*
X237830076Y-48742994D01*
X237870113Y-48774845D01*
X237909199Y-48817961D01*
X237938514Y-48866418D01*
X237958057Y-48920217D01*
X237966879Y-48969128D01*
X237969050Y-49010928D01*
X237964645Y-49060067D01*
X237948372Y-49111492D01*
X237920106Y-49156558D01*
X237879850Y-49195267D01*
X237843754Y-49219023D01*
X237797445Y-49240902D01*
X237747209Y-49257171D01*
X237693046Y-49267830D01*
X237643496Y-49272501D01*
X237600000Y-49273245D01*
X237544593Y-49269851D01*
X237492311Y-49261132D01*
X237443156Y-49247090D01*
X237397125Y-49227724D01*
X237354221Y-49203035D01*
X237340614Y-49193622D01*
X237299194Y-49158640D01*
X237266345Y-49119639D01*
X237242064Y-49076620D01*
X237226354Y-49029582D01*
X237219212Y-48978526D01*
X237218743Y-48960859D01*
X237359420Y-48960859D01*
X237366667Y-49011566D01*
X237388409Y-49056709D01*
X237410956Y-49083713D01*
X237450564Y-49114830D01*
X237497948Y-49135214D01*
X237547242Y-49144382D01*
X237565073Y-49145506D01*
X237626622Y-49145399D01*
X237679989Y-49140194D01*
X237735192Y-49126517D01*
X237784559Y-49099589D01*
X237815517Y-49061190D01*
X237828065Y-49011319D01*
X237828367Y-49001891D01*
X237821049Y-48948686D01*
X237798545Y-48902552D01*
X237760856Y-48863489D01*
X237733356Y-48844843D01*
X237688497Y-48823237D01*
X237640199Y-48808702D01*
X237588463Y-48801238D01*
X237558234Y-48800147D01*
X237506306Y-48804436D01*
X237456675Y-48819262D01*
X237411889Y-48847803D01*
X237404849Y-48854369D01*
X237375436Y-48893860D01*
X237360529Y-48942159D01*
X237359420Y-48960859D01*
X237218743Y-48960859D01*
X237218736Y-48960614D01*
X237222804Y-48911709D01*
X237237412Y-48859567D01*
X237262646Y-48811425D01*
X237293440Y-48772581D01*
X237303733Y-48762045D01*
X237341380Y-48730415D01*
X237383612Y-48704949D01*
X237430429Y-48685649D01*
X237481832Y-48672515D01*
X237537820Y-48665545D01*
X237557501Y-48664592D01*
X237614265Y-48666158D01*
G37*
G36*
X237187473Y-50311277D02*
G01*
X237204362Y-50264566D01*
X237247313Y-50245332D01*
X237300669Y-50237570D01*
X237352044Y-50231396D01*
X237403334Y-50226018D01*
X237452003Y-50221427D01*
X237460537Y-50220663D01*
X237673761Y-50197216D01*
X237723554Y-50187261D01*
X237766573Y-50174013D01*
X237810927Y-50151119D01*
X237828367Y-50122966D01*
X237811766Y-50074041D01*
X237785868Y-50028200D01*
X237758723Y-49985129D01*
X237727675Y-49945984D01*
X237723098Y-49941738D01*
X237671542Y-49941949D01*
X237620067Y-49943772D01*
X237596336Y-49945157D01*
X237416085Y-49965918D01*
X237365145Y-49971581D01*
X237313348Y-49976018D01*
X237262639Y-49978547D01*
X237239986Y-49978863D01*
X237193560Y-49962119D01*
X237191137Y-49959812D01*
X237171861Y-49913288D01*
X237171842Y-49911452D01*
X237188586Y-49865270D01*
X237190893Y-49862847D01*
X237237660Y-49844059D01*
X237239497Y-49844041D01*
X237291096Y-49842708D01*
X237347246Y-49839284D01*
X237404315Y-49834561D01*
X237459130Y-49829229D01*
X237478611Y-49827188D01*
X237535248Y-49821544D01*
X237586459Y-49817067D01*
X237639346Y-49813321D01*
X237690744Y-49810985D01*
X237717969Y-49810579D01*
X237770359Y-49807193D01*
X237817986Y-49794872D01*
X237828367Y-49790063D01*
X237802313Y-49744511D01*
X237770183Y-49704685D01*
X237758513Y-49692366D01*
X237669853Y-49611277D01*
X237630827Y-49579077D01*
X237627599Y-49576106D01*
X237577712Y-49574213D01*
X237527715Y-49570309D01*
X237508653Y-49568535D01*
X237459571Y-49564224D01*
X237408176Y-49561229D01*
X237392637Y-49560963D01*
X237342855Y-49566379D01*
X237336217Y-49567558D01*
X237287148Y-49574094D01*
X237283949Y-49574152D01*
X237238727Y-49554440D01*
X237237543Y-49553147D01*
X237218810Y-49507538D01*
X237218736Y-49504055D01*
X237239603Y-49459835D01*
X237287716Y-49437308D01*
X237344452Y-49428282D01*
X237395324Y-49426385D01*
X237446493Y-49428278D01*
X237498173Y-49432182D01*
X237517934Y-49433957D01*
X237569395Y-49438268D01*
X237621033Y-49441166D01*
X237641032Y-49441529D01*
X237689970Y-49439667D01*
X237741253Y-49435733D01*
X237750209Y-49434934D01*
X237799783Y-49431064D01*
X237850280Y-49428683D01*
X237860118Y-49428584D01*
X237913075Y-49431048D01*
X237966640Y-49442001D01*
X238008489Y-49471368D01*
X238015945Y-49498681D01*
X237992476Y-49543566D01*
X237987369Y-49547774D01*
X237943314Y-49568937D01*
X237931193Y-49570000D01*
X237890648Y-49566581D01*
X237848883Y-49563161D01*
X237776587Y-49564627D01*
X237821152Y-49590206D01*
X237862950Y-49622367D01*
X237898202Y-49656942D01*
X237909455Y-49669651D01*
X237940882Y-49711001D01*
X237963231Y-49755331D01*
X237969050Y-49787865D01*
X237962776Y-49837522D01*
X237940719Y-49883352D01*
X237902781Y-49918555D01*
X237868667Y-49936120D01*
X237905237Y-49969218D01*
X237935424Y-50010090D01*
X237943893Y-50026002D01*
X237961091Y-50074635D01*
X237968436Y-50124984D01*
X237969050Y-50145681D01*
X237961265Y-50198422D01*
X237937909Y-50242096D01*
X237898983Y-50276702D01*
X237852150Y-50299544D01*
X237844487Y-50302240D01*
X237795059Y-50311704D01*
X237742005Y-50319084D01*
X237690373Y-50325562D01*
X237650314Y-50330328D01*
X237600062Y-50337950D01*
X237549697Y-50344892D01*
X237491617Y-50352371D01*
X237439597Y-50358741D01*
X237382639Y-50365453D01*
X237320742Y-50372510D01*
X237271079Y-50378027D01*
X237253907Y-50379910D01*
X237207013Y-50361347D01*
X237187550Y-50314936D01*
X237187473Y-50311277D01*
G37*
G36*
X237187473Y-50552345D02*
G01*
X237204570Y-50507649D01*
X237247069Y-50488353D01*
X237270516Y-50493238D01*
X237319865Y-50512273D01*
X237375559Y-50535947D01*
X237424683Y-50558227D01*
X237477867Y-50583475D01*
X237535111Y-50611693D01*
X237580709Y-50634805D01*
X237628591Y-50659587D01*
X237678757Y-50686039D01*
X237695987Y-50695227D01*
X237746965Y-50722242D01*
X237795667Y-50747600D01*
X237842093Y-50771301D01*
X237886244Y-50793344D01*
X237941573Y-50820157D01*
X237992856Y-50844024D01*
X238040095Y-50864945D01*
X238093454Y-50886953D01*
X238122435Y-50897949D01*
X238180046Y-50919736D01*
X238229902Y-50940157D01*
X238281317Y-50963762D01*
X238327021Y-50989270D01*
X238364420Y-51024952D01*
X238366189Y-51033992D01*
X238347871Y-51078444D01*
X238305861Y-51097739D01*
X238268004Y-51090168D01*
X238081158Y-51013231D01*
X238032148Y-50994630D01*
X237980373Y-50973263D01*
X237935116Y-50953346D01*
X237887938Y-50931508D01*
X237838840Y-50907751D01*
X237787822Y-50882073D01*
X237503524Y-50732352D01*
X237228018Y-50608032D01*
X237191433Y-50573735D01*
X237187473Y-50552345D01*
G37*
G36*
X238140997Y-51906427D02*
G01*
X238145638Y-51880293D01*
X238158507Y-51828116D01*
X238166411Y-51774406D01*
X238170597Y-51721749D01*
X238172156Y-51672410D01*
X238172260Y-51655101D01*
X238170368Y-51605825D01*
X238165606Y-51556398D01*
X238164689Y-51548856D01*
X238157126Y-51497024D01*
X238147641Y-51444886D01*
X238140997Y-51412568D01*
X237875261Y-51411347D01*
X237887443Y-51466214D01*
X237896632Y-51514771D01*
X237904051Y-51567926D01*
X237906524Y-51610649D01*
X237905547Y-51664001D01*
X237902616Y-51718299D01*
X237897732Y-51773544D01*
X237891854Y-51822659D01*
X237890893Y-51829735D01*
X237872192Y-51876017D01*
X237825152Y-51894152D01*
X237821284Y-51894215D01*
X237774130Y-51877766D01*
X237770237Y-51874187D01*
X237750287Y-51828506D01*
X237750209Y-51824850D01*
X237752682Y-51773373D01*
X237757544Y-51722065D01*
X237758025Y-51717628D01*
X237763085Y-51665566D01*
X237765810Y-51615246D01*
X237765840Y-51610649D01*
X237759246Y-51560263D01*
X237747522Y-51509765D01*
X237732455Y-51454486D01*
X237718946Y-51408660D01*
X237242428Y-51402310D01*
X237194929Y-51385351D01*
X237192358Y-51383015D01*
X237171922Y-51338064D01*
X237171842Y-51334411D01*
X237189444Y-51287799D01*
X237191870Y-51285318D01*
X237237579Y-51265855D01*
X237241207Y-51265778D01*
X237296213Y-51265959D01*
X237349267Y-51266384D01*
X237408879Y-51267061D01*
X237461292Y-51267782D01*
X237517903Y-51268663D01*
X237578712Y-51269705D01*
X237643719Y-51270907D01*
X237692868Y-51271824D01*
X237754726Y-51272906D01*
X237812386Y-51273828D01*
X237865849Y-51274589D01*
X237915113Y-51275190D01*
X237970791Y-51275716D01*
X238019909Y-51275991D01*
X238046231Y-51276037D01*
X238095519Y-51275559D01*
X238136357Y-51274815D01*
X238186206Y-51274114D01*
X238226482Y-51273838D01*
X238272910Y-51289284D01*
X238276796Y-51292645D01*
X238297233Y-51338026D01*
X238297313Y-51341738D01*
X238284856Y-51382282D01*
X238293357Y-51433864D01*
X238300835Y-51486692D01*
X238306350Y-51535422D01*
X238310368Y-51584195D01*
X238312713Y-51635192D01*
X238312944Y-51655101D01*
X238310798Y-51706650D01*
X238305195Y-51756878D01*
X238296115Y-51810738D01*
X238290963Y-51835841D01*
X238276717Y-51889612D01*
X238258262Y-51934892D01*
X238223323Y-51971682D01*
X238211339Y-51973838D01*
X238164200Y-51956009D01*
X238141201Y-51911885D01*
X238140997Y-51906427D01*
G37*
G36*
X237591686Y-52057771D02*
G01*
X237643317Y-52064103D01*
X237692122Y-52074658D01*
X237746956Y-52092896D01*
X237797721Y-52117213D01*
X237836915Y-52142122D01*
X237874981Y-52173052D01*
X237912144Y-52214245D01*
X237940017Y-52259886D01*
X237958598Y-52309974D01*
X237967889Y-52364511D01*
X237969050Y-52393448D01*
X237966623Y-52447853D01*
X237959342Y-52497007D01*
X237945348Y-52546028D01*
X237930216Y-52579561D01*
X237899093Y-52622419D01*
X237854996Y-52653588D01*
X237806743Y-52666835D01*
X237782693Y-52668221D01*
X237732272Y-52657299D01*
X237689191Y-52628097D01*
X237656175Y-52590552D01*
X237631224Y-52545859D01*
X237610050Y-52501526D01*
X237587854Y-52451868D01*
X237584856Y-52444983D01*
X237469574Y-52182666D01*
X237429556Y-52217084D01*
X237398406Y-52257629D01*
X237387020Y-52278409D01*
X237369150Y-52328148D01*
X237360741Y-52379571D01*
X237359420Y-52412010D01*
X237363695Y-52463545D01*
X237373462Y-52511532D01*
X237376517Y-52523385D01*
X237393049Y-52572293D01*
X237418681Y-52614755D01*
X237433426Y-52627676D01*
X237466628Y-52664771D01*
X237468841Y-52677990D01*
X237449790Y-52720733D01*
X237405338Y-52739784D01*
X237357591Y-52727786D01*
X237318331Y-52696473D01*
X237286385Y-52652322D01*
X237267829Y-52616930D01*
X237248700Y-52571155D01*
X237232592Y-52519528D01*
X237222620Y-52468634D01*
X237218784Y-52418473D01*
X237218736Y-52412254D01*
X237221467Y-52356080D01*
X237229659Y-52304062D01*
X237243311Y-52256200D01*
X237266142Y-52205614D01*
X237289496Y-52170942D01*
X237586810Y-52170942D01*
X237679867Y-52381724D01*
X237703647Y-52432701D01*
X237726049Y-52476853D01*
X237752824Y-52523590D01*
X237777320Y-52559044D01*
X237804239Y-52517475D01*
X237821188Y-52466652D01*
X237827918Y-52412998D01*
X237828367Y-52393448D01*
X237822475Y-52343831D01*
X237802385Y-52295589D01*
X237771750Y-52257493D01*
X237768039Y-52253985D01*
X237724523Y-52221947D01*
X237675163Y-52197844D01*
X237623177Y-52180183D01*
X237586810Y-52170942D01*
X237289496Y-52170942D01*
X237296406Y-52160684D01*
X237331067Y-52124992D01*
X237377626Y-52092685D01*
X237422781Y-52072993D01*
X237472778Y-52060685D01*
X237527618Y-52055762D01*
X237537229Y-52055660D01*
X237591686Y-52057771D01*
G37*
G36*
X237799302Y-53032631D02*
G01*
X237451256Y-53022373D01*
X237397703Y-53021486D01*
X237344933Y-53019597D01*
X237295470Y-53017330D01*
X237288834Y-53017000D01*
X237240916Y-53000731D01*
X237219010Y-52956950D01*
X237218736Y-52949589D01*
X237234407Y-52901203D01*
X237281419Y-52882441D01*
X237290055Y-52882177D01*
X237344452Y-52882776D01*
X237396057Y-52884070D01*
X237446764Y-52885756D01*
X237503447Y-52887974D01*
X237544556Y-52889749D01*
X237595598Y-52891930D01*
X237651354Y-52894060D01*
X237701117Y-52895657D01*
X237751598Y-52896847D01*
X237799302Y-52897321D01*
X237849227Y-52897484D01*
X237902191Y-52897975D01*
X237958194Y-52898793D01*
X238008614Y-52899755D01*
X238052337Y-52900740D01*
X238104619Y-52901902D01*
X238154667Y-52902824D01*
X238210236Y-52903595D01*
X238262766Y-52904039D01*
X238305373Y-52904159D01*
X238353291Y-52917062D01*
X238375197Y-52963407D01*
X238375471Y-52971570D01*
X238360068Y-53020307D01*
X238313861Y-53039205D01*
X238305373Y-53039470D01*
X238255448Y-53039306D01*
X238202484Y-53038815D01*
X238146481Y-53037997D01*
X238096060Y-53037036D01*
X238052337Y-53036050D01*
X238000056Y-53034888D01*
X237950007Y-53033967D01*
X237894439Y-53033195D01*
X237841909Y-53032751D01*
X237799302Y-53032631D01*
G37*
G36*
X238140997Y-53372373D02*
G01*
X238154541Y-53324597D01*
X238161514Y-53315220D01*
X238205963Y-53291495D01*
X238211339Y-53291284D01*
X238256999Y-53310942D01*
X238260921Y-53315220D01*
X238280951Y-53360317D01*
X238281681Y-53372373D01*
X238267976Y-53419827D01*
X238260921Y-53429037D01*
X238216714Y-53452521D01*
X238211339Y-53452729D01*
X238165479Y-53433271D01*
X238161514Y-53429037D01*
X238141498Y-53382450D01*
X238140997Y-53372373D01*
G37*
G36*
X237570690Y-53403392D02*
G01*
X237518483Y-53403941D01*
X237465624Y-53405075D01*
X237445394Y-53405590D01*
X237392873Y-53406980D01*
X237343453Y-53407880D01*
X237319853Y-53408032D01*
X237273301Y-53392787D01*
X237269539Y-53389470D01*
X237250076Y-53344361D01*
X237250000Y-53340621D01*
X237267173Y-53294683D01*
X237269539Y-53292261D01*
X237316050Y-53273528D01*
X237319853Y-53273455D01*
X237372243Y-53272844D01*
X237425160Y-53271585D01*
X237445394Y-53271012D01*
X237497886Y-53269622D01*
X237547197Y-53268722D01*
X237570690Y-53268570D01*
X237619698Y-53269378D01*
X237670913Y-53271515D01*
X237722431Y-53274580D01*
X237734577Y-53275408D01*
X237787237Y-53278832D01*
X237839721Y-53281323D01*
X237890125Y-53282464D01*
X237898464Y-53282492D01*
X237945742Y-53297937D01*
X237949511Y-53301298D01*
X237969031Y-53347837D01*
X237969050Y-53349658D01*
X237951877Y-53395626D01*
X237949511Y-53398018D01*
X237904267Y-53416902D01*
X237898464Y-53417069D01*
X237849456Y-53416261D01*
X237798241Y-53414124D01*
X237746724Y-53411059D01*
X237734577Y-53410231D01*
X237681917Y-53406925D01*
X237629434Y-53404520D01*
X237579030Y-53403418D01*
X237570690Y-53403392D01*
G37*
G36*
X237843021Y-54264104D02*
G01*
X237747034Y-54163964D01*
X237623203Y-54041598D01*
X237330111Y-54265813D01*
X237286880Y-54282910D01*
X237240786Y-54263427D01*
X237239497Y-54262150D01*
X237218757Y-54217127D01*
X237218736Y-54215499D01*
X237241062Y-54170791D01*
X237244138Y-54168116D01*
X237282811Y-54135847D01*
X237326323Y-54100877D01*
X237369889Y-54066579D01*
X237409525Y-54035766D01*
X237453413Y-54001954D01*
X237501552Y-53965142D01*
X237527215Y-53945611D01*
X237388485Y-53811522D01*
X237352185Y-53772452D01*
X237315100Y-53734060D01*
X237279696Y-53698126D01*
X237274912Y-53693308D01*
X237250218Y-53650658D01*
X237250000Y-53645925D01*
X237270516Y-53599763D01*
X237315023Y-53579570D01*
X237318387Y-53579491D01*
X237361863Y-53596588D01*
X237399725Y-53631064D01*
X237423168Y-53656427D01*
X237456810Y-53693765D01*
X237481053Y-53718953D01*
X237634926Y-53865255D01*
X237765108Y-53775129D01*
X237805611Y-53745711D01*
X237846089Y-53712695D01*
X237878925Y-53680363D01*
X237921448Y-53654867D01*
X237929972Y-53654229D01*
X237976139Y-53671402D01*
X237978820Y-53673769D01*
X238000314Y-53718709D01*
X237976969Y-53765789D01*
X237940550Y-53802744D01*
X237900604Y-53836001D01*
X237894068Y-53841075D01*
X237729204Y-53960021D01*
X237855966Y-54094599D01*
X237894297Y-54133098D01*
X237932128Y-54168307D01*
X237970756Y-54199692D01*
X237982728Y-54207928D01*
X238013869Y-54245572D01*
X238015945Y-54260196D01*
X237996920Y-54306046D01*
X237995673Y-54307335D01*
X237950436Y-54328075D01*
X237948778Y-54328095D01*
X237899711Y-54310035D01*
X237859366Y-54279102D01*
X237843021Y-54264104D01*
G37*
G36*
X237552632Y-54495936D02*
G01*
X237607888Y-54497894D01*
X237661520Y-54500522D01*
X237710635Y-54503380D01*
X237763768Y-54506847D01*
X237774877Y-54507614D01*
X237832716Y-54511590D01*
X237885330Y-54514970D01*
X237941573Y-54518238D01*
X237997683Y-54520966D01*
X238049271Y-54522653D01*
X238054780Y-54522757D01*
X238104756Y-54523321D01*
X238156293Y-54525371D01*
X238210149Y-54528393D01*
X238239916Y-54530328D01*
X238283903Y-54551941D01*
X238284612Y-54553043D01*
X238297008Y-54601296D01*
X238305861Y-54652755D01*
X238311174Y-54707420D01*
X238312917Y-54757881D01*
X238312944Y-54765290D01*
X238309052Y-54817716D01*
X238297377Y-54869208D01*
X238277917Y-54919764D01*
X238250674Y-54969385D01*
X238231612Y-54997321D01*
X238194978Y-55040981D01*
X238155236Y-55075608D01*
X238112386Y-55101202D01*
X238066427Y-55117763D01*
X238017360Y-55125290D01*
X238000314Y-55125792D01*
X237947694Y-55122441D01*
X237898676Y-55112388D01*
X237844609Y-55091476D01*
X237795728Y-55060913D01*
X237758955Y-55028072D01*
X237725785Y-54988528D01*
X237703681Y-55036812D01*
X237677354Y-55083358D01*
X237646289Y-55125423D01*
X237630041Y-55142645D01*
X237589352Y-55173901D01*
X237542326Y-55191482D01*
X237515736Y-55193936D01*
X237465299Y-55185135D01*
X237420843Y-55162163D01*
X237382074Y-55129774D01*
X237358199Y-55103810D01*
X237327182Y-55064135D01*
X237299345Y-55019115D01*
X237278087Y-54972652D01*
X237260989Y-54922245D01*
X237246789Y-54867651D01*
X237235487Y-54808872D01*
X237228532Y-54758835D01*
X237223431Y-54706118D01*
X237220185Y-54650723D01*
X237219717Y-54631201D01*
X237359420Y-54631201D01*
X237362235Y-54685825D01*
X237366862Y-54737193D01*
X237374808Y-54794538D01*
X237385363Y-54847194D01*
X237398530Y-54895162D01*
X237408757Y-54924536D01*
X237429873Y-54968679D01*
X237459791Y-55010889D01*
X237464445Y-55016371D01*
X237499517Y-55051448D01*
X237516468Y-55058381D01*
X237556349Y-55027383D01*
X237581956Y-54981101D01*
X237586810Y-54970454D01*
X237607178Y-54921476D01*
X237623218Y-54873459D01*
X237631507Y-54841982D01*
X237642986Y-54769198D01*
X237642095Y-54749414D01*
X237781472Y-54749414D01*
X237788448Y-54798843D01*
X237803340Y-54848830D01*
X237825688Y-54892867D01*
X237844731Y-54918919D01*
X237881233Y-54953158D01*
X237928135Y-54978059D01*
X237976057Y-54988642D01*
X237999092Y-54989749D01*
X238049513Y-54977817D01*
X238089722Y-54949083D01*
X238117550Y-54917453D01*
X238143997Y-54876267D01*
X238163231Y-54828964D01*
X238171780Y-54780039D01*
X238172260Y-54765046D01*
X238171608Y-54715243D01*
X238168449Y-54666091D01*
X238167620Y-54660021D01*
X238049651Y-54658556D01*
X237788799Y-54644878D01*
X237784725Y-54696961D01*
X237781480Y-54746231D01*
X237781472Y-54749414D01*
X237642095Y-54749414D01*
X237641765Y-54742087D01*
X237640788Y-54714243D01*
X237643523Y-54663518D01*
X237647138Y-54635353D01*
X237596286Y-54633163D01*
X237544536Y-54631691D01*
X237497173Y-54631201D01*
X237359420Y-54631201D01*
X237219717Y-54631201D01*
X237218794Y-54592649D01*
X237218736Y-54577711D01*
X237236795Y-54531622D01*
X237246092Y-54521535D01*
X237289878Y-54496420D01*
X237302512Y-54495157D01*
X237499127Y-54495157D01*
X237552632Y-54495936D01*
G37*
G36*
X237771946Y-55876106D02*
G01*
X237723972Y-55865793D01*
X237690645Y-55829310D01*
X237687683Y-55807474D01*
X237706639Y-55761355D01*
X237754849Y-55748367D01*
X237802477Y-55746169D01*
X237859630Y-55744215D01*
X237850959Y-55692680D01*
X237835950Y-55641126D01*
X237815376Y-55596372D01*
X237798569Y-55570314D01*
X237762501Y-55530759D01*
X237720445Y-55499008D01*
X237675050Y-55473857D01*
X237663991Y-55468709D01*
X237288101Y-55470175D01*
X237240684Y-55457178D01*
X237219007Y-55410497D01*
X237218736Y-55402275D01*
X237238175Y-55355012D01*
X237287613Y-55341703D01*
X237765352Y-55341703D01*
X237816700Y-55342832D01*
X237832763Y-55343413D01*
X237882070Y-55344920D01*
X237900174Y-55345122D01*
X237949612Y-55358432D01*
X237969050Y-55405695D01*
X237948340Y-55451750D01*
X237903011Y-55470095D01*
X237860851Y-55473594D01*
X237896525Y-55515514D01*
X237926152Y-55558841D01*
X237949734Y-55603575D01*
X237967268Y-55649716D01*
X237978756Y-55697265D01*
X237984198Y-55746221D01*
X237984682Y-55766197D01*
X237974363Y-55814801D01*
X237943405Y-55849240D01*
X237895706Y-55869050D01*
X237844255Y-55876165D01*
X237819330Y-55876839D01*
X237771946Y-55876106D01*
G37*
G36*
X237003722Y-55971320D02*
G01*
X237022609Y-56018011D01*
X237016953Y-56067515D01*
X237010642Y-56100321D01*
X237002976Y-56149211D01*
X236999908Y-56197989D01*
X236999895Y-56228060D01*
X237006840Y-56281859D01*
X237025754Y-56327851D01*
X237056635Y-56366035D01*
X237099485Y-56396412D01*
X237129344Y-56410265D01*
X237177551Y-56424813D01*
X237229099Y-56434362D01*
X237280241Y-56440184D01*
X237337806Y-56443824D01*
X237390683Y-56445192D01*
X237345651Y-56420606D01*
X237304931Y-56390365D01*
X237273447Y-56356776D01*
X237248145Y-56312842D01*
X237235742Y-56263990D01*
X237234604Y-56243936D01*
X237375052Y-56243936D01*
X237385115Y-56295410D01*
X237412021Y-56341629D01*
X237446615Y-56378758D01*
X237487712Y-56410715D01*
X237532643Y-56434352D01*
X237577285Y-56445925D01*
X237627130Y-56455146D01*
X237677895Y-56462832D01*
X237730253Y-56469783D01*
X237781029Y-56475908D01*
X237790020Y-56476944D01*
X237814290Y-56432627D01*
X237818841Y-56419791D01*
X237828032Y-56370477D01*
X237828367Y-56358730D01*
X237824428Y-56304402D01*
X237812612Y-56255754D01*
X237789462Y-56207112D01*
X237756024Y-56165888D01*
X237746057Y-56156741D01*
X237701241Y-56125808D01*
X237656052Y-56106810D01*
X237605826Y-56095812D01*
X237557745Y-56092750D01*
X237505219Y-56096447D01*
X237457633Y-56109054D01*
X237420725Y-56130607D01*
X237389503Y-56170932D01*
X237376167Y-56221270D01*
X237375052Y-56243936D01*
X237234604Y-56243936D01*
X237234368Y-56239784D01*
X237238505Y-56187615D01*
X237250917Y-56139887D01*
X237275235Y-56090779D01*
X237310360Y-56047471D01*
X237320830Y-56037551D01*
X237361123Y-56007192D01*
X237406348Y-55984290D01*
X237456506Y-55968844D01*
X237511595Y-55960855D01*
X237545289Y-55959637D01*
X237602576Y-55962237D01*
X237656286Y-55970037D01*
X237706418Y-55983036D01*
X237752972Y-56001235D01*
X237795948Y-56024634D01*
X237842797Y-56059576D01*
X237850104Y-56066127D01*
X237884371Y-56102418D01*
X237912830Y-56142596D01*
X237935481Y-56186663D01*
X237952324Y-56234617D01*
X237963359Y-56286459D01*
X237968586Y-56342188D01*
X237969050Y-56365569D01*
X237965825Y-56417588D01*
X237954238Y-56467307D01*
X237952198Y-56472792D01*
X237926448Y-56516896D01*
X237901884Y-56538737D01*
X237887236Y-56586337D01*
X237842249Y-56610459D01*
X237818841Y-56612254D01*
X237769006Y-56609496D01*
X237716021Y-56602741D01*
X237685973Y-56597844D01*
X237636574Y-56589957D01*
X237585855Y-56582687D01*
X237554570Y-56579281D01*
X237319853Y-56563406D01*
X237269174Y-56561153D01*
X237214608Y-56556767D01*
X237164950Y-56550488D01*
X237114208Y-56540993D01*
X237091242Y-56535318D01*
X237044512Y-56519982D01*
X236998091Y-56498134D01*
X236954771Y-56468044D01*
X236924180Y-56436399D01*
X236895756Y-56390543D01*
X236877547Y-56342905D01*
X236865556Y-56288255D01*
X236860226Y-56235830D01*
X236859211Y-56198018D01*
X236860332Y-56148954D01*
X236864205Y-56099877D01*
X236872505Y-56048540D01*
X236873377Y-56044634D01*
X236892029Y-55995408D01*
X236930377Y-55962309D01*
X236955687Y-55958172D01*
X237003722Y-55971320D01*
G37*
G36*
X237187473Y-57628793D02*
G01*
X237204362Y-57582082D01*
X237247313Y-57562847D01*
X237300669Y-57555086D01*
X237352044Y-57548911D01*
X237403334Y-57543533D01*
X237452003Y-57538942D01*
X237460537Y-57538179D01*
X237673761Y-57514732D01*
X237723554Y-57504777D01*
X237766573Y-57491529D01*
X237810927Y-57468634D01*
X237828367Y-57440482D01*
X237811766Y-57391557D01*
X237785868Y-57345716D01*
X237758723Y-57302645D01*
X237727675Y-57263500D01*
X237723098Y-57259254D01*
X237671542Y-57259464D01*
X237620067Y-57261288D01*
X237596336Y-57262673D01*
X237416085Y-57283434D01*
X237365145Y-57289097D01*
X237313348Y-57293534D01*
X237262639Y-57296062D01*
X237239986Y-57296378D01*
X237193560Y-57279634D01*
X237191137Y-57277328D01*
X237171861Y-57230804D01*
X237171842Y-57228967D01*
X237188586Y-57182786D01*
X237190893Y-57180363D01*
X237237660Y-57161575D01*
X237239497Y-57161556D01*
X237291096Y-57160223D01*
X237347246Y-57156800D01*
X237404315Y-57152077D01*
X237459130Y-57146744D01*
X237478611Y-57144704D01*
X237535248Y-57139059D01*
X237586459Y-57134583D01*
X237639346Y-57130836D01*
X237690744Y-57128501D01*
X237717969Y-57128095D01*
X237770359Y-57124709D01*
X237817986Y-57112387D01*
X237828367Y-57107579D01*
X237802313Y-57062027D01*
X237770183Y-57022201D01*
X237758513Y-57009882D01*
X237669853Y-56928793D01*
X237630827Y-56896593D01*
X237627599Y-56893622D01*
X237577712Y-56891729D01*
X237527715Y-56887825D01*
X237508653Y-56886050D01*
X237459571Y-56881740D01*
X237408176Y-56878745D01*
X237392637Y-56878479D01*
X237342855Y-56883895D01*
X237336217Y-56885074D01*
X237287148Y-56891610D01*
X237283949Y-56891668D01*
X237238727Y-56871955D01*
X237237543Y-56870663D01*
X237218810Y-56825054D01*
X237218736Y-56821570D01*
X237239603Y-56777350D01*
X237287716Y-56754823D01*
X237344452Y-56745797D01*
X237395324Y-56743901D01*
X237446493Y-56745794D01*
X237498173Y-56749698D01*
X237517934Y-56751473D01*
X237569395Y-56755783D01*
X237621033Y-56758682D01*
X237641032Y-56759044D01*
X237689970Y-56757183D01*
X237741253Y-56753248D01*
X237750209Y-56752450D01*
X237799783Y-56748580D01*
X237850280Y-56746199D01*
X237860118Y-56746099D01*
X237913075Y-56748564D01*
X237966640Y-56759516D01*
X238008489Y-56788884D01*
X238015945Y-56816197D01*
X237992476Y-56861082D01*
X237987369Y-56865290D01*
X237943314Y-56886452D01*
X237931193Y-56887516D01*
X237890648Y-56884097D01*
X237848883Y-56880677D01*
X237776587Y-56882143D01*
X237821152Y-56907721D01*
X237862950Y-56939883D01*
X237898202Y-56974457D01*
X237909455Y-56987167D01*
X237940882Y-57028517D01*
X237963231Y-57072847D01*
X237969050Y-57105381D01*
X237962776Y-57155038D01*
X237940719Y-57200867D01*
X237902781Y-57236071D01*
X237868667Y-57253636D01*
X237905237Y-57286733D01*
X237935424Y-57327606D01*
X237943893Y-57343517D01*
X237961091Y-57392150D01*
X237968436Y-57442500D01*
X237969050Y-57463196D01*
X237961265Y-57515938D01*
X237937909Y-57559611D01*
X237898983Y-57594217D01*
X237852150Y-57617060D01*
X237844487Y-57619756D01*
X237795059Y-57629219D01*
X237742005Y-57636600D01*
X237690373Y-57643077D01*
X237650314Y-57647844D01*
X237600062Y-57655466D01*
X237549697Y-57662408D01*
X237491617Y-57669887D01*
X237439597Y-57676256D01*
X237382639Y-57682969D01*
X237320742Y-57690025D01*
X237271079Y-57695543D01*
X237253907Y-57697425D01*
X237207013Y-57678863D01*
X237187550Y-57632452D01*
X237187473Y-57628793D01*
G37*
G36*
X237187473Y-57869861D02*
G01*
X237204570Y-57825164D01*
X237247069Y-57805869D01*
X237270516Y-57810754D01*
X237319865Y-57829789D01*
X237375559Y-57853463D01*
X237424683Y-57875743D01*
X237477867Y-57900991D01*
X237535111Y-57929209D01*
X237580709Y-57952321D01*
X237628591Y-57977102D01*
X237678757Y-58003554D01*
X237695987Y-58012743D01*
X237746965Y-58039758D01*
X237795667Y-58065116D01*
X237842093Y-58088816D01*
X237886244Y-58110860D01*
X237941573Y-58137673D01*
X237992856Y-58161540D01*
X238040095Y-58182461D01*
X238093454Y-58204469D01*
X238122435Y-58215464D01*
X238180046Y-58237252D01*
X238229902Y-58257673D01*
X238281317Y-58281277D01*
X238327021Y-58306786D01*
X238364420Y-58342468D01*
X238366189Y-58351508D01*
X238347871Y-58395960D01*
X238305861Y-58415255D01*
X238268004Y-58407683D01*
X238081158Y-58330747D01*
X238032148Y-58312145D01*
X237980373Y-58290779D01*
X237935116Y-58270861D01*
X237887938Y-58249024D01*
X237838840Y-58225266D01*
X237787822Y-58199589D01*
X237503524Y-58049868D01*
X237228018Y-57925548D01*
X237191433Y-57891251D01*
X237187473Y-57869861D01*
G37*
G36*
X237003722Y-58517308D02*
G01*
X237022609Y-58563999D01*
X237016953Y-58613503D01*
X237010642Y-58646309D01*
X237002976Y-58695198D01*
X236999908Y-58743976D01*
X236999895Y-58774048D01*
X237006840Y-58827846D01*
X237025754Y-58873838D01*
X237056635Y-58912022D01*
X237099485Y-58942400D01*
X237129344Y-58956253D01*
X237177551Y-58970801D01*
X237229099Y-58980349D01*
X237280241Y-58986171D01*
X237337806Y-58989812D01*
X237390683Y-58991180D01*
X237345651Y-58966593D01*
X237304931Y-58936352D01*
X237273447Y-58902764D01*
X237248145Y-58858829D01*
X237235742Y-58809977D01*
X237234604Y-58789923D01*
X237375052Y-58789923D01*
X237385115Y-58841398D01*
X237412021Y-58887617D01*
X237446615Y-58924746D01*
X237487712Y-58956702D01*
X237532643Y-58980339D01*
X237577285Y-58991912D01*
X237627130Y-59001133D01*
X237677895Y-59008819D01*
X237730253Y-59015770D01*
X237781029Y-59021895D01*
X237790020Y-59022931D01*
X237814290Y-58978614D01*
X237818841Y-58965778D01*
X237828032Y-58916464D01*
X237828367Y-58904718D01*
X237824428Y-58850390D01*
X237812612Y-58801742D01*
X237789462Y-58753099D01*
X237756024Y-58711875D01*
X237746057Y-58702729D01*
X237701241Y-58671795D01*
X237656052Y-58652798D01*
X237605826Y-58641799D01*
X237557745Y-58638737D01*
X237505219Y-58642434D01*
X237457633Y-58655041D01*
X237420725Y-58676595D01*
X237389503Y-58716920D01*
X237376167Y-58767257D01*
X237375052Y-58789923D01*
X237234604Y-58789923D01*
X237234368Y-58785771D01*
X237238505Y-58733602D01*
X237250917Y-58685874D01*
X237275235Y-58636766D01*
X237310360Y-58593459D01*
X237320830Y-58583538D01*
X237361123Y-58553179D01*
X237406348Y-58530277D01*
X237456506Y-58514831D01*
X237511595Y-58506842D01*
X237545289Y-58505625D01*
X237602576Y-58508225D01*
X237656286Y-58516024D01*
X237706418Y-58529023D01*
X237752972Y-58547222D01*
X237795948Y-58570621D01*
X237842797Y-58605563D01*
X237850104Y-58612115D01*
X237884371Y-58648405D01*
X237912830Y-58688584D01*
X237935481Y-58732650D01*
X237952324Y-58780604D01*
X237963359Y-58832446D01*
X237968586Y-58888176D01*
X237969050Y-58911556D01*
X237965825Y-58963575D01*
X237954238Y-59013294D01*
X237952198Y-59018779D01*
X237926448Y-59062883D01*
X237901884Y-59084725D01*
X237887236Y-59132324D01*
X237842249Y-59156447D01*
X237818841Y-59158242D01*
X237769006Y-59155483D01*
X237716021Y-59148729D01*
X237685973Y-59143831D01*
X237636574Y-59135945D01*
X237585855Y-59128674D01*
X237554570Y-59125269D01*
X237319853Y-59109393D01*
X237269174Y-59107141D01*
X237214608Y-59102754D01*
X237164950Y-59096475D01*
X237114208Y-59086980D01*
X237091242Y-59081305D01*
X237044512Y-59065970D01*
X236998091Y-59044121D01*
X236954771Y-59014032D01*
X236924180Y-58982387D01*
X236895756Y-58936530D01*
X236877547Y-58888892D01*
X236865556Y-58834242D01*
X236860226Y-58781818D01*
X236859211Y-58744006D01*
X236860332Y-58694942D01*
X236864205Y-58645864D01*
X236872505Y-58594527D01*
X236873377Y-58590621D01*
X236892029Y-58541395D01*
X236930377Y-58508297D01*
X236955687Y-58504159D01*
X237003722Y-58517308D01*
G37*
G36*
X237614265Y-59265320D02*
G01*
X237668418Y-59272948D01*
X237719961Y-59286638D01*
X237768893Y-59306390D01*
X237815216Y-59332205D01*
X237830076Y-59342157D01*
X237870113Y-59374007D01*
X237909199Y-59417124D01*
X237938514Y-59465581D01*
X237958057Y-59519379D01*
X237966879Y-59568291D01*
X237969050Y-59610091D01*
X237964645Y-59659230D01*
X237948372Y-59710654D01*
X237920106Y-59755721D01*
X237879850Y-59794429D01*
X237843754Y-59818186D01*
X237797445Y-59840065D01*
X237747209Y-59856334D01*
X237693046Y-59866992D01*
X237643496Y-59871664D01*
X237600000Y-59872408D01*
X237544593Y-59869013D01*
X237492311Y-59860295D01*
X237443156Y-59846253D01*
X237397125Y-59826887D01*
X237354221Y-59802198D01*
X237340614Y-59792785D01*
X237299194Y-59757803D01*
X237266345Y-59718802D01*
X237242064Y-59675783D01*
X237226354Y-59628745D01*
X237219212Y-59577689D01*
X237218742Y-59560021D01*
X237359420Y-59560021D01*
X237366667Y-59610728D01*
X237388409Y-59655871D01*
X237410956Y-59682875D01*
X237450564Y-59713992D01*
X237497948Y-59734376D01*
X237547242Y-59743545D01*
X237565073Y-59744669D01*
X237626622Y-59744562D01*
X237679989Y-59739356D01*
X237735192Y-59725680D01*
X237784559Y-59698752D01*
X237815517Y-59660353D01*
X237828065Y-59610481D01*
X237828367Y-59601054D01*
X237821049Y-59547849D01*
X237798545Y-59501715D01*
X237760856Y-59462652D01*
X237733356Y-59444006D01*
X237688497Y-59422400D01*
X237640199Y-59407865D01*
X237588463Y-59400401D01*
X237558234Y-59399309D01*
X237506306Y-59403598D01*
X237456675Y-59418425D01*
X237411889Y-59446965D01*
X237404849Y-59453531D01*
X237375436Y-59493022D01*
X237360529Y-59541321D01*
X237359420Y-59560021D01*
X237218742Y-59560021D01*
X237218736Y-59559777D01*
X237222804Y-59510872D01*
X237237412Y-59458730D01*
X237262646Y-59410587D01*
X237293440Y-59371743D01*
X237303733Y-59361208D01*
X237341380Y-59329577D01*
X237383612Y-59304112D01*
X237430429Y-59284812D01*
X237481832Y-59271677D01*
X237537820Y-59264708D01*
X237557501Y-59263755D01*
X237614265Y-59265320D01*
G37*
G36*
X237614265Y-60000980D02*
G01*
X237668418Y-60008608D01*
X237719961Y-60022298D01*
X237768893Y-60042050D01*
X237815216Y-60067864D01*
X237830076Y-60077816D01*
X237870113Y-60109667D01*
X237909199Y-60152783D01*
X237938514Y-60201240D01*
X237958057Y-60255039D01*
X237966879Y-60303951D01*
X237969050Y-60345750D01*
X237964645Y-60394889D01*
X237948372Y-60446314D01*
X237920106Y-60491380D01*
X237879850Y-60530089D01*
X237843754Y-60553845D01*
X237797445Y-60575724D01*
X237747209Y-60591993D01*
X237693046Y-60602652D01*
X237643496Y-60607323D01*
X237600000Y-60608067D01*
X237544593Y-60604673D01*
X237492311Y-60595954D01*
X237443156Y-60581912D01*
X237397125Y-60562546D01*
X237354221Y-60537857D01*
X237340614Y-60528444D01*
X237299194Y-60493462D01*
X237266345Y-60454461D01*
X237242064Y-60411442D01*
X237226354Y-60364404D01*
X237219212Y-60313348D01*
X237218743Y-60295681D01*
X237359420Y-60295681D01*
X237366667Y-60346388D01*
X237388409Y-60391531D01*
X237410956Y-60418535D01*
X237450564Y-60449652D01*
X237497948Y-60470036D01*
X237547242Y-60479204D01*
X237565073Y-60480328D01*
X237626622Y-60480221D01*
X237679989Y-60475016D01*
X237735192Y-60461339D01*
X237784559Y-60434412D01*
X237815517Y-60396012D01*
X237828065Y-60346141D01*
X237828367Y-60336713D01*
X237821049Y-60283508D01*
X237798545Y-60237374D01*
X237760856Y-60198311D01*
X237733356Y-60179665D01*
X237688497Y-60158059D01*
X237640199Y-60143524D01*
X237588463Y-60136060D01*
X237558234Y-60134969D01*
X237506306Y-60139258D01*
X237456675Y-60154084D01*
X237411889Y-60182625D01*
X237404849Y-60189191D01*
X237375436Y-60228682D01*
X237360529Y-60276981D01*
X237359420Y-60295681D01*
X237218743Y-60295681D01*
X237218736Y-60295436D01*
X237222804Y-60246531D01*
X237237412Y-60194389D01*
X237262646Y-60146247D01*
X237293440Y-60107403D01*
X237303733Y-60096867D01*
X237341380Y-60065237D01*
X237383612Y-60039771D01*
X237430429Y-60020471D01*
X237481832Y-60007337D01*
X237537820Y-60000367D01*
X237557501Y-59999414D01*
X237614265Y-60000980D01*
G37*
G36*
X237781472Y-61237481D02*
G01*
X237799853Y-61190958D01*
X237809316Y-61184480D01*
X237859457Y-61171122D01*
X237890893Y-61166651D01*
X237876707Y-61115588D01*
X237860802Y-61063801D01*
X237844953Y-61014540D01*
X237842777Y-61007893D01*
X237819497Y-60959441D01*
X237786749Y-60918197D01*
X237742098Y-60897039D01*
X237734089Y-60896518D01*
X237723098Y-60937062D01*
X237711726Y-60993471D01*
X237698861Y-61044178D01*
X237681962Y-61096130D01*
X237660160Y-61146002D01*
X237645184Y-61172024D01*
X237610351Y-61215706D01*
X237569323Y-61248660D01*
X237522101Y-61270884D01*
X237468685Y-61282380D01*
X237435380Y-61284131D01*
X237382639Y-61278071D01*
X237336767Y-61259890D01*
X237297764Y-61229589D01*
X237265631Y-61187167D01*
X237242962Y-61138605D01*
X237229040Y-61089795D01*
X237220980Y-61035672D01*
X237218736Y-60983957D01*
X237221093Y-60933918D01*
X237228165Y-60885193D01*
X237239950Y-60837782D01*
X237248534Y-60812010D01*
X237269340Y-60765741D01*
X237300629Y-60726495D01*
X237345921Y-60706666D01*
X237354291Y-60706253D01*
X237400401Y-60726424D01*
X237401674Y-60727746D01*
X237421867Y-60773656D01*
X237421946Y-60777083D01*
X237400211Y-60821809D01*
X237391416Y-60832038D01*
X237372182Y-60879803D01*
X237366992Y-60906044D01*
X237360670Y-60955694D01*
X237359420Y-60983713D01*
X237362426Y-61034746D01*
X237373098Y-61085318D01*
X237395064Y-61129062D01*
X237436357Y-61149309D01*
X237484185Y-61138993D01*
X237522429Y-61108042D01*
X237548380Y-61063208D01*
X237562875Y-61018884D01*
X237578262Y-60947321D01*
X237590965Y-60895405D01*
X237607910Y-60846770D01*
X237623447Y-60817628D01*
X237660057Y-60781572D01*
X237709164Y-60763898D01*
X237736043Y-60761940D01*
X237785359Y-60766697D01*
X237835818Y-60784272D01*
X237878658Y-60814796D01*
X237913877Y-60858270D01*
X237934368Y-60897251D01*
X237952815Y-60946789D01*
X237968253Y-60996896D01*
X237977355Y-61029142D01*
X237990769Y-61076154D01*
X238006792Y-61126094D01*
X238019609Y-61159079D01*
X238031156Y-61207947D01*
X238031577Y-61220140D01*
X238015047Y-61266107D01*
X238012770Y-61268500D01*
X237967418Y-61287476D01*
X237963677Y-61287551D01*
X237913418Y-61294572D01*
X237906524Y-61296099D01*
X237857334Y-61304347D01*
X237849371Y-61304648D01*
X237802674Y-61287904D01*
X237800279Y-61285597D01*
X237781490Y-61239303D01*
X237781472Y-61237481D01*
G37*
G36*
X236351577Y-42896553D02*
G01*
X236371135Y-42850185D01*
X236401646Y-42830607D01*
X236444602Y-42805461D01*
X236453670Y-42794948D01*
X236460647Y-42746343D01*
X236460997Y-42723384D01*
X236451182Y-42672292D01*
X236426490Y-42625307D01*
X236393362Y-42583341D01*
X236357321Y-42547176D01*
X236313611Y-42509925D01*
X236303949Y-42502345D01*
X236264621Y-42472882D01*
X236212784Y-42438106D01*
X236161634Y-42408482D01*
X236111172Y-42384010D01*
X236061396Y-42364690D01*
X236012307Y-42350522D01*
X235963905Y-42341506D01*
X235904368Y-42337481D01*
X235855014Y-42341982D01*
X235804935Y-42357543D01*
X235759864Y-42384219D01*
X235747320Y-42394389D01*
X235711513Y-42433234D01*
X235688969Y-42476802D01*
X235679686Y-42525093D01*
X235679420Y-42535317D01*
X235684332Y-42588394D01*
X235697463Y-42637290D01*
X235714347Y-42677467D01*
X235738997Y-42720436D01*
X235768664Y-42765611D01*
X235792260Y-42799588D01*
X235816814Y-42842675D01*
X235820104Y-42858695D01*
X235802051Y-42904237D01*
X235798122Y-42908032D01*
X235752856Y-42927982D01*
X235749518Y-42928060D01*
X235703627Y-42909455D01*
X235696273Y-42901926D01*
X235659350Y-42856550D01*
X235627351Y-42811037D01*
X235600274Y-42765386D01*
X235578121Y-42719599D01*
X235560890Y-42673673D01*
X235546275Y-42616074D01*
X235539352Y-42558259D01*
X235538736Y-42535073D01*
X235542661Y-42483313D01*
X235554433Y-42434644D01*
X235574053Y-42389066D01*
X235601522Y-42346579D01*
X235636839Y-42307183D01*
X235650355Y-42294738D01*
X235692221Y-42262532D01*
X235736852Y-42236990D01*
X235784247Y-42218111D01*
X235834408Y-42205895D01*
X235887333Y-42200342D01*
X235905589Y-42199972D01*
X235965249Y-42203021D01*
X236025283Y-42212169D01*
X236085692Y-42227415D01*
X236146474Y-42248759D01*
X236192306Y-42268770D01*
X236238348Y-42292211D01*
X236284601Y-42319082D01*
X236331064Y-42349384D01*
X236377738Y-42383116D01*
X236393342Y-42395122D01*
X236442172Y-42435834D01*
X236484491Y-42476638D01*
X236520299Y-42517533D01*
X236549596Y-42558520D01*
X236577063Y-42609883D01*
X236594357Y-42661389D01*
X236601478Y-42713037D01*
X236601681Y-42723384D01*
X236599585Y-42773480D01*
X236598506Y-42783712D01*
X236588736Y-42831095D01*
X236615052Y-42873172D01*
X236617313Y-42893622D01*
X236593747Y-42939207D01*
X236556985Y-42953461D01*
X236505293Y-42960974D01*
X236453544Y-42964066D01*
X236425094Y-42964452D01*
X236377466Y-42949309D01*
X236352209Y-42906857D01*
X236351577Y-42896553D01*
G37*
G36*
X236091946Y-43611207D02*
G01*
X236043972Y-43600893D01*
X236010645Y-43564411D01*
X236007683Y-43542575D01*
X236026639Y-43496455D01*
X236074849Y-43483468D01*
X236122477Y-43481270D01*
X236179630Y-43479316D01*
X236170959Y-43427781D01*
X236155950Y-43376226D01*
X236135376Y-43331473D01*
X236118569Y-43305415D01*
X236082501Y-43265860D01*
X236040445Y-43234109D01*
X235995050Y-43208958D01*
X235983991Y-43203810D01*
X235608101Y-43205275D01*
X235560684Y-43192279D01*
X235539007Y-43145598D01*
X235538736Y-43137376D01*
X235558175Y-43090113D01*
X235607613Y-43076804D01*
X236085352Y-43076804D01*
X236136700Y-43077932D01*
X236152763Y-43078513D01*
X236202070Y-43080021D01*
X236220174Y-43080223D01*
X236269612Y-43093532D01*
X236289050Y-43140795D01*
X236268340Y-43186850D01*
X236223011Y-43205195D01*
X236180851Y-43208695D01*
X236216525Y-43250615D01*
X236246152Y-43293941D01*
X236269734Y-43338676D01*
X236287268Y-43384817D01*
X236298756Y-43432366D01*
X236304198Y-43481321D01*
X236304682Y-43501298D01*
X236294363Y-43549902D01*
X236263405Y-43584340D01*
X236215706Y-43604151D01*
X236164255Y-43611266D01*
X236139330Y-43611940D01*
X236091946Y-43611207D01*
G37*
G36*
X235911686Y-43715412D02*
G01*
X235963317Y-43721744D01*
X236012122Y-43732299D01*
X236066956Y-43750537D01*
X236117721Y-43774854D01*
X236156915Y-43799763D01*
X236194981Y-43830692D01*
X236232144Y-43871886D01*
X236260017Y-43917527D01*
X236278598Y-43967615D01*
X236287889Y-44022152D01*
X236289050Y-44051088D01*
X236286623Y-44105494D01*
X236279342Y-44154647D01*
X236265348Y-44203669D01*
X236250216Y-44237202D01*
X236219093Y-44280060D01*
X236174996Y-44311229D01*
X236126743Y-44324476D01*
X236102693Y-44325862D01*
X236052272Y-44314939D01*
X236009191Y-44285738D01*
X235976175Y-44248192D01*
X235951224Y-44203500D01*
X235930050Y-44159167D01*
X235907854Y-44109509D01*
X235904856Y-44102624D01*
X235789574Y-43840307D01*
X235749556Y-43874725D01*
X235718406Y-43915270D01*
X235707020Y-43936050D01*
X235689150Y-43985789D01*
X235680741Y-44037212D01*
X235679420Y-44069651D01*
X235683695Y-44121186D01*
X235693462Y-44169173D01*
X235696517Y-44181026D01*
X235713049Y-44229934D01*
X235738681Y-44272396D01*
X235753426Y-44285317D01*
X235786628Y-44322412D01*
X235788841Y-44335631D01*
X235769790Y-44378374D01*
X235725338Y-44397425D01*
X235677591Y-44385427D01*
X235638331Y-44354114D01*
X235606385Y-44309963D01*
X235587829Y-44274571D01*
X235568700Y-44228796D01*
X235552592Y-44177169D01*
X235542620Y-44126275D01*
X235538784Y-44076114D01*
X235538736Y-44069895D01*
X235541467Y-44013721D01*
X235549659Y-43961703D01*
X235563311Y-43913841D01*
X235586142Y-43863255D01*
X235609496Y-43828583D01*
X235906810Y-43828583D01*
X235999867Y-44039365D01*
X236023647Y-44090342D01*
X236046049Y-44134494D01*
X236072824Y-44181231D01*
X236097320Y-44216685D01*
X236124239Y-44175116D01*
X236141188Y-44124293D01*
X236147918Y-44070639D01*
X236148367Y-44051088D01*
X236142475Y-44001472D01*
X236122385Y-43953230D01*
X236091750Y-43915134D01*
X236088039Y-43911626D01*
X236044523Y-43879588D01*
X235995163Y-43855485D01*
X235943177Y-43837823D01*
X235906810Y-43828583D01*
X235609496Y-43828583D01*
X235616406Y-43818325D01*
X235651067Y-43782633D01*
X235697626Y-43750326D01*
X235742781Y-43730634D01*
X235792778Y-43718326D01*
X235847618Y-43713403D01*
X235857229Y-43713301D01*
X235911686Y-43715412D01*
G37*
G36*
X235939066Y-44458101D02*
G01*
X235987291Y-44466473D01*
X236042060Y-44483887D01*
X236093445Y-44509338D01*
X236141448Y-44542826D01*
X236171570Y-44569616D01*
X236205414Y-44606492D01*
X236238456Y-44653593D01*
X236263237Y-44703802D01*
X236279758Y-44757119D01*
X236288018Y-44813545D01*
X236289050Y-44842924D01*
X236283931Y-44893922D01*
X236270118Y-44945218D01*
X236258032Y-44977013D01*
X236235049Y-45022115D01*
X236200439Y-45059289D01*
X236164731Y-45070314D01*
X236131758Y-45056392D01*
X236082621Y-45048678D01*
X236045296Y-45045645D01*
X235995642Y-45043344D01*
X235941738Y-45042019D01*
X235891667Y-45041493D01*
X235841617Y-45042323D01*
X235790875Y-45046720D01*
X235756357Y-45053217D01*
X235707014Y-45068824D01*
X235656793Y-45087812D01*
X235634968Y-45096448D01*
X235598332Y-45112079D01*
X235586608Y-45116232D01*
X235541179Y-45096936D01*
X235523105Y-45052240D01*
X235551990Y-45011125D01*
X235558276Y-45004857D01*
X235596630Y-44972495D01*
X235616894Y-44958939D01*
X235592586Y-44915449D01*
X235569587Y-44868814D01*
X235558520Y-44842680D01*
X235543083Y-44794099D01*
X235538736Y-44758904D01*
X235539210Y-44750356D01*
X235679420Y-44750356D01*
X235683048Y-44800631D01*
X235696250Y-44850427D01*
X235701402Y-44862219D01*
X235729171Y-44905605D01*
X235749274Y-44931584D01*
X235799283Y-44925251D01*
X235853894Y-44919069D01*
X235902615Y-44914432D01*
X235952011Y-44910976D01*
X235998646Y-44909602D01*
X236047699Y-44912210D01*
X236057508Y-44913266D01*
X236107471Y-44920959D01*
X236125163Y-44924501D01*
X236142749Y-44881026D01*
X236148367Y-44851961D01*
X236143390Y-44800532D01*
X236128461Y-44752737D01*
X236103579Y-44708575D01*
X236068743Y-44668046D01*
X236027527Y-44634279D01*
X235983258Y-44610160D01*
X235935936Y-44595689D01*
X235885561Y-44590865D01*
X235831661Y-44594014D01*
X235781333Y-44604900D01*
X235734227Y-44628227D01*
X235730956Y-44630677D01*
X235697588Y-44669634D01*
X235681886Y-44717330D01*
X235679420Y-44750356D01*
X235539210Y-44750356D01*
X235541905Y-44701703D01*
X235551410Y-44650632D01*
X235570509Y-44598799D01*
X235598233Y-44555310D01*
X235628862Y-44524675D01*
X235670254Y-44497647D01*
X235720271Y-44477258D01*
X235770008Y-44465065D01*
X235826081Y-44457749D01*
X235877650Y-44455378D01*
X235888492Y-44455310D01*
X235939066Y-44458101D01*
G37*
G36*
X236156182Y-45691668D02*
G01*
X236157404Y-45657474D01*
X236158869Y-45623524D01*
X236153905Y-45572708D01*
X236148367Y-45530223D01*
X235750251Y-45543168D01*
X235720697Y-45543901D01*
X235686259Y-45544633D01*
X235636124Y-45542919D01*
X235585414Y-45532165D01*
X235545796Y-45501575D01*
X235538736Y-45472582D01*
X235555240Y-45425984D01*
X235556322Y-45424710D01*
X235600286Y-45404438D01*
X235650400Y-45405448D01*
X235677222Y-45406392D01*
X235726810Y-45408169D01*
X235754159Y-45408590D01*
X236148367Y-45394913D01*
X236151402Y-45345564D01*
X236155438Y-45295809D01*
X236160334Y-45242261D01*
X236181767Y-45196465D01*
X236229455Y-45181200D01*
X236276650Y-45196445D01*
X236280502Y-45199763D01*
X236300754Y-45245354D01*
X236300774Y-45247146D01*
X236289050Y-45391249D01*
X236339750Y-45390009D01*
X236378688Y-45388074D01*
X236429551Y-45385787D01*
X236459776Y-45385143D01*
X236505450Y-45404927D01*
X236523506Y-45451982D01*
X236523524Y-45453775D01*
X236502272Y-45500558D01*
X236454667Y-45521601D01*
X236426803Y-45526071D01*
X236376581Y-45527994D01*
X236368185Y-45528025D01*
X236329839Y-45526804D01*
X236289050Y-45526071D01*
X236295308Y-45576045D01*
X236300041Y-45623524D01*
X236298913Y-45673486D01*
X236293203Y-45717069D01*
X236258521Y-45753899D01*
X236227257Y-45758834D01*
X236180062Y-45743188D01*
X236176210Y-45739784D01*
X236156202Y-45693489D01*
X236156182Y-45691668D01*
G37*
G36*
X235911686Y-45857910D02*
G01*
X235963317Y-45864242D01*
X236012122Y-45874797D01*
X236066956Y-45893035D01*
X236117721Y-45917352D01*
X236156915Y-45942261D01*
X236194981Y-45973191D01*
X236232144Y-46014384D01*
X236260017Y-46060025D01*
X236278598Y-46110114D01*
X236287889Y-46164650D01*
X236289050Y-46193587D01*
X236286623Y-46247992D01*
X236279342Y-46297146D01*
X236265348Y-46346167D01*
X236250216Y-46379700D01*
X236219093Y-46422558D01*
X236174996Y-46453728D01*
X236126743Y-46466975D01*
X236102693Y-46468360D01*
X236052272Y-46457438D01*
X236009191Y-46428236D01*
X235976175Y-46390691D01*
X235951224Y-46345998D01*
X235930050Y-46301665D01*
X235907854Y-46252008D01*
X235904856Y-46245122D01*
X235789574Y-45982805D01*
X235749556Y-46017223D01*
X235718406Y-46057769D01*
X235707020Y-46078548D01*
X235689150Y-46128287D01*
X235680741Y-46179710D01*
X235679420Y-46212149D01*
X235683695Y-46263684D01*
X235693462Y-46311671D01*
X235696517Y-46323524D01*
X235713049Y-46372432D01*
X235738681Y-46414894D01*
X235753426Y-46427816D01*
X235786628Y-46464910D01*
X235788841Y-46478130D01*
X235769790Y-46520872D01*
X235725338Y-46539923D01*
X235677591Y-46527926D01*
X235638331Y-46496612D01*
X235606385Y-46452461D01*
X235587829Y-46417069D01*
X235568700Y-46371294D01*
X235552592Y-46319668D01*
X235542620Y-46268773D01*
X235538784Y-46218612D01*
X235538736Y-46212393D01*
X235541467Y-46156219D01*
X235549659Y-46104201D01*
X235563311Y-46056339D01*
X235586142Y-46005753D01*
X235609496Y-45971082D01*
X235906810Y-45971082D01*
X235999867Y-46181863D01*
X236023647Y-46232840D01*
X236046049Y-46276992D01*
X236072824Y-46323729D01*
X236097320Y-46359183D01*
X236124239Y-46317614D01*
X236141188Y-46266791D01*
X236147918Y-46213137D01*
X236148367Y-46193587D01*
X236142475Y-46143970D01*
X236122385Y-46095728D01*
X236091750Y-46057632D01*
X236088039Y-46054124D01*
X236044523Y-46022086D01*
X235995163Y-45997984D01*
X235943177Y-45980322D01*
X235906810Y-45971082D01*
X235609496Y-45971082D01*
X235616406Y-45960823D01*
X235651067Y-45925131D01*
X235697626Y-45892824D01*
X235742781Y-45873132D01*
X235792778Y-45860824D01*
X235847618Y-45855901D01*
X235857229Y-45855799D01*
X235911686Y-45857910D01*
G37*
G36*
X235938880Y-46636086D02*
G01*
X235991063Y-46643205D01*
X236039668Y-46655072D01*
X236093272Y-46675577D01*
X236141723Y-46702917D01*
X236178164Y-46730921D01*
X236215848Y-46769409D01*
X236245735Y-46811968D01*
X236267826Y-46858596D01*
X236282120Y-46909295D01*
X236288617Y-46964063D01*
X236289050Y-46983224D01*
X236286136Y-47033804D01*
X236275174Y-47082417D01*
X236264382Y-47106322D01*
X236216999Y-47170802D01*
X236269204Y-47172621D01*
X236318107Y-47174503D01*
X236378175Y-47177114D01*
X236432374Y-47179838D01*
X236491869Y-47183405D01*
X236542193Y-47187151D01*
X236597239Y-47192696D01*
X236603635Y-47193517D01*
X236649064Y-47213545D01*
X236664207Y-47256043D01*
X236647599Y-47302938D01*
X236597773Y-47318569D01*
X236545208Y-47317260D01*
X236494195Y-47314722D01*
X236445305Y-47311730D01*
X236389232Y-47307884D01*
X236325977Y-47303182D01*
X236273822Y-47299095D01*
X236217628Y-47294527D01*
X236177920Y-47291214D01*
X236127713Y-47287581D01*
X236077475Y-47284986D01*
X236027207Y-47283429D01*
X235976908Y-47282910D01*
X235921740Y-47283242D01*
X235870052Y-47284238D01*
X235810336Y-47286417D01*
X235756059Y-47289633D01*
X235707220Y-47293887D01*
X235655792Y-47300362D01*
X235633014Y-47304159D01*
X235617383Y-47305380D01*
X235572198Y-47286085D01*
X235554368Y-47241633D01*
X235578601Y-47197287D01*
X235616406Y-47179107D01*
X235587601Y-47135189D01*
X235564874Y-47089775D01*
X235559497Y-47076525D01*
X235545305Y-47029047D01*
X235539061Y-46979793D01*
X235538736Y-46965394D01*
X235679420Y-46965394D01*
X235683875Y-47015691D01*
X235699692Y-47063091D01*
X235728654Y-47106378D01*
X235754403Y-47139295D01*
X235774675Y-47159079D01*
X235888248Y-47157125D01*
X235964452Y-47157857D01*
X236041877Y-47159079D01*
X236083370Y-47133059D01*
X236118312Y-47095079D01*
X236121744Y-47089714D01*
X236141711Y-47042209D01*
X236148263Y-46993629D01*
X236148367Y-46986155D01*
X236144275Y-46932009D01*
X236129893Y-46879744D01*
X236105155Y-46836637D01*
X236082909Y-46812987D01*
X236040992Y-46785123D01*
X235994940Y-46768011D01*
X235940615Y-46758104D01*
X235886294Y-46755345D01*
X235835637Y-46761475D01*
X235789608Y-46779865D01*
X235748206Y-46810515D01*
X235740481Y-46818116D01*
X235708281Y-46859575D01*
X235688007Y-46905184D01*
X235679659Y-46954944D01*
X235679420Y-46965394D01*
X235538736Y-46965394D01*
X235542077Y-46913805D01*
X235552097Y-46865651D01*
X235572231Y-46813813D01*
X235601458Y-46766649D01*
X235633747Y-46729944D01*
X235672132Y-46697240D01*
X235714381Y-46671303D01*
X235760495Y-46652132D01*
X235810472Y-46639727D01*
X235864313Y-46634088D01*
X235883119Y-46633712D01*
X235938880Y-46636086D01*
G37*
G36*
X236205565Y-47907786D02*
G01*
X236259378Y-47907999D01*
X236310956Y-47908244D01*
X236344249Y-47908416D01*
X236393165Y-47908665D01*
X236442375Y-47908890D01*
X236493213Y-47909077D01*
X236533293Y-47909148D01*
X236583572Y-47916512D01*
X236607055Y-47926245D01*
X236642737Y-47961317D01*
X236648576Y-47988772D01*
X236625297Y-48033060D01*
X236588981Y-48040307D01*
X236560893Y-48036888D01*
X236532805Y-48033468D01*
X236382840Y-48031514D01*
X236207962Y-48030049D01*
X236235519Y-48074070D01*
X236258939Y-48119821D01*
X236268778Y-48143622D01*
X236283329Y-48192777D01*
X236289031Y-48242015D01*
X236289050Y-48244982D01*
X236285066Y-48298437D01*
X236273114Y-48347977D01*
X236253193Y-48393600D01*
X236225303Y-48435309D01*
X236189445Y-48473101D01*
X236175722Y-48484829D01*
X236134071Y-48514212D01*
X236088985Y-48537517D01*
X236040465Y-48554741D01*
X235988510Y-48565887D01*
X235933120Y-48570953D01*
X235913893Y-48571291D01*
X235856841Y-48567736D01*
X235803103Y-48557071D01*
X235752679Y-48539297D01*
X235705570Y-48514413D01*
X235661775Y-48482419D01*
X235647913Y-48470174D01*
X235610810Y-48430604D01*
X235581384Y-48387548D01*
X235559633Y-48341005D01*
X235545560Y-48290976D01*
X235539163Y-48237461D01*
X235538736Y-48218848D01*
X235679420Y-48218848D01*
X235684714Y-48272062D01*
X235700595Y-48319596D01*
X235727063Y-48361449D01*
X235746343Y-48382247D01*
X235786732Y-48413180D01*
X235832338Y-48433990D01*
X235883161Y-48444676D01*
X235913649Y-48446239D01*
X235966191Y-48442162D01*
X236013632Y-48429932D01*
X236060363Y-48406782D01*
X236077292Y-48394703D01*
X236114773Y-48356154D01*
X236138372Y-48310115D01*
X236148089Y-48256587D01*
X236148367Y-48244982D01*
X236142570Y-48195268D01*
X236126805Y-48148099D01*
X236118080Y-48129700D01*
X236092203Y-48087428D01*
X236062149Y-48043562D01*
X236053112Y-48030781D01*
X235939295Y-48029316D01*
X235836713Y-48030049D01*
X235728757Y-48030781D01*
X235709995Y-48076377D01*
X235691877Y-48123594D01*
X235682157Y-48171643D01*
X235679420Y-48218848D01*
X235538736Y-48218848D01*
X235541774Y-48167527D01*
X235550887Y-48118587D01*
X235566076Y-48072028D01*
X235587341Y-48027851D01*
X235556429Y-47989520D01*
X235554368Y-47974361D01*
X235572442Y-47929909D01*
X235617871Y-47911835D01*
X235667988Y-47913440D01*
X235670139Y-47913545D01*
X235719202Y-47915240D01*
X235722651Y-47915255D01*
X235774849Y-47914873D01*
X235826704Y-47914018D01*
X235879441Y-47912869D01*
X235930114Y-47911587D01*
X235939050Y-47911347D01*
X235990648Y-47910102D01*
X236044441Y-47908975D01*
X236097477Y-47908116D01*
X236146375Y-47907697D01*
X236155694Y-47907683D01*
X236205565Y-47907786D01*
G37*
G36*
X236182072Y-49327467D02*
G01*
X235672337Y-49089818D01*
X235626755Y-49068482D01*
X235572440Y-49043624D01*
X235521082Y-49020783D01*
X235472682Y-48999956D01*
X235427240Y-48981146D01*
X235376613Y-48961233D01*
X235360683Y-48955241D01*
X235228548Y-48909811D01*
X235188654Y-48881484D01*
X235179211Y-48848018D01*
X235195096Y-48800849D01*
X235197285Y-48798192D01*
X235241737Y-48777432D01*
X235290677Y-48786698D01*
X235337854Y-48801900D01*
X235384783Y-48819273D01*
X235439879Y-48841280D01*
X235486560Y-48860825D01*
X235537835Y-48882977D01*
X235593704Y-48907734D01*
X235633503Y-48925687D01*
X236108799Y-48679735D01*
X236159113Y-48648960D01*
X236205391Y-48630851D01*
X236212358Y-48630398D01*
X236259989Y-48646853D01*
X236265847Y-48651891D01*
X236288847Y-48695503D01*
X236289050Y-48700495D01*
X236268790Y-48745767D01*
X236264382Y-48749100D01*
X236220407Y-48778558D01*
X236172012Y-48808558D01*
X236119199Y-48839099D01*
X236061966Y-48870183D01*
X236016141Y-48893851D01*
X235967830Y-48917825D01*
X235917034Y-48942103D01*
X235863751Y-48966686D01*
X235807983Y-48991573D01*
X235788841Y-48999937D01*
X236030886Y-49101542D01*
X236075808Y-49122004D01*
X236125548Y-49145507D01*
X236172413Y-49168613D01*
X236216403Y-49191322D01*
X236246064Y-49207299D01*
X236283005Y-49240119D01*
X236289050Y-49264941D01*
X236271799Y-49310676D01*
X236268046Y-49314766D01*
X236223555Y-49336313D01*
X236218220Y-49336504D01*
X236182072Y-49327467D01*
G37*
G36*
X235720697Y-49646204D02*
G01*
X235673734Y-49630870D01*
X235668429Y-49626176D01*
X235648335Y-49581090D01*
X235648157Y-49575373D01*
X235665007Y-49529022D01*
X235668674Y-49525303D01*
X235714845Y-49505694D01*
X235720697Y-49505520D01*
X235759532Y-49500879D01*
X235798122Y-49496483D01*
X235844734Y-49515373D01*
X235847215Y-49517976D01*
X235866825Y-49563795D01*
X235866999Y-49569267D01*
X235846425Y-49616150D01*
X235797849Y-49638690D01*
X235746843Y-49645527D01*
X235720697Y-49646204D01*
G37*
G36*
X236234096Y-49634724D02*
G01*
X236187344Y-49618677D01*
X236183538Y-49615185D01*
X236164074Y-49568459D01*
X236163998Y-49564627D01*
X236180046Y-49517432D01*
X236183538Y-49513580D01*
X236228422Y-49493970D01*
X236234096Y-49493796D01*
X236258764Y-49490621D01*
X236284410Y-49487690D01*
X236330105Y-49505722D01*
X236332526Y-49508206D01*
X236351409Y-49553658D01*
X236351577Y-49559253D01*
X236335056Y-49605243D01*
X236290886Y-49628754D01*
X236241324Y-49634651D01*
X236234096Y-49634724D01*
G37*
G36*
X236445366Y-50518883D02*
G01*
X236459071Y-50471430D01*
X236466127Y-50462219D01*
X236510174Y-50438736D01*
X236515464Y-50438527D01*
X236561323Y-50457985D01*
X236565289Y-50462219D01*
X236585320Y-50506845D01*
X236586050Y-50518883D01*
X236572344Y-50566498D01*
X236565289Y-50575792D01*
X236522600Y-50599594D01*
X236515464Y-50599972D01*
X236470088Y-50580113D01*
X236466127Y-50575792D01*
X236446096Y-50530930D01*
X236445366Y-50518883D01*
G37*
G36*
X235417592Y-50513510D02*
G01*
X235472974Y-50512319D01*
X235523402Y-50509994D01*
X235572502Y-50507257D01*
X235629388Y-50503743D01*
X235694059Y-50499449D01*
X235747671Y-50495718D01*
X235805662Y-50491550D01*
X235825966Y-50490063D01*
X236201856Y-50466860D01*
X236250430Y-50478786D01*
X236262428Y-50486399D01*
X236288634Y-50528821D01*
X236289050Y-50536225D01*
X236271953Y-50582631D01*
X236237027Y-50607543D01*
X235842330Y-50630258D01*
X235420523Y-50648821D01*
X235368352Y-50644319D01*
X235319003Y-50630814D01*
X235272474Y-50608306D01*
X235247843Y-50591912D01*
X235210978Y-50559229D01*
X235182094Y-50518483D01*
X235165637Y-50468270D01*
X235163579Y-50441214D01*
X235171591Y-50387576D01*
X235195625Y-50337304D01*
X235227893Y-50297982D01*
X235271288Y-50260997D01*
X235314015Y-50233092D01*
X235363863Y-50206684D01*
X235391458Y-50194040D01*
X235424431Y-50185736D01*
X235469525Y-50204627D01*
X235472058Y-50207229D01*
X235491765Y-50253139D01*
X235491842Y-50256566D01*
X235467095Y-50300610D01*
X235424709Y-50330137D01*
X235404159Y-50341075D01*
X235360683Y-50365328D01*
X235337969Y-50379421D01*
X235308246Y-50418260D01*
X235304263Y-50441458D01*
X235331693Y-50483181D01*
X235349204Y-50492994D01*
X235396221Y-50509722D01*
X235417592Y-50513510D01*
G37*
G36*
X235323722Y-50815842D02*
G01*
X235342609Y-50862533D01*
X235336953Y-50912037D01*
X235330642Y-50944843D01*
X235322976Y-50993732D01*
X235319908Y-51042510D01*
X235319895Y-51072582D01*
X235326840Y-51126381D01*
X235345754Y-51172372D01*
X235376635Y-51210557D01*
X235419485Y-51240934D01*
X235449344Y-51254787D01*
X235497551Y-51269335D01*
X235549099Y-51278883D01*
X235600241Y-51284705D01*
X235657806Y-51288346D01*
X235710683Y-51289714D01*
X235665651Y-51265127D01*
X235624931Y-51234886D01*
X235593447Y-51201298D01*
X235568145Y-51157363D01*
X235555742Y-51108511D01*
X235554604Y-51088458D01*
X235695052Y-51088458D01*
X235705115Y-51139932D01*
X235732021Y-51186151D01*
X235766615Y-51223280D01*
X235807712Y-51255236D01*
X235852643Y-51278873D01*
X235897285Y-51290446D01*
X235947130Y-51299668D01*
X235997895Y-51307354D01*
X236050253Y-51314304D01*
X236101029Y-51320429D01*
X236110020Y-51321465D01*
X236134290Y-51277149D01*
X236138841Y-51264312D01*
X236148032Y-51214998D01*
X236148367Y-51203252D01*
X236144428Y-51148924D01*
X236132612Y-51100276D01*
X236109462Y-51051633D01*
X236076024Y-51010410D01*
X236066057Y-51001263D01*
X236021241Y-50970329D01*
X235976052Y-50951332D01*
X235925826Y-50940333D01*
X235877745Y-50937271D01*
X235825219Y-50940968D01*
X235777633Y-50953575D01*
X235740725Y-50975129D01*
X235709503Y-51015454D01*
X235696167Y-51065791D01*
X235695052Y-51088458D01*
X235554604Y-51088458D01*
X235554368Y-51084306D01*
X235558505Y-51032136D01*
X235570917Y-50984408D01*
X235595235Y-50935300D01*
X235630360Y-50891993D01*
X235640830Y-50882072D01*
X235681123Y-50851714D01*
X235726348Y-50828811D01*
X235776506Y-50813366D01*
X235831595Y-50805376D01*
X235865289Y-50804159D01*
X235922576Y-50806759D01*
X235976286Y-50814558D01*
X236026418Y-50827558D01*
X236072972Y-50845757D01*
X236115948Y-50869155D01*
X236162797Y-50904097D01*
X236170104Y-50910649D01*
X236204371Y-50946939D01*
X236232830Y-50987118D01*
X236255481Y-51031184D01*
X236272324Y-51079138D01*
X236283359Y-51130980D01*
X236288586Y-51186710D01*
X236289050Y-51210091D01*
X236285825Y-51262110D01*
X236274238Y-51311828D01*
X236272198Y-51317313D01*
X236246448Y-51361417D01*
X236221884Y-51383259D01*
X236207236Y-51430858D01*
X236162249Y-51454981D01*
X236138841Y-51456776D01*
X236089006Y-51454018D01*
X236036021Y-51447263D01*
X236005973Y-51442366D01*
X235956574Y-51434479D01*
X235905855Y-51427209D01*
X235874570Y-51423803D01*
X235639853Y-51407927D01*
X235589174Y-51405675D01*
X235534608Y-51401289D01*
X235484950Y-51395009D01*
X235434208Y-51385514D01*
X235411242Y-51379839D01*
X235364512Y-51364504D01*
X235318091Y-51342656D01*
X235274771Y-51312566D01*
X235244180Y-51280921D01*
X235215756Y-51235064D01*
X235197547Y-51187427D01*
X235185556Y-51132776D01*
X235180226Y-51080352D01*
X235179211Y-51042540D01*
X235180332Y-50993476D01*
X235184205Y-50944398D01*
X235192505Y-50893061D01*
X235193377Y-50889155D01*
X235212029Y-50839930D01*
X235250377Y-50806831D01*
X235275687Y-50802694D01*
X235323722Y-50815842D01*
G37*
G36*
X235934265Y-51563854D02*
G01*
X235988418Y-51571482D01*
X236039961Y-51585172D01*
X236088893Y-51604924D01*
X236135216Y-51630739D01*
X236150076Y-51640691D01*
X236190113Y-51672541D01*
X236229199Y-51715658D01*
X236258514Y-51764115D01*
X236278057Y-51817913D01*
X236286879Y-51866825D01*
X236289050Y-51908625D01*
X236284645Y-51957764D01*
X236268372Y-52009188D01*
X236240106Y-52054255D01*
X236199850Y-52092964D01*
X236163754Y-52116720D01*
X236117445Y-52138599D01*
X236067209Y-52154868D01*
X236013046Y-52165527D01*
X235963496Y-52170198D01*
X235920000Y-52170942D01*
X235864593Y-52167547D01*
X235812311Y-52158829D01*
X235763156Y-52144787D01*
X235717125Y-52125421D01*
X235674221Y-52100732D01*
X235660614Y-52091319D01*
X235619194Y-52056337D01*
X235586345Y-52017336D01*
X235562064Y-51974317D01*
X235546354Y-51927279D01*
X235539212Y-51876223D01*
X235538742Y-51858555D01*
X235679420Y-51858555D01*
X235686667Y-51909262D01*
X235708409Y-51954405D01*
X235730956Y-51981409D01*
X235770564Y-52012527D01*
X235817948Y-52032910D01*
X235867242Y-52042079D01*
X235885073Y-52043203D01*
X235946622Y-52043096D01*
X235999989Y-52037891D01*
X236055192Y-52024214D01*
X236104559Y-51997286D01*
X236135517Y-51958887D01*
X236148065Y-51909015D01*
X236148367Y-51899588D01*
X236141049Y-51846383D01*
X236118545Y-51800249D01*
X236080856Y-51761186D01*
X236053356Y-51742540D01*
X236008497Y-51720934D01*
X235960199Y-51706399D01*
X235908463Y-51698935D01*
X235878234Y-51697844D01*
X235826306Y-51702133D01*
X235776675Y-51716959D01*
X235731889Y-51745500D01*
X235724849Y-51752065D01*
X235695436Y-51791556D01*
X235680529Y-51839855D01*
X235679420Y-51858555D01*
X235538742Y-51858555D01*
X235538736Y-51858311D01*
X235542804Y-51809406D01*
X235557412Y-51757264D01*
X235582646Y-51709121D01*
X235613440Y-51670277D01*
X235623733Y-51659742D01*
X235661380Y-51628111D01*
X235703612Y-51602646D01*
X235750429Y-51583346D01*
X235801832Y-51570211D01*
X235857820Y-51563242D01*
X235877501Y-51562289D01*
X235934265Y-51563854D01*
G37*
G36*
X236156182Y-52796204D02*
G01*
X236157404Y-52762010D01*
X236158869Y-52728060D01*
X236153905Y-52677244D01*
X236148367Y-52634759D01*
X235750251Y-52647704D01*
X235720697Y-52648437D01*
X235686259Y-52649169D01*
X235636124Y-52647455D01*
X235585414Y-52636701D01*
X235545796Y-52606111D01*
X235538736Y-52577118D01*
X235555240Y-52530520D01*
X235556322Y-52529246D01*
X235600286Y-52508974D01*
X235650400Y-52509983D01*
X235677222Y-52510928D01*
X235726810Y-52512705D01*
X235754159Y-52513126D01*
X236148367Y-52499449D01*
X236151402Y-52450100D01*
X236155438Y-52400345D01*
X236160334Y-52346797D01*
X236181767Y-52301001D01*
X236229455Y-52285736D01*
X236276650Y-52300981D01*
X236280502Y-52304299D01*
X236300754Y-52349890D01*
X236300774Y-52351682D01*
X236289050Y-52495785D01*
X236339750Y-52494545D01*
X236378688Y-52492610D01*
X236429551Y-52490323D01*
X236459776Y-52489679D01*
X236505450Y-52509463D01*
X236523506Y-52556518D01*
X236523524Y-52558311D01*
X236502272Y-52605094D01*
X236454667Y-52626137D01*
X236426803Y-52630607D01*
X236376581Y-52632530D01*
X236368185Y-52632561D01*
X236329839Y-52631340D01*
X236289050Y-52630607D01*
X236295308Y-52680581D01*
X236300041Y-52728060D01*
X236298913Y-52778022D01*
X236293203Y-52821605D01*
X236258521Y-52858435D01*
X236227257Y-52863370D01*
X236180062Y-52847724D01*
X236176210Y-52844319D01*
X236156202Y-52798025D01*
X236156182Y-52796204D01*
G37*
G36*
X236133712Y-53562638D02*
G01*
X236094603Y-53529955D01*
X236053920Y-53497826D01*
X236014250Y-53467664D01*
X235970149Y-53435081D01*
X235930013Y-53406078D01*
X235883829Y-53372945D01*
X235842057Y-53342699D01*
X235797756Y-53310213D01*
X235754102Y-53277565D01*
X235714802Y-53247179D01*
X235710683Y-53243901D01*
X235710683Y-53295363D01*
X235710683Y-53345301D01*
X235710683Y-53369686D01*
X235706989Y-53418865D01*
X235702868Y-53449309D01*
X235696769Y-53498178D01*
X235695052Y-53528932D01*
X235677449Y-53575629D01*
X235675024Y-53578025D01*
X235628484Y-53597002D01*
X235624710Y-53597076D01*
X235577674Y-53581430D01*
X235573907Y-53578025D01*
X235554444Y-53532888D01*
X235554368Y-53529176D01*
X235554368Y-53479882D01*
X235554368Y-53449309D01*
X235554368Y-53398150D01*
X235554368Y-53369686D01*
X235553870Y-53312267D01*
X235552376Y-53255964D01*
X235549886Y-53200778D01*
X235546400Y-53146707D01*
X235541917Y-53093753D01*
X235540202Y-53076350D01*
X235538736Y-53050949D01*
X235551831Y-53003089D01*
X235598332Y-52984271D01*
X235645086Y-53000548D01*
X235665498Y-53018709D01*
X235706970Y-53064020D01*
X235741615Y-53098649D01*
X235779296Y-53133832D01*
X235820011Y-53169569D01*
X235863763Y-53205860D01*
X235910549Y-53242705D01*
X235960371Y-53280103D01*
X236013228Y-53318055D01*
X236069121Y-53356562D01*
X236128049Y-53395622D01*
X236148367Y-53408765D01*
X236148367Y-53356563D01*
X236148367Y-53306829D01*
X236148367Y-53276141D01*
X236149344Y-53224987D01*
X236152274Y-53173131D01*
X236157159Y-53120573D01*
X236163998Y-53067313D01*
X236183354Y-53021518D01*
X236225303Y-53006252D01*
X236270732Y-53024815D01*
X236289050Y-53071465D01*
X236286295Y-53123545D01*
X236281235Y-53173070D01*
X236276174Y-53222955D01*
X236273427Y-53273925D01*
X236273419Y-53276141D01*
X236274915Y-53326056D01*
X236278189Y-53377738D01*
X236281235Y-53416336D01*
X236285013Y-53465246D01*
X236287951Y-53514949D01*
X236289050Y-53556532D01*
X236274908Y-53603732D01*
X236244354Y-53614906D01*
X236194254Y-53603421D01*
X236151934Y-53577695D01*
X236133712Y-53562638D01*
G37*
G36*
X235873301Y-54126966D02*
G01*
X235928109Y-54140067D01*
X235973263Y-54158981D01*
X236016734Y-54184987D01*
X236058523Y-54218086D01*
X236065324Y-54224292D01*
X236103762Y-54264739D01*
X236137986Y-54306724D01*
X236170335Y-54350040D01*
X236199418Y-54391306D01*
X236230432Y-54437271D01*
X236281860Y-54420388D01*
X236332553Y-54409030D01*
X236382513Y-54403197D01*
X236409951Y-54402345D01*
X236462020Y-54410347D01*
X236511440Y-54431744D01*
X236553077Y-54459253D01*
X236591685Y-54494143D01*
X236621713Y-54537888D01*
X236632944Y-54586992D01*
X236626508Y-54636911D01*
X236604807Y-54682283D01*
X236578478Y-54710091D01*
X236533037Y-54737132D01*
X236482290Y-54749858D01*
X236448785Y-54751856D01*
X236397377Y-54746043D01*
X236347016Y-54728603D01*
X236297703Y-54699538D01*
X236257409Y-54666435D01*
X236217842Y-54625258D01*
X236186713Y-54586504D01*
X236141395Y-54608297D01*
X236091904Y-54634108D01*
X236047474Y-54658687D01*
X236000146Y-54686057D01*
X235949920Y-54716218D01*
X235907653Y-54742356D01*
X235896796Y-54749169D01*
X235945482Y-54763001D01*
X235980083Y-54769686D01*
X236031338Y-54777608D01*
X236072896Y-54785562D01*
X236117775Y-54808215D01*
X236132735Y-54840516D01*
X236106457Y-54882724D01*
X236100739Y-54885945D01*
X236053521Y-54899142D01*
X236041388Y-54899623D01*
X235987913Y-54897116D01*
X235935933Y-54889594D01*
X235885446Y-54877057D01*
X235836453Y-54859506D01*
X235788955Y-54836940D01*
X235773454Y-54828304D01*
X235731898Y-54855152D01*
X235686211Y-54883677D01*
X235640564Y-54910525D01*
X235595276Y-54933793D01*
X235565603Y-54942854D01*
X235524570Y-54923315D01*
X235507473Y-54879107D01*
X235529724Y-54834667D01*
X235541179Y-54826106D01*
X235672337Y-54747215D01*
X235633849Y-54703280D01*
X235601884Y-54657723D01*
X235576442Y-54610544D01*
X235557524Y-54561744D01*
X235545129Y-54511321D01*
X235539258Y-54459276D01*
X235538736Y-54438004D01*
X235679420Y-54438004D01*
X235682846Y-54488780D01*
X235693125Y-54536877D01*
X235713776Y-54589603D01*
X235738901Y-54631896D01*
X235770878Y-54671509D01*
X235776873Y-54677851D01*
X235819639Y-54650975D01*
X235870621Y-54621557D01*
X235923207Y-54592542D01*
X235971888Y-54566385D01*
X236018950Y-54541563D01*
X236305415Y-54541563D01*
X236344036Y-54580138D01*
X236387265Y-54610361D01*
X236435026Y-54627582D01*
X236458799Y-54629735D01*
X236506668Y-54619649D01*
X236507648Y-54618988D01*
X236523035Y-54586992D01*
X236485725Y-54554226D01*
X236477606Y-54549623D01*
X236432764Y-54528004D01*
X236417034Y-54524466D01*
X236368179Y-54528223D01*
X236317062Y-54538508D01*
X236305415Y-54541563D01*
X236018950Y-54541563D01*
X236026445Y-54537610D01*
X236071221Y-54514311D01*
X236119302Y-54489539D01*
X236092311Y-54447871D01*
X236063904Y-54405987D01*
X236032258Y-54362783D01*
X236003531Y-54328827D01*
X235963536Y-54292496D01*
X235917228Y-54264032D01*
X235869529Y-54248704D01*
X235836957Y-54245785D01*
X235787177Y-54254200D01*
X235744816Y-54279445D01*
X235720697Y-54305624D01*
X235695544Y-54350229D01*
X235682000Y-54400879D01*
X235679420Y-54438004D01*
X235538736Y-54438004D01*
X235542488Y-54383609D01*
X235553743Y-54332837D01*
X235572501Y-54285689D01*
X235598763Y-54242163D01*
X235617138Y-54218918D01*
X235655027Y-54181707D01*
X235697100Y-54153636D01*
X235743357Y-54134704D01*
X235793798Y-54124911D01*
X235824501Y-54123419D01*
X235873301Y-54126966D01*
G37*
G36*
X235873301Y-55042388D02*
G01*
X235928109Y-55055489D01*
X235973263Y-55074403D01*
X236016734Y-55100409D01*
X236058523Y-55133508D01*
X236065324Y-55139714D01*
X236103762Y-55180161D01*
X236137986Y-55222146D01*
X236170335Y-55265463D01*
X236199418Y-55306729D01*
X236230432Y-55352694D01*
X236281860Y-55335810D01*
X236332553Y-55324452D01*
X236382513Y-55318619D01*
X236409951Y-55317767D01*
X236462020Y-55325770D01*
X236511440Y-55347166D01*
X236553077Y-55374675D01*
X236591685Y-55409565D01*
X236621713Y-55453310D01*
X236632944Y-55502414D01*
X236626508Y-55552333D01*
X236604807Y-55597705D01*
X236578478Y-55625513D01*
X236533037Y-55652554D01*
X236482290Y-55665280D01*
X236448785Y-55667278D01*
X236397377Y-55661465D01*
X236347016Y-55644026D01*
X236297703Y-55614960D01*
X236257409Y-55581857D01*
X236217842Y-55540680D01*
X236186713Y-55501926D01*
X236141395Y-55523719D01*
X236091904Y-55549530D01*
X236047474Y-55574110D01*
X236000146Y-55601480D01*
X235949920Y-55631640D01*
X235907653Y-55657778D01*
X235896796Y-55664592D01*
X235945482Y-55678423D01*
X235980083Y-55685108D01*
X236031338Y-55693030D01*
X236072896Y-55700984D01*
X236117775Y-55723637D01*
X236132735Y-55755938D01*
X236106457Y-55798146D01*
X236100739Y-55801368D01*
X236053521Y-55814564D01*
X236041388Y-55815045D01*
X235987913Y-55812538D01*
X235935933Y-55805016D01*
X235885446Y-55792479D01*
X235836453Y-55774928D01*
X235788955Y-55752363D01*
X235773454Y-55743726D01*
X235731898Y-55770574D01*
X235686211Y-55799100D01*
X235640564Y-55825947D01*
X235595276Y-55849215D01*
X235565603Y-55858276D01*
X235524570Y-55838737D01*
X235507473Y-55794529D01*
X235529724Y-55750089D01*
X235541179Y-55741528D01*
X235672337Y-55662638D01*
X235633849Y-55618703D01*
X235601884Y-55573146D01*
X235576442Y-55525967D01*
X235557524Y-55477166D01*
X235545129Y-55426743D01*
X235539258Y-55374698D01*
X235538736Y-55353426D01*
X235679420Y-55353426D01*
X235682846Y-55404202D01*
X235693125Y-55452299D01*
X235713776Y-55505026D01*
X235738901Y-55547318D01*
X235770878Y-55586931D01*
X235776873Y-55593273D01*
X235819639Y-55566397D01*
X235870621Y-55536979D01*
X235923207Y-55507964D01*
X235971888Y-55481807D01*
X236018950Y-55456985D01*
X236305415Y-55456985D01*
X236344036Y-55495560D01*
X236387265Y-55525783D01*
X236435026Y-55543004D01*
X236458799Y-55545157D01*
X236506668Y-55535071D01*
X236507648Y-55534410D01*
X236523035Y-55502414D01*
X236485725Y-55469648D01*
X236477606Y-55465045D01*
X236432764Y-55443426D01*
X236417034Y-55439888D01*
X236368179Y-55443645D01*
X236317062Y-55453930D01*
X236305415Y-55456985D01*
X236018950Y-55456985D01*
X236026445Y-55453032D01*
X236071221Y-55429733D01*
X236119302Y-55404961D01*
X236092311Y-55363293D01*
X236063904Y-55321409D01*
X236032258Y-55278205D01*
X236003531Y-55244250D01*
X235963536Y-55207919D01*
X235917228Y-55179454D01*
X235869529Y-55164127D01*
X235836957Y-55161207D01*
X235787177Y-55169622D01*
X235744816Y-55194867D01*
X235720697Y-55221047D01*
X235695544Y-55265651D01*
X235682000Y-55316301D01*
X235679420Y-55353426D01*
X235538736Y-55353426D01*
X235542488Y-55299031D01*
X235553743Y-55248260D01*
X235572501Y-55201111D01*
X235598763Y-55157585D01*
X235617138Y-55134340D01*
X235655027Y-55097129D01*
X235697100Y-55069058D01*
X235743357Y-55050126D01*
X235793798Y-55040334D01*
X235824501Y-55038841D01*
X235873301Y-55042388D01*
G37*
G36*
X236523524Y-56877990D02*
G01*
X236516568Y-56820769D01*
X236495703Y-56773851D01*
X236460927Y-56737238D01*
X236412240Y-56710928D01*
X236361042Y-56696874D01*
X236325687Y-56691877D01*
X236289050Y-56689679D01*
X236292684Y-56742909D01*
X236295765Y-56794977D01*
X236297355Y-56840865D01*
X236291617Y-56893641D01*
X236266114Y-56937141D01*
X236224815Y-56950042D01*
X236178713Y-56933117D01*
X236161556Y-56896553D01*
X236158000Y-56847635D01*
X236158136Y-56841842D01*
X236156598Y-56791496D01*
X236153099Y-56741092D01*
X236149042Y-56691417D01*
X236148367Y-56683573D01*
X235987411Y-56677955D01*
X235936817Y-56678546D01*
X235887505Y-56679729D01*
X235856252Y-56680642D01*
X235805944Y-56682187D01*
X235757034Y-56683287D01*
X235725826Y-56683573D01*
X235670002Y-56682848D01*
X235619858Y-56680674D01*
X235569506Y-56676415D01*
X235516999Y-56668430D01*
X235472976Y-56644531D01*
X235460579Y-56604438D01*
X235478458Y-56557582D01*
X235479630Y-56556322D01*
X235525480Y-56536558D01*
X235527257Y-56536539D01*
X235541667Y-56538004D01*
X235595443Y-56544852D01*
X235645418Y-56549057D01*
X235697438Y-56551492D01*
X235744633Y-56552170D01*
X235940272Y-56550216D01*
X236148367Y-56550216D01*
X236144473Y-56498723D01*
X236141635Y-56448436D01*
X236141528Y-56441772D01*
X236153589Y-56394355D01*
X236200666Y-56372475D01*
X236204542Y-56372407D01*
X236248727Y-56395408D01*
X236267177Y-56445752D01*
X236271465Y-56492575D01*
X236273419Y-56558520D01*
X236322200Y-56562728D01*
X236371360Y-56568779D01*
X236422388Y-56576916D01*
X236475235Y-56590078D01*
X236526816Y-56609957D01*
X236568994Y-56634995D01*
X236582386Y-56645715D01*
X236618183Y-56686504D01*
X236641115Y-56730408D01*
X236656217Y-56781980D01*
X236662929Y-56832286D01*
X236664207Y-56868953D01*
X236657314Y-56920859D01*
X236624503Y-56961231D01*
X236593621Y-56967383D01*
X236545703Y-56950273D01*
X236525235Y-56903743D01*
X236523524Y-56877990D01*
G37*
G36*
X236205565Y-57137235D02*
G01*
X236259378Y-57137447D01*
X236310956Y-57137693D01*
X236344249Y-57137864D01*
X236393165Y-57138113D01*
X236442375Y-57138339D01*
X236493213Y-57138526D01*
X236533293Y-57138597D01*
X236583572Y-57145960D01*
X236607055Y-57155694D01*
X236642737Y-57190766D01*
X236648576Y-57218220D01*
X236625297Y-57262508D01*
X236588981Y-57269756D01*
X236560893Y-57266336D01*
X236532805Y-57262917D01*
X236382840Y-57260963D01*
X236207962Y-57259497D01*
X236235519Y-57303518D01*
X236258939Y-57349270D01*
X236268778Y-57373070D01*
X236283329Y-57422225D01*
X236289031Y-57471463D01*
X236289050Y-57474431D01*
X236285066Y-57527886D01*
X236273114Y-57577425D01*
X236253193Y-57623049D01*
X236225303Y-57664757D01*
X236189445Y-57702550D01*
X236175722Y-57714278D01*
X236134071Y-57743661D01*
X236088985Y-57766965D01*
X236040465Y-57784190D01*
X235988510Y-57795336D01*
X235933120Y-57800402D01*
X235913893Y-57800740D01*
X235856841Y-57797185D01*
X235803103Y-57786520D01*
X235752679Y-57768746D01*
X235705570Y-57743862D01*
X235661775Y-57711868D01*
X235647913Y-57699623D01*
X235610810Y-57660053D01*
X235581384Y-57616996D01*
X235559633Y-57570454D01*
X235545560Y-57520425D01*
X235539163Y-57466910D01*
X235538736Y-57448297D01*
X235679420Y-57448297D01*
X235684714Y-57501511D01*
X235700595Y-57549044D01*
X235727063Y-57590898D01*
X235746343Y-57611696D01*
X235786732Y-57642629D01*
X235832338Y-57663439D01*
X235883161Y-57674125D01*
X235913649Y-57675687D01*
X235966191Y-57671611D01*
X236013632Y-57659381D01*
X236060363Y-57636231D01*
X236077292Y-57624152D01*
X236114773Y-57585603D01*
X236138372Y-57539564D01*
X236148089Y-57486036D01*
X236148367Y-57474431D01*
X236142570Y-57424716D01*
X236126805Y-57377548D01*
X236118080Y-57359148D01*
X236092203Y-57316877D01*
X236062149Y-57273011D01*
X236053112Y-57260230D01*
X235939295Y-57258765D01*
X235836713Y-57259497D01*
X235728757Y-57260230D01*
X235709995Y-57305825D01*
X235691877Y-57353042D01*
X235682157Y-57401092D01*
X235679420Y-57448297D01*
X235538736Y-57448297D01*
X235541774Y-57396976D01*
X235550887Y-57348035D01*
X235566076Y-57301477D01*
X235587341Y-57257299D01*
X235556429Y-57218968D01*
X235554368Y-57203810D01*
X235572442Y-57159358D01*
X235617871Y-57141284D01*
X235667988Y-57142888D01*
X235670139Y-57142994D01*
X235719202Y-57144688D01*
X235722651Y-57144703D01*
X235774849Y-57144322D01*
X235826704Y-57143467D01*
X235879441Y-57142318D01*
X235930114Y-57141036D01*
X235939050Y-57140795D01*
X235990648Y-57139550D01*
X236044441Y-57138423D01*
X236097477Y-57137565D01*
X236146375Y-57137146D01*
X236155694Y-57137132D01*
X236205565Y-57137235D01*
G37*
G36*
X236091946Y-58492435D02*
G01*
X236043972Y-58482122D01*
X236010645Y-58445639D01*
X236007683Y-58423803D01*
X236026639Y-58377684D01*
X236074849Y-58364696D01*
X236122477Y-58362498D01*
X236179630Y-58360544D01*
X236170959Y-58309009D01*
X236155950Y-58257455D01*
X236135376Y-58212701D01*
X236118569Y-58186643D01*
X236082501Y-58147088D01*
X236040445Y-58115337D01*
X235995050Y-58090186D01*
X235983991Y-58085038D01*
X235608101Y-58086504D01*
X235560684Y-58073507D01*
X235539007Y-58026826D01*
X235538736Y-58018604D01*
X235558175Y-57971341D01*
X235607613Y-57958032D01*
X236085352Y-57958032D01*
X236136700Y-57959161D01*
X236152763Y-57959742D01*
X236202070Y-57961249D01*
X236220174Y-57961451D01*
X236269612Y-57974761D01*
X236289050Y-58022024D01*
X236268340Y-58068079D01*
X236223011Y-58086424D01*
X236180851Y-58089923D01*
X236216525Y-58131843D01*
X236246152Y-58175170D01*
X236269734Y-58219904D01*
X236287268Y-58266045D01*
X236298756Y-58313594D01*
X236304198Y-58362550D01*
X236304682Y-58382526D01*
X236294363Y-58431130D01*
X236263405Y-58465569D01*
X236215706Y-58485379D01*
X236164255Y-58492494D01*
X236139330Y-58493168D01*
X236091946Y-58492435D01*
G37*
G36*
X235975687Y-59190726D02*
G01*
X235925157Y-59190866D01*
X235872730Y-59191173D01*
X235833538Y-59191458D01*
X235783980Y-59191813D01*
X235733589Y-59192088D01*
X235691388Y-59192191D01*
X235647180Y-59194389D01*
X235603217Y-59196832D01*
X235557950Y-59178036D01*
X235556810Y-59176804D01*
X235538754Y-59129992D01*
X235538736Y-59128199D01*
X235552879Y-59080784D01*
X235583433Y-59060788D01*
X235561827Y-59010479D01*
X235548557Y-58962256D01*
X235540875Y-58910736D01*
X235538736Y-58862952D01*
X235542553Y-58809781D01*
X235555566Y-58758236D01*
X235577815Y-58713964D01*
X235612044Y-58675364D01*
X235655624Y-58649232D01*
X235703356Y-58636294D01*
X235758120Y-58628625D01*
X235810976Y-58622255D01*
X235861923Y-58617185D01*
X235910963Y-58613416D01*
X235967291Y-58610608D01*
X236020872Y-58609672D01*
X236074695Y-58611295D01*
X236125944Y-58615462D01*
X236180399Y-58622194D01*
X236230676Y-58630188D01*
X236276224Y-58653337D01*
X236289050Y-58695401D01*
X236272950Y-58742227D01*
X236270732Y-58744738D01*
X236225384Y-58764747D01*
X236223593Y-58764766D01*
X236174133Y-58761236D01*
X236125408Y-58754752D01*
X236075917Y-58748427D01*
X236027133Y-58745021D01*
X236022581Y-58744982D01*
X235968879Y-58745456D01*
X235919145Y-58746875D01*
X235867938Y-58749604D01*
X235831584Y-58752554D01*
X235780705Y-58758625D01*
X235730101Y-58768033D01*
X235704089Y-58775024D01*
X235685771Y-58819721D01*
X235679420Y-58862952D01*
X235681700Y-58915558D01*
X235688539Y-58969787D01*
X235698446Y-59019353D01*
X235708241Y-59057369D01*
X235844773Y-59056881D01*
X235975198Y-59055415D01*
X236028264Y-59055870D01*
X236078650Y-59057235D01*
X236134049Y-59059979D01*
X236185801Y-59063961D01*
X236227257Y-59068360D01*
X236273602Y-59088815D01*
X236289050Y-59135038D01*
X236272736Y-59181864D01*
X236270488Y-59184375D01*
X236224570Y-59203182D01*
X235975687Y-59190726D01*
G37*
G36*
X235323722Y-59315493D02*
G01*
X235342609Y-59362184D01*
X235336953Y-59411688D01*
X235330642Y-59444494D01*
X235322976Y-59493383D01*
X235319908Y-59542161D01*
X235319895Y-59572233D01*
X235326840Y-59626032D01*
X235345754Y-59672023D01*
X235376635Y-59710208D01*
X235419485Y-59740585D01*
X235449344Y-59754438D01*
X235497551Y-59768986D01*
X235549099Y-59778534D01*
X235600241Y-59784356D01*
X235657806Y-59787997D01*
X235710683Y-59789365D01*
X235665651Y-59764778D01*
X235624931Y-59734538D01*
X235593447Y-59700949D01*
X235568145Y-59657015D01*
X235555742Y-59608162D01*
X235554604Y-59588109D01*
X235695052Y-59588109D01*
X235705115Y-59639583D01*
X235732021Y-59685802D01*
X235766615Y-59722931D01*
X235807712Y-59754887D01*
X235852643Y-59778524D01*
X235897285Y-59790098D01*
X235947130Y-59799319D01*
X235997895Y-59807005D01*
X236050253Y-59813955D01*
X236101029Y-59820081D01*
X236110020Y-59821116D01*
X236134290Y-59776800D01*
X236138841Y-59763964D01*
X236148032Y-59714649D01*
X236148367Y-59702903D01*
X236144428Y-59648575D01*
X236132612Y-59599927D01*
X236109462Y-59551284D01*
X236076024Y-59510061D01*
X236066057Y-59500914D01*
X236021241Y-59469981D01*
X235976052Y-59450983D01*
X235925826Y-59439984D01*
X235877745Y-59436922D01*
X235825219Y-59440619D01*
X235777633Y-59453226D01*
X235740725Y-59474780D01*
X235709503Y-59515105D01*
X235696167Y-59565442D01*
X235695052Y-59588109D01*
X235554604Y-59588109D01*
X235554368Y-59583957D01*
X235558505Y-59531787D01*
X235570917Y-59484059D01*
X235595235Y-59434951D01*
X235630360Y-59391644D01*
X235640830Y-59381724D01*
X235681123Y-59351365D01*
X235726348Y-59328462D01*
X235776506Y-59313017D01*
X235831595Y-59305027D01*
X235865289Y-59303810D01*
X235922576Y-59306410D01*
X235976286Y-59314209D01*
X236026418Y-59327209D01*
X236072972Y-59345408D01*
X236115948Y-59368806D01*
X236162797Y-59403748D01*
X236170104Y-59410300D01*
X236204371Y-59446590D01*
X236232830Y-59486769D01*
X236255481Y-59530835D01*
X236272324Y-59578789D01*
X236283359Y-59630631D01*
X236288586Y-59686361D01*
X236289050Y-59709742D01*
X236285825Y-59761761D01*
X236274238Y-59811479D01*
X236272198Y-59816964D01*
X236246448Y-59861068D01*
X236221884Y-59882910D01*
X236207236Y-59930509D01*
X236162249Y-59954632D01*
X236138841Y-59956427D01*
X236089006Y-59953669D01*
X236036021Y-59946914D01*
X236005973Y-59942017D01*
X235956574Y-59934130D01*
X235905855Y-59926860D01*
X235874570Y-59923454D01*
X235639853Y-59907578D01*
X235589174Y-59905326D01*
X235534608Y-59900940D01*
X235484950Y-59894660D01*
X235434208Y-59885165D01*
X235411242Y-59879490D01*
X235364512Y-59864155D01*
X235318091Y-59842307D01*
X235274771Y-59812217D01*
X235244180Y-59780572D01*
X235215756Y-59734715D01*
X235197547Y-59687078D01*
X235185556Y-59632427D01*
X235180226Y-59580003D01*
X235179211Y-59542191D01*
X235180332Y-59493127D01*
X235184205Y-59444049D01*
X235192505Y-59392713D01*
X235193377Y-59388807D01*
X235212029Y-59339581D01*
X235250377Y-59306482D01*
X235275687Y-59302345D01*
X235323722Y-59315493D01*
G37*
G36*
X235323722Y-60057991D02*
G01*
X235342609Y-60104682D01*
X235336953Y-60154186D01*
X235330642Y-60186992D01*
X235322976Y-60235882D01*
X235319908Y-60284660D01*
X235319895Y-60314731D01*
X235326840Y-60368530D01*
X235345754Y-60414522D01*
X235376635Y-60452706D01*
X235419485Y-60483083D01*
X235449344Y-60496936D01*
X235497551Y-60511484D01*
X235549099Y-60521033D01*
X235600241Y-60526854D01*
X235657806Y-60530495D01*
X235710683Y-60531863D01*
X235665651Y-60507277D01*
X235624931Y-60477036D01*
X235593447Y-60443447D01*
X235568145Y-60399513D01*
X235555742Y-60350661D01*
X235554604Y-60330607D01*
X235695052Y-60330607D01*
X235705115Y-60382081D01*
X235732021Y-60428300D01*
X235766615Y-60465429D01*
X235807712Y-60497386D01*
X235852643Y-60521023D01*
X235897285Y-60532596D01*
X235947130Y-60541817D01*
X235997895Y-60549503D01*
X236050253Y-60556454D01*
X236101029Y-60562579D01*
X236110020Y-60563615D01*
X236134290Y-60519298D01*
X236138841Y-60506462D01*
X236148032Y-60457148D01*
X236148367Y-60445401D01*
X236144428Y-60391073D01*
X236132612Y-60342425D01*
X236109462Y-60293783D01*
X236076024Y-60252559D01*
X236066057Y-60243412D01*
X236021241Y-60212479D01*
X235976052Y-60193481D01*
X235925826Y-60182483D01*
X235877745Y-60179421D01*
X235825219Y-60183118D01*
X235777633Y-60195725D01*
X235740725Y-60217278D01*
X235709503Y-60257603D01*
X235696167Y-60307941D01*
X235695052Y-60330607D01*
X235554604Y-60330607D01*
X235554368Y-60326455D01*
X235558505Y-60274286D01*
X235570917Y-60226558D01*
X235595235Y-60177450D01*
X235630360Y-60134142D01*
X235640830Y-60124222D01*
X235681123Y-60093863D01*
X235726348Y-60070961D01*
X235776506Y-60055515D01*
X235831595Y-60047526D01*
X235865289Y-60046308D01*
X235922576Y-60048908D01*
X235976286Y-60056708D01*
X236026418Y-60069707D01*
X236072972Y-60087906D01*
X236115948Y-60111305D01*
X236162797Y-60146247D01*
X236170104Y-60152798D01*
X236204371Y-60189089D01*
X236232830Y-60229267D01*
X236255481Y-60273333D01*
X236272324Y-60321288D01*
X236283359Y-60373130D01*
X236288586Y-60428859D01*
X236289050Y-60452240D01*
X236285825Y-60504259D01*
X236274238Y-60553978D01*
X236272198Y-60559463D01*
X236246448Y-60603566D01*
X236221884Y-60625408D01*
X236207236Y-60673008D01*
X236162249Y-60697130D01*
X236138841Y-60698925D01*
X236089006Y-60696167D01*
X236036021Y-60689412D01*
X236005973Y-60684515D01*
X235956574Y-60676628D01*
X235905855Y-60669358D01*
X235874570Y-60665952D01*
X235639853Y-60650077D01*
X235589174Y-60647824D01*
X235534608Y-60643438D01*
X235484950Y-60637158D01*
X235434208Y-60627664D01*
X235411242Y-60621989D01*
X235364512Y-60606653D01*
X235318091Y-60584805D01*
X235274771Y-60554715D01*
X235244180Y-60523070D01*
X235215756Y-60477214D01*
X235197547Y-60429576D01*
X235185556Y-60374926D01*
X235180226Y-60322501D01*
X235179211Y-60284689D01*
X235180332Y-60235625D01*
X235184205Y-60186548D01*
X235192505Y-60135211D01*
X235193377Y-60131305D01*
X235212029Y-60082079D01*
X235250377Y-60048980D01*
X235275687Y-60044843D01*
X235323722Y-60057991D01*
G37*
G36*
X235911686Y-60809480D02*
G01*
X235963317Y-60815813D01*
X236012122Y-60826367D01*
X236066956Y-60844605D01*
X236117721Y-60868923D01*
X236156915Y-60893831D01*
X236194981Y-60924761D01*
X236232144Y-60965954D01*
X236260017Y-61011595D01*
X236278598Y-61061684D01*
X236287889Y-61116221D01*
X236289050Y-61145157D01*
X236286623Y-61199562D01*
X236279342Y-61248716D01*
X236265348Y-61297737D01*
X236250216Y-61331270D01*
X236219093Y-61374128D01*
X236174996Y-61405298D01*
X236126743Y-61418545D01*
X236102693Y-61419930D01*
X236052272Y-61409008D01*
X236009191Y-61379806D01*
X235976175Y-61342261D01*
X235951224Y-61297568D01*
X235930050Y-61253235D01*
X235907854Y-61203578D01*
X235904856Y-61196692D01*
X235789574Y-60934375D01*
X235749556Y-60968793D01*
X235718406Y-61009339D01*
X235707020Y-61030118D01*
X235689150Y-61079857D01*
X235680741Y-61131280D01*
X235679420Y-61163719D01*
X235683695Y-61215255D01*
X235693462Y-61263242D01*
X235696517Y-61275094D01*
X235713049Y-61324002D01*
X235738681Y-61366464D01*
X235753426Y-61379386D01*
X235786628Y-61416480D01*
X235788841Y-61429700D01*
X235769790Y-61472442D01*
X235725338Y-61491493D01*
X235677591Y-61479496D01*
X235638331Y-61448182D01*
X235606385Y-61404032D01*
X235587829Y-61368639D01*
X235568700Y-61322865D01*
X235552592Y-61271238D01*
X235542620Y-61220344D01*
X235538784Y-61170182D01*
X235538736Y-61163964D01*
X235541467Y-61107790D01*
X235549659Y-61055772D01*
X235563311Y-61007910D01*
X235586142Y-60957323D01*
X235609496Y-60922652D01*
X235906810Y-60922652D01*
X235999867Y-61133433D01*
X236023647Y-61184410D01*
X236046049Y-61228562D01*
X236072824Y-61275299D01*
X236097320Y-61310754D01*
X236124239Y-61269185D01*
X236141188Y-61218361D01*
X236147918Y-61164707D01*
X236148367Y-61145157D01*
X236142475Y-61095540D01*
X236122385Y-61047298D01*
X236091750Y-61009202D01*
X236088039Y-61005694D01*
X236044523Y-60973656D01*
X235995163Y-60949554D01*
X235943177Y-60931892D01*
X235906810Y-60922652D01*
X235609496Y-60922652D01*
X235616406Y-60912393D01*
X235651067Y-60876702D01*
X235697626Y-60844394D01*
X235742781Y-60824702D01*
X235792778Y-60812395D01*
X235847618Y-60807472D01*
X235857229Y-60807369D01*
X235911686Y-60809480D01*
G37*
G36*
X235507473Y-62482386D02*
G01*
X235524362Y-62435675D01*
X235567313Y-62416441D01*
X235620669Y-62408679D01*
X235672044Y-62402505D01*
X235723334Y-62397127D01*
X235772003Y-62392536D01*
X235780537Y-62391772D01*
X235993761Y-62368325D01*
X236043554Y-62358370D01*
X236086573Y-62345122D01*
X236130927Y-62322228D01*
X236148367Y-62294075D01*
X236131766Y-62245150D01*
X236105868Y-62199309D01*
X236078723Y-62156238D01*
X236047675Y-62117093D01*
X236043098Y-62112847D01*
X235991542Y-62113058D01*
X235940067Y-62114881D01*
X235916336Y-62116266D01*
X235736085Y-62137027D01*
X235685145Y-62142690D01*
X235633348Y-62147128D01*
X235582639Y-62149656D01*
X235559986Y-62149972D01*
X235513560Y-62133228D01*
X235511137Y-62130921D01*
X235491861Y-62084398D01*
X235491842Y-62082561D01*
X235508586Y-62036379D01*
X235510893Y-62033957D01*
X235557660Y-62015168D01*
X235559497Y-62015150D01*
X235611096Y-62013817D01*
X235667246Y-62010394D01*
X235724315Y-62005670D01*
X235779130Y-62000338D01*
X235798611Y-61998297D01*
X235855248Y-61992653D01*
X235906459Y-61988176D01*
X235959346Y-61984430D01*
X236010744Y-61982094D01*
X236037969Y-61981689D01*
X236090359Y-61978303D01*
X236137986Y-61965981D01*
X236148367Y-61961172D01*
X236122313Y-61915620D01*
X236090183Y-61875794D01*
X236078513Y-61863475D01*
X235989853Y-61782386D01*
X235950827Y-61750186D01*
X235947599Y-61747215D01*
X235897712Y-61745323D01*
X235847715Y-61741419D01*
X235828653Y-61739644D01*
X235779571Y-61735333D01*
X235728176Y-61732339D01*
X235712637Y-61732072D01*
X235662855Y-61737488D01*
X235656217Y-61738667D01*
X235607148Y-61745204D01*
X235603949Y-61745262D01*
X235558727Y-61725549D01*
X235557543Y-61724257D01*
X235538810Y-61678647D01*
X235538736Y-61675164D01*
X235559603Y-61630944D01*
X235607716Y-61608417D01*
X235664452Y-61599391D01*
X235715324Y-61597495D01*
X235766493Y-61599388D01*
X235818173Y-61603292D01*
X235837934Y-61605066D01*
X235889395Y-61609377D01*
X235941033Y-61612275D01*
X235961032Y-61612638D01*
X236009970Y-61610777D01*
X236061253Y-61606842D01*
X236070209Y-61606043D01*
X236119783Y-61602173D01*
X236170280Y-61599792D01*
X236180118Y-61599693D01*
X236233075Y-61602157D01*
X236286640Y-61613110D01*
X236328489Y-61642477D01*
X236335945Y-61669791D01*
X236312476Y-61714675D01*
X236307369Y-61718883D01*
X236263314Y-61740046D01*
X236251193Y-61741109D01*
X236210648Y-61737690D01*
X236168883Y-61734271D01*
X236096587Y-61735736D01*
X236141152Y-61761315D01*
X236182950Y-61793477D01*
X236218202Y-61828051D01*
X236229455Y-61840760D01*
X236260882Y-61882110D01*
X236283231Y-61926440D01*
X236289050Y-61958974D01*
X236282776Y-62008632D01*
X236260719Y-62054461D01*
X236222781Y-62089664D01*
X236188667Y-62107229D01*
X236225237Y-62140327D01*
X236255424Y-62181199D01*
X236263893Y-62197111D01*
X236281091Y-62245744D01*
X236288436Y-62296094D01*
X236289050Y-62316790D01*
X236281265Y-62369531D01*
X236257909Y-62413205D01*
X236218983Y-62447811D01*
X236172150Y-62470653D01*
X236164487Y-62473349D01*
X236115059Y-62482813D01*
X236062005Y-62490194D01*
X236010373Y-62496671D01*
X235970314Y-62501437D01*
X235920062Y-62509059D01*
X235869697Y-62516002D01*
X235811617Y-62523480D01*
X235759597Y-62529850D01*
X235702639Y-62536563D01*
X235640742Y-62543619D01*
X235591079Y-62549137D01*
X235573907Y-62551019D01*
X235527013Y-62532456D01*
X235507550Y-62486045D01*
X235507473Y-62482386D01*
G37*
G36*
X234843035Y-51896413D02*
G01*
X234799356Y-51869043D01*
X234754291Y-51845367D01*
X234712121Y-51827049D01*
X234558981Y-51774781D01*
X234050956Y-51589889D01*
X234001000Y-51570884D01*
X233951702Y-51550141D01*
X233903061Y-51527659D01*
X233876322Y-51514418D01*
X233859355Y-51466927D01*
X233858736Y-51452624D01*
X233868628Y-51403242D01*
X233890000Y-51378619D01*
X233945969Y-51357564D01*
X234007755Y-51335922D01*
X234057911Y-51319305D01*
X234111339Y-51302357D01*
X234168038Y-51285078D01*
X234228009Y-51267469D01*
X234291251Y-51249529D01*
X234357765Y-51231259D01*
X234427550Y-51212658D01*
X234475891Y-51200074D01*
X234500607Y-51193727D01*
X234692581Y-51139505D01*
X234743457Y-51125726D01*
X234793892Y-51113254D01*
X234844620Y-51102920D01*
X234882358Y-51098961D01*
X234928894Y-51115790D01*
X234934138Y-51120942D01*
X234952926Y-51167296D01*
X234952944Y-51169058D01*
X234934861Y-51215916D01*
X234895792Y-51236225D01*
X234774403Y-51261626D01*
X234536999Y-51327572D01*
X234488949Y-51339907D01*
X234426847Y-51356259D01*
X234366988Y-51372505D01*
X234309374Y-51388645D01*
X234254003Y-51404677D01*
X234200876Y-51420602D01*
X234149994Y-51436421D01*
X234101355Y-51452132D01*
X234089546Y-51456044D01*
X234100781Y-51460196D01*
X234607585Y-51644355D01*
X234778555Y-51702729D01*
X234824442Y-51722574D01*
X234868985Y-51745629D01*
X234913247Y-51774857D01*
X234926566Y-51785771D01*
X234952017Y-51828004D01*
X234952944Y-51839261D01*
X234934912Y-51885643D01*
X234932428Y-51888353D01*
X234888422Y-51909900D01*
X234883091Y-51910091D01*
X234843035Y-51896413D01*
G37*
G36*
X233890000Y-52392471D02*
G01*
X233890000Y-52255695D01*
X233890732Y-52119651D01*
X233893404Y-52070765D01*
X233897571Y-52052240D01*
X233935490Y-52019497D01*
X233955701Y-52017314D01*
X234002584Y-52032495D01*
X234027829Y-52078039D01*
X234032637Y-52125269D01*
X234031905Y-52158242D01*
X234030683Y-52186330D01*
X234082604Y-52184040D01*
X234125205Y-52180468D01*
X234174099Y-52176461D01*
X234219239Y-52174606D01*
X234273749Y-52175862D01*
X234325790Y-52178575D01*
X234377112Y-52182110D01*
X234434634Y-52186761D01*
X234476427Y-52190482D01*
X234527475Y-52194826D01*
X234583461Y-52199017D01*
X234633692Y-52202091D01*
X234685025Y-52204266D01*
X234734103Y-52204892D01*
X234699909Y-52163020D01*
X234670905Y-52122400D01*
X234655945Y-52087411D01*
X234675658Y-52041058D01*
X234676950Y-52039784D01*
X234721915Y-52019591D01*
X234725310Y-52019512D01*
X234771964Y-52042600D01*
X234805177Y-52078619D01*
X234837220Y-52120185D01*
X234869722Y-52159263D01*
X234890662Y-52183643D01*
X234923506Y-52220952D01*
X234946862Y-52264275D01*
X234952944Y-52299170D01*
X234926195Y-52341455D01*
X234901165Y-52345088D01*
X234855003Y-52340935D01*
X234808841Y-52336783D01*
X234757567Y-52338396D01*
X234741430Y-52339226D01*
X234692228Y-52341380D01*
X234674263Y-52341668D01*
X234625154Y-52340354D01*
X234571478Y-52336981D01*
X234516772Y-52332326D01*
X234464133Y-52327071D01*
X234445408Y-52325060D01*
X234391017Y-52319498D01*
X234341967Y-52315088D01*
X234291493Y-52311396D01*
X234237278Y-52308951D01*
X234217041Y-52308695D01*
X234167942Y-52310396D01*
X234122274Y-52314069D01*
X234071411Y-52318465D01*
X234030683Y-52320419D01*
X234031905Y-52392471D01*
X234012880Y-52438913D01*
X234011632Y-52440098D01*
X233964821Y-52459075D01*
X233961074Y-52459149D01*
X233913879Y-52443503D01*
X233910027Y-52440098D01*
X233890019Y-52394262D01*
X233890000Y-52392471D01*
G37*
G36*
X233827473Y-52722443D02*
G01*
X233841487Y-52674999D01*
X233852386Y-52661871D01*
X233896075Y-52638744D01*
X233913447Y-52637202D01*
X233960799Y-52651078D01*
X233974019Y-52661871D01*
X233997833Y-52705285D01*
X233999420Y-52722443D01*
X233985132Y-52769429D01*
X233974019Y-52782527D01*
X233930513Y-52806111D01*
X233913447Y-52807684D01*
X233865545Y-52793533D01*
X233852386Y-52782527D01*
X233829030Y-52739387D01*
X233827473Y-52722443D01*
G37*
G36*
X234480945Y-52930309D02*
G01*
X234539926Y-52936324D01*
X234596426Y-52946967D01*
X234650446Y-52962237D01*
X234701985Y-52982134D01*
X234751043Y-53006658D01*
X234779288Y-53023594D01*
X234819988Y-53052819D01*
X234863233Y-53092893D01*
X234897998Y-53136902D01*
X234924284Y-53184846D01*
X234942091Y-53236727D01*
X234951418Y-53292542D01*
X234952944Y-53327921D01*
X234949188Y-53382388D01*
X234937918Y-53432979D01*
X234919134Y-53479694D01*
X234892838Y-53522533D01*
X234859028Y-53561496D01*
X234817704Y-53596583D01*
X234799071Y-53609533D01*
X234756049Y-53634652D01*
X234710176Y-53655514D01*
X234661452Y-53672119D01*
X234609879Y-53684466D01*
X234555455Y-53692555D01*
X234498180Y-53696387D01*
X234474473Y-53696728D01*
X234418164Y-53695869D01*
X234364552Y-53693293D01*
X234313636Y-53689000D01*
X234249942Y-53680604D01*
X234191041Y-53669155D01*
X234136934Y-53654653D01*
X234087620Y-53637098D01*
X234043099Y-53616490D01*
X234012854Y-53599030D01*
X233968455Y-53566197D01*
X233931581Y-53528605D01*
X233902232Y-53486255D01*
X233880409Y-53439147D01*
X233866111Y-53387280D01*
X233859338Y-53330654D01*
X233858736Y-53306672D01*
X233858750Y-53306427D01*
X233999420Y-53306427D01*
X234005139Y-53358122D01*
X234022295Y-53404029D01*
X234050889Y-53444149D01*
X234090920Y-53478481D01*
X234142388Y-53507026D01*
X234162086Y-53515255D01*
X234214447Y-53532385D01*
X234263924Y-53543720D01*
X234317642Y-53551963D01*
X234375602Y-53557115D01*
X234427142Y-53559047D01*
X234448583Y-53559219D01*
X234503286Y-53557800D01*
X234553517Y-53553542D01*
X234607890Y-53544686D01*
X234655824Y-53531743D01*
X234703607Y-53511477D01*
X234721402Y-53501089D01*
X234761153Y-53468498D01*
X234789546Y-53428610D01*
X234806582Y-53381425D01*
X234812260Y-53326944D01*
X234806183Y-53273594D01*
X234787951Y-53225317D01*
X234757563Y-53182112D01*
X234715021Y-53143979D01*
X234685254Y-53124467D01*
X234637323Y-53100103D01*
X234586492Y-53081724D01*
X234532764Y-53069329D01*
X234476137Y-53062917D01*
X234442477Y-53061940D01*
X234388881Y-53062894D01*
X234338735Y-53065757D01*
X234280903Y-53072018D01*
X234228463Y-53081260D01*
X234172650Y-53096287D01*
X234124599Y-53115607D01*
X234110307Y-53123001D01*
X234067100Y-53152732D01*
X234030715Y-53193837D01*
X234008192Y-53242545D01*
X233999853Y-53291400D01*
X233999420Y-53306427D01*
X233858750Y-53306427D01*
X233861717Y-53256224D01*
X233873825Y-53198113D01*
X233895248Y-53145499D01*
X233925985Y-53098383D01*
X233966035Y-53056765D01*
X234015400Y-53020645D01*
X234049490Y-53001612D01*
X234097597Y-52980644D01*
X234150021Y-52963230D01*
X234206762Y-52949370D01*
X234255263Y-52940840D01*
X234306528Y-52934585D01*
X234360555Y-52930605D01*
X234417345Y-52928899D01*
X234431974Y-52928828D01*
X234480945Y-52930309D01*
G37*
D11*
X237454819Y-40047619D02*
X236978628Y-40380952D01*
X237454819Y-40619047D02*
X236454819Y-40619047D01*
X236454819Y-40619047D02*
X236454819Y-40238095D01*
X236454819Y-40238095D02*
X236502438Y-40142857D01*
X236502438Y-40142857D02*
X236550057Y-40095238D01*
X236550057Y-40095238D02*
X236645295Y-40047619D01*
X236645295Y-40047619D02*
X236788152Y-40047619D01*
X236788152Y-40047619D02*
X236883390Y-40095238D01*
X236883390Y-40095238D02*
X236931009Y-40142857D01*
X236931009Y-40142857D02*
X236978628Y-40238095D01*
X236978628Y-40238095D02*
X236978628Y-40619047D01*
X237407200Y-39666666D02*
X237454819Y-39523809D01*
X237454819Y-39523809D02*
X237454819Y-39285714D01*
X237454819Y-39285714D02*
X237407200Y-39190476D01*
X237407200Y-39190476D02*
X237359580Y-39142857D01*
X237359580Y-39142857D02*
X237264342Y-39095238D01*
X237264342Y-39095238D02*
X237169104Y-39095238D01*
X237169104Y-39095238D02*
X237073866Y-39142857D01*
X237073866Y-39142857D02*
X237026247Y-39190476D01*
X237026247Y-39190476D02*
X236978628Y-39285714D01*
X236978628Y-39285714D02*
X236931009Y-39476190D01*
X236931009Y-39476190D02*
X236883390Y-39571428D01*
X236883390Y-39571428D02*
X236835771Y-39619047D01*
X236835771Y-39619047D02*
X236740533Y-39666666D01*
X236740533Y-39666666D02*
X236645295Y-39666666D01*
X236645295Y-39666666D02*
X236550057Y-39619047D01*
X236550057Y-39619047D02*
X236502438Y-39571428D01*
X236502438Y-39571428D02*
X236454819Y-39476190D01*
X236454819Y-39476190D02*
X236454819Y-39238095D01*
X236454819Y-39238095D02*
X236502438Y-39095238D01*
X236454819Y-38809523D02*
X236454819Y-38238095D01*
X237454819Y-38523809D02*
X236454819Y-38523809D01*
X231889725Y-40945494D02*
X232156392Y-40564541D01*
X232346868Y-40945494D02*
X232346868Y-40145494D01*
X232346868Y-40145494D02*
X232042106Y-40145494D01*
X232042106Y-40145494D02*
X231965916Y-40183589D01*
X231965916Y-40183589D02*
X231927821Y-40221684D01*
X231927821Y-40221684D02*
X231889725Y-40297875D01*
X231889725Y-40297875D02*
X231889725Y-40412160D01*
X231889725Y-40412160D02*
X231927821Y-40488351D01*
X231927821Y-40488351D02*
X231965916Y-40526446D01*
X231965916Y-40526446D02*
X232042106Y-40564541D01*
X232042106Y-40564541D02*
X232346868Y-40564541D01*
X231584964Y-40907399D02*
X231470678Y-40945494D01*
X231470678Y-40945494D02*
X231280202Y-40945494D01*
X231280202Y-40945494D02*
X231204011Y-40907399D01*
X231204011Y-40907399D02*
X231165916Y-40869303D01*
X231165916Y-40869303D02*
X231127821Y-40793113D01*
X231127821Y-40793113D02*
X231127821Y-40716922D01*
X231127821Y-40716922D02*
X231165916Y-40640732D01*
X231165916Y-40640732D02*
X231204011Y-40602637D01*
X231204011Y-40602637D02*
X231280202Y-40564541D01*
X231280202Y-40564541D02*
X231432583Y-40526446D01*
X231432583Y-40526446D02*
X231508773Y-40488351D01*
X231508773Y-40488351D02*
X231546868Y-40450256D01*
X231546868Y-40450256D02*
X231584964Y-40374065D01*
X231584964Y-40374065D02*
X231584964Y-40297875D01*
X231584964Y-40297875D02*
X231546868Y-40221684D01*
X231546868Y-40221684D02*
X231508773Y-40183589D01*
X231508773Y-40183589D02*
X231432583Y-40145494D01*
X231432583Y-40145494D02*
X231242106Y-40145494D01*
X231242106Y-40145494D02*
X231127821Y-40183589D01*
X230899249Y-40145494D02*
X230442106Y-40145494D01*
X230670678Y-40945494D02*
X230670678Y-40145494D01*
X242023059Y-56185494D02*
X242023059Y-55385494D01*
X242023059Y-55385494D02*
X241718297Y-55385494D01*
X241718297Y-55385494D02*
X241642107Y-55423589D01*
X241642107Y-55423589D02*
X241604012Y-55461684D01*
X241604012Y-55461684D02*
X241565916Y-55537875D01*
X241565916Y-55537875D02*
X241565916Y-55652160D01*
X241565916Y-55652160D02*
X241604012Y-55728351D01*
X241604012Y-55728351D02*
X241642107Y-55766446D01*
X241642107Y-55766446D02*
X241718297Y-55804541D01*
X241718297Y-55804541D02*
X242023059Y-55804541D01*
X241070678Y-55385494D02*
X240994488Y-55385494D01*
X240994488Y-55385494D02*
X240918297Y-55423589D01*
X240918297Y-55423589D02*
X240880202Y-55461684D01*
X240880202Y-55461684D02*
X240842107Y-55537875D01*
X240842107Y-55537875D02*
X240804012Y-55690256D01*
X240804012Y-55690256D02*
X240804012Y-55880732D01*
X240804012Y-55880732D02*
X240842107Y-56033113D01*
X240842107Y-56033113D02*
X240880202Y-56109303D01*
X240880202Y-56109303D02*
X240918297Y-56147399D01*
X240918297Y-56147399D02*
X240994488Y-56185494D01*
X240994488Y-56185494D02*
X241070678Y-56185494D01*
X241070678Y-56185494D02*
X241146869Y-56147399D01*
X241146869Y-56147399D02*
X241184964Y-56109303D01*
X241184964Y-56109303D02*
X241223059Y-56033113D01*
X241223059Y-56033113D02*
X241261155Y-55880732D01*
X241261155Y-55880732D02*
X241261155Y-55690256D01*
X241261155Y-55690256D02*
X241223059Y-55537875D01*
X241223059Y-55537875D02*
X241184964Y-55461684D01*
X241184964Y-55461684D02*
X241146869Y-55423589D01*
X241146869Y-55423589D02*
X241070678Y-55385494D01*
X240118297Y-55385494D02*
X240270678Y-55385494D01*
X240270678Y-55385494D02*
X240346869Y-55423589D01*
X240346869Y-55423589D02*
X240384964Y-55461684D01*
X240384964Y-55461684D02*
X240461154Y-55575970D01*
X240461154Y-55575970D02*
X240499250Y-55728351D01*
X240499250Y-55728351D02*
X240499250Y-56033113D01*
X240499250Y-56033113D02*
X240461154Y-56109303D01*
X240461154Y-56109303D02*
X240423059Y-56147399D01*
X240423059Y-56147399D02*
X240346869Y-56185494D01*
X240346869Y-56185494D02*
X240194488Y-56185494D01*
X240194488Y-56185494D02*
X240118297Y-56147399D01*
X240118297Y-56147399D02*
X240080202Y-56109303D01*
X240080202Y-56109303D02*
X240042107Y-56033113D01*
X240042107Y-56033113D02*
X240042107Y-55842637D01*
X240042107Y-55842637D02*
X240080202Y-55766446D01*
X240080202Y-55766446D02*
X240118297Y-55728351D01*
X240118297Y-55728351D02*
X240194488Y-55690256D01*
X240194488Y-55690256D02*
X240346869Y-55690256D01*
X240346869Y-55690256D02*
X240423059Y-55728351D01*
X240423059Y-55728351D02*
X240461154Y-55766446D01*
X240461154Y-55766446D02*
X240499250Y-55842637D01*
X242023059Y-35865494D02*
X242023059Y-35065494D01*
X242023059Y-35065494D02*
X241718297Y-35065494D01*
X241718297Y-35065494D02*
X241642107Y-35103589D01*
X241642107Y-35103589D02*
X241604012Y-35141684D01*
X241604012Y-35141684D02*
X241565916Y-35217875D01*
X241565916Y-35217875D02*
X241565916Y-35332160D01*
X241565916Y-35332160D02*
X241604012Y-35408351D01*
X241604012Y-35408351D02*
X241642107Y-35446446D01*
X241642107Y-35446446D02*
X241718297Y-35484541D01*
X241718297Y-35484541D02*
X242023059Y-35484541D01*
X241070678Y-35065494D02*
X240994488Y-35065494D01*
X240994488Y-35065494D02*
X240918297Y-35103589D01*
X240918297Y-35103589D02*
X240880202Y-35141684D01*
X240880202Y-35141684D02*
X240842107Y-35217875D01*
X240842107Y-35217875D02*
X240804012Y-35370256D01*
X240804012Y-35370256D02*
X240804012Y-35560732D01*
X240804012Y-35560732D02*
X240842107Y-35713113D01*
X240842107Y-35713113D02*
X240880202Y-35789303D01*
X240880202Y-35789303D02*
X240918297Y-35827399D01*
X240918297Y-35827399D02*
X240994488Y-35865494D01*
X240994488Y-35865494D02*
X241070678Y-35865494D01*
X241070678Y-35865494D02*
X241146869Y-35827399D01*
X241146869Y-35827399D02*
X241184964Y-35789303D01*
X241184964Y-35789303D02*
X241223059Y-35713113D01*
X241223059Y-35713113D02*
X241261155Y-35560732D01*
X241261155Y-35560732D02*
X241261155Y-35370256D01*
X241261155Y-35370256D02*
X241223059Y-35217875D01*
X241223059Y-35217875D02*
X241184964Y-35141684D01*
X241184964Y-35141684D02*
X241146869Y-35103589D01*
X241146869Y-35103589D02*
X241070678Y-35065494D01*
X240042107Y-35865494D02*
X240499250Y-35865494D01*
X240270678Y-35865494D02*
X240270678Y-35065494D01*
X240270678Y-35065494D02*
X240346869Y-35179779D01*
X240346869Y-35179779D02*
X240423059Y-35255970D01*
X240423059Y-35255970D02*
X240499250Y-35294065D01*
X231889726Y-32906446D02*
X231775440Y-32944541D01*
X231775440Y-32944541D02*
X231737345Y-32982637D01*
X231737345Y-32982637D02*
X231699249Y-33058827D01*
X231699249Y-33058827D02*
X231699249Y-33173113D01*
X231699249Y-33173113D02*
X231737345Y-33249303D01*
X231737345Y-33249303D02*
X231775440Y-33287399D01*
X231775440Y-33287399D02*
X231851630Y-33325494D01*
X231851630Y-33325494D02*
X232156392Y-33325494D01*
X232156392Y-33325494D02*
X232156392Y-32525494D01*
X232156392Y-32525494D02*
X231889726Y-32525494D01*
X231889726Y-32525494D02*
X231813535Y-32563589D01*
X231813535Y-32563589D02*
X231775440Y-32601684D01*
X231775440Y-32601684D02*
X231737345Y-32677875D01*
X231737345Y-32677875D02*
X231737345Y-32754065D01*
X231737345Y-32754065D02*
X231775440Y-32830256D01*
X231775440Y-32830256D02*
X231813535Y-32868351D01*
X231813535Y-32868351D02*
X231889726Y-32906446D01*
X231889726Y-32906446D02*
X232156392Y-32906446D01*
X231356392Y-33020732D02*
X230746869Y-33020732D01*
X231051630Y-33325494D02*
X231051630Y-32715970D01*
X242023059Y-58725494D02*
X242023059Y-57925494D01*
X242023059Y-57925494D02*
X241718297Y-57925494D01*
X241718297Y-57925494D02*
X241642107Y-57963589D01*
X241642107Y-57963589D02*
X241604012Y-58001684D01*
X241604012Y-58001684D02*
X241565916Y-58077875D01*
X241565916Y-58077875D02*
X241565916Y-58192160D01*
X241565916Y-58192160D02*
X241604012Y-58268351D01*
X241604012Y-58268351D02*
X241642107Y-58306446D01*
X241642107Y-58306446D02*
X241718297Y-58344541D01*
X241718297Y-58344541D02*
X242023059Y-58344541D01*
X241070678Y-57925494D02*
X240994488Y-57925494D01*
X240994488Y-57925494D02*
X240918297Y-57963589D01*
X240918297Y-57963589D02*
X240880202Y-58001684D01*
X240880202Y-58001684D02*
X240842107Y-58077875D01*
X240842107Y-58077875D02*
X240804012Y-58230256D01*
X240804012Y-58230256D02*
X240804012Y-58420732D01*
X240804012Y-58420732D02*
X240842107Y-58573113D01*
X240842107Y-58573113D02*
X240880202Y-58649303D01*
X240880202Y-58649303D02*
X240918297Y-58687399D01*
X240918297Y-58687399D02*
X240994488Y-58725494D01*
X240994488Y-58725494D02*
X241070678Y-58725494D01*
X241070678Y-58725494D02*
X241146869Y-58687399D01*
X241146869Y-58687399D02*
X241184964Y-58649303D01*
X241184964Y-58649303D02*
X241223059Y-58573113D01*
X241223059Y-58573113D02*
X241261155Y-58420732D01*
X241261155Y-58420732D02*
X241261155Y-58230256D01*
X241261155Y-58230256D02*
X241223059Y-58077875D01*
X241223059Y-58077875D02*
X241184964Y-58001684D01*
X241184964Y-58001684D02*
X241146869Y-57963589D01*
X241146869Y-57963589D02*
X241070678Y-57925494D01*
X240537345Y-57925494D02*
X240004011Y-57925494D01*
X240004011Y-57925494D02*
X240346869Y-58725494D01*
X242023059Y-38405494D02*
X242023059Y-37605494D01*
X242023059Y-37605494D02*
X241718297Y-37605494D01*
X241718297Y-37605494D02*
X241642107Y-37643589D01*
X241642107Y-37643589D02*
X241604012Y-37681684D01*
X241604012Y-37681684D02*
X241565916Y-37757875D01*
X241565916Y-37757875D02*
X241565916Y-37872160D01*
X241565916Y-37872160D02*
X241604012Y-37948351D01*
X241604012Y-37948351D02*
X241642107Y-37986446D01*
X241642107Y-37986446D02*
X241718297Y-38024541D01*
X241718297Y-38024541D02*
X242023059Y-38024541D01*
X241070678Y-37605494D02*
X240994488Y-37605494D01*
X240994488Y-37605494D02*
X240918297Y-37643589D01*
X240918297Y-37643589D02*
X240880202Y-37681684D01*
X240880202Y-37681684D02*
X240842107Y-37757875D01*
X240842107Y-37757875D02*
X240804012Y-37910256D01*
X240804012Y-37910256D02*
X240804012Y-38100732D01*
X240804012Y-38100732D02*
X240842107Y-38253113D01*
X240842107Y-38253113D02*
X240880202Y-38329303D01*
X240880202Y-38329303D02*
X240918297Y-38367399D01*
X240918297Y-38367399D02*
X240994488Y-38405494D01*
X240994488Y-38405494D02*
X241070678Y-38405494D01*
X241070678Y-38405494D02*
X241146869Y-38367399D01*
X241146869Y-38367399D02*
X241184964Y-38329303D01*
X241184964Y-38329303D02*
X241223059Y-38253113D01*
X241223059Y-38253113D02*
X241261155Y-38100732D01*
X241261155Y-38100732D02*
X241261155Y-37910256D01*
X241261155Y-37910256D02*
X241223059Y-37757875D01*
X241223059Y-37757875D02*
X241184964Y-37681684D01*
X241184964Y-37681684D02*
X241146869Y-37643589D01*
X241146869Y-37643589D02*
X241070678Y-37605494D01*
X240308773Y-37605494D02*
X240232583Y-37605494D01*
X240232583Y-37605494D02*
X240156392Y-37643589D01*
X240156392Y-37643589D02*
X240118297Y-37681684D01*
X240118297Y-37681684D02*
X240080202Y-37757875D01*
X240080202Y-37757875D02*
X240042107Y-37910256D01*
X240042107Y-37910256D02*
X240042107Y-38100732D01*
X240042107Y-38100732D02*
X240080202Y-38253113D01*
X240080202Y-38253113D02*
X240118297Y-38329303D01*
X240118297Y-38329303D02*
X240156392Y-38367399D01*
X240156392Y-38367399D02*
X240232583Y-38405494D01*
X240232583Y-38405494D02*
X240308773Y-38405494D01*
X240308773Y-38405494D02*
X240384964Y-38367399D01*
X240384964Y-38367399D02*
X240423059Y-38329303D01*
X240423059Y-38329303D02*
X240461154Y-38253113D01*
X240461154Y-38253113D02*
X240499250Y-38100732D01*
X240499250Y-38100732D02*
X240499250Y-37910256D01*
X240499250Y-37910256D02*
X240461154Y-37757875D01*
X240461154Y-37757875D02*
X240423059Y-37681684D01*
X240423059Y-37681684D02*
X240384964Y-37643589D01*
X240384964Y-37643589D02*
X240308773Y-37605494D01*
X232423059Y-53645494D02*
X232423059Y-52845494D01*
X232423059Y-52845494D02*
X232118297Y-52845494D01*
X232118297Y-52845494D02*
X232042107Y-52883589D01*
X232042107Y-52883589D02*
X232004012Y-52921684D01*
X232004012Y-52921684D02*
X231965916Y-52997875D01*
X231965916Y-52997875D02*
X231965916Y-53112160D01*
X231965916Y-53112160D02*
X232004012Y-53188351D01*
X232004012Y-53188351D02*
X232042107Y-53226446D01*
X232042107Y-53226446D02*
X232118297Y-53264541D01*
X232118297Y-53264541D02*
X232423059Y-53264541D01*
X231204012Y-53645494D02*
X231661155Y-53645494D01*
X231432583Y-53645494D02*
X231432583Y-52845494D01*
X231432583Y-52845494D02*
X231508774Y-52959779D01*
X231508774Y-52959779D02*
X231584964Y-53035970D01*
X231584964Y-53035970D02*
X231661155Y-53074065D01*
X230746869Y-53188351D02*
X230823059Y-53150256D01*
X230823059Y-53150256D02*
X230861154Y-53112160D01*
X230861154Y-53112160D02*
X230899250Y-53035970D01*
X230899250Y-53035970D02*
X230899250Y-52997875D01*
X230899250Y-52997875D02*
X230861154Y-52921684D01*
X230861154Y-52921684D02*
X230823059Y-52883589D01*
X230823059Y-52883589D02*
X230746869Y-52845494D01*
X230746869Y-52845494D02*
X230594488Y-52845494D01*
X230594488Y-52845494D02*
X230518297Y-52883589D01*
X230518297Y-52883589D02*
X230480202Y-52921684D01*
X230480202Y-52921684D02*
X230442107Y-52997875D01*
X230442107Y-52997875D02*
X230442107Y-53035970D01*
X230442107Y-53035970D02*
X230480202Y-53112160D01*
X230480202Y-53112160D02*
X230518297Y-53150256D01*
X230518297Y-53150256D02*
X230594488Y-53188351D01*
X230594488Y-53188351D02*
X230746869Y-53188351D01*
X230746869Y-53188351D02*
X230823059Y-53226446D01*
X230823059Y-53226446D02*
X230861154Y-53264541D01*
X230861154Y-53264541D02*
X230899250Y-53340732D01*
X230899250Y-53340732D02*
X230899250Y-53493113D01*
X230899250Y-53493113D02*
X230861154Y-53569303D01*
X230861154Y-53569303D02*
X230823059Y-53607399D01*
X230823059Y-53607399D02*
X230746869Y-53645494D01*
X230746869Y-53645494D02*
X230594488Y-53645494D01*
X230594488Y-53645494D02*
X230518297Y-53607399D01*
X230518297Y-53607399D02*
X230480202Y-53569303D01*
X230480202Y-53569303D02*
X230442107Y-53493113D01*
X230442107Y-53493113D02*
X230442107Y-53340732D01*
X230442107Y-53340732D02*
X230480202Y-53264541D01*
X230480202Y-53264541D02*
X230518297Y-53226446D01*
X230518297Y-53226446D02*
X230594488Y-53188351D01*
X242023059Y-46025494D02*
X242023059Y-45225494D01*
X242023059Y-45225494D02*
X241718297Y-45225494D01*
X241718297Y-45225494D02*
X241642107Y-45263589D01*
X241642107Y-45263589D02*
X241604012Y-45301684D01*
X241604012Y-45301684D02*
X241565916Y-45377875D01*
X241565916Y-45377875D02*
X241565916Y-45492160D01*
X241565916Y-45492160D02*
X241604012Y-45568351D01*
X241604012Y-45568351D02*
X241642107Y-45606446D01*
X241642107Y-45606446D02*
X241718297Y-45644541D01*
X241718297Y-45644541D02*
X242023059Y-45644541D01*
X241070678Y-45225494D02*
X240994488Y-45225494D01*
X240994488Y-45225494D02*
X240918297Y-45263589D01*
X240918297Y-45263589D02*
X240880202Y-45301684D01*
X240880202Y-45301684D02*
X240842107Y-45377875D01*
X240842107Y-45377875D02*
X240804012Y-45530256D01*
X240804012Y-45530256D02*
X240804012Y-45720732D01*
X240804012Y-45720732D02*
X240842107Y-45873113D01*
X240842107Y-45873113D02*
X240880202Y-45949303D01*
X240880202Y-45949303D02*
X240918297Y-45987399D01*
X240918297Y-45987399D02*
X240994488Y-46025494D01*
X240994488Y-46025494D02*
X241070678Y-46025494D01*
X241070678Y-46025494D02*
X241146869Y-45987399D01*
X241146869Y-45987399D02*
X241184964Y-45949303D01*
X241184964Y-45949303D02*
X241223059Y-45873113D01*
X241223059Y-45873113D02*
X241261155Y-45720732D01*
X241261155Y-45720732D02*
X241261155Y-45530256D01*
X241261155Y-45530256D02*
X241223059Y-45377875D01*
X241223059Y-45377875D02*
X241184964Y-45301684D01*
X241184964Y-45301684D02*
X241146869Y-45263589D01*
X241146869Y-45263589D02*
X241070678Y-45225494D01*
X240499250Y-45301684D02*
X240461154Y-45263589D01*
X240461154Y-45263589D02*
X240384964Y-45225494D01*
X240384964Y-45225494D02*
X240194488Y-45225494D01*
X240194488Y-45225494D02*
X240118297Y-45263589D01*
X240118297Y-45263589D02*
X240080202Y-45301684D01*
X240080202Y-45301684D02*
X240042107Y-45377875D01*
X240042107Y-45377875D02*
X240042107Y-45454065D01*
X240042107Y-45454065D02*
X240080202Y-45568351D01*
X240080202Y-45568351D02*
X240537345Y-46025494D01*
X240537345Y-46025494D02*
X240042107Y-46025494D01*
X232423059Y-56185494D02*
X232423059Y-55385494D01*
X232423059Y-55385494D02*
X232118297Y-55385494D01*
X232118297Y-55385494D02*
X232042107Y-55423589D01*
X232042107Y-55423589D02*
X232004012Y-55461684D01*
X232004012Y-55461684D02*
X231965916Y-55537875D01*
X231965916Y-55537875D02*
X231965916Y-55652160D01*
X231965916Y-55652160D02*
X232004012Y-55728351D01*
X232004012Y-55728351D02*
X232042107Y-55766446D01*
X232042107Y-55766446D02*
X232118297Y-55804541D01*
X232118297Y-55804541D02*
X232423059Y-55804541D01*
X231204012Y-56185494D02*
X231661155Y-56185494D01*
X231432583Y-56185494D02*
X231432583Y-55385494D01*
X231432583Y-55385494D02*
X231508774Y-55499779D01*
X231508774Y-55499779D02*
X231584964Y-55575970D01*
X231584964Y-55575970D02*
X231661155Y-55614065D01*
X230480202Y-55385494D02*
X230861154Y-55385494D01*
X230861154Y-55385494D02*
X230899250Y-55766446D01*
X230899250Y-55766446D02*
X230861154Y-55728351D01*
X230861154Y-55728351D02*
X230784964Y-55690256D01*
X230784964Y-55690256D02*
X230594488Y-55690256D01*
X230594488Y-55690256D02*
X230518297Y-55728351D01*
X230518297Y-55728351D02*
X230480202Y-55766446D01*
X230480202Y-55766446D02*
X230442107Y-55842637D01*
X230442107Y-55842637D02*
X230442107Y-56033113D01*
X230442107Y-56033113D02*
X230480202Y-56109303D01*
X230480202Y-56109303D02*
X230518297Y-56147399D01*
X230518297Y-56147399D02*
X230594488Y-56185494D01*
X230594488Y-56185494D02*
X230784964Y-56185494D01*
X230784964Y-56185494D02*
X230861154Y-56147399D01*
X230861154Y-56147399D02*
X230899250Y-56109303D01*
X242023059Y-63805494D02*
X242023059Y-63005494D01*
X242023059Y-63005494D02*
X241718297Y-63005494D01*
X241718297Y-63005494D02*
X241642107Y-63043589D01*
X241642107Y-63043589D02*
X241604012Y-63081684D01*
X241604012Y-63081684D02*
X241565916Y-63157875D01*
X241565916Y-63157875D02*
X241565916Y-63272160D01*
X241565916Y-63272160D02*
X241604012Y-63348351D01*
X241604012Y-63348351D02*
X241642107Y-63386446D01*
X241642107Y-63386446D02*
X241718297Y-63424541D01*
X241718297Y-63424541D02*
X242023059Y-63424541D01*
X241070678Y-63005494D02*
X240994488Y-63005494D01*
X240994488Y-63005494D02*
X240918297Y-63043589D01*
X240918297Y-63043589D02*
X240880202Y-63081684D01*
X240880202Y-63081684D02*
X240842107Y-63157875D01*
X240842107Y-63157875D02*
X240804012Y-63310256D01*
X240804012Y-63310256D02*
X240804012Y-63500732D01*
X240804012Y-63500732D02*
X240842107Y-63653113D01*
X240842107Y-63653113D02*
X240880202Y-63729303D01*
X240880202Y-63729303D02*
X240918297Y-63767399D01*
X240918297Y-63767399D02*
X240994488Y-63805494D01*
X240994488Y-63805494D02*
X241070678Y-63805494D01*
X241070678Y-63805494D02*
X241146869Y-63767399D01*
X241146869Y-63767399D02*
X241184964Y-63729303D01*
X241184964Y-63729303D02*
X241223059Y-63653113D01*
X241223059Y-63653113D02*
X241261155Y-63500732D01*
X241261155Y-63500732D02*
X241261155Y-63310256D01*
X241261155Y-63310256D02*
X241223059Y-63157875D01*
X241223059Y-63157875D02*
X241184964Y-63081684D01*
X241184964Y-63081684D02*
X241146869Y-63043589D01*
X241146869Y-63043589D02*
X241070678Y-63005494D01*
X240423059Y-63805494D02*
X240270678Y-63805494D01*
X240270678Y-63805494D02*
X240194488Y-63767399D01*
X240194488Y-63767399D02*
X240156392Y-63729303D01*
X240156392Y-63729303D02*
X240080202Y-63615018D01*
X240080202Y-63615018D02*
X240042107Y-63462637D01*
X240042107Y-63462637D02*
X240042107Y-63157875D01*
X240042107Y-63157875D02*
X240080202Y-63081684D01*
X240080202Y-63081684D02*
X240118297Y-63043589D01*
X240118297Y-63043589D02*
X240194488Y-63005494D01*
X240194488Y-63005494D02*
X240346869Y-63005494D01*
X240346869Y-63005494D02*
X240423059Y-63043589D01*
X240423059Y-63043589D02*
X240461154Y-63081684D01*
X240461154Y-63081684D02*
X240499250Y-63157875D01*
X240499250Y-63157875D02*
X240499250Y-63348351D01*
X240499250Y-63348351D02*
X240461154Y-63424541D01*
X240461154Y-63424541D02*
X240423059Y-63462637D01*
X240423059Y-63462637D02*
X240346869Y-63500732D01*
X240346869Y-63500732D02*
X240194488Y-63500732D01*
X240194488Y-63500732D02*
X240118297Y-63462637D01*
X240118297Y-63462637D02*
X240080202Y-63424541D01*
X240080202Y-63424541D02*
X240042107Y-63348351D01*
X242023059Y-48565494D02*
X242023059Y-47765494D01*
X242023059Y-47765494D02*
X241718297Y-47765494D01*
X241718297Y-47765494D02*
X241642107Y-47803589D01*
X241642107Y-47803589D02*
X241604012Y-47841684D01*
X241604012Y-47841684D02*
X241565916Y-47917875D01*
X241565916Y-47917875D02*
X241565916Y-48032160D01*
X241565916Y-48032160D02*
X241604012Y-48108351D01*
X241604012Y-48108351D02*
X241642107Y-48146446D01*
X241642107Y-48146446D02*
X241718297Y-48184541D01*
X241718297Y-48184541D02*
X242023059Y-48184541D01*
X241070678Y-47765494D02*
X240994488Y-47765494D01*
X240994488Y-47765494D02*
X240918297Y-47803589D01*
X240918297Y-47803589D02*
X240880202Y-47841684D01*
X240880202Y-47841684D02*
X240842107Y-47917875D01*
X240842107Y-47917875D02*
X240804012Y-48070256D01*
X240804012Y-48070256D02*
X240804012Y-48260732D01*
X240804012Y-48260732D02*
X240842107Y-48413113D01*
X240842107Y-48413113D02*
X240880202Y-48489303D01*
X240880202Y-48489303D02*
X240918297Y-48527399D01*
X240918297Y-48527399D02*
X240994488Y-48565494D01*
X240994488Y-48565494D02*
X241070678Y-48565494D01*
X241070678Y-48565494D02*
X241146869Y-48527399D01*
X241146869Y-48527399D02*
X241184964Y-48489303D01*
X241184964Y-48489303D02*
X241223059Y-48413113D01*
X241223059Y-48413113D02*
X241261155Y-48260732D01*
X241261155Y-48260732D02*
X241261155Y-48070256D01*
X241261155Y-48070256D02*
X241223059Y-47917875D01*
X241223059Y-47917875D02*
X241184964Y-47841684D01*
X241184964Y-47841684D02*
X241146869Y-47803589D01*
X241146869Y-47803589D02*
X241070678Y-47765494D01*
X240537345Y-47765494D02*
X240042107Y-47765494D01*
X240042107Y-47765494D02*
X240308773Y-48070256D01*
X240308773Y-48070256D02*
X240194488Y-48070256D01*
X240194488Y-48070256D02*
X240118297Y-48108351D01*
X240118297Y-48108351D02*
X240080202Y-48146446D01*
X240080202Y-48146446D02*
X240042107Y-48222637D01*
X240042107Y-48222637D02*
X240042107Y-48413113D01*
X240042107Y-48413113D02*
X240080202Y-48489303D01*
X240080202Y-48489303D02*
X240118297Y-48527399D01*
X240118297Y-48527399D02*
X240194488Y-48565494D01*
X240194488Y-48565494D02*
X240423059Y-48565494D01*
X240423059Y-48565494D02*
X240499250Y-48527399D01*
X240499250Y-48527399D02*
X240537345Y-48489303D01*
X232518297Y-42685494D02*
X232251630Y-43485494D01*
X232251630Y-43485494D02*
X231984964Y-42685494D01*
X231261154Y-43409303D02*
X231299250Y-43447399D01*
X231299250Y-43447399D02*
X231413535Y-43485494D01*
X231413535Y-43485494D02*
X231489726Y-43485494D01*
X231489726Y-43485494D02*
X231604012Y-43447399D01*
X231604012Y-43447399D02*
X231680202Y-43371208D01*
X231680202Y-43371208D02*
X231718297Y-43295018D01*
X231718297Y-43295018D02*
X231756393Y-43142637D01*
X231756393Y-43142637D02*
X231756393Y-43028351D01*
X231756393Y-43028351D02*
X231718297Y-42875970D01*
X231718297Y-42875970D02*
X231680202Y-42799779D01*
X231680202Y-42799779D02*
X231604012Y-42723589D01*
X231604012Y-42723589D02*
X231489726Y-42685494D01*
X231489726Y-42685494D02*
X231413535Y-42685494D01*
X231413535Y-42685494D02*
X231299250Y-42723589D01*
X231299250Y-42723589D02*
X231261154Y-42761684D01*
X230461154Y-43409303D02*
X230499250Y-43447399D01*
X230499250Y-43447399D02*
X230613535Y-43485494D01*
X230613535Y-43485494D02*
X230689726Y-43485494D01*
X230689726Y-43485494D02*
X230804012Y-43447399D01*
X230804012Y-43447399D02*
X230880202Y-43371208D01*
X230880202Y-43371208D02*
X230918297Y-43295018D01*
X230918297Y-43295018D02*
X230956393Y-43142637D01*
X230956393Y-43142637D02*
X230956393Y-43028351D01*
X230956393Y-43028351D02*
X230918297Y-42875970D01*
X230918297Y-42875970D02*
X230880202Y-42799779D01*
X230880202Y-42799779D02*
X230804012Y-42723589D01*
X230804012Y-42723589D02*
X230689726Y-42685494D01*
X230689726Y-42685494D02*
X230613535Y-42685494D01*
X230613535Y-42685494D02*
X230499250Y-42723589D01*
X230499250Y-42723589D02*
X230461154Y-42761684D01*
X242023059Y-53645494D02*
X242023059Y-52845494D01*
X242023059Y-52845494D02*
X241718297Y-52845494D01*
X241718297Y-52845494D02*
X241642107Y-52883589D01*
X241642107Y-52883589D02*
X241604012Y-52921684D01*
X241604012Y-52921684D02*
X241565916Y-52997875D01*
X241565916Y-52997875D02*
X241565916Y-53112160D01*
X241565916Y-53112160D02*
X241604012Y-53188351D01*
X241604012Y-53188351D02*
X241642107Y-53226446D01*
X241642107Y-53226446D02*
X241718297Y-53264541D01*
X241718297Y-53264541D02*
X242023059Y-53264541D01*
X241070678Y-52845494D02*
X240994488Y-52845494D01*
X240994488Y-52845494D02*
X240918297Y-52883589D01*
X240918297Y-52883589D02*
X240880202Y-52921684D01*
X240880202Y-52921684D02*
X240842107Y-52997875D01*
X240842107Y-52997875D02*
X240804012Y-53150256D01*
X240804012Y-53150256D02*
X240804012Y-53340732D01*
X240804012Y-53340732D02*
X240842107Y-53493113D01*
X240842107Y-53493113D02*
X240880202Y-53569303D01*
X240880202Y-53569303D02*
X240918297Y-53607399D01*
X240918297Y-53607399D02*
X240994488Y-53645494D01*
X240994488Y-53645494D02*
X241070678Y-53645494D01*
X241070678Y-53645494D02*
X241146869Y-53607399D01*
X241146869Y-53607399D02*
X241184964Y-53569303D01*
X241184964Y-53569303D02*
X241223059Y-53493113D01*
X241223059Y-53493113D02*
X241261155Y-53340732D01*
X241261155Y-53340732D02*
X241261155Y-53150256D01*
X241261155Y-53150256D02*
X241223059Y-52997875D01*
X241223059Y-52997875D02*
X241184964Y-52921684D01*
X241184964Y-52921684D02*
X241146869Y-52883589D01*
X241146869Y-52883589D02*
X241070678Y-52845494D01*
X240080202Y-52845494D02*
X240461154Y-52845494D01*
X240461154Y-52845494D02*
X240499250Y-53226446D01*
X240499250Y-53226446D02*
X240461154Y-53188351D01*
X240461154Y-53188351D02*
X240384964Y-53150256D01*
X240384964Y-53150256D02*
X240194488Y-53150256D01*
X240194488Y-53150256D02*
X240118297Y-53188351D01*
X240118297Y-53188351D02*
X240080202Y-53226446D01*
X240080202Y-53226446D02*
X240042107Y-53302637D01*
X240042107Y-53302637D02*
X240042107Y-53493113D01*
X240042107Y-53493113D02*
X240080202Y-53569303D01*
X240080202Y-53569303D02*
X240118297Y-53607399D01*
X240118297Y-53607399D02*
X240194488Y-53645494D01*
X240194488Y-53645494D02*
X240384964Y-53645494D01*
X240384964Y-53645494D02*
X240461154Y-53607399D01*
X240461154Y-53607399D02*
X240499250Y-53569303D01*
X232004011Y-35865494D02*
X232270678Y-35484541D01*
X232461154Y-35865494D02*
X232461154Y-35065494D01*
X232461154Y-35065494D02*
X232156392Y-35065494D01*
X232156392Y-35065494D02*
X232080202Y-35103589D01*
X232080202Y-35103589D02*
X232042107Y-35141684D01*
X232042107Y-35141684D02*
X232004011Y-35217875D01*
X232004011Y-35217875D02*
X232004011Y-35332160D01*
X232004011Y-35332160D02*
X232042107Y-35408351D01*
X232042107Y-35408351D02*
X232080202Y-35446446D01*
X232080202Y-35446446D02*
X232156392Y-35484541D01*
X232156392Y-35484541D02*
X232461154Y-35484541D01*
X231699250Y-35636922D02*
X231318297Y-35636922D01*
X231775440Y-35865494D02*
X231508773Y-35065494D01*
X231508773Y-35065494D02*
X231242107Y-35865494D01*
X231051631Y-35065494D02*
X230861155Y-35865494D01*
X230861155Y-35865494D02*
X230708774Y-35294065D01*
X230708774Y-35294065D02*
X230556393Y-35865494D01*
X230556393Y-35865494D02*
X230365917Y-35065494D01*
X232061154Y-37643589D02*
X232137344Y-37605494D01*
X232137344Y-37605494D02*
X232251630Y-37605494D01*
X232251630Y-37605494D02*
X232365916Y-37643589D01*
X232365916Y-37643589D02*
X232442106Y-37719779D01*
X232442106Y-37719779D02*
X232480201Y-37795970D01*
X232480201Y-37795970D02*
X232518297Y-37948351D01*
X232518297Y-37948351D02*
X232518297Y-38062637D01*
X232518297Y-38062637D02*
X232480201Y-38215018D01*
X232480201Y-38215018D02*
X232442106Y-38291208D01*
X232442106Y-38291208D02*
X232365916Y-38367399D01*
X232365916Y-38367399D02*
X232251630Y-38405494D01*
X232251630Y-38405494D02*
X232175439Y-38405494D01*
X232175439Y-38405494D02*
X232061154Y-38367399D01*
X232061154Y-38367399D02*
X232023058Y-38329303D01*
X232023058Y-38329303D02*
X232023058Y-38062637D01*
X232023058Y-38062637D02*
X232175439Y-38062637D01*
X231680201Y-38405494D02*
X231680201Y-37605494D01*
X231680201Y-37605494D02*
X231223058Y-38405494D01*
X231223058Y-38405494D02*
X231223058Y-37605494D01*
X230842106Y-38405494D02*
X230842106Y-37605494D01*
X230842106Y-37605494D02*
X230651630Y-37605494D01*
X230651630Y-37605494D02*
X230537344Y-37643589D01*
X230537344Y-37643589D02*
X230461154Y-37719779D01*
X230461154Y-37719779D02*
X230423059Y-37795970D01*
X230423059Y-37795970D02*
X230384963Y-37948351D01*
X230384963Y-37948351D02*
X230384963Y-38062637D01*
X230384963Y-38062637D02*
X230423059Y-38215018D01*
X230423059Y-38215018D02*
X230461154Y-38291208D01*
X230461154Y-38291208D02*
X230537344Y-38367399D01*
X230537344Y-38367399D02*
X230651630Y-38405494D01*
X230651630Y-38405494D02*
X230842106Y-38405494D01*
X232423059Y-46025494D02*
X232423059Y-45225494D01*
X232423059Y-45225494D02*
X232118297Y-45225494D01*
X232118297Y-45225494D02*
X232042107Y-45263589D01*
X232042107Y-45263589D02*
X232004012Y-45301684D01*
X232004012Y-45301684D02*
X231965916Y-45377875D01*
X231965916Y-45377875D02*
X231965916Y-45492160D01*
X231965916Y-45492160D02*
X232004012Y-45568351D01*
X232004012Y-45568351D02*
X232042107Y-45606446D01*
X232042107Y-45606446D02*
X232118297Y-45644541D01*
X232118297Y-45644541D02*
X232423059Y-45644541D01*
X231661155Y-45301684D02*
X231623059Y-45263589D01*
X231623059Y-45263589D02*
X231546869Y-45225494D01*
X231546869Y-45225494D02*
X231356393Y-45225494D01*
X231356393Y-45225494D02*
X231280202Y-45263589D01*
X231280202Y-45263589D02*
X231242107Y-45301684D01*
X231242107Y-45301684D02*
X231204012Y-45377875D01*
X231204012Y-45377875D02*
X231204012Y-45454065D01*
X231204012Y-45454065D02*
X231242107Y-45568351D01*
X231242107Y-45568351D02*
X231699250Y-46025494D01*
X231699250Y-46025494D02*
X231204012Y-46025494D01*
X230442107Y-46025494D02*
X230899250Y-46025494D01*
X230670678Y-46025494D02*
X230670678Y-45225494D01*
X230670678Y-45225494D02*
X230746869Y-45339779D01*
X230746869Y-45339779D02*
X230823059Y-45415970D01*
X230823059Y-45415970D02*
X230899250Y-45454065D01*
X232423059Y-63805494D02*
X232423059Y-63005494D01*
X232423059Y-63005494D02*
X232118297Y-63005494D01*
X232118297Y-63005494D02*
X232042107Y-63043589D01*
X232042107Y-63043589D02*
X232004012Y-63081684D01*
X232004012Y-63081684D02*
X231965916Y-63157875D01*
X231965916Y-63157875D02*
X231965916Y-63272160D01*
X231965916Y-63272160D02*
X232004012Y-63348351D01*
X232004012Y-63348351D02*
X232042107Y-63386446D01*
X232042107Y-63386446D02*
X232118297Y-63424541D01*
X232118297Y-63424541D02*
X232423059Y-63424541D01*
X231204012Y-63805494D02*
X231661155Y-63805494D01*
X231432583Y-63805494D02*
X231432583Y-63005494D01*
X231432583Y-63005494D02*
X231508774Y-63119779D01*
X231508774Y-63119779D02*
X231584964Y-63195970D01*
X231584964Y-63195970D02*
X231661155Y-63234065D01*
X230708773Y-63005494D02*
X230632583Y-63005494D01*
X230632583Y-63005494D02*
X230556392Y-63043589D01*
X230556392Y-63043589D02*
X230518297Y-63081684D01*
X230518297Y-63081684D02*
X230480202Y-63157875D01*
X230480202Y-63157875D02*
X230442107Y-63310256D01*
X230442107Y-63310256D02*
X230442107Y-63500732D01*
X230442107Y-63500732D02*
X230480202Y-63653113D01*
X230480202Y-63653113D02*
X230518297Y-63729303D01*
X230518297Y-63729303D02*
X230556392Y-63767399D01*
X230556392Y-63767399D02*
X230632583Y-63805494D01*
X230632583Y-63805494D02*
X230708773Y-63805494D01*
X230708773Y-63805494D02*
X230784964Y-63767399D01*
X230784964Y-63767399D02*
X230823059Y-63729303D01*
X230823059Y-63729303D02*
X230861154Y-63653113D01*
X230861154Y-63653113D02*
X230899250Y-63500732D01*
X230899250Y-63500732D02*
X230899250Y-63310256D01*
X230899250Y-63310256D02*
X230861154Y-63157875D01*
X230861154Y-63157875D02*
X230823059Y-63081684D01*
X230823059Y-63081684D02*
X230784964Y-63043589D01*
X230784964Y-63043589D02*
X230708773Y-63005494D01*
X232423059Y-48565494D02*
X232423059Y-47765494D01*
X232423059Y-47765494D02*
X232118297Y-47765494D01*
X232118297Y-47765494D02*
X232042107Y-47803589D01*
X232042107Y-47803589D02*
X232004012Y-47841684D01*
X232004012Y-47841684D02*
X231965916Y-47917875D01*
X231965916Y-47917875D02*
X231965916Y-48032160D01*
X231965916Y-48032160D02*
X232004012Y-48108351D01*
X232004012Y-48108351D02*
X232042107Y-48146446D01*
X232042107Y-48146446D02*
X232118297Y-48184541D01*
X232118297Y-48184541D02*
X232423059Y-48184541D01*
X231661155Y-47841684D02*
X231623059Y-47803589D01*
X231623059Y-47803589D02*
X231546869Y-47765494D01*
X231546869Y-47765494D02*
X231356393Y-47765494D01*
X231356393Y-47765494D02*
X231280202Y-47803589D01*
X231280202Y-47803589D02*
X231242107Y-47841684D01*
X231242107Y-47841684D02*
X231204012Y-47917875D01*
X231204012Y-47917875D02*
X231204012Y-47994065D01*
X231204012Y-47994065D02*
X231242107Y-48108351D01*
X231242107Y-48108351D02*
X231699250Y-48565494D01*
X231699250Y-48565494D02*
X231204012Y-48565494D01*
X230708773Y-47765494D02*
X230632583Y-47765494D01*
X230632583Y-47765494D02*
X230556392Y-47803589D01*
X230556392Y-47803589D02*
X230518297Y-47841684D01*
X230518297Y-47841684D02*
X230480202Y-47917875D01*
X230480202Y-47917875D02*
X230442107Y-48070256D01*
X230442107Y-48070256D02*
X230442107Y-48260732D01*
X230442107Y-48260732D02*
X230480202Y-48413113D01*
X230480202Y-48413113D02*
X230518297Y-48489303D01*
X230518297Y-48489303D02*
X230556392Y-48527399D01*
X230556392Y-48527399D02*
X230632583Y-48565494D01*
X230632583Y-48565494D02*
X230708773Y-48565494D01*
X230708773Y-48565494D02*
X230784964Y-48527399D01*
X230784964Y-48527399D02*
X230823059Y-48489303D01*
X230823059Y-48489303D02*
X230861154Y-48413113D01*
X230861154Y-48413113D02*
X230899250Y-48260732D01*
X230899250Y-48260732D02*
X230899250Y-48070256D01*
X230899250Y-48070256D02*
X230861154Y-47917875D01*
X230861154Y-47917875D02*
X230823059Y-47841684D01*
X230823059Y-47841684D02*
X230784964Y-47803589D01*
X230784964Y-47803589D02*
X230708773Y-47765494D01*
X241489726Y-32906446D02*
X241375440Y-32944541D01*
X241375440Y-32944541D02*
X241337345Y-32982637D01*
X241337345Y-32982637D02*
X241299249Y-33058827D01*
X241299249Y-33058827D02*
X241299249Y-33173113D01*
X241299249Y-33173113D02*
X241337345Y-33249303D01*
X241337345Y-33249303D02*
X241375440Y-33287399D01*
X241375440Y-33287399D02*
X241451630Y-33325494D01*
X241451630Y-33325494D02*
X241756392Y-33325494D01*
X241756392Y-33325494D02*
X241756392Y-32525494D01*
X241756392Y-32525494D02*
X241489726Y-32525494D01*
X241489726Y-32525494D02*
X241413535Y-32563589D01*
X241413535Y-32563589D02*
X241375440Y-32601684D01*
X241375440Y-32601684D02*
X241337345Y-32677875D01*
X241337345Y-32677875D02*
X241337345Y-32754065D01*
X241337345Y-32754065D02*
X241375440Y-32830256D01*
X241375440Y-32830256D02*
X241413535Y-32868351D01*
X241413535Y-32868351D02*
X241489726Y-32906446D01*
X241489726Y-32906446D02*
X241756392Y-32906446D01*
X240956392Y-33020732D02*
X240346869Y-33020732D01*
X232423059Y-61265494D02*
X232423059Y-60465494D01*
X232423059Y-60465494D02*
X232118297Y-60465494D01*
X232118297Y-60465494D02*
X232042107Y-60503589D01*
X232042107Y-60503589D02*
X232004012Y-60541684D01*
X232004012Y-60541684D02*
X231965916Y-60617875D01*
X231965916Y-60617875D02*
X231965916Y-60732160D01*
X231965916Y-60732160D02*
X232004012Y-60808351D01*
X232004012Y-60808351D02*
X232042107Y-60846446D01*
X232042107Y-60846446D02*
X232118297Y-60884541D01*
X232118297Y-60884541D02*
X232423059Y-60884541D01*
X231204012Y-61265494D02*
X231661155Y-61265494D01*
X231432583Y-61265494D02*
X231432583Y-60465494D01*
X231432583Y-60465494D02*
X231508774Y-60579779D01*
X231508774Y-60579779D02*
X231584964Y-60655970D01*
X231584964Y-60655970D02*
X231661155Y-60694065D01*
X230518297Y-60465494D02*
X230670678Y-60465494D01*
X230670678Y-60465494D02*
X230746869Y-60503589D01*
X230746869Y-60503589D02*
X230784964Y-60541684D01*
X230784964Y-60541684D02*
X230861154Y-60655970D01*
X230861154Y-60655970D02*
X230899250Y-60808351D01*
X230899250Y-60808351D02*
X230899250Y-61113113D01*
X230899250Y-61113113D02*
X230861154Y-61189303D01*
X230861154Y-61189303D02*
X230823059Y-61227399D01*
X230823059Y-61227399D02*
X230746869Y-61265494D01*
X230746869Y-61265494D02*
X230594488Y-61265494D01*
X230594488Y-61265494D02*
X230518297Y-61227399D01*
X230518297Y-61227399D02*
X230480202Y-61189303D01*
X230480202Y-61189303D02*
X230442107Y-61113113D01*
X230442107Y-61113113D02*
X230442107Y-60922637D01*
X230442107Y-60922637D02*
X230480202Y-60846446D01*
X230480202Y-60846446D02*
X230518297Y-60808351D01*
X230518297Y-60808351D02*
X230594488Y-60770256D01*
X230594488Y-60770256D02*
X230746869Y-60770256D01*
X230746869Y-60770256D02*
X230823059Y-60808351D01*
X230823059Y-60808351D02*
X230861154Y-60846446D01*
X230861154Y-60846446D02*
X230899250Y-60922637D01*
X242023059Y-51105494D02*
X242023059Y-50305494D01*
X242023059Y-50305494D02*
X241718297Y-50305494D01*
X241718297Y-50305494D02*
X241642107Y-50343589D01*
X241642107Y-50343589D02*
X241604012Y-50381684D01*
X241604012Y-50381684D02*
X241565916Y-50457875D01*
X241565916Y-50457875D02*
X241565916Y-50572160D01*
X241565916Y-50572160D02*
X241604012Y-50648351D01*
X241604012Y-50648351D02*
X241642107Y-50686446D01*
X241642107Y-50686446D02*
X241718297Y-50724541D01*
X241718297Y-50724541D02*
X242023059Y-50724541D01*
X241070678Y-50305494D02*
X240994488Y-50305494D01*
X240994488Y-50305494D02*
X240918297Y-50343589D01*
X240918297Y-50343589D02*
X240880202Y-50381684D01*
X240880202Y-50381684D02*
X240842107Y-50457875D01*
X240842107Y-50457875D02*
X240804012Y-50610256D01*
X240804012Y-50610256D02*
X240804012Y-50800732D01*
X240804012Y-50800732D02*
X240842107Y-50953113D01*
X240842107Y-50953113D02*
X240880202Y-51029303D01*
X240880202Y-51029303D02*
X240918297Y-51067399D01*
X240918297Y-51067399D02*
X240994488Y-51105494D01*
X240994488Y-51105494D02*
X241070678Y-51105494D01*
X241070678Y-51105494D02*
X241146869Y-51067399D01*
X241146869Y-51067399D02*
X241184964Y-51029303D01*
X241184964Y-51029303D02*
X241223059Y-50953113D01*
X241223059Y-50953113D02*
X241261155Y-50800732D01*
X241261155Y-50800732D02*
X241261155Y-50610256D01*
X241261155Y-50610256D02*
X241223059Y-50457875D01*
X241223059Y-50457875D02*
X241184964Y-50381684D01*
X241184964Y-50381684D02*
X241146869Y-50343589D01*
X241146869Y-50343589D02*
X241070678Y-50305494D01*
X240118297Y-50572160D02*
X240118297Y-51105494D01*
X240308773Y-50267399D02*
X240499250Y-50838827D01*
X240499250Y-50838827D02*
X240004011Y-50838827D01*
X241661154Y-40183589D02*
X241737344Y-40145494D01*
X241737344Y-40145494D02*
X241851630Y-40145494D01*
X241851630Y-40145494D02*
X241965916Y-40183589D01*
X241965916Y-40183589D02*
X242042106Y-40259779D01*
X242042106Y-40259779D02*
X242080201Y-40335970D01*
X242080201Y-40335970D02*
X242118297Y-40488351D01*
X242118297Y-40488351D02*
X242118297Y-40602637D01*
X242118297Y-40602637D02*
X242080201Y-40755018D01*
X242080201Y-40755018D02*
X242042106Y-40831208D01*
X242042106Y-40831208D02*
X241965916Y-40907399D01*
X241965916Y-40907399D02*
X241851630Y-40945494D01*
X241851630Y-40945494D02*
X241775439Y-40945494D01*
X241775439Y-40945494D02*
X241661154Y-40907399D01*
X241661154Y-40907399D02*
X241623058Y-40869303D01*
X241623058Y-40869303D02*
X241623058Y-40602637D01*
X241623058Y-40602637D02*
X241775439Y-40602637D01*
X241280201Y-40945494D02*
X241280201Y-40145494D01*
X241280201Y-40145494D02*
X240823058Y-40945494D01*
X240823058Y-40945494D02*
X240823058Y-40145494D01*
X240442106Y-40945494D02*
X240442106Y-40145494D01*
X240442106Y-40145494D02*
X240251630Y-40145494D01*
X240251630Y-40145494D02*
X240137344Y-40183589D01*
X240137344Y-40183589D02*
X240061154Y-40259779D01*
X240061154Y-40259779D02*
X240023059Y-40335970D01*
X240023059Y-40335970D02*
X239984963Y-40488351D01*
X239984963Y-40488351D02*
X239984963Y-40602637D01*
X239984963Y-40602637D02*
X240023059Y-40755018D01*
X240023059Y-40755018D02*
X240061154Y-40831208D01*
X240061154Y-40831208D02*
X240137344Y-40907399D01*
X240137344Y-40907399D02*
X240251630Y-40945494D01*
X240251630Y-40945494D02*
X240442106Y-40945494D01*
X242023059Y-61265494D02*
X242023059Y-60465494D01*
X242023059Y-60465494D02*
X241718297Y-60465494D01*
X241718297Y-60465494D02*
X241642107Y-60503589D01*
X241642107Y-60503589D02*
X241604012Y-60541684D01*
X241604012Y-60541684D02*
X241565916Y-60617875D01*
X241565916Y-60617875D02*
X241565916Y-60732160D01*
X241565916Y-60732160D02*
X241604012Y-60808351D01*
X241604012Y-60808351D02*
X241642107Y-60846446D01*
X241642107Y-60846446D02*
X241718297Y-60884541D01*
X241718297Y-60884541D02*
X242023059Y-60884541D01*
X241070678Y-60465494D02*
X240994488Y-60465494D01*
X240994488Y-60465494D02*
X240918297Y-60503589D01*
X240918297Y-60503589D02*
X240880202Y-60541684D01*
X240880202Y-60541684D02*
X240842107Y-60617875D01*
X240842107Y-60617875D02*
X240804012Y-60770256D01*
X240804012Y-60770256D02*
X240804012Y-60960732D01*
X240804012Y-60960732D02*
X240842107Y-61113113D01*
X240842107Y-61113113D02*
X240880202Y-61189303D01*
X240880202Y-61189303D02*
X240918297Y-61227399D01*
X240918297Y-61227399D02*
X240994488Y-61265494D01*
X240994488Y-61265494D02*
X241070678Y-61265494D01*
X241070678Y-61265494D02*
X241146869Y-61227399D01*
X241146869Y-61227399D02*
X241184964Y-61189303D01*
X241184964Y-61189303D02*
X241223059Y-61113113D01*
X241223059Y-61113113D02*
X241261155Y-60960732D01*
X241261155Y-60960732D02*
X241261155Y-60770256D01*
X241261155Y-60770256D02*
X241223059Y-60617875D01*
X241223059Y-60617875D02*
X241184964Y-60541684D01*
X241184964Y-60541684D02*
X241146869Y-60503589D01*
X241146869Y-60503589D02*
X241070678Y-60465494D01*
X240346869Y-60808351D02*
X240423059Y-60770256D01*
X240423059Y-60770256D02*
X240461154Y-60732160D01*
X240461154Y-60732160D02*
X240499250Y-60655970D01*
X240499250Y-60655970D02*
X240499250Y-60617875D01*
X240499250Y-60617875D02*
X240461154Y-60541684D01*
X240461154Y-60541684D02*
X240423059Y-60503589D01*
X240423059Y-60503589D02*
X240346869Y-60465494D01*
X240346869Y-60465494D02*
X240194488Y-60465494D01*
X240194488Y-60465494D02*
X240118297Y-60503589D01*
X240118297Y-60503589D02*
X240080202Y-60541684D01*
X240080202Y-60541684D02*
X240042107Y-60617875D01*
X240042107Y-60617875D02*
X240042107Y-60655970D01*
X240042107Y-60655970D02*
X240080202Y-60732160D01*
X240080202Y-60732160D02*
X240118297Y-60770256D01*
X240118297Y-60770256D02*
X240194488Y-60808351D01*
X240194488Y-60808351D02*
X240346869Y-60808351D01*
X240346869Y-60808351D02*
X240423059Y-60846446D01*
X240423059Y-60846446D02*
X240461154Y-60884541D01*
X240461154Y-60884541D02*
X240499250Y-60960732D01*
X240499250Y-60960732D02*
X240499250Y-61113113D01*
X240499250Y-61113113D02*
X240461154Y-61189303D01*
X240461154Y-61189303D02*
X240423059Y-61227399D01*
X240423059Y-61227399D02*
X240346869Y-61265494D01*
X240346869Y-61265494D02*
X240194488Y-61265494D01*
X240194488Y-61265494D02*
X240118297Y-61227399D01*
X240118297Y-61227399D02*
X240080202Y-61189303D01*
X240080202Y-61189303D02*
X240042107Y-61113113D01*
X240042107Y-61113113D02*
X240042107Y-60960732D01*
X240042107Y-60960732D02*
X240080202Y-60884541D01*
X240080202Y-60884541D02*
X240118297Y-60846446D01*
X240118297Y-60846446D02*
X240194488Y-60808351D01*
X232423059Y-51105494D02*
X232423059Y-50305494D01*
X232423059Y-50305494D02*
X232118297Y-50305494D01*
X232118297Y-50305494D02*
X232042107Y-50343589D01*
X232042107Y-50343589D02*
X232004012Y-50381684D01*
X232004012Y-50381684D02*
X231965916Y-50457875D01*
X231965916Y-50457875D02*
X231965916Y-50572160D01*
X231965916Y-50572160D02*
X232004012Y-50648351D01*
X232004012Y-50648351D02*
X232042107Y-50686446D01*
X232042107Y-50686446D02*
X232118297Y-50724541D01*
X232118297Y-50724541D02*
X232423059Y-50724541D01*
X231204012Y-51105494D02*
X231661155Y-51105494D01*
X231432583Y-51105494D02*
X231432583Y-50305494D01*
X231432583Y-50305494D02*
X231508774Y-50419779D01*
X231508774Y-50419779D02*
X231584964Y-50495970D01*
X231584964Y-50495970D02*
X231661155Y-50534065D01*
X230823059Y-51105494D02*
X230670678Y-51105494D01*
X230670678Y-51105494D02*
X230594488Y-51067399D01*
X230594488Y-51067399D02*
X230556392Y-51029303D01*
X230556392Y-51029303D02*
X230480202Y-50915018D01*
X230480202Y-50915018D02*
X230442107Y-50762637D01*
X230442107Y-50762637D02*
X230442107Y-50457875D01*
X230442107Y-50457875D02*
X230480202Y-50381684D01*
X230480202Y-50381684D02*
X230518297Y-50343589D01*
X230518297Y-50343589D02*
X230594488Y-50305494D01*
X230594488Y-50305494D02*
X230746869Y-50305494D01*
X230746869Y-50305494D02*
X230823059Y-50343589D01*
X230823059Y-50343589D02*
X230861154Y-50381684D01*
X230861154Y-50381684D02*
X230899250Y-50457875D01*
X230899250Y-50457875D02*
X230899250Y-50648351D01*
X230899250Y-50648351D02*
X230861154Y-50724541D01*
X230861154Y-50724541D02*
X230823059Y-50762637D01*
X230823059Y-50762637D02*
X230746869Y-50800732D01*
X230746869Y-50800732D02*
X230594488Y-50800732D01*
X230594488Y-50800732D02*
X230518297Y-50762637D01*
X230518297Y-50762637D02*
X230480202Y-50724541D01*
X230480202Y-50724541D02*
X230442107Y-50648351D01*
X241661154Y-42723589D02*
X241737344Y-42685494D01*
X241737344Y-42685494D02*
X241851630Y-42685494D01*
X241851630Y-42685494D02*
X241965916Y-42723589D01*
X241965916Y-42723589D02*
X242042106Y-42799779D01*
X242042106Y-42799779D02*
X242080201Y-42875970D01*
X242080201Y-42875970D02*
X242118297Y-43028351D01*
X242118297Y-43028351D02*
X242118297Y-43142637D01*
X242118297Y-43142637D02*
X242080201Y-43295018D01*
X242080201Y-43295018D02*
X242042106Y-43371208D01*
X242042106Y-43371208D02*
X241965916Y-43447399D01*
X241965916Y-43447399D02*
X241851630Y-43485494D01*
X241851630Y-43485494D02*
X241775439Y-43485494D01*
X241775439Y-43485494D02*
X241661154Y-43447399D01*
X241661154Y-43447399D02*
X241623058Y-43409303D01*
X241623058Y-43409303D02*
X241623058Y-43142637D01*
X241623058Y-43142637D02*
X241775439Y-43142637D01*
X241280201Y-43485494D02*
X241280201Y-42685494D01*
X241280201Y-42685494D02*
X240823058Y-43485494D01*
X240823058Y-43485494D02*
X240823058Y-42685494D01*
X240442106Y-43485494D02*
X240442106Y-42685494D01*
X240442106Y-42685494D02*
X240251630Y-42685494D01*
X240251630Y-42685494D02*
X240137344Y-42723589D01*
X240137344Y-42723589D02*
X240061154Y-42799779D01*
X240061154Y-42799779D02*
X240023059Y-42875970D01*
X240023059Y-42875970D02*
X239984963Y-43028351D01*
X239984963Y-43028351D02*
X239984963Y-43142637D01*
X239984963Y-43142637D02*
X240023059Y-43295018D01*
X240023059Y-43295018D02*
X240061154Y-43371208D01*
X240061154Y-43371208D02*
X240137344Y-43447399D01*
X240137344Y-43447399D02*
X240251630Y-43485494D01*
X240251630Y-43485494D02*
X240442106Y-43485494D01*
X232423059Y-58725494D02*
X232423059Y-57925494D01*
X232423059Y-57925494D02*
X232118297Y-57925494D01*
X232118297Y-57925494D02*
X232042107Y-57963589D01*
X232042107Y-57963589D02*
X232004012Y-58001684D01*
X232004012Y-58001684D02*
X231965916Y-58077875D01*
X231965916Y-58077875D02*
X231965916Y-58192160D01*
X231965916Y-58192160D02*
X232004012Y-58268351D01*
X232004012Y-58268351D02*
X232042107Y-58306446D01*
X232042107Y-58306446D02*
X232118297Y-58344541D01*
X232118297Y-58344541D02*
X232423059Y-58344541D01*
X231204012Y-58725494D02*
X231661155Y-58725494D01*
X231432583Y-58725494D02*
X231432583Y-57925494D01*
X231432583Y-57925494D02*
X231508774Y-58039779D01*
X231508774Y-58039779D02*
X231584964Y-58115970D01*
X231584964Y-58115970D02*
X231661155Y-58154065D01*
X230518297Y-58192160D02*
X230518297Y-58725494D01*
X230708773Y-57887399D02*
X230899250Y-58458827D01*
X230899250Y-58458827D02*
X230404011Y-58458827D01*
D12*
%TO.C,RST*%
X234000000Y-38100000D02*
X236000000Y-38100000D01*
X234000000Y-40900000D02*
X234000000Y-38100000D01*
X236000000Y-38100000D02*
X236000000Y-40900000D01*
X236000000Y-40900000D02*
X234000000Y-40900000D01*
D11*
%TO.C,S1*%
X242540531Y-80229699D02*
X242540531Y-86229699D01*
X242540531Y-86229699D02*
X245140531Y-86229699D01*
X245140531Y-80229699D02*
X242540531Y-80229699D01*
X245140531Y-83229699D02*
X245140531Y-80229699D01*
X245140531Y-83229699D02*
X245140531Y-86229699D01*
X245140531Y-85179699D02*
X245140531Y-81279699D01*
%TO.C,U1*%
X227361631Y-31693199D02*
X227361631Y-64713199D01*
X227361631Y-64713199D02*
X245141631Y-64713199D01*
X245141631Y-31693199D02*
X227361631Y-31693199D01*
X245141631Y-64713199D02*
X245141631Y-31693199D01*
%TD*%
M02*
