M48
; DRILL file {KiCad 8.0.0} date 2024-06-08T15:10:33+0200
; FORMAT={-:-/ absolute / metric / decimal}
; #@! TF.CreationDate,2024-06-08T15:10:33+02:00
; #@! TF.GenerationSoftware,Kicad,Pcbnew,8.0.0
; #@! TF.FileFunction,NonPlated,1,2,NPTH
FMAT,2
METRIC
; #@! TA.AperFunction,NonPlated,NPTH,ComponentDrill
T1C1.702
; #@! TA.AperFunction,NonPlated,NPTH,ComponentDrill
T2C2.200
; #@! TA.AperFunction,NonPlated,NPTH,ComponentDrill
T3C3.000
; #@! TA.AperFunction,NonPlated,NPTH,ComponentDrill
T4C3.429
%
G90
G05
T1
X64.161Y-140.425
X70.535Y-141.581
X71.939Y-132.646
X73.096Y-139.021
X79.188Y-127.059
X85.045Y-129.826
X88.181Y-128.016
X88.714Y-121.559
X96.47Y-56.261
X96.47Y-75.367
X96.47Y-94.378
X97.188Y-118.059
X100.159Y-61.586
X100.159Y-80.692
X100.159Y-99.703
X102.13Y-122.248
X103.78Y-61.586
X103.78Y-80.692
X103.78Y-99.703
X105.627Y-121.311
X107.47Y-56.261
X107.47Y-75.367
X107.47Y-94.378
X107.813Y-115.212
X115.471Y-53.371
X115.471Y-72.526
X115.471Y-91.703
X119.16Y-58.696
X119.16Y-77.851
X119.16Y-97.028
X122.781Y-58.696
X122.781Y-77.851
X122.781Y-97.028
X126.471Y-53.371
X126.471Y-72.526
X126.471Y-91.703
X135.131Y-87.176
X136.681Y-68.086
X138.342Y-92.802
X138.423Y-49.049
X139.892Y-73.712
X141.635Y-54.676
X141.95Y-93.118
X143.5Y-74.028
X145.242Y-54.991
X146.089Y-88.135
X147.639Y-69.045
X149.382Y-50.008
X153.314Y-95.54
X156.023Y-101.425
X156.634Y-76.72
X159.343Y-82.605
X159.589Y-102.054
X160.066Y-58.021
X162.775Y-63.906
X162.909Y-83.234
X164.147Y-97.451
X166.341Y-64.534
X167.467Y-78.631
X167.525Y-116.796
X169.496Y-122.967
X170.899Y-59.931
X172.959Y-124.026
X173.075Y-98.566
X175.046Y-104.737
X178.044Y-120.012
X178.509Y-105.796
X178.621Y-80.208
X180.592Y-86.379
X183.594Y-101.782
X184.055Y-87.437
X189.14Y-83.424
T2
X110.336Y-54.25
T3
X61.863Y-137.419
X63.843Y-132.328
X63.843Y-132.328
X77.746Y-123.562
X80.976Y-119.156
X80.976Y-119.156
X96.7Y-114.307
X96.97Y-52.511
X96.97Y-71.617
X96.97Y-90.628
X100.96Y-110.888
X100.96Y-110.888
X101.97Y-50.311
X101.97Y-50.311
X101.97Y-69.417
X101.97Y-69.417
X101.97Y-88.428
X101.97Y-88.428
X115.971Y-49.621
X115.971Y-68.776
X115.971Y-87.953
X120.971Y-47.421
X120.971Y-47.421
X120.971Y-66.576
X120.971Y-66.576
X120.971Y-85.753
X120.971Y-85.753
X135.956Y-83.484
X137.506Y-64.394
X139.248Y-45.357
X141.129Y-81.728
X141.129Y-81.728
X142.679Y-62.638
X142.679Y-62.638
X144.421Y-43.601
X144.421Y-43.601
X154.457Y-91.934
X157.777Y-73.114
X159.763Y-90.636
X159.763Y-90.636
X161.21Y-54.415
X163.083Y-71.816
X163.083Y-71.816
X166.516Y-53.116
X166.516Y-53.116
X169.1Y-113.356
X174.524Y-112.714
X174.524Y-112.714
X174.65Y-95.126
X180.074Y-94.484
X180.074Y-94.484
X180.195Y-76.768
X185.62Y-76.126
X185.62Y-76.126
T4
X68.05Y-136.536
X83.951Y-124.309
X101.97Y-56.261
X101.97Y-75.367
X101.97Y-94.378
X102.5Y-116.636
X120.971Y-53.371
X120.971Y-72.526
X120.971Y-91.703
X140.61Y-87.656
X142.16Y-68.566
X143.902Y-49.529
X158.73Y-96.496
X162.05Y-77.676
X165.483Y-58.976
X172.785Y-118.404
X178.335Y-100.174
X183.88Y-81.816
M30
