M48
; DRILL file {KiCad 8.0.0} date 2024-06-08T15:10:32+0200
; FORMAT={-:-/ absolute / metric / decimal}
; #@! TF.CreationDate,2024-06-08T15:10:32+02:00
; #@! TF.GenerationSoftware,Kicad,Pcbnew,8.0.0
; #@! TF.FileFunction,Plated,1,2,PTH
FMAT,2
METRIC
; #@! TA.AperFunction,Plated,PTH,ViaDrill
T1C0.300
; #@! TA.AperFunction,Plated,PTH,ComponentDrill
T2C0.762
%
G90
G05
T1
X77.2Y-84.0
X78.0Y-84.0
X85.0Y-57.0
T2
X74.262Y-52.826
X74.262Y-55.366
X74.262Y-57.906
X74.262Y-60.446
X74.262Y-62.986
X74.262Y-65.526
X74.262Y-68.066
X74.262Y-70.606
X74.262Y-73.146
X74.262Y-75.686
X74.262Y-78.226
X74.262Y-80.766
X74.262Y-83.306
X89.502Y-52.826
X89.502Y-55.366
X89.502Y-57.906
X89.502Y-60.446
X89.502Y-62.986
X89.502Y-65.526
X89.502Y-68.066
X89.502Y-70.606
X89.502Y-73.146
X89.502Y-75.686
X89.502Y-78.226
X89.502Y-80.766
X89.502Y-83.306
M30
