%TF.GenerationSoftware,KiCad,Pcbnew,8.0.0*%
%TF.CreationDate,2024-06-08T15:10:29+02:00*%
%TF.ProjectId,goos-left,676f6f73-2d6c-4656-9674-2e6b69636164,rev?*%
%TF.SameCoordinates,Original*%
%TF.FileFunction,Profile,NP*%
%FSLAX46Y46*%
G04 Gerber Fmt 4.6, Leading zero omitted, Abs format (unit mm)*
G04 Created by KiCad (PCBNEW 8.0.0) date 2024-06-08 15:10:29*
%MOMM*%
%LPD*%
G01*
G04 APERTURE LIST*
%TA.AperFunction,Profile*%
%ADD10C,0.050000*%
%TD*%
G04 APERTURE END LIST*
D10*
X180486951Y-130633950D02*
X196521077Y-76665696D01*
X133995814Y-40110664D02*
X133992386Y-40207236D01*
X54019101Y-137383949D02*
G75*
G02*
X53973555Y-135687536I974779J874989D01*
G01*
X157358314Y-47144736D02*
G75*
G02*
X155358264Y-45144736I-14J2000036D01*
G01*
X89669100Y-50744736D02*
X74383314Y-50748164D01*
X176833883Y-68292928D02*
G75*
G02*
X175737247Y-66295195I530417J1591028D01*
G01*
X112648000Y-124046202D02*
G75*
G02*
X115010712Y-123763786I1760100J-4700598D01*
G01*
X133988958Y-40216308D02*
G75*
G02*
X131988958Y-42216258I-1999858J-92D01*
G01*
X81743000Y-137461200D02*
X96924529Y-128647689D01*
X195424429Y-74667960D02*
G75*
G02*
X196521008Y-76665679I-530529J-1591040D01*
G01*
X115010710Y-123763798D02*
X161394100Y-126008950D01*
X96924529Y-128647689D02*
G75*
G02*
X98068004Y-128046209I3343471J-4968611D01*
G01*
X175737235Y-66295192D02*
X178050965Y-52472707D01*
X131988958Y-42216308D02*
X113367386Y-42294736D01*
X155358314Y-45144736D02*
X155492386Y-41935664D01*
X68869100Y-150458949D02*
X80513041Y-138588811D01*
X91644100Y-48333950D02*
G75*
G02*
X93644100Y-46333900I2000100J-50D01*
G01*
X153492386Y-39935664D02*
X135995814Y-38110664D01*
X98068000Y-128046200D02*
X112648000Y-124046200D01*
X54019100Y-137383950D02*
X67119101Y-150258949D01*
X68869100Y-150458949D02*
G75*
G02*
X67119094Y-150258954I-775000J975049D01*
G01*
X72383314Y-52748164D02*
X72384842Y-116582380D01*
X176954317Y-50474972D02*
G75*
G02*
X178050890Y-52472688I-530517J-1591028D01*
G01*
X153492386Y-39935664D02*
G75*
G02*
X155492336Y-41935664I-86J-2000036D01*
G01*
X91669100Y-48744736D02*
G75*
G02*
X89669100Y-50744800I-1999900J-164D01*
G01*
X71844100Y-118058950D02*
X53973550Y-135687532D01*
X111365672Y-44330522D02*
G75*
G02*
X109365672Y-46330472I-1999872J-78D01*
G01*
X180486950Y-130633950D02*
G75*
G02*
X179166544Y-131467259I-1017850J150050D01*
G01*
X133995814Y-40110664D02*
G75*
G02*
X135995814Y-38110614I1999886J164D01*
G01*
X91644100Y-48333950D02*
X91669100Y-48744736D01*
X111367388Y-44266200D02*
G75*
G02*
X113367386Y-42294484I2000112J-28600D01*
G01*
X111365672Y-44330522D02*
X111367388Y-44266200D01*
X80513042Y-138588812D02*
G75*
G02*
X81743007Y-137461210I4814258J-4016688D01*
G01*
X72384842Y-116582380D02*
G75*
G02*
X71844118Y-118058967I-1941242J-126420D01*
G01*
X195424429Y-74667960D02*
X176833883Y-68292928D01*
X161394100Y-126008950D02*
X179166532Y-131467298D01*
X176954317Y-50474971D02*
X157358314Y-47144736D01*
X109365672Y-46330522D02*
X93644100Y-46333950D01*
X72383314Y-52748164D02*
G75*
G02*
X74383314Y-50748114I2000086J-36D01*
G01*
M02*
