%TF.GenerationSoftware,KiCad,Pcbnew,8.0.0*%
%TF.CreationDate,2024-06-08T15:13:20+02:00*%
%TF.ProjectId,goos-right,676f6f73-2d72-4696-9768-742e6b696361,rev?*%
%TF.SameCoordinates,Original*%
%TF.FileFunction,Paste,Top*%
%TF.FilePolarity,Positive*%
%FSLAX46Y46*%
G04 Gerber Fmt 4.6, Leading zero omitted, Abs format (unit mm)*
G04 Created by KiCad (PCBNEW 8.0.0) date 2024-06-08 15:13:20*
%MOMM*%
%LPD*%
G01*
G04 APERTURE LIST*
G04 Aperture macros list*
%AMRotRect*
0 Rectangle, with rotation*
0 The origin of the aperture is its center*
0 $1 length*
0 $2 width*
0 $3 Rotation angle, in degrees counterclockwise*
0 Add horizontal line*
21,1,$1,$2,0,0,$3*%
G04 Aperture macros list end*
%ADD10RotRect,2.600000X2.600000X5.000000*%
%ADD11R,2.600000X2.600000*%
%ADD12RotRect,2.600000X2.600000X330.000000*%
%ADD13RotRect,2.600000X2.600000X17.000000*%
%ADD14RotRect,2.600000X2.600000X10.000000*%
%ADD15R,0.900000X0.900000*%
%ADD16R,1.250000X0.900000*%
%ADD17RotRect,2.600000X2.600000X345.000000*%
%ADD18RotRect,2.600000X2.600000X315.000000*%
G04 APERTURE END LIST*
D10*
%TO.C,S8*%
X177274492Y-25467405D03*
X165960186Y-28665683D03*
%TD*%
D11*
%TO.C,S13*%
X200476631Y-63629899D03*
X188926631Y-65829899D03*
%TD*%
D12*
%TO.C,S18*%
X240030364Y-100854148D03*
X228927771Y-96984404D03*
%TD*%
D13*
%TO.C,S2*%
X136271817Y-57310668D03*
X125869715Y-62791432D03*
%TD*%
D11*
%TO.C,S16*%
X219476631Y-66463199D03*
X207926631Y-68663199D03*
%TD*%
D10*
%TO.C,S9*%
X178756092Y-42402705D03*
X167441786Y-45600983D03*
%TD*%
D14*
%TO.C,S5*%
X155369670Y-34556295D03*
X144377166Y-38728509D03*
%TD*%
D15*
%TO.C,S1*%
X244890531Y-79529699D03*
X242690531Y-79529699D03*
X244890531Y-86929699D03*
X242690531Y-86929699D03*
D16*
X241715531Y-85479699D03*
X241715531Y-82479699D03*
X241715531Y-80979699D03*
%TD*%
D17*
%TO.C,S17*%
X220384911Y-91791373D03*
X208659066Y-90927050D03*
%TD*%
D11*
%TO.C,S15*%
X219476631Y-49463199D03*
X207926631Y-51663199D03*
%TD*%
D13*
%TO.C,S4*%
X146212517Y-89824968D03*
X135810415Y-95305732D03*
%TD*%
D11*
%TO.C,S11*%
X200476631Y-29629899D03*
X188926631Y-31829899D03*
%TD*%
D10*
%TO.C,S10*%
X180237792Y-59338005D03*
X168923486Y-62536283D03*
%TD*%
D18*
%TO.C,S19*%
X256660791Y-114692788D03*
X246938073Y-108081340D03*
%TD*%
D14*
%TO.C,S7*%
X161273670Y-68039795D03*
X150281166Y-72212009D03*
%TD*%
%TO.C,S6*%
X158321670Y-51298095D03*
X147329166Y-55470309D03*
%TD*%
D11*
%TO.C,S12*%
X200476631Y-46629899D03*
X188926631Y-48829899D03*
%TD*%
%TO.C,S14*%
X219476631Y-32463199D03*
X207926631Y-34663199D03*
%TD*%
D13*
%TO.C,S3*%
X141242217Y-73567768D03*
X130840115Y-79048532D03*
%TD*%
M02*
