M48
; DRILL file {KiCad 8.0.0} date 2024-06-08T15:13:33+0200
; FORMAT={-:-/ absolute / metric / decimal}
; #@! TF.CreationDate,2024-06-08T15:13:33+02:00
; #@! TF.GenerationSoftware,Kicad,Pcbnew,8.0.0
; #@! TF.FileFunction,Plated,1,2,PTH
FMAT,2
METRIC
; #@! TA.AperFunction,Plated,PTH,ViaDrill
T1C0.300
; #@! TA.AperFunction,Plated,PTH,ComponentDrill
T2C0.762
%
G90
G05
T1
X131.0Y-60.0
X136.0Y-76.5
X150.0Y-37.0
X241.0Y-64.0
X242.0Y-64.0
T2
X228.582Y-32.903
X228.582Y-35.443
X228.582Y-37.983
X228.582Y-40.523
X228.582Y-43.063
X228.582Y-45.603
X228.582Y-48.143
X228.582Y-50.683
X228.582Y-53.223
X228.582Y-55.763
X228.582Y-58.303
X228.582Y-60.843
X228.582Y-63.383
X243.822Y-32.903
X243.822Y-35.443
X243.822Y-37.983
X243.822Y-40.523
X243.822Y-43.063
X243.822Y-45.603
X243.822Y-48.143
X243.822Y-50.683
X243.822Y-53.223
X243.822Y-55.763
X243.822Y-58.303
X243.822Y-60.843
X243.822Y-63.383
M30
