%TF.GenerationSoftware,KiCad,Pcbnew,8.0.0*%
%TF.CreationDate,2024-06-08T15:10:29+02:00*%
%TF.ProjectId,goos-left,676f6f73-2d6c-4656-9674-2e6b69636164,rev?*%
%TF.SameCoordinates,Original*%
%TF.FileFunction,Legend,Top*%
%TF.FilePolarity,Positive*%
%FSLAX46Y46*%
G04 Gerber Fmt 4.6, Leading zero omitted, Abs format (unit mm)*
G04 Created by KiCad (PCBNEW 8.0.0) date 2024-06-08 15:10:29*
%MOMM*%
%LPD*%
G01*
G04 APERTURE LIST*
%ADD10C,0.100000*%
%ADD11C,0.150000*%
%ADD12C,0.120000*%
G04 APERTURE END LIST*
D10*
G36*
X81890911Y-79567977D02*
G01*
X81943896Y-79574732D01*
X81973944Y-79579629D01*
X82023343Y-79587516D01*
X82074062Y-79594786D01*
X82105347Y-79598191D01*
X82340064Y-79614067D01*
X82390743Y-79616320D01*
X82445309Y-79620706D01*
X82494967Y-79626985D01*
X82545709Y-79636480D01*
X82568675Y-79642155D01*
X82615405Y-79657491D01*
X82661826Y-79679339D01*
X82705146Y-79709429D01*
X82735737Y-79741073D01*
X82764161Y-79786930D01*
X82782370Y-79834568D01*
X82794361Y-79889218D01*
X82799691Y-79941643D01*
X82800706Y-79979454D01*
X82799585Y-80028519D01*
X82795712Y-80077596D01*
X82787412Y-80128933D01*
X82786540Y-80132839D01*
X82767888Y-80182065D01*
X82729540Y-80215164D01*
X82704230Y-80219301D01*
X82656195Y-80206153D01*
X82637308Y-80159461D01*
X82642964Y-80109957D01*
X82649275Y-80077152D01*
X82656941Y-80028262D01*
X82660009Y-79979484D01*
X82660022Y-79949413D01*
X82653077Y-79895614D01*
X82634163Y-79849622D01*
X82603282Y-79811438D01*
X82560432Y-79781061D01*
X82530573Y-79767207D01*
X82482366Y-79752660D01*
X82430818Y-79743111D01*
X82379676Y-79737289D01*
X82322111Y-79733649D01*
X82269234Y-79732281D01*
X82314266Y-79756867D01*
X82354986Y-79787108D01*
X82386470Y-79820697D01*
X82411772Y-79864631D01*
X82424175Y-79913483D01*
X82425549Y-79937689D01*
X82421412Y-79989858D01*
X82409000Y-80037586D01*
X82384682Y-80086694D01*
X82349557Y-80130002D01*
X82339087Y-80139922D01*
X82298794Y-80170281D01*
X82253569Y-80193183D01*
X82203411Y-80208629D01*
X82148322Y-80216618D01*
X82114628Y-80217835D01*
X82057341Y-80215236D01*
X82003631Y-80207436D01*
X81953499Y-80194437D01*
X81906945Y-80176238D01*
X81863969Y-80152839D01*
X81817120Y-80117897D01*
X81809813Y-80111346D01*
X81775546Y-80075055D01*
X81747087Y-80034877D01*
X81724436Y-79990810D01*
X81707593Y-79942856D01*
X81696558Y-79891014D01*
X81691331Y-79835284D01*
X81691003Y-79818743D01*
X81831550Y-79818743D01*
X81835489Y-79873071D01*
X81847305Y-79921719D01*
X81870455Y-79970361D01*
X81903893Y-80011585D01*
X81913860Y-80020731D01*
X81958676Y-80051665D01*
X82003865Y-80070662D01*
X82054091Y-80081661D01*
X82102172Y-80084723D01*
X82154698Y-80081026D01*
X82202284Y-80068419D01*
X82239192Y-80046865D01*
X82270414Y-80006541D01*
X82283750Y-79956203D01*
X82284865Y-79933537D01*
X82274802Y-79882063D01*
X82247896Y-79835843D01*
X82213302Y-79798715D01*
X82172205Y-79766758D01*
X82127274Y-79743121D01*
X82082632Y-79731548D01*
X82032787Y-79722327D01*
X81982022Y-79714641D01*
X81929664Y-79707690D01*
X81878888Y-79701565D01*
X81869897Y-79700529D01*
X81845627Y-79744846D01*
X81841076Y-79757682D01*
X81831885Y-79806996D01*
X81831550Y-79818743D01*
X81691003Y-79818743D01*
X81690867Y-79811904D01*
X81694092Y-79759885D01*
X81705679Y-79710166D01*
X81707719Y-79704681D01*
X81733469Y-79660577D01*
X81758033Y-79638736D01*
X81772681Y-79591136D01*
X81817668Y-79567013D01*
X81841076Y-79565219D01*
X81890911Y-79567977D01*
G37*
G36*
X81518920Y-79289957D02*
G01*
X81505376Y-79337733D01*
X81498403Y-79347110D01*
X81453954Y-79370835D01*
X81448578Y-79371046D01*
X81402918Y-79351387D01*
X81398996Y-79347110D01*
X81378966Y-79302013D01*
X81378236Y-79289957D01*
X81391941Y-79242503D01*
X81398996Y-79233293D01*
X81443203Y-79209809D01*
X81448578Y-79209601D01*
X81494438Y-79229059D01*
X81498403Y-79233293D01*
X81518419Y-79279879D01*
X81518920Y-79289957D01*
G37*
G36*
X82089227Y-79258938D02*
G01*
X82141434Y-79258388D01*
X82194293Y-79257255D01*
X82214523Y-79256740D01*
X82267044Y-79255349D01*
X82316464Y-79254450D01*
X82340064Y-79254297D01*
X82386616Y-79269543D01*
X82390378Y-79272860D01*
X82409841Y-79317968D01*
X82409918Y-79321708D01*
X82392744Y-79367647D01*
X82390378Y-79370069D01*
X82343867Y-79388802D01*
X82340064Y-79388875D01*
X82287674Y-79389486D01*
X82234757Y-79390745D01*
X82214523Y-79391318D01*
X82162031Y-79392708D01*
X82112720Y-79393607D01*
X82089227Y-79393760D01*
X82040219Y-79392952D01*
X81989004Y-79390815D01*
X81937486Y-79387749D01*
X81925340Y-79386921D01*
X81872680Y-79383497D01*
X81820196Y-79381007D01*
X81769792Y-79379866D01*
X81761453Y-79379838D01*
X81714175Y-79364393D01*
X81710406Y-79361032D01*
X81690886Y-79314493D01*
X81690867Y-79312671D01*
X81708040Y-79266704D01*
X81710406Y-79264311D01*
X81755650Y-79245428D01*
X81761453Y-79245260D01*
X81810461Y-79246069D01*
X81861676Y-79248206D01*
X81913193Y-79251271D01*
X81925340Y-79252099D01*
X81978000Y-79255405D01*
X82030483Y-79257809D01*
X82080887Y-79258911D01*
X82089227Y-79258938D01*
G37*
G36*
X81823735Y-78569685D02*
G01*
X81822513Y-78603879D01*
X81821048Y-78637828D01*
X81826012Y-78688644D01*
X81831550Y-78731129D01*
X82229666Y-78718184D01*
X82259220Y-78717452D01*
X82293658Y-78716719D01*
X82343793Y-78718433D01*
X82394503Y-78729188D01*
X82434121Y-78759777D01*
X82441181Y-78788771D01*
X82424677Y-78835368D01*
X82423595Y-78836642D01*
X82379631Y-78856914D01*
X82329517Y-78855905D01*
X82302695Y-78854960D01*
X82253107Y-78853183D01*
X82225758Y-78852762D01*
X81831550Y-78866440D01*
X81828515Y-78915788D01*
X81824479Y-78965543D01*
X81819583Y-79019092D01*
X81798150Y-79064887D01*
X81750462Y-79080152D01*
X81703267Y-79064907D01*
X81699415Y-79061590D01*
X81679163Y-79015998D01*
X81679143Y-79014207D01*
X81690867Y-78870103D01*
X81640167Y-78871344D01*
X81601229Y-78873279D01*
X81550366Y-78875565D01*
X81520141Y-78876209D01*
X81474467Y-78856426D01*
X81456411Y-78809370D01*
X81456393Y-78807577D01*
X81477645Y-78760794D01*
X81525250Y-78739751D01*
X81553114Y-78735281D01*
X81603336Y-78733358D01*
X81611732Y-78733327D01*
X81650078Y-78734549D01*
X81690867Y-78735281D01*
X81684609Y-78685308D01*
X81679876Y-78637828D01*
X81681004Y-78587866D01*
X81686714Y-78544283D01*
X81721396Y-78507453D01*
X81752660Y-78502518D01*
X81799855Y-78518164D01*
X81803707Y-78521569D01*
X81823715Y-78567863D01*
X81823735Y-78569685D01*
G37*
G36*
X82441181Y-77794946D02*
G01*
X82422926Y-77841072D01*
X82389401Y-77858938D01*
X82340675Y-77870318D01*
X82289994Y-77879277D01*
X82236551Y-77886932D01*
X82230155Y-77887759D01*
X82177315Y-77893662D01*
X82125174Y-77897955D01*
X82075810Y-77899923D01*
X82067733Y-77899971D01*
X82018203Y-77898468D01*
X82013756Y-77898261D01*
X81964522Y-77896578D01*
X81959778Y-77896551D01*
X81909814Y-77899637D01*
X81859725Y-77914749D01*
X81831676Y-77957065D01*
X81831550Y-77961032D01*
X81839302Y-78013844D01*
X81862558Y-78062984D01*
X81896743Y-78104069D01*
X81910929Y-78117103D01*
X81951745Y-78147122D01*
X81996015Y-78174414D01*
X82038542Y-78198474D01*
X82066024Y-78213334D01*
X82129359Y-78213678D01*
X82185886Y-78214708D01*
X82235604Y-78216426D01*
X82288179Y-78219538D01*
X82337226Y-78224690D01*
X82382074Y-78235316D01*
X82419435Y-78267736D01*
X82425549Y-78295156D01*
X82408805Y-78341810D01*
X82406498Y-78344493D01*
X82361550Y-78365721D01*
X82359848Y-78365742D01*
X82329806Y-78359636D01*
X82279176Y-78353841D01*
X82230155Y-78352064D01*
X82129038Y-78349866D01*
X81626631Y-78347912D01*
X81574915Y-78345131D01*
X81525509Y-78343199D01*
X81512569Y-78343027D01*
X81462377Y-78346737D01*
X81446624Y-78349622D01*
X81396517Y-78355901D01*
X81381899Y-78356216D01*
X81335701Y-78337650D01*
X81334516Y-78336433D01*
X81315783Y-78290938D01*
X81315710Y-78287340D01*
X81332046Y-78240629D01*
X81373595Y-78221394D01*
X81423492Y-78214436D01*
X81472539Y-78210910D01*
X81488878Y-78210648D01*
X81541543Y-78211300D01*
X81591267Y-78213045D01*
X81632981Y-78215288D01*
X81683199Y-78217566D01*
X81734109Y-78218689D01*
X81780992Y-78218708D01*
X81841320Y-78217975D01*
X81801882Y-78185640D01*
X81765131Y-78148307D01*
X81733300Y-78105533D01*
X81728480Y-78097563D01*
X81707065Y-78052478D01*
X81693842Y-78001187D01*
X81690867Y-77961276D01*
X81695492Y-77908718D01*
X81711753Y-77860283D01*
X81743552Y-77819744D01*
X81764872Y-77804716D01*
X81814068Y-77785677D01*
X81864083Y-77776221D01*
X81917981Y-77771286D01*
X81940483Y-77770278D01*
X82071397Y-77764660D01*
X82214279Y-77750983D01*
X82267105Y-77743914D01*
X82315428Y-77735807D01*
X82355451Y-77727535D01*
X82375235Y-77724849D01*
X82421189Y-77744332D01*
X82422374Y-77745609D01*
X82441107Y-77791376D01*
X82441181Y-77794946D01*
G37*
G36*
X82004230Y-77001401D02*
G01*
X82054760Y-77001261D01*
X82107187Y-77000954D01*
X82146379Y-77000669D01*
X82195937Y-77000314D01*
X82246328Y-77000039D01*
X82288529Y-76999936D01*
X82332737Y-76997738D01*
X82376700Y-76995295D01*
X82421967Y-77014091D01*
X82423107Y-77015323D01*
X82441163Y-77062135D01*
X82441181Y-77063928D01*
X82427038Y-77111343D01*
X82396484Y-77131339D01*
X82418090Y-77181648D01*
X82431360Y-77229871D01*
X82439042Y-77281391D01*
X82441181Y-77329175D01*
X82437364Y-77382346D01*
X82424351Y-77433891D01*
X82402102Y-77478163D01*
X82367873Y-77516763D01*
X82324293Y-77542895D01*
X82276561Y-77555833D01*
X82221797Y-77563502D01*
X82168941Y-77569872D01*
X82117994Y-77574942D01*
X82068954Y-77578711D01*
X82012626Y-77581519D01*
X81959045Y-77582455D01*
X81905222Y-77580832D01*
X81853973Y-77576665D01*
X81799518Y-77569933D01*
X81749241Y-77561939D01*
X81703693Y-77538790D01*
X81690867Y-77496726D01*
X81706967Y-77449900D01*
X81709185Y-77447389D01*
X81754533Y-77427380D01*
X81756324Y-77427361D01*
X81805784Y-77430891D01*
X81854509Y-77437375D01*
X81904000Y-77443700D01*
X81952784Y-77447106D01*
X81957336Y-77447145D01*
X82011038Y-77446671D01*
X82060772Y-77445252D01*
X82111979Y-77442523D01*
X82148333Y-77439573D01*
X82199212Y-77433502D01*
X82249816Y-77424094D01*
X82275828Y-77417103D01*
X82294146Y-77372406D01*
X82300497Y-77329175D01*
X82298217Y-77276569D01*
X82291378Y-77222340D01*
X82281471Y-77172774D01*
X82271676Y-77134758D01*
X82135144Y-77135246D01*
X82004719Y-77136712D01*
X81951653Y-77136257D01*
X81901267Y-77134892D01*
X81845868Y-77132148D01*
X81794116Y-77128166D01*
X81752660Y-77123767D01*
X81706315Y-77103312D01*
X81690867Y-77057089D01*
X81707181Y-77010263D01*
X81709429Y-77007752D01*
X81755347Y-76988945D01*
X82004230Y-77001401D01*
G37*
G36*
X82123076Y-76164517D02*
G01*
X82176814Y-76175181D01*
X82227238Y-76192956D01*
X82274347Y-76217840D01*
X82318142Y-76249834D01*
X82332004Y-76262078D01*
X82369107Y-76301649D01*
X82398533Y-76344705D01*
X82420284Y-76391247D01*
X82434357Y-76441276D01*
X82440754Y-76494791D01*
X82441181Y-76513404D01*
X82438143Y-76564726D01*
X82429030Y-76613666D01*
X82413841Y-76660225D01*
X82392576Y-76704402D01*
X82423488Y-76742733D01*
X82425549Y-76757891D01*
X82407475Y-76802343D01*
X82362046Y-76820417D01*
X82311929Y-76818813D01*
X82309778Y-76818708D01*
X82260715Y-76817013D01*
X82257266Y-76816998D01*
X82205068Y-76817380D01*
X82153213Y-76818235D01*
X82100476Y-76819383D01*
X82049803Y-76820666D01*
X82040867Y-76820906D01*
X81989269Y-76822151D01*
X81935476Y-76823278D01*
X81882440Y-76824137D01*
X81833542Y-76824555D01*
X81824223Y-76824570D01*
X81774352Y-76824467D01*
X81720539Y-76824254D01*
X81668961Y-76824009D01*
X81635668Y-76823837D01*
X81586752Y-76823588D01*
X81537542Y-76823362D01*
X81486704Y-76823176D01*
X81446624Y-76823104D01*
X81396345Y-76815741D01*
X81372862Y-76806007D01*
X81337180Y-76770935D01*
X81331341Y-76743481D01*
X81354620Y-76699193D01*
X81390936Y-76691946D01*
X81419024Y-76695365D01*
X81447112Y-76698785D01*
X81597077Y-76700738D01*
X81771955Y-76702204D01*
X81744398Y-76658183D01*
X81720978Y-76612432D01*
X81711139Y-76588631D01*
X81696588Y-76539476D01*
X81690886Y-76490238D01*
X81690867Y-76487270D01*
X81831550Y-76487270D01*
X81837347Y-76536985D01*
X81853112Y-76584154D01*
X81861837Y-76602553D01*
X81887714Y-76644824D01*
X81917768Y-76688691D01*
X81926805Y-76701471D01*
X82040622Y-76702937D01*
X82143204Y-76702204D01*
X82251160Y-76701471D01*
X82269922Y-76655876D01*
X82288040Y-76608659D01*
X82297760Y-76560609D01*
X82300497Y-76513404D01*
X82295203Y-76460191D01*
X82279322Y-76412657D01*
X82252854Y-76370803D01*
X82233574Y-76350006D01*
X82193185Y-76319072D01*
X82147579Y-76298263D01*
X82096756Y-76287576D01*
X82066268Y-76286014D01*
X82013726Y-76290091D01*
X81966285Y-76302320D01*
X81919554Y-76325471D01*
X81902625Y-76337549D01*
X81865144Y-76376099D01*
X81841545Y-76422138D01*
X81831828Y-76475666D01*
X81831550Y-76487270D01*
X81690867Y-76487270D01*
X81694851Y-76433815D01*
X81706803Y-76384276D01*
X81726724Y-76338652D01*
X81754614Y-76296944D01*
X81790472Y-76259151D01*
X81804195Y-76247424D01*
X81845846Y-76218040D01*
X81890932Y-76194736D01*
X81939452Y-76177511D01*
X81991407Y-76166366D01*
X82046797Y-76161300D01*
X82066024Y-76160962D01*
X82123076Y-76164517D01*
G37*
G36*
X82472444Y-75915742D02*
G01*
X82458430Y-75963186D01*
X82447531Y-75976314D01*
X82403842Y-75999441D01*
X82386470Y-76000983D01*
X82339118Y-75987107D01*
X82325898Y-75976314D01*
X82302084Y-75932900D01*
X82300497Y-75915742D01*
X82314785Y-75868756D01*
X82325898Y-75855658D01*
X82369404Y-75832074D01*
X82386470Y-75830501D01*
X82434372Y-75844652D01*
X82447531Y-75855658D01*
X82470887Y-75898798D01*
X82472444Y-75915742D01*
G37*
G36*
X82441181Y-75345435D02*
G01*
X82438278Y-75396634D01*
X82427556Y-75452200D01*
X82408933Y-75503277D01*
X82382409Y-75549866D01*
X82358627Y-75580397D01*
X82318051Y-75618940D01*
X82272193Y-75648016D01*
X82221052Y-75667626D01*
X82173013Y-75676900D01*
X82130015Y-75679315D01*
X82078973Y-75676052D01*
X82027330Y-75666263D01*
X81975086Y-75649948D01*
X81922241Y-75627108D01*
X81877744Y-75603089D01*
X81850846Y-75586503D01*
X81804758Y-75553655D01*
X81766482Y-75519531D01*
X81730861Y-75476899D01*
X81706490Y-75432428D01*
X81692273Y-75378224D01*
X81690867Y-75354228D01*
X81695435Y-75301586D01*
X81707648Y-75249348D01*
X81723351Y-75203774D01*
X81745394Y-75157826D01*
X81776210Y-75118852D01*
X81821692Y-75098852D01*
X81825444Y-75098750D01*
X81871997Y-75115024D01*
X81873316Y-75116091D01*
X81894077Y-75158589D01*
X81883086Y-75193272D01*
X81861348Y-75221604D01*
X81840979Y-75266944D01*
X81832976Y-75316409D01*
X81831550Y-75354228D01*
X81845000Y-75402247D01*
X81876010Y-75441277D01*
X81918692Y-75475777D01*
X81945368Y-75492958D01*
X81989663Y-75517321D01*
X82037023Y-75537837D01*
X82086143Y-75551576D01*
X82126107Y-75555484D01*
X82178707Y-75548182D01*
X82222995Y-75526277D01*
X82256045Y-75493690D01*
X82281353Y-75450166D01*
X82296156Y-75398849D01*
X82300497Y-75345435D01*
X82292489Y-75294524D01*
X82277782Y-75257507D01*
X82233818Y-75177884D01*
X82222339Y-75148331D01*
X82244077Y-75104367D01*
X82290173Y-75085877D01*
X82293658Y-75085805D01*
X82339806Y-75106047D01*
X82371968Y-75145293D01*
X82397217Y-75191562D01*
X82418469Y-75241257D01*
X82433925Y-75290583D01*
X82441138Y-75341588D01*
X82441181Y-75345435D01*
G37*
G36*
X82115324Y-74370148D02*
G01*
X82167606Y-74378867D01*
X82216761Y-74392909D01*
X82262792Y-74412275D01*
X82305696Y-74436964D01*
X82319303Y-74446377D01*
X82360723Y-74481359D01*
X82393572Y-74520360D01*
X82417853Y-74563379D01*
X82433563Y-74610417D01*
X82440705Y-74661473D01*
X82441181Y-74679385D01*
X82437113Y-74728290D01*
X82422505Y-74780432D01*
X82397271Y-74828574D01*
X82366477Y-74867418D01*
X82356184Y-74877954D01*
X82318537Y-74909584D01*
X82276305Y-74935050D01*
X82229488Y-74954350D01*
X82178085Y-74967484D01*
X82122097Y-74974454D01*
X82102416Y-74975407D01*
X82045652Y-74973841D01*
X81991499Y-74966214D01*
X81939956Y-74952524D01*
X81891024Y-74932771D01*
X81844701Y-74906957D01*
X81829841Y-74897005D01*
X81789804Y-74865154D01*
X81750718Y-74822038D01*
X81721403Y-74773581D01*
X81701860Y-74719782D01*
X81693038Y-74670871D01*
X81691336Y-74638108D01*
X81831550Y-74638108D01*
X81838868Y-74691313D01*
X81861372Y-74737447D01*
X81899061Y-74776510D01*
X81926561Y-74795156D01*
X81971420Y-74816762D01*
X82019718Y-74831297D01*
X82071454Y-74838761D01*
X82101683Y-74839852D01*
X82153611Y-74835563D01*
X82203242Y-74820737D01*
X82248028Y-74792196D01*
X82255068Y-74785630D01*
X82284481Y-74746139D01*
X82299388Y-74697840D01*
X82300497Y-74679140D01*
X82293250Y-74628433D01*
X82271508Y-74583290D01*
X82248961Y-74556286D01*
X82209353Y-74525169D01*
X82161969Y-74504785D01*
X82112675Y-74495617D01*
X82094844Y-74494493D01*
X82033295Y-74494600D01*
X81979928Y-74499805D01*
X81924725Y-74513482D01*
X81875358Y-74540410D01*
X81844400Y-74578809D01*
X81831852Y-74628680D01*
X81831550Y-74638108D01*
X81691336Y-74638108D01*
X81690867Y-74629071D01*
X81695272Y-74579932D01*
X81711545Y-74528507D01*
X81739811Y-74483441D01*
X81780067Y-74444732D01*
X81816163Y-74420976D01*
X81862472Y-74399097D01*
X81912708Y-74382828D01*
X81966871Y-74372169D01*
X82016421Y-74367498D01*
X82059918Y-74366754D01*
X82115324Y-74370148D01*
G37*
G36*
X82472444Y-73328722D02*
G01*
X82455555Y-73375433D01*
X82412604Y-73394667D01*
X82359248Y-73402429D01*
X82307873Y-73408603D01*
X82256583Y-73413981D01*
X82207914Y-73418572D01*
X82199380Y-73419336D01*
X81986156Y-73442783D01*
X81936363Y-73452738D01*
X81893344Y-73465986D01*
X81848990Y-73488880D01*
X81831550Y-73517033D01*
X81848151Y-73565958D01*
X81874049Y-73611799D01*
X81901194Y-73654870D01*
X81932242Y-73694015D01*
X81936819Y-73698261D01*
X81988375Y-73698050D01*
X82039850Y-73696227D01*
X82063581Y-73694842D01*
X82243832Y-73674081D01*
X82294772Y-73668418D01*
X82346569Y-73663981D01*
X82397278Y-73661452D01*
X82419931Y-73661136D01*
X82466357Y-73677880D01*
X82468780Y-73680187D01*
X82488056Y-73726711D01*
X82488075Y-73728547D01*
X82471331Y-73774729D01*
X82469024Y-73777152D01*
X82422257Y-73795940D01*
X82420420Y-73795958D01*
X82368821Y-73797291D01*
X82312671Y-73800715D01*
X82255602Y-73805438D01*
X82200787Y-73810770D01*
X82181306Y-73812811D01*
X82124669Y-73818455D01*
X82073458Y-73822932D01*
X82020571Y-73826678D01*
X81969173Y-73829014D01*
X81941948Y-73829420D01*
X81889558Y-73832806D01*
X81841931Y-73845127D01*
X81831550Y-73849936D01*
X81857604Y-73895488D01*
X81889734Y-73935314D01*
X81901404Y-73947633D01*
X81990064Y-74028722D01*
X82029090Y-74060922D01*
X82032318Y-74063893D01*
X82082205Y-74065786D01*
X82132202Y-74069690D01*
X82151264Y-74071464D01*
X82200346Y-74075775D01*
X82251741Y-74078770D01*
X82267280Y-74079036D01*
X82317062Y-74073620D01*
X82323700Y-74072441D01*
X82372769Y-74065905D01*
X82375968Y-74065847D01*
X82421190Y-74085559D01*
X82422374Y-74086852D01*
X82441107Y-74132461D01*
X82441181Y-74135944D01*
X82420314Y-74180164D01*
X82372201Y-74202691D01*
X82315465Y-74211717D01*
X82264593Y-74213614D01*
X82213424Y-74211721D01*
X82161744Y-74207817D01*
X82141983Y-74206042D01*
X82090522Y-74201731D01*
X82038884Y-74198833D01*
X82018885Y-74198470D01*
X81969947Y-74200332D01*
X81918664Y-74204266D01*
X81909708Y-74205065D01*
X81860134Y-74208935D01*
X81809637Y-74211316D01*
X81799799Y-74211415D01*
X81746842Y-74208951D01*
X81693277Y-74197998D01*
X81651428Y-74168631D01*
X81643972Y-74141318D01*
X81667441Y-74096433D01*
X81672548Y-74092225D01*
X81716603Y-74071062D01*
X81728724Y-74069999D01*
X81769269Y-74073418D01*
X81811034Y-74076838D01*
X81883330Y-74075372D01*
X81838765Y-74049793D01*
X81796967Y-74017632D01*
X81761715Y-73983057D01*
X81750462Y-73970348D01*
X81719035Y-73928998D01*
X81696686Y-73884668D01*
X81690867Y-73852134D01*
X81697141Y-73802477D01*
X81719198Y-73756647D01*
X81757136Y-73721444D01*
X81791250Y-73703879D01*
X81754680Y-73670781D01*
X81724493Y-73629909D01*
X81716024Y-73613997D01*
X81698826Y-73565364D01*
X81691481Y-73515015D01*
X81690867Y-73494318D01*
X81698652Y-73441577D01*
X81722008Y-73397903D01*
X81760934Y-73363297D01*
X81807767Y-73340455D01*
X81815430Y-73337759D01*
X81864858Y-73328295D01*
X81917912Y-73320915D01*
X81969544Y-73314437D01*
X82009603Y-73309671D01*
X82059855Y-73302049D01*
X82110220Y-73295107D01*
X82168300Y-73287628D01*
X82220320Y-73281258D01*
X82277278Y-73274546D01*
X82339175Y-73267489D01*
X82388838Y-73261972D01*
X82406010Y-73260089D01*
X82452904Y-73278652D01*
X82472367Y-73325063D01*
X82472444Y-73328722D01*
G37*
G36*
X82472444Y-73087654D02*
G01*
X82455347Y-73132350D01*
X82412848Y-73151646D01*
X82389401Y-73146761D01*
X82340052Y-73127726D01*
X82284358Y-73104052D01*
X82235234Y-73081772D01*
X82182050Y-73056524D01*
X82124806Y-73028306D01*
X82079208Y-73005194D01*
X82031326Y-72980412D01*
X81981160Y-72953960D01*
X81963930Y-72944772D01*
X81912952Y-72917757D01*
X81864250Y-72892399D01*
X81817824Y-72868698D01*
X81773673Y-72846655D01*
X81718344Y-72819842D01*
X81667061Y-72795975D01*
X81619822Y-72775054D01*
X81566463Y-72753046D01*
X81537482Y-72742050D01*
X81479871Y-72720263D01*
X81430015Y-72699842D01*
X81378600Y-72676237D01*
X81332896Y-72650729D01*
X81295497Y-72615047D01*
X81293728Y-72606007D01*
X81312046Y-72561555D01*
X81354056Y-72542260D01*
X81391913Y-72549831D01*
X81578759Y-72626768D01*
X81627769Y-72645369D01*
X81679544Y-72666736D01*
X81724801Y-72686653D01*
X81771979Y-72708491D01*
X81821077Y-72732248D01*
X81872095Y-72757926D01*
X82156393Y-72907647D01*
X82431899Y-73031967D01*
X82468484Y-73066264D01*
X82472444Y-73087654D01*
G37*
G36*
X81518920Y-71733572D02*
G01*
X81514279Y-71759706D01*
X81501410Y-71811883D01*
X81493506Y-71865593D01*
X81489320Y-71918250D01*
X81487761Y-71967589D01*
X81487657Y-71984898D01*
X81489549Y-72034174D01*
X81494311Y-72083601D01*
X81495228Y-72091143D01*
X81502791Y-72142975D01*
X81512276Y-72195113D01*
X81518920Y-72227431D01*
X81784656Y-72228652D01*
X81772474Y-72173785D01*
X81763285Y-72125228D01*
X81755866Y-72072073D01*
X81753393Y-72029350D01*
X81754370Y-71975998D01*
X81757301Y-71921700D01*
X81762185Y-71866455D01*
X81768063Y-71817340D01*
X81769024Y-71810264D01*
X81787725Y-71763982D01*
X81834765Y-71745847D01*
X81838633Y-71745784D01*
X81885787Y-71762233D01*
X81889680Y-71765812D01*
X81909630Y-71811493D01*
X81909708Y-71815149D01*
X81907235Y-71866626D01*
X81902373Y-71917934D01*
X81901892Y-71922371D01*
X81896832Y-71974433D01*
X81894107Y-72024753D01*
X81894077Y-72029350D01*
X81900671Y-72079736D01*
X81912395Y-72130234D01*
X81927462Y-72185513D01*
X81940971Y-72231339D01*
X82417489Y-72237689D01*
X82464988Y-72254648D01*
X82467559Y-72256984D01*
X82487995Y-72301935D01*
X82488075Y-72305588D01*
X82470473Y-72352200D01*
X82468047Y-72354681D01*
X82422338Y-72374144D01*
X82418710Y-72374221D01*
X82363704Y-72374040D01*
X82310650Y-72373615D01*
X82251038Y-72372938D01*
X82198625Y-72372217D01*
X82142014Y-72371336D01*
X82081205Y-72370294D01*
X82016198Y-72369092D01*
X81967049Y-72368175D01*
X81905191Y-72367093D01*
X81847531Y-72366171D01*
X81794068Y-72365410D01*
X81744804Y-72364809D01*
X81689126Y-72364283D01*
X81640008Y-72364008D01*
X81613686Y-72363962D01*
X81564398Y-72364440D01*
X81523560Y-72365184D01*
X81473711Y-72365885D01*
X81433435Y-72366161D01*
X81387007Y-72350715D01*
X81383121Y-72347354D01*
X81362684Y-72301973D01*
X81362604Y-72298261D01*
X81375061Y-72257717D01*
X81366560Y-72206135D01*
X81359082Y-72153307D01*
X81353567Y-72104577D01*
X81349549Y-72055804D01*
X81347204Y-72004807D01*
X81346973Y-71984898D01*
X81349119Y-71933349D01*
X81354722Y-71883121D01*
X81363802Y-71829261D01*
X81368954Y-71804158D01*
X81383200Y-71750387D01*
X81401655Y-71705107D01*
X81436594Y-71668317D01*
X81448578Y-71666161D01*
X81495717Y-71683990D01*
X81518716Y-71728114D01*
X81518920Y-71733572D01*
G37*
G36*
X82302326Y-70912213D02*
G01*
X82341586Y-70943526D01*
X82373532Y-70987677D01*
X82392088Y-71023069D01*
X82411217Y-71068844D01*
X82427325Y-71120471D01*
X82437297Y-71171365D01*
X82441133Y-71221526D01*
X82441181Y-71227745D01*
X82438450Y-71283919D01*
X82430258Y-71335937D01*
X82416606Y-71383799D01*
X82393775Y-71434385D01*
X82363511Y-71479315D01*
X82328850Y-71515007D01*
X82282291Y-71547314D01*
X82237136Y-71567006D01*
X82187139Y-71579314D01*
X82132299Y-71584237D01*
X82122688Y-71584339D01*
X82068231Y-71582228D01*
X82016600Y-71575896D01*
X81967795Y-71565341D01*
X81912961Y-71547103D01*
X81862196Y-71522786D01*
X81823002Y-71497877D01*
X81784936Y-71466947D01*
X81747773Y-71425754D01*
X81719900Y-71380113D01*
X81701319Y-71330025D01*
X81692028Y-71275488D01*
X81690867Y-71246551D01*
X81831550Y-71246551D01*
X81837442Y-71296168D01*
X81857532Y-71344410D01*
X81888167Y-71382506D01*
X81891878Y-71386014D01*
X81935394Y-71418052D01*
X81984754Y-71442155D01*
X82036740Y-71459816D01*
X82073107Y-71469057D01*
X81980050Y-71258275D01*
X81956270Y-71207298D01*
X81933868Y-71163146D01*
X81907093Y-71116409D01*
X81882597Y-71080955D01*
X81855678Y-71122524D01*
X81838729Y-71173347D01*
X81831999Y-71227001D01*
X81831550Y-71246551D01*
X81690867Y-71246551D01*
X81693294Y-71192146D01*
X81700575Y-71142992D01*
X81714569Y-71093971D01*
X81729701Y-71060438D01*
X81760824Y-71017580D01*
X81804921Y-70986411D01*
X81853174Y-70973164D01*
X81877224Y-70971778D01*
X81927645Y-70982700D01*
X81970726Y-71011902D01*
X82003742Y-71049447D01*
X82028693Y-71094140D01*
X82049867Y-71138473D01*
X82072063Y-71188131D01*
X82075061Y-71195016D01*
X82190343Y-71457333D01*
X82230361Y-71422915D01*
X82261511Y-71382370D01*
X82272897Y-71361590D01*
X82290767Y-71311851D01*
X82299176Y-71260428D01*
X82300497Y-71227989D01*
X82296222Y-71176454D01*
X82286455Y-71128467D01*
X82283400Y-71116614D01*
X82266868Y-71067706D01*
X82241236Y-71025244D01*
X82226491Y-71012323D01*
X82193289Y-70975228D01*
X82191076Y-70962009D01*
X82210127Y-70919266D01*
X82254579Y-70900215D01*
X82302326Y-70912213D01*
G37*
G36*
X81860615Y-70607368D02*
G01*
X82208661Y-70617626D01*
X82262214Y-70618513D01*
X82314984Y-70620402D01*
X82364447Y-70622669D01*
X82371083Y-70622999D01*
X82419001Y-70639268D01*
X82440907Y-70683049D01*
X82441181Y-70690410D01*
X82425510Y-70738796D01*
X82378498Y-70757558D01*
X82369862Y-70757822D01*
X82315465Y-70757223D01*
X82263860Y-70755929D01*
X82213153Y-70754243D01*
X82156470Y-70752025D01*
X82115361Y-70750250D01*
X82064319Y-70748069D01*
X82008563Y-70745939D01*
X81958800Y-70744342D01*
X81908319Y-70743152D01*
X81860615Y-70742678D01*
X81810690Y-70742515D01*
X81757726Y-70742024D01*
X81701723Y-70741206D01*
X81651303Y-70740244D01*
X81607580Y-70739259D01*
X81555298Y-70738097D01*
X81505250Y-70737175D01*
X81449681Y-70736404D01*
X81397151Y-70735960D01*
X81354544Y-70735840D01*
X81306626Y-70722937D01*
X81284720Y-70676592D01*
X81284446Y-70668429D01*
X81299849Y-70619692D01*
X81346056Y-70600794D01*
X81354544Y-70600529D01*
X81404469Y-70600693D01*
X81457433Y-70601184D01*
X81513436Y-70602002D01*
X81563857Y-70602963D01*
X81607580Y-70603949D01*
X81659861Y-70605111D01*
X81709910Y-70606032D01*
X81765478Y-70606804D01*
X81818008Y-70607248D01*
X81860615Y-70607368D01*
G37*
G36*
X81518920Y-70267626D02*
G01*
X81505376Y-70315402D01*
X81498403Y-70324779D01*
X81453954Y-70348504D01*
X81448578Y-70348715D01*
X81402918Y-70329057D01*
X81398996Y-70324779D01*
X81378966Y-70279682D01*
X81378236Y-70267626D01*
X81391941Y-70220172D01*
X81398996Y-70210962D01*
X81443203Y-70187478D01*
X81448578Y-70187270D01*
X81494438Y-70206728D01*
X81498403Y-70210962D01*
X81518419Y-70257549D01*
X81518920Y-70267626D01*
G37*
G36*
X82089227Y-70236607D02*
G01*
X82141434Y-70236058D01*
X82194293Y-70234924D01*
X82214523Y-70234409D01*
X82267044Y-70233019D01*
X82316464Y-70232119D01*
X82340064Y-70231967D01*
X82386616Y-70247212D01*
X82390378Y-70250529D01*
X82409841Y-70295638D01*
X82409918Y-70299378D01*
X82392744Y-70345316D01*
X82390378Y-70347738D01*
X82343867Y-70366471D01*
X82340064Y-70366544D01*
X82287674Y-70367155D01*
X82234757Y-70368414D01*
X82214523Y-70368987D01*
X82162031Y-70370377D01*
X82112720Y-70371277D01*
X82089227Y-70371429D01*
X82040219Y-70370621D01*
X81989004Y-70368484D01*
X81937486Y-70365419D01*
X81925340Y-70364591D01*
X81872680Y-70361167D01*
X81820196Y-70358676D01*
X81769792Y-70357535D01*
X81761453Y-70357507D01*
X81714175Y-70342062D01*
X81710406Y-70338701D01*
X81690886Y-70292162D01*
X81690867Y-70290341D01*
X81708040Y-70244373D01*
X81710406Y-70241981D01*
X81755650Y-70223097D01*
X81761453Y-70222930D01*
X81810461Y-70223738D01*
X81861676Y-70225875D01*
X81913193Y-70228940D01*
X81925340Y-70229768D01*
X81978000Y-70233074D01*
X82030483Y-70235479D01*
X82080887Y-70236581D01*
X82089227Y-70236607D01*
G37*
G36*
X81816896Y-69375895D02*
G01*
X81912883Y-69476035D01*
X82036714Y-69598401D01*
X82329806Y-69374186D01*
X82373037Y-69357089D01*
X82419131Y-69376572D01*
X82420420Y-69377849D01*
X82441160Y-69422872D01*
X82441181Y-69424500D01*
X82418855Y-69469208D01*
X82415779Y-69471883D01*
X82377106Y-69504152D01*
X82333594Y-69539122D01*
X82290028Y-69573420D01*
X82250392Y-69604233D01*
X82206504Y-69638045D01*
X82158365Y-69674857D01*
X82132702Y-69694388D01*
X82271432Y-69828477D01*
X82307732Y-69867547D01*
X82344817Y-69905939D01*
X82380221Y-69941873D01*
X82385005Y-69946691D01*
X82409699Y-69989341D01*
X82409918Y-69994074D01*
X82389401Y-70040236D01*
X82344894Y-70060429D01*
X82341530Y-70060508D01*
X82298054Y-70043411D01*
X82260192Y-70008935D01*
X82236749Y-69983572D01*
X82203107Y-69946234D01*
X82178864Y-69921046D01*
X82024991Y-69774744D01*
X81894809Y-69864870D01*
X81854306Y-69894288D01*
X81813828Y-69927304D01*
X81780992Y-69959636D01*
X81738469Y-69985132D01*
X81729945Y-69985770D01*
X81683778Y-69968597D01*
X81681097Y-69966230D01*
X81659603Y-69921290D01*
X81682948Y-69874210D01*
X81719367Y-69837255D01*
X81759313Y-69803998D01*
X81765849Y-69798924D01*
X81930713Y-69679978D01*
X81803951Y-69545400D01*
X81765620Y-69506901D01*
X81727789Y-69471692D01*
X81689161Y-69440307D01*
X81677189Y-69432071D01*
X81646048Y-69394427D01*
X81643972Y-69379803D01*
X81662997Y-69333953D01*
X81664244Y-69332664D01*
X81709481Y-69311924D01*
X81711139Y-69311904D01*
X81760206Y-69329964D01*
X81800551Y-69360897D01*
X81816896Y-69375895D01*
G37*
G36*
X82194618Y-68454864D02*
G01*
X82239074Y-68477836D01*
X82277843Y-68510225D01*
X82301718Y-68536189D01*
X82332735Y-68575864D01*
X82360572Y-68620884D01*
X82381830Y-68667347D01*
X82398928Y-68717754D01*
X82413128Y-68772348D01*
X82424430Y-68831127D01*
X82431385Y-68881164D01*
X82436486Y-68933881D01*
X82439732Y-68989276D01*
X82441123Y-69047350D01*
X82441181Y-69062288D01*
X82423122Y-69108377D01*
X82413825Y-69118464D01*
X82370039Y-69143579D01*
X82357405Y-69144842D01*
X82160790Y-69144842D01*
X82107285Y-69144063D01*
X82052029Y-69142105D01*
X81998397Y-69139477D01*
X81949282Y-69136619D01*
X81896149Y-69133152D01*
X81885040Y-69132385D01*
X81827201Y-69128409D01*
X81774587Y-69125029D01*
X81718344Y-69121761D01*
X81662234Y-69119033D01*
X81610646Y-69117346D01*
X81605137Y-69117242D01*
X81555161Y-69116678D01*
X81503624Y-69114628D01*
X81449768Y-69111606D01*
X81420001Y-69109671D01*
X81376014Y-69088058D01*
X81375305Y-69086956D01*
X81362909Y-69038703D01*
X81357050Y-69004646D01*
X82012779Y-69004646D01*
X82063631Y-69006836D01*
X82115381Y-69008308D01*
X82162744Y-69008798D01*
X82300497Y-69008798D01*
X82297682Y-68954174D01*
X82293055Y-68902806D01*
X82285109Y-68845461D01*
X82274554Y-68792805D01*
X82261387Y-68744837D01*
X82251160Y-68715463D01*
X82230044Y-68671320D01*
X82200126Y-68629110D01*
X82195472Y-68623628D01*
X82160400Y-68588551D01*
X82143449Y-68581618D01*
X82103568Y-68612616D01*
X82077961Y-68658898D01*
X82073107Y-68669545D01*
X82052739Y-68718523D01*
X82036699Y-68766540D01*
X82028410Y-68798017D01*
X82016931Y-68870801D01*
X82018152Y-68897912D01*
X82019129Y-68925756D01*
X82016394Y-68976481D01*
X82012779Y-69004646D01*
X81357050Y-69004646D01*
X81354056Y-68987244D01*
X81348743Y-68932579D01*
X81347000Y-68882118D01*
X81346974Y-68874953D01*
X81487657Y-68874953D01*
X81488309Y-68924756D01*
X81491468Y-68973908D01*
X81492297Y-68979978D01*
X81610266Y-68981443D01*
X81871118Y-68995121D01*
X81875192Y-68943038D01*
X81878437Y-68893768D01*
X81878445Y-68890585D01*
X81871469Y-68841156D01*
X81856577Y-68791169D01*
X81834229Y-68747132D01*
X81815186Y-68721080D01*
X81778684Y-68686841D01*
X81731782Y-68661940D01*
X81683860Y-68651357D01*
X81660825Y-68650250D01*
X81610404Y-68662182D01*
X81570195Y-68690916D01*
X81542367Y-68722546D01*
X81515920Y-68763732D01*
X81496686Y-68811035D01*
X81488137Y-68859960D01*
X81487657Y-68874953D01*
X81346974Y-68874953D01*
X81346973Y-68874709D01*
X81350865Y-68822283D01*
X81362540Y-68770791D01*
X81382000Y-68720235D01*
X81409243Y-68670614D01*
X81428305Y-68642678D01*
X81464939Y-68599018D01*
X81504681Y-68564391D01*
X81547531Y-68538797D01*
X81593490Y-68522236D01*
X81642557Y-68514709D01*
X81659603Y-68514207D01*
X81712223Y-68517558D01*
X81761241Y-68527611D01*
X81815308Y-68548523D01*
X81864189Y-68579086D01*
X81900962Y-68611927D01*
X81934132Y-68651471D01*
X81956236Y-68603187D01*
X81982563Y-68556641D01*
X82013628Y-68514576D01*
X82029876Y-68497354D01*
X82070565Y-68466098D01*
X82117591Y-68448517D01*
X82144181Y-68446063D01*
X82194618Y-68454864D01*
G37*
G36*
X81887971Y-67763893D02*
G01*
X81935945Y-67774206D01*
X81969272Y-67810689D01*
X81972234Y-67832525D01*
X81953278Y-67878644D01*
X81905068Y-67891632D01*
X81857440Y-67893830D01*
X81800287Y-67895784D01*
X81808958Y-67947319D01*
X81823967Y-67998873D01*
X81844541Y-68043627D01*
X81861348Y-68069685D01*
X81897416Y-68109240D01*
X81939472Y-68140991D01*
X81984867Y-68166142D01*
X81995926Y-68171290D01*
X82371816Y-68169824D01*
X82419233Y-68182821D01*
X82440910Y-68229502D01*
X82441181Y-68237724D01*
X82421742Y-68284987D01*
X82372304Y-68298296D01*
X81894565Y-68298296D01*
X81843217Y-68297167D01*
X81827154Y-68296586D01*
X81777847Y-68295079D01*
X81759743Y-68294877D01*
X81710305Y-68281567D01*
X81690867Y-68234304D01*
X81711577Y-68188249D01*
X81756906Y-68169904D01*
X81799066Y-68166405D01*
X81763392Y-68124485D01*
X81733765Y-68081158D01*
X81710183Y-68036424D01*
X81692649Y-67990283D01*
X81681161Y-67942734D01*
X81675719Y-67893778D01*
X81675235Y-67873802D01*
X81685554Y-67825198D01*
X81716512Y-67790759D01*
X81764211Y-67770949D01*
X81815662Y-67763834D01*
X81840587Y-67763160D01*
X81887971Y-67763893D01*
G37*
G36*
X81890911Y-67030503D02*
G01*
X81943896Y-67037258D01*
X81973944Y-67042155D01*
X82023343Y-67050042D01*
X82074062Y-67057312D01*
X82105347Y-67060718D01*
X82340064Y-67076593D01*
X82390743Y-67078846D01*
X82445309Y-67083232D01*
X82494967Y-67089511D01*
X82545709Y-67099006D01*
X82568675Y-67104681D01*
X82615405Y-67120017D01*
X82661826Y-67141865D01*
X82705146Y-67171955D01*
X82735737Y-67203600D01*
X82764161Y-67249456D01*
X82782370Y-67297094D01*
X82794361Y-67351744D01*
X82799691Y-67404169D01*
X82800706Y-67441981D01*
X82799585Y-67491045D01*
X82795712Y-67540122D01*
X82787412Y-67591459D01*
X82786540Y-67595365D01*
X82767888Y-67644591D01*
X82729540Y-67677690D01*
X82704230Y-67681827D01*
X82656195Y-67668679D01*
X82637308Y-67621988D01*
X82642964Y-67572484D01*
X82649275Y-67539678D01*
X82656941Y-67490788D01*
X82660009Y-67442010D01*
X82660022Y-67411939D01*
X82653077Y-67358140D01*
X82634163Y-67312148D01*
X82603282Y-67273964D01*
X82560432Y-67243587D01*
X82530573Y-67229734D01*
X82482366Y-67215186D01*
X82430818Y-67205637D01*
X82379676Y-67199815D01*
X82322111Y-67196175D01*
X82269234Y-67194807D01*
X82314266Y-67219393D01*
X82354986Y-67249634D01*
X82386470Y-67283223D01*
X82411772Y-67327157D01*
X82424175Y-67376009D01*
X82425549Y-67400215D01*
X82421412Y-67452384D01*
X82409000Y-67500112D01*
X82384682Y-67549220D01*
X82349557Y-67592528D01*
X82339087Y-67602448D01*
X82298794Y-67632807D01*
X82253569Y-67655709D01*
X82203411Y-67671155D01*
X82148322Y-67679144D01*
X82114628Y-67680362D01*
X82057341Y-67677762D01*
X82003631Y-67669962D01*
X81953499Y-67656963D01*
X81906945Y-67638764D01*
X81863969Y-67615365D01*
X81817120Y-67580423D01*
X81809813Y-67573872D01*
X81775546Y-67537581D01*
X81747087Y-67497403D01*
X81724436Y-67453336D01*
X81707593Y-67405382D01*
X81696558Y-67353540D01*
X81691331Y-67297811D01*
X81691003Y-67281269D01*
X81831550Y-67281269D01*
X81835489Y-67335597D01*
X81847305Y-67384245D01*
X81870455Y-67432887D01*
X81903893Y-67474111D01*
X81913860Y-67483258D01*
X81958676Y-67514191D01*
X82003865Y-67533189D01*
X82054091Y-67544187D01*
X82102172Y-67547249D01*
X82154698Y-67543552D01*
X82202284Y-67530945D01*
X82239192Y-67509392D01*
X82270414Y-67469067D01*
X82283750Y-67418729D01*
X82284865Y-67396063D01*
X82274802Y-67344589D01*
X82247896Y-67298370D01*
X82213302Y-67261241D01*
X82172205Y-67229284D01*
X82127274Y-67205647D01*
X82082632Y-67194074D01*
X82032787Y-67184853D01*
X81982022Y-67177167D01*
X81929664Y-67170216D01*
X81878888Y-67164091D01*
X81869897Y-67163055D01*
X81845627Y-67207372D01*
X81841076Y-67220208D01*
X81831885Y-67269522D01*
X81831550Y-67281269D01*
X81691003Y-67281269D01*
X81690867Y-67274430D01*
X81694092Y-67222411D01*
X81705679Y-67172692D01*
X81707719Y-67167207D01*
X81733469Y-67123103D01*
X81758033Y-67101262D01*
X81772681Y-67053662D01*
X81817668Y-67029540D01*
X81841076Y-67027745D01*
X81890911Y-67030503D01*
G37*
G36*
X82472444Y-66011206D02*
G01*
X82455555Y-66057917D01*
X82412604Y-66077152D01*
X82359248Y-66084913D01*
X82307873Y-66091088D01*
X82256583Y-66096466D01*
X82207914Y-66101057D01*
X82199380Y-66101820D01*
X81986156Y-66125267D01*
X81936363Y-66135222D01*
X81893344Y-66148470D01*
X81848990Y-66171365D01*
X81831550Y-66199517D01*
X81848151Y-66248442D01*
X81874049Y-66294283D01*
X81901194Y-66337354D01*
X81932242Y-66376499D01*
X81936819Y-66380745D01*
X81988375Y-66380535D01*
X82039850Y-66378711D01*
X82063581Y-66377326D01*
X82243832Y-66356565D01*
X82294772Y-66350902D01*
X82346569Y-66346465D01*
X82397278Y-66343937D01*
X82419931Y-66343621D01*
X82466357Y-66360365D01*
X82468780Y-66362671D01*
X82488056Y-66409195D01*
X82488075Y-66411032D01*
X82471331Y-66457213D01*
X82469024Y-66459636D01*
X82422257Y-66478424D01*
X82420420Y-66478443D01*
X82368821Y-66479776D01*
X82312671Y-66483199D01*
X82255602Y-66487922D01*
X82200787Y-66493255D01*
X82181306Y-66495295D01*
X82124669Y-66500940D01*
X82073458Y-66505416D01*
X82020571Y-66509163D01*
X81969173Y-66511498D01*
X81941948Y-66511904D01*
X81889558Y-66515290D01*
X81841931Y-66527612D01*
X81831550Y-66532420D01*
X81857604Y-66577972D01*
X81889734Y-66617798D01*
X81901404Y-66630117D01*
X81990064Y-66711206D01*
X82029090Y-66743406D01*
X82032318Y-66746377D01*
X82082205Y-66748270D01*
X82132202Y-66752174D01*
X82151264Y-66753949D01*
X82200346Y-66758259D01*
X82251741Y-66761254D01*
X82267280Y-66761520D01*
X82317062Y-66756104D01*
X82323700Y-66754925D01*
X82372769Y-66748389D01*
X82375968Y-66748331D01*
X82421190Y-66768044D01*
X82422374Y-66769336D01*
X82441107Y-66814945D01*
X82441181Y-66818429D01*
X82420314Y-66862649D01*
X82372201Y-66885176D01*
X82315465Y-66894202D01*
X82264593Y-66896098D01*
X82213424Y-66894205D01*
X82161744Y-66890301D01*
X82141983Y-66888526D01*
X82090522Y-66884216D01*
X82038884Y-66881317D01*
X82018885Y-66880955D01*
X81969947Y-66882816D01*
X81918664Y-66886751D01*
X81909708Y-66887549D01*
X81860134Y-66891419D01*
X81809637Y-66893800D01*
X81799799Y-66893900D01*
X81746842Y-66891435D01*
X81693277Y-66880483D01*
X81651428Y-66851115D01*
X81643972Y-66823802D01*
X81667441Y-66778917D01*
X81672548Y-66774709D01*
X81716603Y-66753547D01*
X81728724Y-66752483D01*
X81769269Y-66755902D01*
X81811034Y-66759322D01*
X81883330Y-66757856D01*
X81838765Y-66732278D01*
X81796967Y-66700116D01*
X81761715Y-66665542D01*
X81750462Y-66652832D01*
X81719035Y-66611482D01*
X81696686Y-66567152D01*
X81690867Y-66534618D01*
X81697141Y-66484961D01*
X81719198Y-66439132D01*
X81757136Y-66403928D01*
X81791250Y-66386363D01*
X81754680Y-66353266D01*
X81724493Y-66312393D01*
X81716024Y-66296482D01*
X81698826Y-66247849D01*
X81691481Y-66197499D01*
X81690867Y-66176803D01*
X81698652Y-66124061D01*
X81722008Y-66080388D01*
X81760934Y-66045782D01*
X81807767Y-66022939D01*
X81815430Y-66020243D01*
X81864858Y-66010780D01*
X81917912Y-66003399D01*
X81969544Y-65996922D01*
X82009603Y-65992155D01*
X82059855Y-65984533D01*
X82110220Y-65977591D01*
X82168300Y-65970112D01*
X82220320Y-65963743D01*
X82277278Y-65957030D01*
X82339175Y-65949974D01*
X82388838Y-65944456D01*
X82406010Y-65942574D01*
X82452904Y-65961136D01*
X82472367Y-66007547D01*
X82472444Y-66011206D01*
G37*
G36*
X82472444Y-65770138D02*
G01*
X82455347Y-65814835D01*
X82412848Y-65834130D01*
X82389401Y-65829245D01*
X82340052Y-65810210D01*
X82284358Y-65786536D01*
X82235234Y-65764256D01*
X82182050Y-65739008D01*
X82124806Y-65710790D01*
X82079208Y-65687678D01*
X82031326Y-65662897D01*
X81981160Y-65636445D01*
X81963930Y-65627256D01*
X81912952Y-65600241D01*
X81864250Y-65574883D01*
X81817824Y-65551183D01*
X81773673Y-65529139D01*
X81718344Y-65502326D01*
X81667061Y-65478459D01*
X81619822Y-65457538D01*
X81566463Y-65435530D01*
X81537482Y-65424535D01*
X81479871Y-65402747D01*
X81430015Y-65382326D01*
X81378600Y-65358722D01*
X81332896Y-65333213D01*
X81295497Y-65297531D01*
X81293728Y-65288491D01*
X81312046Y-65244039D01*
X81354056Y-65224744D01*
X81391913Y-65232316D01*
X81578759Y-65309252D01*
X81627769Y-65327854D01*
X81679544Y-65349220D01*
X81724801Y-65369138D01*
X81771979Y-65390975D01*
X81821077Y-65414733D01*
X81872095Y-65440410D01*
X82156393Y-65590131D01*
X82431899Y-65714451D01*
X82468484Y-65748748D01*
X82472444Y-65770138D01*
G37*
G36*
X81890911Y-64484516D02*
G01*
X81943896Y-64491270D01*
X81973944Y-64496168D01*
X82023343Y-64504054D01*
X82074062Y-64511325D01*
X82105347Y-64514730D01*
X82340064Y-64530606D01*
X82390743Y-64532858D01*
X82445309Y-64537245D01*
X82494967Y-64543524D01*
X82545709Y-64553019D01*
X82568675Y-64558694D01*
X82615405Y-64574029D01*
X82661826Y-64595878D01*
X82705146Y-64625967D01*
X82735737Y-64657612D01*
X82764161Y-64703469D01*
X82782370Y-64751107D01*
X82794361Y-64805757D01*
X82799691Y-64858181D01*
X82800706Y-64895993D01*
X82799585Y-64945057D01*
X82795712Y-64994135D01*
X82787412Y-65045472D01*
X82786540Y-65049378D01*
X82767888Y-65098604D01*
X82729540Y-65131702D01*
X82704230Y-65135840D01*
X82656195Y-65122691D01*
X82637308Y-65076000D01*
X82642964Y-65026496D01*
X82649275Y-64993690D01*
X82656941Y-64944801D01*
X82660009Y-64896023D01*
X82660022Y-64865951D01*
X82653077Y-64812153D01*
X82634163Y-64766161D01*
X82603282Y-64727977D01*
X82560432Y-64697599D01*
X82530573Y-64683746D01*
X82482366Y-64669198D01*
X82430818Y-64659650D01*
X82379676Y-64653828D01*
X82322111Y-64650187D01*
X82269234Y-64648819D01*
X82314266Y-64673406D01*
X82354986Y-64703647D01*
X82386470Y-64737235D01*
X82411772Y-64781170D01*
X82424175Y-64830022D01*
X82425549Y-64854228D01*
X82421412Y-64906397D01*
X82409000Y-64954125D01*
X82384682Y-65003233D01*
X82349557Y-65046540D01*
X82339087Y-65056461D01*
X82298794Y-65086820D01*
X82253569Y-65109722D01*
X82203411Y-65125168D01*
X82148322Y-65133157D01*
X82114628Y-65134374D01*
X82057341Y-65131774D01*
X82003631Y-65123975D01*
X81953499Y-65110976D01*
X81906945Y-65092777D01*
X81863969Y-65069378D01*
X81817120Y-65034436D01*
X81809813Y-65027884D01*
X81775546Y-64991594D01*
X81747087Y-64951415D01*
X81724436Y-64907349D01*
X81707593Y-64859395D01*
X81696558Y-64807553D01*
X81691331Y-64751823D01*
X81691003Y-64735281D01*
X81831550Y-64735281D01*
X81835489Y-64789609D01*
X81847305Y-64838257D01*
X81870455Y-64886900D01*
X81903893Y-64928124D01*
X81913860Y-64937270D01*
X81958676Y-64968204D01*
X82003865Y-64987201D01*
X82054091Y-64998200D01*
X82102172Y-65001262D01*
X82154698Y-64997565D01*
X82202284Y-64984958D01*
X82239192Y-64963404D01*
X82270414Y-64923079D01*
X82283750Y-64872742D01*
X82284865Y-64850076D01*
X82274802Y-64798601D01*
X82247896Y-64752382D01*
X82213302Y-64715253D01*
X82172205Y-64683297D01*
X82127274Y-64659660D01*
X82082632Y-64648087D01*
X82032787Y-64638866D01*
X81982022Y-64631180D01*
X81929664Y-64624229D01*
X81878888Y-64618104D01*
X81869897Y-64617068D01*
X81845627Y-64661385D01*
X81841076Y-64674221D01*
X81831885Y-64723535D01*
X81831550Y-64735281D01*
X81691003Y-64735281D01*
X81690867Y-64728443D01*
X81694092Y-64676424D01*
X81705679Y-64626705D01*
X81707719Y-64621220D01*
X81733469Y-64577116D01*
X81758033Y-64555274D01*
X81772681Y-64507675D01*
X81817668Y-64483552D01*
X81841076Y-64481757D01*
X81890911Y-64484516D01*
G37*
G36*
X82115324Y-63770986D02*
G01*
X82167606Y-63779704D01*
X82216761Y-63793746D01*
X82262792Y-63813112D01*
X82305696Y-63837801D01*
X82319303Y-63847214D01*
X82360723Y-63882196D01*
X82393572Y-63921197D01*
X82417853Y-63964216D01*
X82433563Y-64011254D01*
X82440705Y-64062310D01*
X82441181Y-64080222D01*
X82437113Y-64129127D01*
X82422505Y-64181269D01*
X82397271Y-64229412D01*
X82366477Y-64268256D01*
X82356184Y-64278791D01*
X82318537Y-64310422D01*
X82276305Y-64335887D01*
X82229488Y-64355187D01*
X82178085Y-64368322D01*
X82122097Y-64375291D01*
X82102416Y-64376244D01*
X82045652Y-64374679D01*
X81991499Y-64367051D01*
X81939956Y-64353361D01*
X81891024Y-64333609D01*
X81844701Y-64307794D01*
X81829841Y-64297842D01*
X81789804Y-64265992D01*
X81750718Y-64222875D01*
X81721403Y-64174418D01*
X81701860Y-64120620D01*
X81693038Y-64071708D01*
X81691336Y-64038945D01*
X81831550Y-64038945D01*
X81838868Y-64092150D01*
X81861372Y-64138284D01*
X81899061Y-64177347D01*
X81926561Y-64195993D01*
X81971420Y-64217599D01*
X82019718Y-64232134D01*
X82071454Y-64239598D01*
X82101683Y-64240690D01*
X82153611Y-64236401D01*
X82203242Y-64221574D01*
X82248028Y-64193034D01*
X82255068Y-64186468D01*
X82284481Y-64146977D01*
X82299388Y-64098678D01*
X82300497Y-64079978D01*
X82293250Y-64029271D01*
X82271508Y-63984128D01*
X82248961Y-63957124D01*
X82209353Y-63926007D01*
X82161969Y-63905623D01*
X82112675Y-63896454D01*
X82094844Y-63895330D01*
X82033295Y-63895437D01*
X81979928Y-63900643D01*
X81924725Y-63914319D01*
X81875358Y-63941247D01*
X81844400Y-63979646D01*
X81831852Y-64029518D01*
X81831550Y-64038945D01*
X81691336Y-64038945D01*
X81690867Y-64029908D01*
X81695272Y-63980769D01*
X81711545Y-63929345D01*
X81739811Y-63884278D01*
X81780067Y-63845570D01*
X81816163Y-63821813D01*
X81862472Y-63799934D01*
X81912708Y-63783665D01*
X81966871Y-63773007D01*
X82016421Y-63768335D01*
X82059918Y-63767591D01*
X82115324Y-63770986D01*
G37*
G36*
X82115324Y-63035326D02*
G01*
X82167606Y-63044045D01*
X82216761Y-63058087D01*
X82262792Y-63077453D01*
X82305696Y-63102142D01*
X82319303Y-63111555D01*
X82360723Y-63146537D01*
X82393572Y-63185538D01*
X82417853Y-63228557D01*
X82433563Y-63275595D01*
X82440705Y-63326651D01*
X82441181Y-63344563D01*
X82437113Y-63393468D01*
X82422505Y-63445610D01*
X82397271Y-63493752D01*
X82366477Y-63532596D01*
X82356184Y-63543132D01*
X82318537Y-63574762D01*
X82276305Y-63600228D01*
X82229488Y-63619528D01*
X82178085Y-63632662D01*
X82122097Y-63639632D01*
X82102416Y-63640585D01*
X82045652Y-63639019D01*
X81991499Y-63631391D01*
X81939956Y-63617701D01*
X81891024Y-63597949D01*
X81844701Y-63572135D01*
X81829841Y-63562183D01*
X81789804Y-63530332D01*
X81750718Y-63487216D01*
X81721403Y-63438759D01*
X81701860Y-63384960D01*
X81693038Y-63336048D01*
X81691336Y-63303286D01*
X81831550Y-63303286D01*
X81838868Y-63356491D01*
X81861372Y-63402625D01*
X81899061Y-63441688D01*
X81926561Y-63460334D01*
X81971420Y-63481940D01*
X82019718Y-63496475D01*
X82071454Y-63503939D01*
X82101683Y-63505030D01*
X82153611Y-63500741D01*
X82203242Y-63485915D01*
X82248028Y-63457374D01*
X82255068Y-63450808D01*
X82284481Y-63411317D01*
X82299388Y-63363018D01*
X82300497Y-63344318D01*
X82293250Y-63293611D01*
X82271508Y-63248468D01*
X82248961Y-63221464D01*
X82209353Y-63190347D01*
X82161969Y-63169963D01*
X82112675Y-63160795D01*
X82094844Y-63159671D01*
X82033295Y-63159778D01*
X81979928Y-63164983D01*
X81924725Y-63178660D01*
X81875358Y-63205587D01*
X81844400Y-63243987D01*
X81831852Y-63293858D01*
X81831550Y-63303286D01*
X81691336Y-63303286D01*
X81690867Y-63294249D01*
X81695272Y-63245110D01*
X81711545Y-63193685D01*
X81739811Y-63148619D01*
X81780067Y-63109910D01*
X81816163Y-63086154D01*
X81862472Y-63064275D01*
X81912708Y-63048006D01*
X81966871Y-63037347D01*
X82016421Y-63032676D01*
X82059918Y-63031932D01*
X82115324Y-63035326D01*
G37*
G36*
X81878445Y-62402518D02*
G01*
X81860064Y-62449041D01*
X81850601Y-62455519D01*
X81800460Y-62468877D01*
X81769024Y-62473348D01*
X81783210Y-62524411D01*
X81799115Y-62576198D01*
X81814964Y-62625459D01*
X81817140Y-62632106D01*
X81840420Y-62680558D01*
X81873168Y-62721802D01*
X81917819Y-62742960D01*
X81925828Y-62743481D01*
X81936819Y-62702937D01*
X81948191Y-62646528D01*
X81961056Y-62595821D01*
X81977955Y-62543869D01*
X81999757Y-62493997D01*
X82014733Y-62467975D01*
X82049566Y-62424293D01*
X82090594Y-62391339D01*
X82137816Y-62369115D01*
X82191232Y-62357619D01*
X82224537Y-62355868D01*
X82277278Y-62361928D01*
X82323150Y-62380109D01*
X82362153Y-62410410D01*
X82394286Y-62452832D01*
X82416955Y-62501394D01*
X82430877Y-62550204D01*
X82438937Y-62604327D01*
X82441181Y-62656042D01*
X82438824Y-62706081D01*
X82431752Y-62754806D01*
X82419967Y-62802217D01*
X82411383Y-62827989D01*
X82390577Y-62874258D01*
X82359288Y-62913504D01*
X82313996Y-62933333D01*
X82305626Y-62933746D01*
X82259516Y-62913575D01*
X82258243Y-62912253D01*
X82238050Y-62866343D01*
X82237971Y-62862916D01*
X82259706Y-62818190D01*
X82268501Y-62807961D01*
X82287735Y-62760196D01*
X82292925Y-62733955D01*
X82299247Y-62684305D01*
X82300497Y-62656286D01*
X82297491Y-62605253D01*
X82286819Y-62554681D01*
X82264853Y-62510937D01*
X82223560Y-62490690D01*
X82175732Y-62501006D01*
X82137488Y-62531957D01*
X82111537Y-62576791D01*
X82097042Y-62621115D01*
X82081655Y-62692678D01*
X82068952Y-62744594D01*
X82052007Y-62793229D01*
X82036470Y-62822371D01*
X81999860Y-62858427D01*
X81950753Y-62876101D01*
X81923874Y-62878059D01*
X81874558Y-62873302D01*
X81824099Y-62855727D01*
X81781259Y-62825203D01*
X81746040Y-62781729D01*
X81725549Y-62742748D01*
X81707102Y-62693210D01*
X81691664Y-62643103D01*
X81682562Y-62610857D01*
X81669148Y-62563845D01*
X81653125Y-62513905D01*
X81640308Y-62480920D01*
X81628761Y-62432052D01*
X81628340Y-62419859D01*
X81644870Y-62373892D01*
X81647147Y-62371499D01*
X81692499Y-62352523D01*
X81696240Y-62352448D01*
X81746499Y-62345427D01*
X81753393Y-62343900D01*
X81802583Y-62335652D01*
X81810546Y-62335351D01*
X81857243Y-62352095D01*
X81859638Y-62354402D01*
X81878427Y-62400696D01*
X81878445Y-62402518D01*
G37*
G36*
X83308340Y-80743446D02*
G01*
X83288782Y-80789814D01*
X83258271Y-80809392D01*
X83215315Y-80834538D01*
X83206247Y-80845051D01*
X83199270Y-80893656D01*
X83198920Y-80916615D01*
X83208735Y-80967707D01*
X83233427Y-81014692D01*
X83266555Y-81056658D01*
X83302596Y-81092823D01*
X83346306Y-81130074D01*
X83355968Y-81137654D01*
X83395296Y-81167117D01*
X83447133Y-81201893D01*
X83498283Y-81231517D01*
X83548745Y-81255989D01*
X83598521Y-81275309D01*
X83647610Y-81289477D01*
X83696012Y-81298493D01*
X83755549Y-81302518D01*
X83804903Y-81298017D01*
X83854982Y-81282456D01*
X83900053Y-81255780D01*
X83912597Y-81245610D01*
X83948404Y-81206765D01*
X83970948Y-81163197D01*
X83980231Y-81114906D01*
X83980497Y-81104682D01*
X83975585Y-81051605D01*
X83962454Y-81002709D01*
X83945570Y-80962532D01*
X83920920Y-80919563D01*
X83891253Y-80874388D01*
X83867657Y-80840411D01*
X83843103Y-80797324D01*
X83839813Y-80781304D01*
X83857866Y-80735762D01*
X83861795Y-80731967D01*
X83907061Y-80712017D01*
X83910399Y-80711939D01*
X83956290Y-80730544D01*
X83963644Y-80738073D01*
X84000567Y-80783449D01*
X84032566Y-80828962D01*
X84059643Y-80874613D01*
X84081796Y-80920400D01*
X84099027Y-80966326D01*
X84113642Y-81023925D01*
X84120565Y-81081740D01*
X84121181Y-81104926D01*
X84117256Y-81156686D01*
X84105484Y-81205355D01*
X84085864Y-81250933D01*
X84058395Y-81293420D01*
X84023078Y-81332816D01*
X84009562Y-81345261D01*
X83967696Y-81377467D01*
X83923065Y-81403009D01*
X83875670Y-81421888D01*
X83825509Y-81434104D01*
X83772584Y-81439657D01*
X83754328Y-81440027D01*
X83694668Y-81436978D01*
X83634634Y-81427830D01*
X83574225Y-81412584D01*
X83513443Y-81391240D01*
X83467611Y-81371229D01*
X83421569Y-81347788D01*
X83375316Y-81320917D01*
X83328853Y-81290615D01*
X83282179Y-81256883D01*
X83266575Y-81244877D01*
X83217745Y-81204165D01*
X83175426Y-81163361D01*
X83139618Y-81122466D01*
X83110321Y-81081479D01*
X83082854Y-81030116D01*
X83065560Y-80978610D01*
X83058439Y-80926962D01*
X83058236Y-80916615D01*
X83060332Y-80866519D01*
X83061411Y-80856287D01*
X83071181Y-80808904D01*
X83044865Y-80766827D01*
X83042604Y-80746377D01*
X83066170Y-80700792D01*
X83102932Y-80686538D01*
X83154624Y-80679025D01*
X83206373Y-80675933D01*
X83234823Y-80675547D01*
X83282451Y-80690690D01*
X83307708Y-80733142D01*
X83308340Y-80743446D01*
G37*
G36*
X83567971Y-80028792D02*
G01*
X83615945Y-80039106D01*
X83649272Y-80075588D01*
X83652234Y-80097424D01*
X83633278Y-80143544D01*
X83585068Y-80156531D01*
X83537440Y-80158729D01*
X83480287Y-80160683D01*
X83488958Y-80212218D01*
X83503967Y-80263773D01*
X83524541Y-80308526D01*
X83541348Y-80334584D01*
X83577416Y-80374139D01*
X83619472Y-80405890D01*
X83664867Y-80431041D01*
X83675926Y-80436189D01*
X84051816Y-80434724D01*
X84099233Y-80447720D01*
X84120910Y-80494401D01*
X84121181Y-80502623D01*
X84101742Y-80549886D01*
X84052304Y-80563195D01*
X83574565Y-80563195D01*
X83523217Y-80562067D01*
X83507154Y-80561486D01*
X83457847Y-80559978D01*
X83439743Y-80559776D01*
X83390305Y-80546467D01*
X83370867Y-80499204D01*
X83391577Y-80453149D01*
X83436906Y-80434804D01*
X83479066Y-80431304D01*
X83443392Y-80389384D01*
X83413765Y-80346058D01*
X83390183Y-80301323D01*
X83372649Y-80255182D01*
X83361161Y-80207633D01*
X83355719Y-80158678D01*
X83355235Y-80138701D01*
X83365554Y-80090097D01*
X83396512Y-80055659D01*
X83444211Y-80035848D01*
X83495662Y-80028733D01*
X83520587Y-80028059D01*
X83567971Y-80028792D01*
G37*
G36*
X83982326Y-79254572D02*
G01*
X84021586Y-79285885D01*
X84053532Y-79330036D01*
X84072088Y-79365428D01*
X84091217Y-79411203D01*
X84107325Y-79462830D01*
X84117297Y-79513724D01*
X84121133Y-79563885D01*
X84121181Y-79570104D01*
X84118450Y-79626278D01*
X84110258Y-79678296D01*
X84096606Y-79726158D01*
X84073775Y-79776744D01*
X84043511Y-79821674D01*
X84008850Y-79857366D01*
X83962291Y-79889673D01*
X83917136Y-79909365D01*
X83867139Y-79921673D01*
X83812299Y-79926596D01*
X83802688Y-79926698D01*
X83748231Y-79924587D01*
X83696600Y-79918255D01*
X83647795Y-79907700D01*
X83592961Y-79889462D01*
X83542196Y-79865145D01*
X83503002Y-79840236D01*
X83464936Y-79809307D01*
X83427773Y-79768113D01*
X83399900Y-79722472D01*
X83381319Y-79672384D01*
X83372028Y-79617847D01*
X83370867Y-79588911D01*
X83511550Y-79588911D01*
X83517442Y-79638527D01*
X83537532Y-79686769D01*
X83568167Y-79724865D01*
X83571878Y-79728373D01*
X83615394Y-79760411D01*
X83664754Y-79784514D01*
X83716740Y-79802176D01*
X83753107Y-79811416D01*
X83660050Y-79600634D01*
X83636270Y-79549657D01*
X83613868Y-79505505D01*
X83587093Y-79458768D01*
X83562597Y-79423314D01*
X83535678Y-79464883D01*
X83518729Y-79515706D01*
X83511999Y-79569360D01*
X83511550Y-79588911D01*
X83370867Y-79588911D01*
X83373294Y-79534505D01*
X83380575Y-79485352D01*
X83394569Y-79436330D01*
X83409701Y-79402797D01*
X83440824Y-79359939D01*
X83484921Y-79328770D01*
X83533174Y-79315523D01*
X83557224Y-79314137D01*
X83607645Y-79325060D01*
X83650726Y-79354261D01*
X83683742Y-79391807D01*
X83708693Y-79436499D01*
X83729867Y-79480832D01*
X83752063Y-79530490D01*
X83755061Y-79537375D01*
X83870343Y-79799692D01*
X83910361Y-79765274D01*
X83941511Y-79724729D01*
X83952897Y-79703949D01*
X83970767Y-79654210D01*
X83979176Y-79602787D01*
X83980497Y-79570348D01*
X83976222Y-79518813D01*
X83966455Y-79470826D01*
X83963400Y-79458973D01*
X83946868Y-79410065D01*
X83921236Y-79367603D01*
X83906491Y-79354682D01*
X83873289Y-79317587D01*
X83871076Y-79304368D01*
X83890127Y-79261625D01*
X83934579Y-79242574D01*
X83982326Y-79254572D01*
G37*
G36*
X84118738Y-78543063D02*
G01*
X84136812Y-78587759D01*
X84107927Y-78628874D01*
X84101641Y-78635142D01*
X84063287Y-78667504D01*
X84043023Y-78681060D01*
X84067331Y-78724550D01*
X84090330Y-78771185D01*
X84101397Y-78797319D01*
X84116834Y-78845900D01*
X84121181Y-78881095D01*
X84118012Y-78938296D01*
X84108507Y-78989367D01*
X84089408Y-79041200D01*
X84061684Y-79084689D01*
X84031055Y-79115324D01*
X83989663Y-79142352D01*
X83939646Y-79162741D01*
X83889909Y-79174934D01*
X83833836Y-79182250D01*
X83782267Y-79184621D01*
X83771425Y-79184689D01*
X83720851Y-79181898D01*
X83672626Y-79173526D01*
X83617857Y-79156112D01*
X83566472Y-79130661D01*
X83518469Y-79097173D01*
X83488347Y-79070383D01*
X83454503Y-79033507D01*
X83421461Y-78986406D01*
X83396680Y-78936197D01*
X83380159Y-78882880D01*
X83371899Y-78826454D01*
X83370867Y-78797075D01*
X83371774Y-78788038D01*
X83511550Y-78788038D01*
X83516527Y-78839467D01*
X83531456Y-78887262D01*
X83556338Y-78931424D01*
X83591174Y-78971953D01*
X83632390Y-79005720D01*
X83676659Y-79029839D01*
X83723981Y-79044310D01*
X83774356Y-79049134D01*
X83828256Y-79045985D01*
X83878584Y-79035099D01*
X83925690Y-79011772D01*
X83928961Y-79009322D01*
X83962329Y-78970365D01*
X83978031Y-78922669D01*
X83980497Y-78889643D01*
X83976869Y-78839368D01*
X83963667Y-78789572D01*
X83958515Y-78777780D01*
X83930746Y-78734394D01*
X83910643Y-78708415D01*
X83860634Y-78714748D01*
X83806023Y-78720930D01*
X83757302Y-78725567D01*
X83707906Y-78729023D01*
X83661271Y-78730397D01*
X83612218Y-78727789D01*
X83602409Y-78726733D01*
X83552446Y-78719040D01*
X83534754Y-78715498D01*
X83517168Y-78758973D01*
X83511550Y-78788038D01*
X83371774Y-78788038D01*
X83375986Y-78746077D01*
X83389799Y-78694781D01*
X83401885Y-78662986D01*
X83424868Y-78617884D01*
X83459478Y-78580710D01*
X83495186Y-78569685D01*
X83528159Y-78583607D01*
X83577296Y-78591321D01*
X83614621Y-78594354D01*
X83664275Y-78596655D01*
X83718179Y-78597980D01*
X83768250Y-78598506D01*
X83818300Y-78597676D01*
X83869042Y-78593279D01*
X83903560Y-78586782D01*
X83952903Y-78571175D01*
X84003124Y-78552187D01*
X84024949Y-78543551D01*
X84061585Y-78527920D01*
X84073309Y-78523767D01*
X84118738Y-78543063D01*
G37*
G36*
X83503735Y-77948331D02*
G01*
X83502513Y-77982525D01*
X83501048Y-78016475D01*
X83506012Y-78067291D01*
X83511550Y-78109776D01*
X83909666Y-78096831D01*
X83939220Y-78096098D01*
X83973658Y-78095366D01*
X84023793Y-78097080D01*
X84074503Y-78107834D01*
X84114121Y-78138424D01*
X84121181Y-78167417D01*
X84104677Y-78214015D01*
X84103595Y-78215289D01*
X84059631Y-78235561D01*
X84009517Y-78234551D01*
X83982695Y-78233607D01*
X83933107Y-78231830D01*
X83905758Y-78231409D01*
X83511550Y-78245086D01*
X83508515Y-78294435D01*
X83504479Y-78344190D01*
X83499583Y-78397738D01*
X83478150Y-78443534D01*
X83430462Y-78458799D01*
X83383267Y-78443554D01*
X83379415Y-78440236D01*
X83359163Y-78394645D01*
X83359143Y-78392853D01*
X83370867Y-78248750D01*
X83320167Y-78249990D01*
X83281229Y-78251925D01*
X83230366Y-78254212D01*
X83200141Y-78254856D01*
X83154467Y-78235072D01*
X83136411Y-78188017D01*
X83136393Y-78186224D01*
X83157645Y-78139441D01*
X83205250Y-78118398D01*
X83233114Y-78113928D01*
X83283336Y-78112005D01*
X83291732Y-78111974D01*
X83330078Y-78113195D01*
X83370867Y-78113928D01*
X83364609Y-78063954D01*
X83359876Y-78016475D01*
X83361004Y-77966513D01*
X83366714Y-77922930D01*
X83401396Y-77886100D01*
X83432660Y-77881165D01*
X83479855Y-77896811D01*
X83483707Y-77900215D01*
X83503715Y-77946510D01*
X83503735Y-77948331D01*
G37*
G36*
X83982326Y-77112073D02*
G01*
X84021586Y-77143387D01*
X84053532Y-77187538D01*
X84072088Y-77222930D01*
X84091217Y-77268705D01*
X84107325Y-77320331D01*
X84117297Y-77371226D01*
X84121133Y-77421387D01*
X84121181Y-77427606D01*
X84118450Y-77483780D01*
X84110258Y-77535798D01*
X84096606Y-77583660D01*
X84073775Y-77634246D01*
X84043511Y-77679176D01*
X84008850Y-77714868D01*
X83962291Y-77747175D01*
X83917136Y-77766867D01*
X83867139Y-77779175D01*
X83812299Y-77784098D01*
X83802688Y-77784200D01*
X83748231Y-77782089D01*
X83696600Y-77775757D01*
X83647795Y-77765202D01*
X83592961Y-77746964D01*
X83542196Y-77722647D01*
X83503002Y-77697738D01*
X83464936Y-77666808D01*
X83427773Y-77625615D01*
X83399900Y-77579974D01*
X83381319Y-77529885D01*
X83372028Y-77475349D01*
X83370867Y-77446412D01*
X83511550Y-77446412D01*
X83517442Y-77496029D01*
X83537532Y-77544271D01*
X83568167Y-77582367D01*
X83571878Y-77585875D01*
X83615394Y-77617913D01*
X83664754Y-77642015D01*
X83716740Y-77659677D01*
X83753107Y-77668917D01*
X83660050Y-77458136D01*
X83636270Y-77407159D01*
X83613868Y-77363007D01*
X83587093Y-77316270D01*
X83562597Y-77280816D01*
X83535678Y-77322385D01*
X83518729Y-77373208D01*
X83511999Y-77426862D01*
X83511550Y-77446412D01*
X83370867Y-77446412D01*
X83373294Y-77392007D01*
X83380575Y-77342853D01*
X83394569Y-77293832D01*
X83409701Y-77260299D01*
X83440824Y-77217441D01*
X83484921Y-77186271D01*
X83533174Y-77173024D01*
X83557224Y-77171639D01*
X83607645Y-77182561D01*
X83650726Y-77211763D01*
X83683742Y-77249308D01*
X83708693Y-77294001D01*
X83729867Y-77338334D01*
X83752063Y-77387991D01*
X83755061Y-77394877D01*
X83870343Y-77657194D01*
X83910361Y-77622776D01*
X83941511Y-77582230D01*
X83952897Y-77561451D01*
X83970767Y-77511712D01*
X83979176Y-77460289D01*
X83980497Y-77427850D01*
X83976222Y-77376315D01*
X83966455Y-77328328D01*
X83963400Y-77316475D01*
X83946868Y-77267567D01*
X83921236Y-77225105D01*
X83906491Y-77212183D01*
X83873289Y-77175089D01*
X83871076Y-77161869D01*
X83890127Y-77119127D01*
X83934579Y-77100076D01*
X83982326Y-77112073D01*
G37*
G36*
X83114709Y-76322739D02*
G01*
X83165722Y-76325277D01*
X83214612Y-76328269D01*
X83270685Y-76332115D01*
X83333940Y-76336817D01*
X83386095Y-76340904D01*
X83442289Y-76345472D01*
X83481997Y-76348785D01*
X83532204Y-76352418D01*
X83582442Y-76355013D01*
X83632710Y-76356570D01*
X83683009Y-76357089D01*
X83738177Y-76356757D01*
X83789865Y-76355761D01*
X83849581Y-76353582D01*
X83903858Y-76350366D01*
X83952697Y-76346112D01*
X84004125Y-76339637D01*
X84026903Y-76335840D01*
X84042534Y-76334619D01*
X84087719Y-76353914D01*
X84105549Y-76398366D01*
X84081316Y-76442712D01*
X84043511Y-76460892D01*
X84072316Y-76504810D01*
X84095043Y-76550224D01*
X84100420Y-76563474D01*
X84114612Y-76610952D01*
X84120856Y-76660206D01*
X84121181Y-76674605D01*
X84117840Y-76726194D01*
X84107820Y-76774348D01*
X84087686Y-76826186D01*
X84058459Y-76873350D01*
X84026170Y-76910055D01*
X83987785Y-76942759D01*
X83945536Y-76968696D01*
X83899422Y-76987867D01*
X83849445Y-77000272D01*
X83795604Y-77005911D01*
X83776798Y-77006287D01*
X83721037Y-77003913D01*
X83668854Y-76996794D01*
X83620249Y-76984927D01*
X83566645Y-76964422D01*
X83518194Y-76937082D01*
X83481753Y-76909078D01*
X83444069Y-76870590D01*
X83414182Y-76828031D01*
X83392091Y-76781403D01*
X83377797Y-76730704D01*
X83371300Y-76675936D01*
X83370867Y-76656775D01*
X83371036Y-76653844D01*
X83511550Y-76653844D01*
X83515642Y-76707990D01*
X83530024Y-76760255D01*
X83554762Y-76803362D01*
X83577008Y-76827012D01*
X83618925Y-76854876D01*
X83664977Y-76871988D01*
X83719302Y-76881895D01*
X83773623Y-76884654D01*
X83824280Y-76878524D01*
X83870309Y-76860134D01*
X83911711Y-76829484D01*
X83919436Y-76821883D01*
X83951636Y-76780424D01*
X83971910Y-76734815D01*
X83980258Y-76685055D01*
X83980497Y-76674605D01*
X83976042Y-76624308D01*
X83960225Y-76576908D01*
X83931263Y-76533621D01*
X83905514Y-76500704D01*
X83885242Y-76480920D01*
X83771669Y-76482874D01*
X83695465Y-76482142D01*
X83618040Y-76480920D01*
X83576547Y-76506940D01*
X83541605Y-76544920D01*
X83538173Y-76550285D01*
X83518206Y-76597790D01*
X83511654Y-76646370D01*
X83511550Y-76653844D01*
X83371036Y-76653844D01*
X83373781Y-76606195D01*
X83384743Y-76557582D01*
X83395535Y-76533677D01*
X83442918Y-76469197D01*
X83390713Y-76467378D01*
X83341810Y-76465496D01*
X83281742Y-76462885D01*
X83227543Y-76460161D01*
X83168048Y-76456594D01*
X83117724Y-76452848D01*
X83062678Y-76447303D01*
X83056282Y-76446482D01*
X83010853Y-76426454D01*
X82995710Y-76383956D01*
X83012318Y-76337061D01*
X83062144Y-76321430D01*
X83114709Y-76322739D01*
G37*
G36*
X83803076Y-75072263D02*
G01*
X83856814Y-75082928D01*
X83907238Y-75100702D01*
X83954347Y-75125586D01*
X83998142Y-75157580D01*
X84012004Y-75169825D01*
X84049107Y-75209395D01*
X84078533Y-75252451D01*
X84100284Y-75298994D01*
X84114357Y-75349023D01*
X84120754Y-75402538D01*
X84121181Y-75421151D01*
X84118143Y-75472472D01*
X84109030Y-75521412D01*
X84093841Y-75567971D01*
X84072576Y-75612148D01*
X84103488Y-75650479D01*
X84105549Y-75665638D01*
X84087475Y-75710090D01*
X84042046Y-75728164D01*
X83991929Y-75726559D01*
X83989778Y-75726454D01*
X83940715Y-75724759D01*
X83937266Y-75724744D01*
X83885068Y-75725126D01*
X83833213Y-75725981D01*
X83780476Y-75727130D01*
X83729803Y-75728412D01*
X83720867Y-75728652D01*
X83669269Y-75729897D01*
X83615476Y-75731024D01*
X83562440Y-75731883D01*
X83513542Y-75732302D01*
X83504223Y-75732316D01*
X83454352Y-75732213D01*
X83400539Y-75732000D01*
X83348961Y-75731755D01*
X83315668Y-75731583D01*
X83266752Y-75731334D01*
X83217542Y-75731109D01*
X83166704Y-75730922D01*
X83126624Y-75730851D01*
X83076345Y-75723487D01*
X83052862Y-75713754D01*
X83017180Y-75678682D01*
X83011341Y-75651227D01*
X83034620Y-75606939D01*
X83070936Y-75599692D01*
X83099024Y-75603111D01*
X83127112Y-75606531D01*
X83277077Y-75608485D01*
X83451955Y-75609950D01*
X83424398Y-75565929D01*
X83400978Y-75520178D01*
X83391139Y-75496377D01*
X83376588Y-75447222D01*
X83370886Y-75397984D01*
X83370867Y-75395017D01*
X83511550Y-75395017D01*
X83517347Y-75444731D01*
X83533112Y-75491900D01*
X83541837Y-75510299D01*
X83567714Y-75552571D01*
X83597768Y-75596437D01*
X83606805Y-75609218D01*
X83720622Y-75610683D01*
X83823204Y-75609950D01*
X83931160Y-75609218D01*
X83949922Y-75563622D01*
X83968040Y-75516405D01*
X83977760Y-75468356D01*
X83980497Y-75421151D01*
X83975203Y-75367937D01*
X83959322Y-75320403D01*
X83932854Y-75278550D01*
X83913574Y-75257752D01*
X83873185Y-75226819D01*
X83827579Y-75206009D01*
X83776756Y-75195323D01*
X83746268Y-75193760D01*
X83693726Y-75197837D01*
X83646285Y-75210067D01*
X83599554Y-75233217D01*
X83582625Y-75245296D01*
X83545144Y-75283845D01*
X83521545Y-75329884D01*
X83511828Y-75383412D01*
X83511550Y-75395017D01*
X83370867Y-75395017D01*
X83374851Y-75341562D01*
X83386803Y-75292022D01*
X83406724Y-75246399D01*
X83434614Y-75204690D01*
X83470472Y-75166898D01*
X83484195Y-75155170D01*
X83525846Y-75125787D01*
X83570932Y-75102482D01*
X83619452Y-75085258D01*
X83671407Y-75074112D01*
X83726797Y-75069046D01*
X83746024Y-75068708D01*
X83803076Y-75072263D01*
G37*
G36*
X83477845Y-74312532D02*
G01*
X83987580Y-74550181D01*
X84033162Y-74571517D01*
X84087477Y-74596375D01*
X84138835Y-74619216D01*
X84187235Y-74640043D01*
X84232677Y-74658853D01*
X84283304Y-74678766D01*
X84299234Y-74684758D01*
X84431369Y-74730188D01*
X84471263Y-74758515D01*
X84480706Y-74791981D01*
X84464821Y-74839150D01*
X84462632Y-74841807D01*
X84418180Y-74862567D01*
X84369240Y-74853301D01*
X84322063Y-74838099D01*
X84275134Y-74820726D01*
X84220038Y-74798719D01*
X84173357Y-74779174D01*
X84122082Y-74757022D01*
X84066213Y-74732265D01*
X84026414Y-74714312D01*
X83551118Y-74960264D01*
X83500804Y-74991039D01*
X83454526Y-75009148D01*
X83447559Y-75009601D01*
X83399928Y-74993146D01*
X83394070Y-74988108D01*
X83371070Y-74944496D01*
X83370867Y-74939504D01*
X83391127Y-74894232D01*
X83395535Y-74890899D01*
X83439510Y-74861441D01*
X83487905Y-74831441D01*
X83540718Y-74800900D01*
X83597951Y-74769816D01*
X83643776Y-74746148D01*
X83692087Y-74722174D01*
X83742883Y-74697896D01*
X83796166Y-74673313D01*
X83851934Y-74648426D01*
X83871076Y-74640062D01*
X83629031Y-74538457D01*
X83584109Y-74517995D01*
X83534369Y-74494492D01*
X83487504Y-74471386D01*
X83443514Y-74448677D01*
X83413853Y-74432700D01*
X83376912Y-74399880D01*
X83370867Y-74375058D01*
X83388118Y-74329323D01*
X83391871Y-74325233D01*
X83436362Y-74303686D01*
X83441697Y-74303495D01*
X83477845Y-74312532D01*
G37*
G36*
X83939220Y-73993795D02*
G01*
X83986183Y-74009129D01*
X83991488Y-74013823D01*
X84011582Y-74058909D01*
X84011760Y-74064626D01*
X83994910Y-74110977D01*
X83991243Y-74114696D01*
X83945072Y-74134305D01*
X83939220Y-74134479D01*
X83900385Y-74139120D01*
X83861795Y-74143516D01*
X83815183Y-74124626D01*
X83812702Y-74122023D01*
X83793092Y-74076204D01*
X83792918Y-74070732D01*
X83813492Y-74023849D01*
X83862068Y-74001309D01*
X83913074Y-73994472D01*
X83939220Y-73993795D01*
G37*
G36*
X83425821Y-74005275D02*
G01*
X83472573Y-74021322D01*
X83476379Y-74024814D01*
X83495843Y-74071540D01*
X83495919Y-74075372D01*
X83479871Y-74122567D01*
X83476379Y-74126419D01*
X83431495Y-74146029D01*
X83425821Y-74146203D01*
X83401153Y-74149378D01*
X83375507Y-74152309D01*
X83329812Y-74134277D01*
X83327391Y-74131793D01*
X83308508Y-74086341D01*
X83308340Y-74080746D01*
X83324861Y-74034756D01*
X83369031Y-74011245D01*
X83418593Y-74005348D01*
X83425821Y-74005275D01*
G37*
G36*
X83214551Y-73121116D02*
G01*
X83200846Y-73168569D01*
X83193790Y-73177780D01*
X83149743Y-73201263D01*
X83144453Y-73201472D01*
X83098594Y-73182014D01*
X83094628Y-73177780D01*
X83074597Y-73133154D01*
X83073867Y-73121116D01*
X83087573Y-73073501D01*
X83094628Y-73064207D01*
X83137317Y-73040405D01*
X83144453Y-73040027D01*
X83189829Y-73059886D01*
X83193790Y-73064207D01*
X83213821Y-73109069D01*
X83214551Y-73121116D01*
G37*
G36*
X84242325Y-73126489D02*
G01*
X84186943Y-73127680D01*
X84136515Y-73130005D01*
X84087415Y-73132742D01*
X84030529Y-73136256D01*
X83965858Y-73140550D01*
X83912246Y-73144281D01*
X83854255Y-73148449D01*
X83833951Y-73149936D01*
X83458061Y-73173139D01*
X83409487Y-73161213D01*
X83397489Y-73153600D01*
X83371283Y-73111178D01*
X83370867Y-73103774D01*
X83387964Y-73057368D01*
X83422890Y-73032456D01*
X83817587Y-73009741D01*
X84239394Y-72991178D01*
X84291565Y-72995680D01*
X84340914Y-73009185D01*
X84387443Y-73031693D01*
X84412074Y-73048087D01*
X84448939Y-73080770D01*
X84477823Y-73121516D01*
X84494280Y-73171729D01*
X84496338Y-73198785D01*
X84488326Y-73252423D01*
X84464292Y-73302695D01*
X84432024Y-73342017D01*
X84388629Y-73379002D01*
X84345902Y-73406907D01*
X84296054Y-73433315D01*
X84268459Y-73445959D01*
X84235486Y-73454263D01*
X84190392Y-73435372D01*
X84187859Y-73432770D01*
X84168152Y-73386860D01*
X84168075Y-73383433D01*
X84192822Y-73339389D01*
X84235208Y-73309862D01*
X84255758Y-73298924D01*
X84299234Y-73274671D01*
X84321948Y-73260578D01*
X84351671Y-73221739D01*
X84355654Y-73198541D01*
X84328224Y-73156818D01*
X84310713Y-73147005D01*
X84263696Y-73130277D01*
X84242325Y-73126489D01*
G37*
G36*
X83570911Y-72185981D02*
G01*
X83623896Y-72192736D01*
X83653944Y-72197633D01*
X83703343Y-72205520D01*
X83754062Y-72212790D01*
X83785347Y-72216196D01*
X84020064Y-72232072D01*
X84070743Y-72234324D01*
X84125309Y-72238710D01*
X84174967Y-72244990D01*
X84225709Y-72254485D01*
X84248675Y-72260160D01*
X84295405Y-72275495D01*
X84341826Y-72297343D01*
X84385146Y-72327433D01*
X84415737Y-72359078D01*
X84444161Y-72404935D01*
X84462370Y-72452572D01*
X84474361Y-72507223D01*
X84479691Y-72559647D01*
X84480706Y-72597459D01*
X84479585Y-72646523D01*
X84475712Y-72695601D01*
X84467412Y-72746938D01*
X84466540Y-72750844D01*
X84447888Y-72800069D01*
X84409540Y-72833168D01*
X84384230Y-72837305D01*
X84336195Y-72824157D01*
X84317308Y-72777466D01*
X84322964Y-72727962D01*
X84329275Y-72695156D01*
X84336941Y-72646267D01*
X84340009Y-72597489D01*
X84340022Y-72567417D01*
X84333077Y-72513618D01*
X84314163Y-72467627D01*
X84283282Y-72429442D01*
X84240432Y-72399065D01*
X84210573Y-72385212D01*
X84162366Y-72370664D01*
X84110818Y-72361116D01*
X84059676Y-72355294D01*
X84002111Y-72351653D01*
X83949234Y-72350285D01*
X83994266Y-72374872D01*
X84034986Y-72405113D01*
X84066470Y-72438701D01*
X84091772Y-72482636D01*
X84104175Y-72531488D01*
X84105549Y-72555693D01*
X84101412Y-72607863D01*
X84089000Y-72655591D01*
X84064682Y-72704699D01*
X84029557Y-72748006D01*
X84019087Y-72757927D01*
X83978794Y-72788285D01*
X83933569Y-72811188D01*
X83883411Y-72826633D01*
X83828322Y-72834623D01*
X83794628Y-72835840D01*
X83737341Y-72833240D01*
X83683631Y-72825441D01*
X83633499Y-72812441D01*
X83586945Y-72794242D01*
X83543969Y-72770844D01*
X83497120Y-72735902D01*
X83489813Y-72729350D01*
X83455546Y-72693060D01*
X83427087Y-72652881D01*
X83404436Y-72608815D01*
X83387593Y-72560861D01*
X83376558Y-72509019D01*
X83371331Y-72453289D01*
X83371003Y-72436747D01*
X83511550Y-72436747D01*
X83515489Y-72491075D01*
X83527305Y-72539723D01*
X83550455Y-72588366D01*
X83583893Y-72629589D01*
X83593860Y-72638736D01*
X83638676Y-72669670D01*
X83683865Y-72688667D01*
X83734091Y-72699666D01*
X83782172Y-72702728D01*
X83834698Y-72699031D01*
X83882284Y-72686424D01*
X83919192Y-72664870D01*
X83950414Y-72624545D01*
X83963750Y-72574208D01*
X83964865Y-72551541D01*
X83954802Y-72500067D01*
X83927896Y-72453848D01*
X83893302Y-72416719D01*
X83852205Y-72384763D01*
X83807274Y-72361126D01*
X83762632Y-72349553D01*
X83712787Y-72340331D01*
X83662022Y-72332645D01*
X83609664Y-72325695D01*
X83558888Y-72319570D01*
X83549897Y-72318534D01*
X83525627Y-72362850D01*
X83521076Y-72375687D01*
X83511885Y-72425001D01*
X83511550Y-72436747D01*
X83371003Y-72436747D01*
X83370867Y-72429908D01*
X83374092Y-72377889D01*
X83385679Y-72328171D01*
X83387719Y-72322686D01*
X83413469Y-72278582D01*
X83438033Y-72256740D01*
X83452681Y-72209141D01*
X83497668Y-72185018D01*
X83521076Y-72183223D01*
X83570911Y-72185981D01*
G37*
G36*
X83795324Y-71472452D02*
G01*
X83847606Y-71481170D01*
X83896761Y-71495212D01*
X83942792Y-71514578D01*
X83985696Y-71539267D01*
X83999303Y-71548680D01*
X84040723Y-71583662D01*
X84073572Y-71622663D01*
X84097853Y-71665682D01*
X84113563Y-71712720D01*
X84120705Y-71763776D01*
X84121181Y-71781688D01*
X84117113Y-71830593D01*
X84102505Y-71882735D01*
X84077271Y-71930878D01*
X84046477Y-71969722D01*
X84036184Y-71980257D01*
X83998537Y-72011888D01*
X83956305Y-72037353D01*
X83909488Y-72056653D01*
X83858085Y-72069788D01*
X83802097Y-72076757D01*
X83782416Y-72077710D01*
X83725652Y-72076145D01*
X83671499Y-72068517D01*
X83619956Y-72054827D01*
X83571024Y-72035075D01*
X83524701Y-72009260D01*
X83509841Y-71999308D01*
X83469804Y-71967458D01*
X83430718Y-71924341D01*
X83401403Y-71875884D01*
X83381860Y-71822086D01*
X83373038Y-71773174D01*
X83371336Y-71740411D01*
X83511550Y-71740411D01*
X83518868Y-71793616D01*
X83541372Y-71839750D01*
X83579061Y-71878813D01*
X83606561Y-71897459D01*
X83651420Y-71919065D01*
X83699718Y-71933600D01*
X83751454Y-71941064D01*
X83781683Y-71942155D01*
X83833611Y-71937866D01*
X83883242Y-71923040D01*
X83928028Y-71894499D01*
X83935068Y-71887934D01*
X83964481Y-71848443D01*
X83979388Y-71800144D01*
X83980497Y-71781444D01*
X83973250Y-71730737D01*
X83951508Y-71685594D01*
X83928961Y-71658590D01*
X83889353Y-71627472D01*
X83841969Y-71607089D01*
X83792675Y-71597920D01*
X83774844Y-71596796D01*
X83713295Y-71596903D01*
X83659928Y-71602108D01*
X83604725Y-71615785D01*
X83555358Y-71642713D01*
X83524400Y-71681112D01*
X83511852Y-71730984D01*
X83511550Y-71740411D01*
X83371336Y-71740411D01*
X83370867Y-71731374D01*
X83375272Y-71682235D01*
X83391545Y-71630811D01*
X83419811Y-71585744D01*
X83460067Y-71547035D01*
X83496163Y-71523279D01*
X83542472Y-71501400D01*
X83592708Y-71485131D01*
X83646871Y-71474472D01*
X83696421Y-71469801D01*
X83739918Y-71469057D01*
X83795324Y-71472452D01*
G37*
G36*
X83503735Y-70843795D02*
G01*
X83502513Y-70877989D01*
X83501048Y-70911939D01*
X83506012Y-70962755D01*
X83511550Y-71005240D01*
X83909666Y-70992295D01*
X83939220Y-70991562D01*
X83973658Y-70990830D01*
X84023793Y-70992544D01*
X84074503Y-71003298D01*
X84114121Y-71033888D01*
X84121181Y-71062881D01*
X84104677Y-71109479D01*
X84103595Y-71110753D01*
X84059631Y-71131025D01*
X84009517Y-71130016D01*
X83982695Y-71129071D01*
X83933107Y-71127294D01*
X83905758Y-71126873D01*
X83511550Y-71140550D01*
X83508515Y-71189899D01*
X83504479Y-71239654D01*
X83499583Y-71293202D01*
X83478150Y-71338998D01*
X83430462Y-71354263D01*
X83383267Y-71339018D01*
X83379415Y-71335700D01*
X83359163Y-71290109D01*
X83359143Y-71288317D01*
X83370867Y-71144214D01*
X83320167Y-71145454D01*
X83281229Y-71147389D01*
X83230366Y-71149676D01*
X83200141Y-71150320D01*
X83154467Y-71130536D01*
X83136411Y-71083481D01*
X83136393Y-71081688D01*
X83157645Y-71034905D01*
X83205250Y-71013862D01*
X83233114Y-71009392D01*
X83283336Y-71007469D01*
X83291732Y-71007438D01*
X83330078Y-71008659D01*
X83370867Y-71009392D01*
X83364609Y-70959418D01*
X83359876Y-70911939D01*
X83361004Y-70861977D01*
X83366714Y-70818394D01*
X83401396Y-70781564D01*
X83432660Y-70776629D01*
X83479855Y-70792275D01*
X83483707Y-70795680D01*
X83503715Y-70841974D01*
X83503735Y-70843795D01*
G37*
G36*
X83526205Y-70077361D02*
G01*
X83565314Y-70110044D01*
X83605997Y-70142173D01*
X83645667Y-70172335D01*
X83689768Y-70204918D01*
X83729904Y-70233921D01*
X83776088Y-70267054D01*
X83817860Y-70297300D01*
X83862161Y-70329786D01*
X83905815Y-70362434D01*
X83945115Y-70392820D01*
X83949234Y-70396098D01*
X83949234Y-70344636D01*
X83949234Y-70294698D01*
X83949234Y-70270313D01*
X83952928Y-70221134D01*
X83957049Y-70190690D01*
X83963148Y-70141821D01*
X83964865Y-70111067D01*
X83982468Y-70064370D01*
X83984893Y-70061974D01*
X84031433Y-70042997D01*
X84035207Y-70042923D01*
X84082243Y-70058569D01*
X84086010Y-70061974D01*
X84105473Y-70107111D01*
X84105549Y-70110823D01*
X84105549Y-70160117D01*
X84105549Y-70190690D01*
X84105549Y-70241849D01*
X84105549Y-70270313D01*
X84106047Y-70327732D01*
X84107541Y-70384035D01*
X84110031Y-70439221D01*
X84113517Y-70493292D01*
X84118000Y-70546246D01*
X84119715Y-70563649D01*
X84121181Y-70589050D01*
X84108086Y-70636910D01*
X84061585Y-70655728D01*
X84014831Y-70639451D01*
X83994419Y-70621290D01*
X83952947Y-70575979D01*
X83918302Y-70541350D01*
X83880621Y-70506167D01*
X83839906Y-70470430D01*
X83796154Y-70434139D01*
X83749368Y-70397294D01*
X83699546Y-70359896D01*
X83646689Y-70321944D01*
X83590796Y-70283437D01*
X83531868Y-70244377D01*
X83511550Y-70231234D01*
X83511550Y-70283436D01*
X83511550Y-70333170D01*
X83511550Y-70363858D01*
X83510573Y-70415012D01*
X83507643Y-70466868D01*
X83502758Y-70519426D01*
X83495919Y-70572686D01*
X83476563Y-70618481D01*
X83434614Y-70633747D01*
X83389185Y-70615184D01*
X83370867Y-70568534D01*
X83373622Y-70516454D01*
X83378682Y-70466929D01*
X83383743Y-70417044D01*
X83386490Y-70366074D01*
X83386498Y-70363858D01*
X83385002Y-70313943D01*
X83381728Y-70262261D01*
X83378682Y-70223663D01*
X83374904Y-70174753D01*
X83371966Y-70125050D01*
X83370867Y-70083467D01*
X83385009Y-70036267D01*
X83415563Y-70025093D01*
X83465663Y-70036578D01*
X83507983Y-70062304D01*
X83526205Y-70077361D01*
G37*
G36*
X84135347Y-68716684D02*
G01*
X84152444Y-68760892D01*
X84130193Y-68805332D01*
X84118738Y-68813893D01*
X83987580Y-68892784D01*
X84026068Y-68936719D01*
X84058033Y-68982276D01*
X84083475Y-69029455D01*
X84102393Y-69078255D01*
X84114788Y-69128678D01*
X84120659Y-69180723D01*
X84121181Y-69201995D01*
X84117429Y-69256390D01*
X84106174Y-69307162D01*
X84087416Y-69354310D01*
X84061154Y-69397836D01*
X84042779Y-69421081D01*
X84004890Y-69458292D01*
X83962817Y-69486363D01*
X83916560Y-69505295D01*
X83866119Y-69515088D01*
X83835416Y-69516580D01*
X83786616Y-69513033D01*
X83731808Y-69499932D01*
X83686654Y-69481018D01*
X83643183Y-69455012D01*
X83601394Y-69421913D01*
X83594593Y-69415707D01*
X83556155Y-69375260D01*
X83521931Y-69333275D01*
X83489582Y-69289959D01*
X83460499Y-69248693D01*
X83429485Y-69202728D01*
X83378057Y-69219611D01*
X83327364Y-69230969D01*
X83277404Y-69236802D01*
X83249966Y-69237654D01*
X83197897Y-69229652D01*
X83148477Y-69208255D01*
X83106840Y-69180746D01*
X83073327Y-69150460D01*
X83540615Y-69150460D01*
X83567606Y-69192128D01*
X83596013Y-69234012D01*
X83627659Y-69277216D01*
X83656386Y-69311172D01*
X83696381Y-69347503D01*
X83742689Y-69375967D01*
X83790388Y-69391295D01*
X83822960Y-69394214D01*
X83872740Y-69385799D01*
X83915101Y-69360554D01*
X83939220Y-69334375D01*
X83964373Y-69289770D01*
X83977917Y-69239120D01*
X83980497Y-69201995D01*
X83977071Y-69151219D01*
X83966792Y-69103122D01*
X83946141Y-69050396D01*
X83921016Y-69008103D01*
X83889039Y-68968490D01*
X83883044Y-68962148D01*
X83840278Y-68989024D01*
X83789296Y-69018442D01*
X83736710Y-69047457D01*
X83688029Y-69073614D01*
X83633472Y-69102389D01*
X83588696Y-69125688D01*
X83540615Y-69150460D01*
X83073327Y-69150460D01*
X83068232Y-69145856D01*
X83038204Y-69102111D01*
X83026973Y-69053007D01*
X83136882Y-69053007D01*
X83174192Y-69085773D01*
X83182311Y-69090376D01*
X83227153Y-69111995D01*
X83242883Y-69115533D01*
X83291738Y-69111776D01*
X83342855Y-69101491D01*
X83354502Y-69098436D01*
X83315881Y-69059861D01*
X83272652Y-69029638D01*
X83224891Y-69012417D01*
X83201118Y-69010264D01*
X83153249Y-69020350D01*
X83152269Y-69021011D01*
X83136882Y-69053007D01*
X83026973Y-69053007D01*
X83033409Y-69003088D01*
X83055110Y-68957716D01*
X83081439Y-68929908D01*
X83126880Y-68902867D01*
X83177627Y-68890141D01*
X83211132Y-68888143D01*
X83262540Y-68893956D01*
X83312901Y-68911396D01*
X83362214Y-68940461D01*
X83402508Y-68973564D01*
X83442075Y-69014741D01*
X83473204Y-69053495D01*
X83518522Y-69031702D01*
X83568013Y-69005891D01*
X83612443Y-68981312D01*
X83659771Y-68953942D01*
X83709997Y-68923781D01*
X83752264Y-68897643D01*
X83763121Y-68890830D01*
X83714435Y-68876998D01*
X83679834Y-68870313D01*
X83628579Y-68862391D01*
X83587021Y-68854437D01*
X83542142Y-68831784D01*
X83527182Y-68799483D01*
X83553460Y-68757275D01*
X83559178Y-68754054D01*
X83606396Y-68740857D01*
X83618529Y-68740376D01*
X83672004Y-68742883D01*
X83723984Y-68750405D01*
X83774471Y-68762942D01*
X83823464Y-68780493D01*
X83870962Y-68803059D01*
X83886463Y-68811695D01*
X83928019Y-68784847D01*
X83973706Y-68756322D01*
X84019353Y-68729474D01*
X84064641Y-68706206D01*
X84094314Y-68697145D01*
X84135347Y-68716684D01*
G37*
G36*
X84135347Y-67801262D02*
G01*
X84152444Y-67845470D01*
X84130193Y-67889910D01*
X84118738Y-67898471D01*
X83987580Y-67977361D01*
X84026068Y-68021296D01*
X84058033Y-68066853D01*
X84083475Y-68114032D01*
X84102393Y-68162833D01*
X84114788Y-68213256D01*
X84120659Y-68265301D01*
X84121181Y-68286573D01*
X84117429Y-68340968D01*
X84106174Y-68391739D01*
X84087416Y-68438888D01*
X84061154Y-68482414D01*
X84042779Y-68505659D01*
X84004890Y-68542870D01*
X83962817Y-68570941D01*
X83916560Y-68589873D01*
X83866119Y-68599665D01*
X83835416Y-68601158D01*
X83786616Y-68597611D01*
X83731808Y-68584510D01*
X83686654Y-68565596D01*
X83643183Y-68539590D01*
X83601394Y-68506491D01*
X83594593Y-68500285D01*
X83556155Y-68459838D01*
X83521931Y-68417853D01*
X83489582Y-68374536D01*
X83460499Y-68333270D01*
X83429485Y-68287305D01*
X83378057Y-68304189D01*
X83327364Y-68315547D01*
X83277404Y-68321380D01*
X83249966Y-68322232D01*
X83197897Y-68314229D01*
X83148477Y-68292833D01*
X83106840Y-68265324D01*
X83073327Y-68235038D01*
X83540615Y-68235038D01*
X83567606Y-68276706D01*
X83596013Y-68318590D01*
X83627659Y-68361794D01*
X83656386Y-68395749D01*
X83696381Y-68432080D01*
X83742689Y-68460545D01*
X83790388Y-68475872D01*
X83822960Y-68478792D01*
X83872740Y-68470377D01*
X83915101Y-68445132D01*
X83939220Y-68418952D01*
X83964373Y-68374348D01*
X83977917Y-68323698D01*
X83980497Y-68286573D01*
X83977071Y-68235797D01*
X83966792Y-68187700D01*
X83946141Y-68134973D01*
X83921016Y-68092681D01*
X83889039Y-68053068D01*
X83883044Y-68046726D01*
X83840278Y-68073602D01*
X83789296Y-68103020D01*
X83736710Y-68132035D01*
X83688029Y-68158192D01*
X83633472Y-68186967D01*
X83588696Y-68210266D01*
X83540615Y-68235038D01*
X83073327Y-68235038D01*
X83068232Y-68230434D01*
X83038204Y-68186689D01*
X83026973Y-68137585D01*
X83136882Y-68137585D01*
X83174192Y-68170351D01*
X83182311Y-68174954D01*
X83227153Y-68196573D01*
X83242883Y-68200111D01*
X83291738Y-68196354D01*
X83342855Y-68186069D01*
X83354502Y-68183014D01*
X83315881Y-68144439D01*
X83272652Y-68114216D01*
X83224891Y-68096995D01*
X83201118Y-68094842D01*
X83153249Y-68104928D01*
X83152269Y-68105589D01*
X83136882Y-68137585D01*
X83026973Y-68137585D01*
X83033409Y-68087666D01*
X83055110Y-68042294D01*
X83081439Y-68014486D01*
X83126880Y-67987445D01*
X83177627Y-67974719D01*
X83211132Y-67972721D01*
X83262540Y-67978534D01*
X83312901Y-67995973D01*
X83362214Y-68025039D01*
X83402508Y-68058142D01*
X83442075Y-68099319D01*
X83473204Y-68138073D01*
X83518522Y-68116280D01*
X83568013Y-68090469D01*
X83612443Y-68065889D01*
X83659771Y-68038519D01*
X83709997Y-68008359D01*
X83752264Y-67982221D01*
X83763121Y-67975407D01*
X83714435Y-67961576D01*
X83679834Y-67954891D01*
X83628579Y-67946969D01*
X83587021Y-67939015D01*
X83542142Y-67916362D01*
X83527182Y-67884061D01*
X83553460Y-67841853D01*
X83559178Y-67838631D01*
X83606396Y-67825435D01*
X83618529Y-67824954D01*
X83672004Y-67827461D01*
X83723984Y-67834983D01*
X83774471Y-67847520D01*
X83823464Y-67865071D01*
X83870962Y-67887636D01*
X83886463Y-67896273D01*
X83928019Y-67869425D01*
X83973706Y-67840899D01*
X84019353Y-67814052D01*
X84064641Y-67790784D01*
X84094314Y-67781723D01*
X84135347Y-67801262D01*
G37*
G36*
X83136393Y-66762009D02*
G01*
X83143349Y-66819230D01*
X83164214Y-66866148D01*
X83198990Y-66902761D01*
X83247677Y-66929071D01*
X83298875Y-66943125D01*
X83334230Y-66948122D01*
X83370867Y-66950320D01*
X83367233Y-66897090D01*
X83364152Y-66845022D01*
X83362562Y-66799134D01*
X83368300Y-66746358D01*
X83393803Y-66702858D01*
X83435102Y-66689957D01*
X83481204Y-66706882D01*
X83498361Y-66743446D01*
X83501917Y-66792364D01*
X83501781Y-66798157D01*
X83503319Y-66848503D01*
X83506818Y-66898907D01*
X83510875Y-66948582D01*
X83511550Y-66956426D01*
X83672506Y-66962044D01*
X83723100Y-66961453D01*
X83772412Y-66960270D01*
X83803665Y-66959357D01*
X83853973Y-66957812D01*
X83902883Y-66956712D01*
X83934091Y-66956426D01*
X83989915Y-66957151D01*
X84040059Y-66959325D01*
X84090411Y-66963584D01*
X84142918Y-66971569D01*
X84186941Y-66995468D01*
X84199338Y-67035561D01*
X84181459Y-67082417D01*
X84180287Y-67083677D01*
X84134437Y-67103441D01*
X84132660Y-67103460D01*
X84118250Y-67101995D01*
X84064474Y-67095147D01*
X84014499Y-67090942D01*
X83962479Y-67088507D01*
X83915284Y-67087829D01*
X83719645Y-67089783D01*
X83511550Y-67089783D01*
X83515444Y-67141276D01*
X83518282Y-67191563D01*
X83518389Y-67198227D01*
X83506328Y-67245644D01*
X83459251Y-67267524D01*
X83455375Y-67267592D01*
X83411190Y-67244591D01*
X83392740Y-67194247D01*
X83388452Y-67147424D01*
X83386498Y-67081479D01*
X83337717Y-67077271D01*
X83288557Y-67071220D01*
X83237529Y-67063083D01*
X83184682Y-67049921D01*
X83133101Y-67030042D01*
X83090923Y-67005004D01*
X83077531Y-66994284D01*
X83041734Y-66953495D01*
X83018802Y-66909591D01*
X83003700Y-66858019D01*
X82996988Y-66807713D01*
X82995710Y-66771046D01*
X83002603Y-66719140D01*
X83035414Y-66678768D01*
X83066296Y-66672616D01*
X83114214Y-66689726D01*
X83134682Y-66736256D01*
X83136393Y-66762009D01*
G37*
G36*
X83803076Y-65842814D02*
G01*
X83856814Y-65853479D01*
X83907238Y-65871253D01*
X83954347Y-65896137D01*
X83998142Y-65928131D01*
X84012004Y-65940376D01*
X84049107Y-65979946D01*
X84078533Y-66023003D01*
X84100284Y-66069545D01*
X84114357Y-66119574D01*
X84120754Y-66173089D01*
X84121181Y-66191702D01*
X84118143Y-66243023D01*
X84109030Y-66291964D01*
X84093841Y-66338522D01*
X84072576Y-66382700D01*
X84103488Y-66421031D01*
X84105549Y-66436189D01*
X84087475Y-66480641D01*
X84042046Y-66498715D01*
X83991929Y-66497111D01*
X83989778Y-66497005D01*
X83940715Y-66495311D01*
X83937266Y-66495296D01*
X83885068Y-66495677D01*
X83833213Y-66496532D01*
X83780476Y-66497681D01*
X83729803Y-66498963D01*
X83720867Y-66499204D01*
X83669269Y-66500449D01*
X83615476Y-66501576D01*
X83562440Y-66502434D01*
X83513542Y-66502853D01*
X83504223Y-66502867D01*
X83454352Y-66502764D01*
X83400539Y-66502552D01*
X83348961Y-66502306D01*
X83315668Y-66502135D01*
X83266752Y-66501886D01*
X83217542Y-66501660D01*
X83166704Y-66501473D01*
X83126624Y-66501402D01*
X83076345Y-66494039D01*
X83052862Y-66484305D01*
X83017180Y-66449233D01*
X83011341Y-66421779D01*
X83034620Y-66377491D01*
X83070936Y-66370243D01*
X83099024Y-66373663D01*
X83127112Y-66377082D01*
X83277077Y-66379036D01*
X83451955Y-66380502D01*
X83424398Y-66336481D01*
X83400978Y-66290729D01*
X83391139Y-66266929D01*
X83376588Y-66217774D01*
X83370886Y-66168536D01*
X83370867Y-66165568D01*
X83511550Y-66165568D01*
X83517347Y-66215283D01*
X83533112Y-66262451D01*
X83541837Y-66280851D01*
X83567714Y-66323122D01*
X83597768Y-66366988D01*
X83606805Y-66379769D01*
X83720622Y-66381234D01*
X83823204Y-66380502D01*
X83931160Y-66379769D01*
X83949922Y-66334174D01*
X83968040Y-66286957D01*
X83977760Y-66238907D01*
X83980497Y-66191702D01*
X83975203Y-66138488D01*
X83959322Y-66090955D01*
X83932854Y-66049101D01*
X83913574Y-66028303D01*
X83873185Y-65997370D01*
X83827579Y-65976560D01*
X83776756Y-65965874D01*
X83746268Y-65964312D01*
X83693726Y-65968388D01*
X83646285Y-65980618D01*
X83599554Y-66003768D01*
X83582625Y-66015847D01*
X83545144Y-66054396D01*
X83521545Y-66100435D01*
X83511828Y-66153963D01*
X83511550Y-66165568D01*
X83370867Y-66165568D01*
X83374851Y-66112113D01*
X83386803Y-66062574D01*
X83406724Y-66016950D01*
X83434614Y-65975242D01*
X83470472Y-65937449D01*
X83484195Y-65925721D01*
X83525846Y-65896338D01*
X83570932Y-65873034D01*
X83619452Y-65855809D01*
X83671407Y-65844663D01*
X83726797Y-65839597D01*
X83746024Y-65839259D01*
X83803076Y-65842814D01*
G37*
G36*
X83567971Y-65147564D02*
G01*
X83615945Y-65157877D01*
X83649272Y-65194360D01*
X83652234Y-65216196D01*
X83633278Y-65262315D01*
X83585068Y-65275303D01*
X83537440Y-65277501D01*
X83480287Y-65279455D01*
X83488958Y-65330990D01*
X83503967Y-65382544D01*
X83524541Y-65427298D01*
X83541348Y-65453356D01*
X83577416Y-65492911D01*
X83619472Y-65524662D01*
X83664867Y-65549813D01*
X83675926Y-65554961D01*
X84051816Y-65553495D01*
X84099233Y-65566492D01*
X84120910Y-65613173D01*
X84121181Y-65621395D01*
X84101742Y-65668658D01*
X84052304Y-65681967D01*
X83574565Y-65681967D01*
X83523217Y-65680838D01*
X83507154Y-65680257D01*
X83457847Y-65678750D01*
X83439743Y-65678548D01*
X83390305Y-65665238D01*
X83370867Y-65617975D01*
X83391577Y-65571920D01*
X83436906Y-65553575D01*
X83479066Y-65550076D01*
X83443392Y-65508156D01*
X83413765Y-65464829D01*
X83390183Y-65420095D01*
X83372649Y-65373954D01*
X83361161Y-65326405D01*
X83355719Y-65277449D01*
X83355235Y-65257473D01*
X83365554Y-65208869D01*
X83396512Y-65174430D01*
X83444211Y-65154620D01*
X83495662Y-65147505D01*
X83520587Y-65146831D01*
X83567971Y-65147564D01*
G37*
G36*
X83684230Y-64449273D02*
G01*
X83734760Y-64449133D01*
X83787187Y-64448826D01*
X83826379Y-64448541D01*
X83875937Y-64448186D01*
X83926328Y-64447911D01*
X83968529Y-64447808D01*
X84012737Y-64445610D01*
X84056700Y-64443167D01*
X84101967Y-64461963D01*
X84103107Y-64463195D01*
X84121163Y-64510007D01*
X84121181Y-64511800D01*
X84107038Y-64559215D01*
X84076484Y-64579211D01*
X84098090Y-64629520D01*
X84111360Y-64677743D01*
X84119042Y-64729263D01*
X84121181Y-64777047D01*
X84117364Y-64830218D01*
X84104351Y-64881763D01*
X84082102Y-64926035D01*
X84047873Y-64964635D01*
X84004293Y-64990767D01*
X83956561Y-65003705D01*
X83901797Y-65011374D01*
X83848941Y-65017744D01*
X83797994Y-65022814D01*
X83748954Y-65026583D01*
X83692626Y-65029391D01*
X83639045Y-65030327D01*
X83585222Y-65028704D01*
X83533973Y-65024537D01*
X83479518Y-65017805D01*
X83429241Y-65009811D01*
X83383693Y-64986662D01*
X83370867Y-64944598D01*
X83386967Y-64897772D01*
X83389185Y-64895261D01*
X83434533Y-64875252D01*
X83436324Y-64875233D01*
X83485784Y-64878763D01*
X83534509Y-64885247D01*
X83584000Y-64891572D01*
X83632784Y-64894978D01*
X83637336Y-64895017D01*
X83691038Y-64894543D01*
X83740772Y-64893124D01*
X83791979Y-64890395D01*
X83828333Y-64887445D01*
X83879212Y-64881374D01*
X83929816Y-64871966D01*
X83955828Y-64864975D01*
X83974146Y-64820278D01*
X83980497Y-64777047D01*
X83978217Y-64724441D01*
X83971378Y-64670212D01*
X83961471Y-64620646D01*
X83951676Y-64582630D01*
X83815144Y-64583118D01*
X83684719Y-64584584D01*
X83631653Y-64584129D01*
X83581267Y-64582764D01*
X83525868Y-64580020D01*
X83474116Y-64576038D01*
X83432660Y-64571639D01*
X83386315Y-64551184D01*
X83370867Y-64504961D01*
X83387181Y-64458135D01*
X83389429Y-64455624D01*
X83435347Y-64436817D01*
X83684230Y-64449273D01*
G37*
G36*
X83570911Y-63686330D02*
G01*
X83623896Y-63693085D01*
X83653944Y-63697982D01*
X83703343Y-63705869D01*
X83754062Y-63713139D01*
X83785347Y-63716545D01*
X84020064Y-63732421D01*
X84070743Y-63734673D01*
X84125309Y-63739059D01*
X84174967Y-63745339D01*
X84225709Y-63754834D01*
X84248675Y-63760509D01*
X84295405Y-63775844D01*
X84341826Y-63797692D01*
X84385146Y-63827782D01*
X84415737Y-63859427D01*
X84444161Y-63905284D01*
X84462370Y-63952921D01*
X84474361Y-64007572D01*
X84479691Y-64059996D01*
X84480706Y-64097808D01*
X84479585Y-64146872D01*
X84475712Y-64195950D01*
X84467412Y-64247286D01*
X84466540Y-64251192D01*
X84447888Y-64300418D01*
X84409540Y-64333517D01*
X84384230Y-64337654D01*
X84336195Y-64324506D01*
X84317308Y-64277815D01*
X84322964Y-64228311D01*
X84329275Y-64195505D01*
X84336941Y-64146616D01*
X84340009Y-64097838D01*
X84340022Y-64067766D01*
X84333077Y-64013967D01*
X84314163Y-63967976D01*
X84283282Y-63929791D01*
X84240432Y-63899414D01*
X84210573Y-63885561D01*
X84162366Y-63871013D01*
X84110818Y-63861465D01*
X84059676Y-63855643D01*
X84002111Y-63852002D01*
X83949234Y-63850634D01*
X83994266Y-63875221D01*
X84034986Y-63905461D01*
X84066470Y-63939050D01*
X84091772Y-63982984D01*
X84104175Y-64031837D01*
X84105549Y-64056042D01*
X84101412Y-64108212D01*
X84089000Y-64155940D01*
X84064682Y-64205048D01*
X84029557Y-64248355D01*
X84019087Y-64258275D01*
X83978794Y-64288634D01*
X83933569Y-64311537D01*
X83883411Y-64326982D01*
X83828322Y-64334972D01*
X83794628Y-64336189D01*
X83737341Y-64333589D01*
X83683631Y-64325790D01*
X83633499Y-64312790D01*
X83586945Y-64294591D01*
X83543969Y-64271193D01*
X83497120Y-64236251D01*
X83489813Y-64229699D01*
X83455546Y-64193409D01*
X83427087Y-64153230D01*
X83404436Y-64109164D01*
X83387593Y-64061210D01*
X83376558Y-64009368D01*
X83371331Y-63953638D01*
X83371003Y-63937096D01*
X83511550Y-63937096D01*
X83515489Y-63991424D01*
X83527305Y-64040072D01*
X83550455Y-64088715D01*
X83583893Y-64129938D01*
X83593860Y-64139085D01*
X83638676Y-64170018D01*
X83683865Y-64189016D01*
X83734091Y-64200015D01*
X83782172Y-64203077D01*
X83834698Y-64199380D01*
X83882284Y-64186773D01*
X83919192Y-64165219D01*
X83950414Y-64124894D01*
X83963750Y-64074557D01*
X83964865Y-64051890D01*
X83954802Y-64000416D01*
X83927896Y-63954197D01*
X83893302Y-63917068D01*
X83852205Y-63885112D01*
X83807274Y-63861475D01*
X83762632Y-63849901D01*
X83712787Y-63840680D01*
X83662022Y-63832994D01*
X83609664Y-63826044D01*
X83558888Y-63819918D01*
X83549897Y-63818883D01*
X83525627Y-63863199D01*
X83521076Y-63876035D01*
X83511885Y-63925350D01*
X83511550Y-63937096D01*
X83371003Y-63937096D01*
X83370867Y-63930257D01*
X83374092Y-63878238D01*
X83385679Y-63828520D01*
X83387719Y-63823035D01*
X83413469Y-63778931D01*
X83438033Y-63757089D01*
X83452681Y-63709490D01*
X83497668Y-63685367D01*
X83521076Y-63683572D01*
X83570911Y-63686330D01*
G37*
G36*
X83570911Y-62943832D02*
G01*
X83623896Y-62950587D01*
X83653944Y-62955484D01*
X83703343Y-62963371D01*
X83754062Y-62970641D01*
X83785347Y-62974047D01*
X84020064Y-62989922D01*
X84070743Y-62992175D01*
X84125309Y-62996561D01*
X84174967Y-63002841D01*
X84225709Y-63012335D01*
X84248675Y-63018010D01*
X84295405Y-63033346D01*
X84341826Y-63055194D01*
X84385146Y-63085284D01*
X84415737Y-63116929D01*
X84444161Y-63162785D01*
X84462370Y-63210423D01*
X84474361Y-63265073D01*
X84479691Y-63317498D01*
X84480706Y-63355310D01*
X84479585Y-63404374D01*
X84475712Y-63453451D01*
X84467412Y-63504788D01*
X84466540Y-63508694D01*
X84447888Y-63557920D01*
X84409540Y-63591019D01*
X84384230Y-63595156D01*
X84336195Y-63582008D01*
X84317308Y-63535317D01*
X84322964Y-63485813D01*
X84329275Y-63453007D01*
X84336941Y-63404117D01*
X84340009Y-63355339D01*
X84340022Y-63325268D01*
X84333077Y-63271469D01*
X84314163Y-63225477D01*
X84283282Y-63187293D01*
X84240432Y-63156916D01*
X84210573Y-63143063D01*
X84162366Y-63128515D01*
X84110818Y-63118966D01*
X84059676Y-63113145D01*
X84002111Y-63109504D01*
X83949234Y-63108136D01*
X83994266Y-63132722D01*
X84034986Y-63162963D01*
X84066470Y-63196552D01*
X84091772Y-63240486D01*
X84104175Y-63289338D01*
X84105549Y-63313544D01*
X84101412Y-63365713D01*
X84089000Y-63413441D01*
X84064682Y-63462549D01*
X84029557Y-63505857D01*
X84019087Y-63515777D01*
X83978794Y-63546136D01*
X83933569Y-63569038D01*
X83883411Y-63584484D01*
X83828322Y-63592473D01*
X83794628Y-63593691D01*
X83737341Y-63591091D01*
X83683631Y-63583291D01*
X83633499Y-63570292D01*
X83586945Y-63552093D01*
X83543969Y-63528694D01*
X83497120Y-63493752D01*
X83489813Y-63487201D01*
X83455546Y-63450910D01*
X83427087Y-63410732D01*
X83404436Y-63366666D01*
X83387593Y-63318711D01*
X83376558Y-63266869D01*
X83371331Y-63211140D01*
X83371003Y-63194598D01*
X83511550Y-63194598D01*
X83515489Y-63248926D01*
X83527305Y-63297574D01*
X83550455Y-63346216D01*
X83583893Y-63387440D01*
X83593860Y-63396587D01*
X83638676Y-63427520D01*
X83683865Y-63446518D01*
X83734091Y-63457516D01*
X83782172Y-63460578D01*
X83834698Y-63456881D01*
X83882284Y-63444274D01*
X83919192Y-63422721D01*
X83950414Y-63382396D01*
X83963750Y-63332058D01*
X83964865Y-63309392D01*
X83954802Y-63257918D01*
X83927896Y-63211699D01*
X83893302Y-63174570D01*
X83852205Y-63142613D01*
X83807274Y-63118976D01*
X83762632Y-63107403D01*
X83712787Y-63098182D01*
X83662022Y-63090496D01*
X83609664Y-63083545D01*
X83558888Y-63077420D01*
X83549897Y-63076384D01*
X83525627Y-63120701D01*
X83521076Y-63133537D01*
X83511885Y-63182851D01*
X83511550Y-63194598D01*
X83371003Y-63194598D01*
X83370867Y-63187759D01*
X83374092Y-63135740D01*
X83385679Y-63086021D01*
X83387719Y-63080536D01*
X83413469Y-63036433D01*
X83438033Y-63014591D01*
X83452681Y-62966991D01*
X83497668Y-62942869D01*
X83521076Y-62941074D01*
X83570911Y-62943832D01*
G37*
G36*
X83982326Y-62160503D02*
G01*
X84021586Y-62191817D01*
X84053532Y-62235967D01*
X84072088Y-62271360D01*
X84091217Y-62317134D01*
X84107325Y-62368761D01*
X84117297Y-62419655D01*
X84121133Y-62469817D01*
X84121181Y-62476035D01*
X84118450Y-62532209D01*
X84110258Y-62584227D01*
X84096606Y-62632089D01*
X84073775Y-62682676D01*
X84043511Y-62727606D01*
X84008850Y-62763297D01*
X83962291Y-62795605D01*
X83917136Y-62815297D01*
X83867139Y-62827604D01*
X83812299Y-62832527D01*
X83802688Y-62832630D01*
X83748231Y-62830519D01*
X83696600Y-62824186D01*
X83647795Y-62813632D01*
X83592961Y-62795394D01*
X83542196Y-62771076D01*
X83503002Y-62746168D01*
X83464936Y-62715238D01*
X83427773Y-62674045D01*
X83399900Y-62628404D01*
X83381319Y-62578315D01*
X83372028Y-62523778D01*
X83370867Y-62494842D01*
X83511550Y-62494842D01*
X83517442Y-62544459D01*
X83537532Y-62592701D01*
X83568167Y-62630797D01*
X83571878Y-62634305D01*
X83615394Y-62666343D01*
X83664754Y-62690445D01*
X83716740Y-62708107D01*
X83753107Y-62717347D01*
X83660050Y-62506566D01*
X83636270Y-62455589D01*
X83613868Y-62411437D01*
X83587093Y-62364700D01*
X83562597Y-62329245D01*
X83535678Y-62370814D01*
X83518729Y-62421638D01*
X83511999Y-62475292D01*
X83511550Y-62494842D01*
X83370867Y-62494842D01*
X83373294Y-62440437D01*
X83380575Y-62391283D01*
X83394569Y-62342262D01*
X83409701Y-62308729D01*
X83440824Y-62265871D01*
X83484921Y-62234701D01*
X83533174Y-62221454D01*
X83557224Y-62220069D01*
X83607645Y-62230991D01*
X83650726Y-62260193D01*
X83683742Y-62297738D01*
X83708693Y-62342431D01*
X83729867Y-62386764D01*
X83752063Y-62436421D01*
X83755061Y-62443307D01*
X83870343Y-62705624D01*
X83910361Y-62671206D01*
X83941511Y-62630660D01*
X83952897Y-62609881D01*
X83970767Y-62560142D01*
X83979176Y-62508719D01*
X83980497Y-62476280D01*
X83976222Y-62424744D01*
X83966455Y-62376757D01*
X83963400Y-62364905D01*
X83946868Y-62315997D01*
X83921236Y-62273535D01*
X83906491Y-62260613D01*
X83873289Y-62223519D01*
X83871076Y-62210299D01*
X83890127Y-62167557D01*
X83934579Y-62148506D01*
X83982326Y-62160503D01*
G37*
G36*
X84152444Y-61157613D02*
G01*
X84135555Y-61204324D01*
X84092604Y-61223558D01*
X84039248Y-61231320D01*
X83987873Y-61237494D01*
X83936583Y-61242872D01*
X83887914Y-61247463D01*
X83879380Y-61248227D01*
X83666156Y-61271674D01*
X83616363Y-61281629D01*
X83573344Y-61294877D01*
X83528990Y-61317771D01*
X83511550Y-61345924D01*
X83528151Y-61394849D01*
X83554049Y-61440690D01*
X83581194Y-61483761D01*
X83612242Y-61522906D01*
X83616819Y-61527152D01*
X83668375Y-61526941D01*
X83719850Y-61525118D01*
X83743581Y-61523733D01*
X83923832Y-61502972D01*
X83974772Y-61497309D01*
X84026569Y-61492871D01*
X84077278Y-61490343D01*
X84099931Y-61490027D01*
X84146357Y-61506771D01*
X84148780Y-61509078D01*
X84168056Y-61555601D01*
X84168075Y-61557438D01*
X84151331Y-61603620D01*
X84149024Y-61606042D01*
X84102257Y-61624831D01*
X84100420Y-61624849D01*
X84048821Y-61626182D01*
X83992671Y-61629605D01*
X83935602Y-61634329D01*
X83880787Y-61639661D01*
X83861306Y-61641702D01*
X83804669Y-61647346D01*
X83753458Y-61651823D01*
X83700571Y-61655569D01*
X83649173Y-61657905D01*
X83621948Y-61658310D01*
X83569558Y-61661696D01*
X83521931Y-61674018D01*
X83511550Y-61678827D01*
X83537604Y-61724379D01*
X83569734Y-61764205D01*
X83581404Y-61776524D01*
X83670064Y-61857613D01*
X83709090Y-61889813D01*
X83712318Y-61892784D01*
X83762205Y-61894676D01*
X83812202Y-61898580D01*
X83831264Y-61900355D01*
X83880346Y-61904666D01*
X83931741Y-61907660D01*
X83947280Y-61907927D01*
X83997062Y-61902511D01*
X84003700Y-61901332D01*
X84052769Y-61894795D01*
X84055968Y-61894737D01*
X84101190Y-61914450D01*
X84102374Y-61915742D01*
X84121107Y-61961352D01*
X84121181Y-61964835D01*
X84100314Y-62009055D01*
X84052201Y-62031582D01*
X83995465Y-62040608D01*
X83944593Y-62042504D01*
X83893424Y-62040611D01*
X83841744Y-62036707D01*
X83821983Y-62034933D01*
X83770522Y-62030622D01*
X83718884Y-62027724D01*
X83698885Y-62027361D01*
X83649947Y-62029222D01*
X83598664Y-62033157D01*
X83589708Y-62033956D01*
X83540134Y-62037826D01*
X83489637Y-62040207D01*
X83479799Y-62040306D01*
X83426842Y-62037842D01*
X83373277Y-62026889D01*
X83331428Y-61997522D01*
X83323972Y-61970208D01*
X83347441Y-61925324D01*
X83352548Y-61921116D01*
X83396603Y-61899953D01*
X83408724Y-61898890D01*
X83449269Y-61902309D01*
X83491034Y-61905728D01*
X83563330Y-61904263D01*
X83518765Y-61878684D01*
X83476967Y-61846522D01*
X83441715Y-61811948D01*
X83430462Y-61799239D01*
X83399035Y-61757889D01*
X83376686Y-61713559D01*
X83370867Y-61681025D01*
X83377141Y-61631367D01*
X83399198Y-61585538D01*
X83437136Y-61550335D01*
X83471250Y-61532770D01*
X83434680Y-61499672D01*
X83404493Y-61458800D01*
X83396024Y-61442888D01*
X83378826Y-61394255D01*
X83371481Y-61343905D01*
X83370867Y-61323209D01*
X83378652Y-61270468D01*
X83402008Y-61226794D01*
X83440934Y-61192188D01*
X83487767Y-61169346D01*
X83495430Y-61166650D01*
X83544858Y-61157186D01*
X83597912Y-61149805D01*
X83649544Y-61143328D01*
X83689603Y-61138562D01*
X83739855Y-61130940D01*
X83790220Y-61123997D01*
X83848300Y-61116519D01*
X83900320Y-61110149D01*
X83957278Y-61103436D01*
X84019175Y-61096380D01*
X84068838Y-61090862D01*
X84086010Y-61088980D01*
X84132904Y-61107543D01*
X84152367Y-61153954D01*
X84152444Y-61157613D01*
G37*
G36*
X84816882Y-71743586D02*
G01*
X84860561Y-71770956D01*
X84905626Y-71794632D01*
X84947796Y-71812950D01*
X85100936Y-71865218D01*
X85608961Y-72050110D01*
X85658917Y-72069115D01*
X85708215Y-72089858D01*
X85756856Y-72112340D01*
X85783595Y-72125581D01*
X85800562Y-72173072D01*
X85801181Y-72187375D01*
X85791289Y-72236757D01*
X85769918Y-72261380D01*
X85713948Y-72282435D01*
X85652162Y-72304077D01*
X85602006Y-72320694D01*
X85548578Y-72337642D01*
X85491879Y-72354921D01*
X85431908Y-72372530D01*
X85368666Y-72390470D01*
X85302152Y-72408740D01*
X85232367Y-72427341D01*
X85184026Y-72439925D01*
X85159310Y-72446272D01*
X84967336Y-72500494D01*
X84916460Y-72514273D01*
X84866025Y-72526745D01*
X84815297Y-72537079D01*
X84777559Y-72541038D01*
X84731023Y-72524209D01*
X84725779Y-72519057D01*
X84706991Y-72472703D01*
X84706973Y-72470941D01*
X84725056Y-72424083D01*
X84764125Y-72403774D01*
X84885514Y-72378373D01*
X85122918Y-72312427D01*
X85170968Y-72300092D01*
X85233070Y-72283740D01*
X85292929Y-72267494D01*
X85350543Y-72251354D01*
X85405914Y-72235322D01*
X85459041Y-72219397D01*
X85509923Y-72203578D01*
X85558562Y-72187867D01*
X85570371Y-72183955D01*
X85559136Y-72179803D01*
X85052332Y-71995644D01*
X84881362Y-71937270D01*
X84835475Y-71917425D01*
X84790932Y-71894370D01*
X84746670Y-71865142D01*
X84733351Y-71854228D01*
X84707900Y-71811995D01*
X84706973Y-71800738D01*
X84725005Y-71754356D01*
X84727489Y-71751646D01*
X84771495Y-71730099D01*
X84776826Y-71729908D01*
X84816882Y-71743586D01*
G37*
G36*
X85769918Y-71247528D02*
G01*
X85769918Y-71384304D01*
X85769185Y-71520348D01*
X85766513Y-71569234D01*
X85762346Y-71587759D01*
X85724427Y-71620502D01*
X85704216Y-71622685D01*
X85657333Y-71607504D01*
X85632088Y-71561960D01*
X85627280Y-71514730D01*
X85628012Y-71481757D01*
X85629234Y-71453669D01*
X85577313Y-71455959D01*
X85534712Y-71459531D01*
X85485818Y-71463538D01*
X85440678Y-71465393D01*
X85386168Y-71464137D01*
X85334127Y-71461424D01*
X85282805Y-71457889D01*
X85225283Y-71453238D01*
X85183490Y-71449517D01*
X85132442Y-71445173D01*
X85076456Y-71440982D01*
X85026225Y-71437908D01*
X84974892Y-71435733D01*
X84925814Y-71435107D01*
X84960008Y-71476979D01*
X84989012Y-71517599D01*
X85003972Y-71552588D01*
X84984259Y-71598941D01*
X84982967Y-71600215D01*
X84938002Y-71620408D01*
X84934607Y-71620487D01*
X84887953Y-71597399D01*
X84854740Y-71561380D01*
X84822697Y-71519814D01*
X84790195Y-71480736D01*
X84769255Y-71456356D01*
X84736411Y-71419047D01*
X84713055Y-71375724D01*
X84706973Y-71340829D01*
X84733722Y-71298544D01*
X84758752Y-71294911D01*
X84804914Y-71299064D01*
X84851076Y-71303216D01*
X84902350Y-71301603D01*
X84918487Y-71300773D01*
X84967689Y-71298619D01*
X84985654Y-71298331D01*
X85034763Y-71299645D01*
X85088439Y-71303018D01*
X85143145Y-71307673D01*
X85195784Y-71312928D01*
X85214509Y-71314939D01*
X85268900Y-71320501D01*
X85317950Y-71324911D01*
X85368424Y-71328603D01*
X85422639Y-71331048D01*
X85442876Y-71331304D01*
X85491975Y-71329603D01*
X85537643Y-71325930D01*
X85588506Y-71321534D01*
X85629234Y-71319580D01*
X85628012Y-71247528D01*
X85647037Y-71201086D01*
X85648285Y-71199901D01*
X85695096Y-71180924D01*
X85698843Y-71180850D01*
X85746038Y-71196496D01*
X85749890Y-71199901D01*
X85769898Y-71245737D01*
X85769918Y-71247528D01*
G37*
G36*
X85832444Y-70917556D02*
G01*
X85818430Y-70965000D01*
X85807531Y-70978128D01*
X85763842Y-71001255D01*
X85746470Y-71002797D01*
X85699118Y-70988921D01*
X85685898Y-70978128D01*
X85662084Y-70934714D01*
X85660497Y-70917556D01*
X85674785Y-70870570D01*
X85685898Y-70857472D01*
X85729404Y-70833888D01*
X85746470Y-70832315D01*
X85794372Y-70846466D01*
X85807531Y-70857472D01*
X85830887Y-70900612D01*
X85832444Y-70917556D01*
G37*
G36*
X85241753Y-69944130D02*
G01*
X85295365Y-69946706D01*
X85346281Y-69950999D01*
X85409975Y-69959395D01*
X85468876Y-69970844D01*
X85522983Y-69985346D01*
X85572297Y-70002901D01*
X85616818Y-70023509D01*
X85647063Y-70040969D01*
X85691462Y-70073802D01*
X85728336Y-70111394D01*
X85757685Y-70153744D01*
X85779508Y-70200852D01*
X85793806Y-70252719D01*
X85800579Y-70309345D01*
X85801181Y-70333327D01*
X85798200Y-70383775D01*
X85786092Y-70441886D01*
X85764669Y-70494500D01*
X85733932Y-70541616D01*
X85693882Y-70583234D01*
X85644517Y-70619354D01*
X85610427Y-70638387D01*
X85562320Y-70659355D01*
X85509896Y-70676769D01*
X85453155Y-70690629D01*
X85404654Y-70699159D01*
X85353389Y-70705414D01*
X85299362Y-70709394D01*
X85242572Y-70711100D01*
X85227943Y-70711171D01*
X85178972Y-70709690D01*
X85119991Y-70703675D01*
X85063491Y-70693032D01*
X85009471Y-70677762D01*
X84957932Y-70657865D01*
X84908874Y-70633341D01*
X84880629Y-70616405D01*
X84839929Y-70587180D01*
X84796684Y-70547106D01*
X84761919Y-70503097D01*
X84735633Y-70455153D01*
X84717826Y-70403272D01*
X84708499Y-70347457D01*
X84707015Y-70313055D01*
X84847657Y-70313055D01*
X84853734Y-70366405D01*
X84871966Y-70414682D01*
X84902354Y-70457887D01*
X84944896Y-70496020D01*
X84974663Y-70515532D01*
X85022594Y-70539896D01*
X85073425Y-70558275D01*
X85127153Y-70570670D01*
X85183780Y-70577082D01*
X85217440Y-70578059D01*
X85271036Y-70577105D01*
X85321182Y-70574242D01*
X85379014Y-70567981D01*
X85431454Y-70558739D01*
X85487267Y-70543712D01*
X85535318Y-70524392D01*
X85549610Y-70516998D01*
X85592817Y-70487267D01*
X85629202Y-70446162D01*
X85651725Y-70397454D01*
X85660064Y-70348599D01*
X85660497Y-70333572D01*
X85654778Y-70281877D01*
X85637622Y-70235970D01*
X85609028Y-70195850D01*
X85568997Y-70161518D01*
X85517529Y-70132973D01*
X85497831Y-70124744D01*
X85445470Y-70107614D01*
X85395993Y-70096279D01*
X85342275Y-70088036D01*
X85284315Y-70082884D01*
X85232775Y-70080952D01*
X85211334Y-70080780D01*
X85156631Y-70082199D01*
X85106400Y-70086457D01*
X85052027Y-70095313D01*
X85004093Y-70108256D01*
X84956310Y-70128522D01*
X84938515Y-70138910D01*
X84898764Y-70171501D01*
X84870371Y-70211389D01*
X84853335Y-70258574D01*
X84847657Y-70313055D01*
X84707015Y-70313055D01*
X84706973Y-70312078D01*
X84710729Y-70257611D01*
X84721999Y-70207020D01*
X84740783Y-70160305D01*
X84767079Y-70117466D01*
X84800889Y-70078503D01*
X84842213Y-70043416D01*
X84860846Y-70030466D01*
X84903868Y-70005347D01*
X84949741Y-69984485D01*
X84998465Y-69967880D01*
X85050038Y-69955533D01*
X85104462Y-69947444D01*
X85161737Y-69943612D01*
X85185444Y-69943271D01*
X85241753Y-69944130D01*
G37*
D11*
X76110281Y-68427849D02*
X76110281Y-67627849D01*
X76110281Y-67627849D02*
X76415043Y-67627849D01*
X76415043Y-67627849D02*
X76491233Y-67665944D01*
X76491233Y-67665944D02*
X76529328Y-67704039D01*
X76529328Y-67704039D02*
X76567424Y-67780230D01*
X76567424Y-67780230D02*
X76567424Y-67894515D01*
X76567424Y-67894515D02*
X76529328Y-67970706D01*
X76529328Y-67970706D02*
X76491233Y-68008801D01*
X76491233Y-68008801D02*
X76415043Y-68046896D01*
X76415043Y-68046896D02*
X76110281Y-68046896D01*
X77062662Y-67627849D02*
X77138852Y-67627849D01*
X77138852Y-67627849D02*
X77215043Y-67665944D01*
X77215043Y-67665944D02*
X77253138Y-67704039D01*
X77253138Y-67704039D02*
X77291233Y-67780230D01*
X77291233Y-67780230D02*
X77329328Y-67932611D01*
X77329328Y-67932611D02*
X77329328Y-68123087D01*
X77329328Y-68123087D02*
X77291233Y-68275468D01*
X77291233Y-68275468D02*
X77253138Y-68351658D01*
X77253138Y-68351658D02*
X77215043Y-68389754D01*
X77215043Y-68389754D02*
X77138852Y-68427849D01*
X77138852Y-68427849D02*
X77062662Y-68427849D01*
X77062662Y-68427849D02*
X76986471Y-68389754D01*
X76986471Y-68389754D02*
X76948376Y-68351658D01*
X76948376Y-68351658D02*
X76910281Y-68275468D01*
X76910281Y-68275468D02*
X76872185Y-68123087D01*
X76872185Y-68123087D02*
X76872185Y-67932611D01*
X76872185Y-67932611D02*
X76910281Y-67780230D01*
X76910281Y-67780230D02*
X76948376Y-67704039D01*
X76948376Y-67704039D02*
X76986471Y-67665944D01*
X76986471Y-67665944D02*
X77062662Y-67627849D01*
X77595995Y-67627849D02*
X78091233Y-67627849D01*
X78091233Y-67627849D02*
X77824567Y-67932611D01*
X77824567Y-67932611D02*
X77938852Y-67932611D01*
X77938852Y-67932611D02*
X78015043Y-67970706D01*
X78015043Y-67970706D02*
X78053138Y-68008801D01*
X78053138Y-68008801D02*
X78091233Y-68084992D01*
X78091233Y-68084992D02*
X78091233Y-68275468D01*
X78091233Y-68275468D02*
X78053138Y-68351658D01*
X78053138Y-68351658D02*
X78015043Y-68389754D01*
X78015043Y-68389754D02*
X77938852Y-68427849D01*
X77938852Y-68427849D02*
X77710281Y-68427849D01*
X77710281Y-68427849D02*
X77634090Y-68389754D01*
X77634090Y-68389754D02*
X77595995Y-68351658D01*
X76110281Y-55727849D02*
X76110281Y-54927849D01*
X76110281Y-54927849D02*
X76415043Y-54927849D01*
X76415043Y-54927849D02*
X76491233Y-54965944D01*
X76491233Y-54965944D02*
X76529328Y-55004039D01*
X76529328Y-55004039D02*
X76567424Y-55080230D01*
X76567424Y-55080230D02*
X76567424Y-55194515D01*
X76567424Y-55194515D02*
X76529328Y-55270706D01*
X76529328Y-55270706D02*
X76491233Y-55308801D01*
X76491233Y-55308801D02*
X76415043Y-55346896D01*
X76415043Y-55346896D02*
X76110281Y-55346896D01*
X77062662Y-54927849D02*
X77138852Y-54927849D01*
X77138852Y-54927849D02*
X77215043Y-54965944D01*
X77215043Y-54965944D02*
X77253138Y-55004039D01*
X77253138Y-55004039D02*
X77291233Y-55080230D01*
X77291233Y-55080230D02*
X77329328Y-55232611D01*
X77329328Y-55232611D02*
X77329328Y-55423087D01*
X77329328Y-55423087D02*
X77291233Y-55575468D01*
X77291233Y-55575468D02*
X77253138Y-55651658D01*
X77253138Y-55651658D02*
X77215043Y-55689754D01*
X77215043Y-55689754D02*
X77138852Y-55727849D01*
X77138852Y-55727849D02*
X77062662Y-55727849D01*
X77062662Y-55727849D02*
X76986471Y-55689754D01*
X76986471Y-55689754D02*
X76948376Y-55651658D01*
X76948376Y-55651658D02*
X76910281Y-55575468D01*
X76910281Y-55575468D02*
X76872185Y-55423087D01*
X76872185Y-55423087D02*
X76872185Y-55232611D01*
X76872185Y-55232611D02*
X76910281Y-55080230D01*
X76910281Y-55080230D02*
X76948376Y-55004039D01*
X76948376Y-55004039D02*
X76986471Y-54965944D01*
X76986471Y-54965944D02*
X77062662Y-54927849D01*
X78091233Y-55727849D02*
X77634090Y-55727849D01*
X77862662Y-55727849D02*
X77862662Y-54927849D01*
X77862662Y-54927849D02*
X77786471Y-55042134D01*
X77786471Y-55042134D02*
X77710281Y-55118325D01*
X77710281Y-55118325D02*
X77634090Y-55156420D01*
X76472186Y-60045944D02*
X76395996Y-60007849D01*
X76395996Y-60007849D02*
X76281710Y-60007849D01*
X76281710Y-60007849D02*
X76167424Y-60045944D01*
X76167424Y-60045944D02*
X76091234Y-60122134D01*
X76091234Y-60122134D02*
X76053139Y-60198325D01*
X76053139Y-60198325D02*
X76015043Y-60350706D01*
X76015043Y-60350706D02*
X76015043Y-60464992D01*
X76015043Y-60464992D02*
X76053139Y-60617373D01*
X76053139Y-60617373D02*
X76091234Y-60693563D01*
X76091234Y-60693563D02*
X76167424Y-60769754D01*
X76167424Y-60769754D02*
X76281710Y-60807849D01*
X76281710Y-60807849D02*
X76357901Y-60807849D01*
X76357901Y-60807849D02*
X76472186Y-60769754D01*
X76472186Y-60769754D02*
X76510282Y-60731658D01*
X76510282Y-60731658D02*
X76510282Y-60464992D01*
X76510282Y-60464992D02*
X76357901Y-60464992D01*
X76853139Y-60807849D02*
X76853139Y-60007849D01*
X76853139Y-60007849D02*
X77310282Y-60807849D01*
X77310282Y-60807849D02*
X77310282Y-60007849D01*
X77691234Y-60807849D02*
X77691234Y-60007849D01*
X77691234Y-60007849D02*
X77881710Y-60007849D01*
X77881710Y-60007849D02*
X77995996Y-60045944D01*
X77995996Y-60045944D02*
X78072186Y-60122134D01*
X78072186Y-60122134D02*
X78110281Y-60198325D01*
X78110281Y-60198325D02*
X78148377Y-60350706D01*
X78148377Y-60350706D02*
X78148377Y-60464992D01*
X78148377Y-60464992D02*
X78110281Y-60617373D01*
X78110281Y-60617373D02*
X78072186Y-60693563D01*
X78072186Y-60693563D02*
X77995996Y-60769754D01*
X77995996Y-60769754D02*
X77881710Y-60807849D01*
X77881710Y-60807849D02*
X77691234Y-60807849D01*
X76110281Y-65887849D02*
X76110281Y-65087849D01*
X76110281Y-65087849D02*
X76415043Y-65087849D01*
X76415043Y-65087849D02*
X76491233Y-65125944D01*
X76491233Y-65125944D02*
X76529328Y-65164039D01*
X76529328Y-65164039D02*
X76567424Y-65240230D01*
X76567424Y-65240230D02*
X76567424Y-65354515D01*
X76567424Y-65354515D02*
X76529328Y-65430706D01*
X76529328Y-65430706D02*
X76491233Y-65468801D01*
X76491233Y-65468801D02*
X76415043Y-65506896D01*
X76415043Y-65506896D02*
X76110281Y-65506896D01*
X77062662Y-65087849D02*
X77138852Y-65087849D01*
X77138852Y-65087849D02*
X77215043Y-65125944D01*
X77215043Y-65125944D02*
X77253138Y-65164039D01*
X77253138Y-65164039D02*
X77291233Y-65240230D01*
X77291233Y-65240230D02*
X77329328Y-65392611D01*
X77329328Y-65392611D02*
X77329328Y-65583087D01*
X77329328Y-65583087D02*
X77291233Y-65735468D01*
X77291233Y-65735468D02*
X77253138Y-65811658D01*
X77253138Y-65811658D02*
X77215043Y-65849754D01*
X77215043Y-65849754D02*
X77138852Y-65887849D01*
X77138852Y-65887849D02*
X77062662Y-65887849D01*
X77062662Y-65887849D02*
X76986471Y-65849754D01*
X76986471Y-65849754D02*
X76948376Y-65811658D01*
X76948376Y-65811658D02*
X76910281Y-65735468D01*
X76910281Y-65735468D02*
X76872185Y-65583087D01*
X76872185Y-65583087D02*
X76872185Y-65392611D01*
X76872185Y-65392611D02*
X76910281Y-65240230D01*
X76910281Y-65240230D02*
X76948376Y-65164039D01*
X76948376Y-65164039D02*
X76986471Y-65125944D01*
X76986471Y-65125944D02*
X77062662Y-65087849D01*
X77634090Y-65164039D02*
X77672186Y-65125944D01*
X77672186Y-65125944D02*
X77748376Y-65087849D01*
X77748376Y-65087849D02*
X77938852Y-65087849D01*
X77938852Y-65087849D02*
X78015043Y-65125944D01*
X78015043Y-65125944D02*
X78053138Y-65164039D01*
X78053138Y-65164039D02*
X78091233Y-65240230D01*
X78091233Y-65240230D02*
X78091233Y-65316420D01*
X78091233Y-65316420D02*
X78053138Y-65430706D01*
X78053138Y-65430706D02*
X77595995Y-65887849D01*
X77595995Y-65887849D02*
X78091233Y-65887849D01*
X76643614Y-52768801D02*
X76757900Y-52806896D01*
X76757900Y-52806896D02*
X76795995Y-52844992D01*
X76795995Y-52844992D02*
X76834091Y-52921182D01*
X76834091Y-52921182D02*
X76834091Y-53035468D01*
X76834091Y-53035468D02*
X76795995Y-53111658D01*
X76795995Y-53111658D02*
X76757900Y-53149754D01*
X76757900Y-53149754D02*
X76681710Y-53187849D01*
X76681710Y-53187849D02*
X76376948Y-53187849D01*
X76376948Y-53187849D02*
X76376948Y-52387849D01*
X76376948Y-52387849D02*
X76643614Y-52387849D01*
X76643614Y-52387849D02*
X76719805Y-52425944D01*
X76719805Y-52425944D02*
X76757900Y-52464039D01*
X76757900Y-52464039D02*
X76795995Y-52540230D01*
X76795995Y-52540230D02*
X76795995Y-52616420D01*
X76795995Y-52616420D02*
X76757900Y-52692611D01*
X76757900Y-52692611D02*
X76719805Y-52730706D01*
X76719805Y-52730706D02*
X76643614Y-52768801D01*
X76643614Y-52768801D02*
X76376948Y-52768801D01*
X77176948Y-52883087D02*
X77786472Y-52883087D01*
X85710281Y-70967849D02*
X85710281Y-70167849D01*
X85710281Y-70167849D02*
X86015043Y-70167849D01*
X86015043Y-70167849D02*
X86091233Y-70205944D01*
X86091233Y-70205944D02*
X86129328Y-70244039D01*
X86129328Y-70244039D02*
X86167424Y-70320230D01*
X86167424Y-70320230D02*
X86167424Y-70434515D01*
X86167424Y-70434515D02*
X86129328Y-70510706D01*
X86129328Y-70510706D02*
X86091233Y-70548801D01*
X86091233Y-70548801D02*
X86015043Y-70586896D01*
X86015043Y-70586896D02*
X85710281Y-70586896D01*
X86929328Y-70967849D02*
X86472185Y-70967849D01*
X86700757Y-70967849D02*
X86700757Y-70167849D01*
X86700757Y-70167849D02*
X86624566Y-70282134D01*
X86624566Y-70282134D02*
X86548376Y-70358325D01*
X86548376Y-70358325D02*
X86472185Y-70396420D01*
X87310281Y-70967849D02*
X87462662Y-70967849D01*
X87462662Y-70967849D02*
X87538852Y-70929754D01*
X87538852Y-70929754D02*
X87576948Y-70891658D01*
X87576948Y-70891658D02*
X87653138Y-70777373D01*
X87653138Y-70777373D02*
X87691233Y-70624992D01*
X87691233Y-70624992D02*
X87691233Y-70320230D01*
X87691233Y-70320230D02*
X87653138Y-70244039D01*
X87653138Y-70244039D02*
X87615043Y-70205944D01*
X87615043Y-70205944D02*
X87538852Y-70167849D01*
X87538852Y-70167849D02*
X87386471Y-70167849D01*
X87386471Y-70167849D02*
X87310281Y-70205944D01*
X87310281Y-70205944D02*
X87272186Y-70244039D01*
X87272186Y-70244039D02*
X87234090Y-70320230D01*
X87234090Y-70320230D02*
X87234090Y-70510706D01*
X87234090Y-70510706D02*
X87272186Y-70586896D01*
X87272186Y-70586896D02*
X87310281Y-70624992D01*
X87310281Y-70624992D02*
X87386471Y-70663087D01*
X87386471Y-70663087D02*
X87538852Y-70663087D01*
X87538852Y-70663087D02*
X87615043Y-70624992D01*
X87615043Y-70624992D02*
X87653138Y-70586896D01*
X87653138Y-70586896D02*
X87691233Y-70510706D01*
X76110281Y-58267849D02*
X76110281Y-57467849D01*
X76110281Y-57467849D02*
X76415043Y-57467849D01*
X76415043Y-57467849D02*
X76491233Y-57505944D01*
X76491233Y-57505944D02*
X76529328Y-57544039D01*
X76529328Y-57544039D02*
X76567424Y-57620230D01*
X76567424Y-57620230D02*
X76567424Y-57734515D01*
X76567424Y-57734515D02*
X76529328Y-57810706D01*
X76529328Y-57810706D02*
X76491233Y-57848801D01*
X76491233Y-57848801D02*
X76415043Y-57886896D01*
X76415043Y-57886896D02*
X76110281Y-57886896D01*
X77062662Y-57467849D02*
X77138852Y-57467849D01*
X77138852Y-57467849D02*
X77215043Y-57505944D01*
X77215043Y-57505944D02*
X77253138Y-57544039D01*
X77253138Y-57544039D02*
X77291233Y-57620230D01*
X77291233Y-57620230D02*
X77329328Y-57772611D01*
X77329328Y-57772611D02*
X77329328Y-57963087D01*
X77329328Y-57963087D02*
X77291233Y-58115468D01*
X77291233Y-58115468D02*
X77253138Y-58191658D01*
X77253138Y-58191658D02*
X77215043Y-58229754D01*
X77215043Y-58229754D02*
X77138852Y-58267849D01*
X77138852Y-58267849D02*
X77062662Y-58267849D01*
X77062662Y-58267849D02*
X76986471Y-58229754D01*
X76986471Y-58229754D02*
X76948376Y-58191658D01*
X76948376Y-58191658D02*
X76910281Y-58115468D01*
X76910281Y-58115468D02*
X76872185Y-57963087D01*
X76872185Y-57963087D02*
X76872185Y-57772611D01*
X76872185Y-57772611D02*
X76910281Y-57620230D01*
X76910281Y-57620230D02*
X76948376Y-57544039D01*
X76948376Y-57544039D02*
X76986471Y-57505944D01*
X76986471Y-57505944D02*
X77062662Y-57467849D01*
X77824567Y-57467849D02*
X77900757Y-57467849D01*
X77900757Y-57467849D02*
X77976948Y-57505944D01*
X77976948Y-57505944D02*
X78015043Y-57544039D01*
X78015043Y-57544039D02*
X78053138Y-57620230D01*
X78053138Y-57620230D02*
X78091233Y-57772611D01*
X78091233Y-57772611D02*
X78091233Y-57963087D01*
X78091233Y-57963087D02*
X78053138Y-58115468D01*
X78053138Y-58115468D02*
X78015043Y-58191658D01*
X78015043Y-58191658D02*
X77976948Y-58229754D01*
X77976948Y-58229754D02*
X77900757Y-58267849D01*
X77900757Y-58267849D02*
X77824567Y-58267849D01*
X77824567Y-58267849D02*
X77748376Y-58229754D01*
X77748376Y-58229754D02*
X77710281Y-58191658D01*
X77710281Y-58191658D02*
X77672186Y-58115468D01*
X77672186Y-58115468D02*
X77634090Y-57963087D01*
X77634090Y-57963087D02*
X77634090Y-57772611D01*
X77634090Y-57772611D02*
X77672186Y-57620230D01*
X77672186Y-57620230D02*
X77710281Y-57544039D01*
X77710281Y-57544039D02*
X77748376Y-57505944D01*
X77748376Y-57505944D02*
X77824567Y-57467849D01*
X76110281Y-70967849D02*
X76110281Y-70167849D01*
X76110281Y-70167849D02*
X76415043Y-70167849D01*
X76415043Y-70167849D02*
X76491233Y-70205944D01*
X76491233Y-70205944D02*
X76529328Y-70244039D01*
X76529328Y-70244039D02*
X76567424Y-70320230D01*
X76567424Y-70320230D02*
X76567424Y-70434515D01*
X76567424Y-70434515D02*
X76529328Y-70510706D01*
X76529328Y-70510706D02*
X76491233Y-70548801D01*
X76491233Y-70548801D02*
X76415043Y-70586896D01*
X76415043Y-70586896D02*
X76110281Y-70586896D01*
X77062662Y-70167849D02*
X77138852Y-70167849D01*
X77138852Y-70167849D02*
X77215043Y-70205944D01*
X77215043Y-70205944D02*
X77253138Y-70244039D01*
X77253138Y-70244039D02*
X77291233Y-70320230D01*
X77291233Y-70320230D02*
X77329328Y-70472611D01*
X77329328Y-70472611D02*
X77329328Y-70663087D01*
X77329328Y-70663087D02*
X77291233Y-70815468D01*
X77291233Y-70815468D02*
X77253138Y-70891658D01*
X77253138Y-70891658D02*
X77215043Y-70929754D01*
X77215043Y-70929754D02*
X77138852Y-70967849D01*
X77138852Y-70967849D02*
X77062662Y-70967849D01*
X77062662Y-70967849D02*
X76986471Y-70929754D01*
X76986471Y-70929754D02*
X76948376Y-70891658D01*
X76948376Y-70891658D02*
X76910281Y-70815468D01*
X76910281Y-70815468D02*
X76872185Y-70663087D01*
X76872185Y-70663087D02*
X76872185Y-70472611D01*
X76872185Y-70472611D02*
X76910281Y-70320230D01*
X76910281Y-70320230D02*
X76948376Y-70244039D01*
X76948376Y-70244039D02*
X76986471Y-70205944D01*
X76986471Y-70205944D02*
X77062662Y-70167849D01*
X78015043Y-70434515D02*
X78015043Y-70967849D01*
X77824567Y-70129754D02*
X77634090Y-70701182D01*
X77634090Y-70701182D02*
X78129329Y-70701182D01*
X76472186Y-62585944D02*
X76395996Y-62547849D01*
X76395996Y-62547849D02*
X76281710Y-62547849D01*
X76281710Y-62547849D02*
X76167424Y-62585944D01*
X76167424Y-62585944D02*
X76091234Y-62662134D01*
X76091234Y-62662134D02*
X76053139Y-62738325D01*
X76053139Y-62738325D02*
X76015043Y-62890706D01*
X76015043Y-62890706D02*
X76015043Y-63004992D01*
X76015043Y-63004992D02*
X76053139Y-63157373D01*
X76053139Y-63157373D02*
X76091234Y-63233563D01*
X76091234Y-63233563D02*
X76167424Y-63309754D01*
X76167424Y-63309754D02*
X76281710Y-63347849D01*
X76281710Y-63347849D02*
X76357901Y-63347849D01*
X76357901Y-63347849D02*
X76472186Y-63309754D01*
X76472186Y-63309754D02*
X76510282Y-63271658D01*
X76510282Y-63271658D02*
X76510282Y-63004992D01*
X76510282Y-63004992D02*
X76357901Y-63004992D01*
X76853139Y-63347849D02*
X76853139Y-62547849D01*
X76853139Y-62547849D02*
X77310282Y-63347849D01*
X77310282Y-63347849D02*
X77310282Y-62547849D01*
X77691234Y-63347849D02*
X77691234Y-62547849D01*
X77691234Y-62547849D02*
X77881710Y-62547849D01*
X77881710Y-62547849D02*
X77995996Y-62585944D01*
X77995996Y-62585944D02*
X78072186Y-62662134D01*
X78072186Y-62662134D02*
X78110281Y-62738325D01*
X78110281Y-62738325D02*
X78148377Y-62890706D01*
X78148377Y-62890706D02*
X78148377Y-63004992D01*
X78148377Y-63004992D02*
X78110281Y-63157373D01*
X78110281Y-63157373D02*
X78072186Y-63233563D01*
X78072186Y-63233563D02*
X77995996Y-63309754D01*
X77995996Y-63309754D02*
X77881710Y-63347849D01*
X77881710Y-63347849D02*
X77691234Y-63347849D01*
X76110281Y-81127849D02*
X76110281Y-80327849D01*
X76110281Y-80327849D02*
X76415043Y-80327849D01*
X76415043Y-80327849D02*
X76491233Y-80365944D01*
X76491233Y-80365944D02*
X76529328Y-80404039D01*
X76529328Y-80404039D02*
X76567424Y-80480230D01*
X76567424Y-80480230D02*
X76567424Y-80594515D01*
X76567424Y-80594515D02*
X76529328Y-80670706D01*
X76529328Y-80670706D02*
X76491233Y-80708801D01*
X76491233Y-80708801D02*
X76415043Y-80746896D01*
X76415043Y-80746896D02*
X76110281Y-80746896D01*
X77062662Y-80327849D02*
X77138852Y-80327849D01*
X77138852Y-80327849D02*
X77215043Y-80365944D01*
X77215043Y-80365944D02*
X77253138Y-80404039D01*
X77253138Y-80404039D02*
X77291233Y-80480230D01*
X77291233Y-80480230D02*
X77329328Y-80632611D01*
X77329328Y-80632611D02*
X77329328Y-80823087D01*
X77329328Y-80823087D02*
X77291233Y-80975468D01*
X77291233Y-80975468D02*
X77253138Y-81051658D01*
X77253138Y-81051658D02*
X77215043Y-81089754D01*
X77215043Y-81089754D02*
X77138852Y-81127849D01*
X77138852Y-81127849D02*
X77062662Y-81127849D01*
X77062662Y-81127849D02*
X76986471Y-81089754D01*
X76986471Y-81089754D02*
X76948376Y-81051658D01*
X76948376Y-81051658D02*
X76910281Y-80975468D01*
X76910281Y-80975468D02*
X76872185Y-80823087D01*
X76872185Y-80823087D02*
X76872185Y-80632611D01*
X76872185Y-80632611D02*
X76910281Y-80480230D01*
X76910281Y-80480230D02*
X76948376Y-80404039D01*
X76948376Y-80404039D02*
X76986471Y-80365944D01*
X76986471Y-80365944D02*
X77062662Y-80327849D01*
X77786471Y-80670706D02*
X77710281Y-80632611D01*
X77710281Y-80632611D02*
X77672186Y-80594515D01*
X77672186Y-80594515D02*
X77634090Y-80518325D01*
X77634090Y-80518325D02*
X77634090Y-80480230D01*
X77634090Y-80480230D02*
X77672186Y-80404039D01*
X77672186Y-80404039D02*
X77710281Y-80365944D01*
X77710281Y-80365944D02*
X77786471Y-80327849D01*
X77786471Y-80327849D02*
X77938852Y-80327849D01*
X77938852Y-80327849D02*
X78015043Y-80365944D01*
X78015043Y-80365944D02*
X78053138Y-80404039D01*
X78053138Y-80404039D02*
X78091233Y-80480230D01*
X78091233Y-80480230D02*
X78091233Y-80518325D01*
X78091233Y-80518325D02*
X78053138Y-80594515D01*
X78053138Y-80594515D02*
X78015043Y-80632611D01*
X78015043Y-80632611D02*
X77938852Y-80670706D01*
X77938852Y-80670706D02*
X77786471Y-80670706D01*
X77786471Y-80670706D02*
X77710281Y-80708801D01*
X77710281Y-80708801D02*
X77672186Y-80746896D01*
X77672186Y-80746896D02*
X77634090Y-80823087D01*
X77634090Y-80823087D02*
X77634090Y-80975468D01*
X77634090Y-80975468D02*
X77672186Y-81051658D01*
X77672186Y-81051658D02*
X77710281Y-81089754D01*
X77710281Y-81089754D02*
X77786471Y-81127849D01*
X77786471Y-81127849D02*
X77938852Y-81127849D01*
X77938852Y-81127849D02*
X78015043Y-81089754D01*
X78015043Y-81089754D02*
X78053138Y-81051658D01*
X78053138Y-81051658D02*
X78091233Y-80975468D01*
X78091233Y-80975468D02*
X78091233Y-80823087D01*
X78091233Y-80823087D02*
X78053138Y-80746896D01*
X78053138Y-80746896D02*
X78015043Y-80708801D01*
X78015043Y-80708801D02*
X77938852Y-80670706D01*
X76110281Y-76047849D02*
X76110281Y-75247849D01*
X76110281Y-75247849D02*
X76415043Y-75247849D01*
X76415043Y-75247849D02*
X76491233Y-75285944D01*
X76491233Y-75285944D02*
X76529328Y-75324039D01*
X76529328Y-75324039D02*
X76567424Y-75400230D01*
X76567424Y-75400230D02*
X76567424Y-75514515D01*
X76567424Y-75514515D02*
X76529328Y-75590706D01*
X76529328Y-75590706D02*
X76491233Y-75628801D01*
X76491233Y-75628801D02*
X76415043Y-75666896D01*
X76415043Y-75666896D02*
X76110281Y-75666896D01*
X77062662Y-75247849D02*
X77138852Y-75247849D01*
X77138852Y-75247849D02*
X77215043Y-75285944D01*
X77215043Y-75285944D02*
X77253138Y-75324039D01*
X77253138Y-75324039D02*
X77291233Y-75400230D01*
X77291233Y-75400230D02*
X77329328Y-75552611D01*
X77329328Y-75552611D02*
X77329328Y-75743087D01*
X77329328Y-75743087D02*
X77291233Y-75895468D01*
X77291233Y-75895468D02*
X77253138Y-75971658D01*
X77253138Y-75971658D02*
X77215043Y-76009754D01*
X77215043Y-76009754D02*
X77138852Y-76047849D01*
X77138852Y-76047849D02*
X77062662Y-76047849D01*
X77062662Y-76047849D02*
X76986471Y-76009754D01*
X76986471Y-76009754D02*
X76948376Y-75971658D01*
X76948376Y-75971658D02*
X76910281Y-75895468D01*
X76910281Y-75895468D02*
X76872185Y-75743087D01*
X76872185Y-75743087D02*
X76872185Y-75552611D01*
X76872185Y-75552611D02*
X76910281Y-75400230D01*
X76910281Y-75400230D02*
X76948376Y-75324039D01*
X76948376Y-75324039D02*
X76986471Y-75285944D01*
X76986471Y-75285944D02*
X77062662Y-75247849D01*
X78015043Y-75247849D02*
X77862662Y-75247849D01*
X77862662Y-75247849D02*
X77786471Y-75285944D01*
X77786471Y-75285944D02*
X77748376Y-75324039D01*
X77748376Y-75324039D02*
X77672186Y-75438325D01*
X77672186Y-75438325D02*
X77634090Y-75590706D01*
X77634090Y-75590706D02*
X77634090Y-75895468D01*
X77634090Y-75895468D02*
X77672186Y-75971658D01*
X77672186Y-75971658D02*
X77710281Y-76009754D01*
X77710281Y-76009754D02*
X77786471Y-76047849D01*
X77786471Y-76047849D02*
X77938852Y-76047849D01*
X77938852Y-76047849D02*
X78015043Y-76009754D01*
X78015043Y-76009754D02*
X78053138Y-75971658D01*
X78053138Y-75971658D02*
X78091233Y-75895468D01*
X78091233Y-75895468D02*
X78091233Y-75704992D01*
X78091233Y-75704992D02*
X78053138Y-75628801D01*
X78053138Y-75628801D02*
X78015043Y-75590706D01*
X78015043Y-75590706D02*
X77938852Y-75552611D01*
X77938852Y-75552611D02*
X77786471Y-75552611D01*
X77786471Y-75552611D02*
X77710281Y-75590706D01*
X77710281Y-75590706D02*
X77672186Y-75628801D01*
X77672186Y-75628801D02*
X77634090Y-75704992D01*
X85710281Y-83667849D02*
X85710281Y-82867849D01*
X85710281Y-82867849D02*
X86015043Y-82867849D01*
X86015043Y-82867849D02*
X86091233Y-82905944D01*
X86091233Y-82905944D02*
X86129328Y-82944039D01*
X86129328Y-82944039D02*
X86167424Y-83020230D01*
X86167424Y-83020230D02*
X86167424Y-83134515D01*
X86167424Y-83134515D02*
X86129328Y-83210706D01*
X86129328Y-83210706D02*
X86091233Y-83248801D01*
X86091233Y-83248801D02*
X86015043Y-83286896D01*
X86015043Y-83286896D02*
X85710281Y-83286896D01*
X86929328Y-83667849D02*
X86472185Y-83667849D01*
X86700757Y-83667849D02*
X86700757Y-82867849D01*
X86700757Y-82867849D02*
X86624566Y-82982134D01*
X86624566Y-82982134D02*
X86548376Y-83058325D01*
X86548376Y-83058325D02*
X86472185Y-83096420D01*
X87424567Y-82867849D02*
X87500757Y-82867849D01*
X87500757Y-82867849D02*
X87576948Y-82905944D01*
X87576948Y-82905944D02*
X87615043Y-82944039D01*
X87615043Y-82944039D02*
X87653138Y-83020230D01*
X87653138Y-83020230D02*
X87691233Y-83172611D01*
X87691233Y-83172611D02*
X87691233Y-83363087D01*
X87691233Y-83363087D02*
X87653138Y-83515468D01*
X87653138Y-83515468D02*
X87615043Y-83591658D01*
X87615043Y-83591658D02*
X87576948Y-83629754D01*
X87576948Y-83629754D02*
X87500757Y-83667849D01*
X87500757Y-83667849D02*
X87424567Y-83667849D01*
X87424567Y-83667849D02*
X87348376Y-83629754D01*
X87348376Y-83629754D02*
X87310281Y-83591658D01*
X87310281Y-83591658D02*
X87272186Y-83515468D01*
X87272186Y-83515468D02*
X87234090Y-83363087D01*
X87234090Y-83363087D02*
X87234090Y-83172611D01*
X87234090Y-83172611D02*
X87272186Y-83020230D01*
X87272186Y-83020230D02*
X87310281Y-82944039D01*
X87310281Y-82944039D02*
X87348376Y-82905944D01*
X87348376Y-82905944D02*
X87424567Y-82867849D01*
X76110281Y-83667849D02*
X76110281Y-82867849D01*
X76110281Y-82867849D02*
X76415043Y-82867849D01*
X76415043Y-82867849D02*
X76491233Y-82905944D01*
X76491233Y-82905944D02*
X76529328Y-82944039D01*
X76529328Y-82944039D02*
X76567424Y-83020230D01*
X76567424Y-83020230D02*
X76567424Y-83134515D01*
X76567424Y-83134515D02*
X76529328Y-83210706D01*
X76529328Y-83210706D02*
X76491233Y-83248801D01*
X76491233Y-83248801D02*
X76415043Y-83286896D01*
X76415043Y-83286896D02*
X76110281Y-83286896D01*
X77062662Y-82867849D02*
X77138852Y-82867849D01*
X77138852Y-82867849D02*
X77215043Y-82905944D01*
X77215043Y-82905944D02*
X77253138Y-82944039D01*
X77253138Y-82944039D02*
X77291233Y-83020230D01*
X77291233Y-83020230D02*
X77329328Y-83172611D01*
X77329328Y-83172611D02*
X77329328Y-83363087D01*
X77329328Y-83363087D02*
X77291233Y-83515468D01*
X77291233Y-83515468D02*
X77253138Y-83591658D01*
X77253138Y-83591658D02*
X77215043Y-83629754D01*
X77215043Y-83629754D02*
X77138852Y-83667849D01*
X77138852Y-83667849D02*
X77062662Y-83667849D01*
X77062662Y-83667849D02*
X76986471Y-83629754D01*
X76986471Y-83629754D02*
X76948376Y-83591658D01*
X76948376Y-83591658D02*
X76910281Y-83515468D01*
X76910281Y-83515468D02*
X76872185Y-83363087D01*
X76872185Y-83363087D02*
X76872185Y-83172611D01*
X76872185Y-83172611D02*
X76910281Y-83020230D01*
X76910281Y-83020230D02*
X76948376Y-82944039D01*
X76948376Y-82944039D02*
X76986471Y-82905944D01*
X76986471Y-82905944D02*
X77062662Y-82867849D01*
X77710281Y-83667849D02*
X77862662Y-83667849D01*
X77862662Y-83667849D02*
X77938852Y-83629754D01*
X77938852Y-83629754D02*
X77976948Y-83591658D01*
X77976948Y-83591658D02*
X78053138Y-83477373D01*
X78053138Y-83477373D02*
X78091233Y-83324992D01*
X78091233Y-83324992D02*
X78091233Y-83020230D01*
X78091233Y-83020230D02*
X78053138Y-82944039D01*
X78053138Y-82944039D02*
X78015043Y-82905944D01*
X78015043Y-82905944D02*
X77938852Y-82867849D01*
X77938852Y-82867849D02*
X77786471Y-82867849D01*
X77786471Y-82867849D02*
X77710281Y-82905944D01*
X77710281Y-82905944D02*
X77672186Y-82944039D01*
X77672186Y-82944039D02*
X77634090Y-83020230D01*
X77634090Y-83020230D02*
X77634090Y-83210706D01*
X77634090Y-83210706D02*
X77672186Y-83286896D01*
X77672186Y-83286896D02*
X77710281Y-83324992D01*
X77710281Y-83324992D02*
X77786471Y-83363087D01*
X77786471Y-83363087D02*
X77938852Y-83363087D01*
X77938852Y-83363087D02*
X78015043Y-83324992D01*
X78015043Y-83324992D02*
X78053138Y-83286896D01*
X78053138Y-83286896D02*
X78091233Y-83210706D01*
X85710281Y-73507849D02*
X85710281Y-72707849D01*
X85710281Y-72707849D02*
X86015043Y-72707849D01*
X86015043Y-72707849D02*
X86091233Y-72745944D01*
X86091233Y-72745944D02*
X86129328Y-72784039D01*
X86129328Y-72784039D02*
X86167424Y-72860230D01*
X86167424Y-72860230D02*
X86167424Y-72974515D01*
X86167424Y-72974515D02*
X86129328Y-73050706D01*
X86129328Y-73050706D02*
X86091233Y-73088801D01*
X86091233Y-73088801D02*
X86015043Y-73126896D01*
X86015043Y-73126896D02*
X85710281Y-73126896D01*
X86929328Y-73507849D02*
X86472185Y-73507849D01*
X86700757Y-73507849D02*
X86700757Y-72707849D01*
X86700757Y-72707849D02*
X86624566Y-72822134D01*
X86624566Y-72822134D02*
X86548376Y-72898325D01*
X86548376Y-72898325D02*
X86472185Y-72936420D01*
X87386471Y-73050706D02*
X87310281Y-73012611D01*
X87310281Y-73012611D02*
X87272186Y-72974515D01*
X87272186Y-72974515D02*
X87234090Y-72898325D01*
X87234090Y-72898325D02*
X87234090Y-72860230D01*
X87234090Y-72860230D02*
X87272186Y-72784039D01*
X87272186Y-72784039D02*
X87310281Y-72745944D01*
X87310281Y-72745944D02*
X87386471Y-72707849D01*
X87386471Y-72707849D02*
X87538852Y-72707849D01*
X87538852Y-72707849D02*
X87615043Y-72745944D01*
X87615043Y-72745944D02*
X87653138Y-72784039D01*
X87653138Y-72784039D02*
X87691233Y-72860230D01*
X87691233Y-72860230D02*
X87691233Y-72898325D01*
X87691233Y-72898325D02*
X87653138Y-72974515D01*
X87653138Y-72974515D02*
X87615043Y-73012611D01*
X87615043Y-73012611D02*
X87538852Y-73050706D01*
X87538852Y-73050706D02*
X87386471Y-73050706D01*
X87386471Y-73050706D02*
X87310281Y-73088801D01*
X87310281Y-73088801D02*
X87272186Y-73126896D01*
X87272186Y-73126896D02*
X87234090Y-73203087D01*
X87234090Y-73203087D02*
X87234090Y-73355468D01*
X87234090Y-73355468D02*
X87272186Y-73431658D01*
X87272186Y-73431658D02*
X87310281Y-73469754D01*
X87310281Y-73469754D02*
X87386471Y-73507849D01*
X87386471Y-73507849D02*
X87538852Y-73507849D01*
X87538852Y-73507849D02*
X87615043Y-73469754D01*
X87615043Y-73469754D02*
X87653138Y-73431658D01*
X87653138Y-73431658D02*
X87691233Y-73355468D01*
X87691233Y-73355468D02*
X87691233Y-73203087D01*
X87691233Y-73203087D02*
X87653138Y-73126896D01*
X87653138Y-73126896D02*
X87615043Y-73088801D01*
X87615043Y-73088801D02*
X87538852Y-73050706D01*
X86072186Y-57505944D02*
X85995996Y-57467849D01*
X85995996Y-57467849D02*
X85881710Y-57467849D01*
X85881710Y-57467849D02*
X85767424Y-57505944D01*
X85767424Y-57505944D02*
X85691234Y-57582134D01*
X85691234Y-57582134D02*
X85653139Y-57658325D01*
X85653139Y-57658325D02*
X85615043Y-57810706D01*
X85615043Y-57810706D02*
X85615043Y-57924992D01*
X85615043Y-57924992D02*
X85653139Y-58077373D01*
X85653139Y-58077373D02*
X85691234Y-58153563D01*
X85691234Y-58153563D02*
X85767424Y-58229754D01*
X85767424Y-58229754D02*
X85881710Y-58267849D01*
X85881710Y-58267849D02*
X85957901Y-58267849D01*
X85957901Y-58267849D02*
X86072186Y-58229754D01*
X86072186Y-58229754D02*
X86110282Y-58191658D01*
X86110282Y-58191658D02*
X86110282Y-57924992D01*
X86110282Y-57924992D02*
X85957901Y-57924992D01*
X86453139Y-58267849D02*
X86453139Y-57467849D01*
X86453139Y-57467849D02*
X86910282Y-58267849D01*
X86910282Y-58267849D02*
X86910282Y-57467849D01*
X87291234Y-58267849D02*
X87291234Y-57467849D01*
X87291234Y-57467849D02*
X87481710Y-57467849D01*
X87481710Y-57467849D02*
X87595996Y-57505944D01*
X87595996Y-57505944D02*
X87672186Y-57582134D01*
X87672186Y-57582134D02*
X87710281Y-57658325D01*
X87710281Y-57658325D02*
X87748377Y-57810706D01*
X87748377Y-57810706D02*
X87748377Y-57924992D01*
X87748377Y-57924992D02*
X87710281Y-58077373D01*
X87710281Y-58077373D02*
X87672186Y-58153563D01*
X87672186Y-58153563D02*
X87595996Y-58229754D01*
X87595996Y-58229754D02*
X87481710Y-58267849D01*
X87481710Y-58267849D02*
X87291234Y-58267849D01*
X85710281Y-76047849D02*
X85710281Y-75247849D01*
X85710281Y-75247849D02*
X86015043Y-75247849D01*
X86015043Y-75247849D02*
X86091233Y-75285944D01*
X86091233Y-75285944D02*
X86129328Y-75324039D01*
X86129328Y-75324039D02*
X86167424Y-75400230D01*
X86167424Y-75400230D02*
X86167424Y-75514515D01*
X86167424Y-75514515D02*
X86129328Y-75590706D01*
X86129328Y-75590706D02*
X86091233Y-75628801D01*
X86091233Y-75628801D02*
X86015043Y-75666896D01*
X86015043Y-75666896D02*
X85710281Y-75666896D01*
X86929328Y-76047849D02*
X86472185Y-76047849D01*
X86700757Y-76047849D02*
X86700757Y-75247849D01*
X86700757Y-75247849D02*
X86624566Y-75362134D01*
X86624566Y-75362134D02*
X86548376Y-75438325D01*
X86548376Y-75438325D02*
X86472185Y-75476420D01*
X87653138Y-75247849D02*
X87272186Y-75247849D01*
X87272186Y-75247849D02*
X87234090Y-75628801D01*
X87234090Y-75628801D02*
X87272186Y-75590706D01*
X87272186Y-75590706D02*
X87348376Y-75552611D01*
X87348376Y-75552611D02*
X87538852Y-75552611D01*
X87538852Y-75552611D02*
X87615043Y-75590706D01*
X87615043Y-75590706D02*
X87653138Y-75628801D01*
X87653138Y-75628801D02*
X87691233Y-75704992D01*
X87691233Y-75704992D02*
X87691233Y-75895468D01*
X87691233Y-75895468D02*
X87653138Y-75971658D01*
X87653138Y-75971658D02*
X87615043Y-76009754D01*
X87615043Y-76009754D02*
X87538852Y-76047849D01*
X87538852Y-76047849D02*
X87348376Y-76047849D01*
X87348376Y-76047849D02*
X87272186Y-76009754D01*
X87272186Y-76009754D02*
X87234090Y-75971658D01*
X85710281Y-78587849D02*
X85710281Y-77787849D01*
X85710281Y-77787849D02*
X86015043Y-77787849D01*
X86015043Y-77787849D02*
X86091233Y-77825944D01*
X86091233Y-77825944D02*
X86129328Y-77864039D01*
X86129328Y-77864039D02*
X86167424Y-77940230D01*
X86167424Y-77940230D02*
X86167424Y-78054515D01*
X86167424Y-78054515D02*
X86129328Y-78130706D01*
X86129328Y-78130706D02*
X86091233Y-78168801D01*
X86091233Y-78168801D02*
X86015043Y-78206896D01*
X86015043Y-78206896D02*
X85710281Y-78206896D01*
X86929328Y-78587849D02*
X86472185Y-78587849D01*
X86700757Y-78587849D02*
X86700757Y-77787849D01*
X86700757Y-77787849D02*
X86624566Y-77902134D01*
X86624566Y-77902134D02*
X86548376Y-77978325D01*
X86548376Y-77978325D02*
X86472185Y-78016420D01*
X87615043Y-78054515D02*
X87615043Y-78587849D01*
X87424567Y-77749754D02*
X87234090Y-78321182D01*
X87234090Y-78321182D02*
X87729329Y-78321182D01*
X76110281Y-78587849D02*
X76110281Y-77787849D01*
X76110281Y-77787849D02*
X76415043Y-77787849D01*
X76415043Y-77787849D02*
X76491233Y-77825944D01*
X76491233Y-77825944D02*
X76529328Y-77864039D01*
X76529328Y-77864039D02*
X76567424Y-77940230D01*
X76567424Y-77940230D02*
X76567424Y-78054515D01*
X76567424Y-78054515D02*
X76529328Y-78130706D01*
X76529328Y-78130706D02*
X76491233Y-78168801D01*
X76491233Y-78168801D02*
X76415043Y-78206896D01*
X76415043Y-78206896D02*
X76110281Y-78206896D01*
X77062662Y-77787849D02*
X77138852Y-77787849D01*
X77138852Y-77787849D02*
X77215043Y-77825944D01*
X77215043Y-77825944D02*
X77253138Y-77864039D01*
X77253138Y-77864039D02*
X77291233Y-77940230D01*
X77291233Y-77940230D02*
X77329328Y-78092611D01*
X77329328Y-78092611D02*
X77329328Y-78283087D01*
X77329328Y-78283087D02*
X77291233Y-78435468D01*
X77291233Y-78435468D02*
X77253138Y-78511658D01*
X77253138Y-78511658D02*
X77215043Y-78549754D01*
X77215043Y-78549754D02*
X77138852Y-78587849D01*
X77138852Y-78587849D02*
X77062662Y-78587849D01*
X77062662Y-78587849D02*
X76986471Y-78549754D01*
X76986471Y-78549754D02*
X76948376Y-78511658D01*
X76948376Y-78511658D02*
X76910281Y-78435468D01*
X76910281Y-78435468D02*
X76872185Y-78283087D01*
X76872185Y-78283087D02*
X76872185Y-78092611D01*
X76872185Y-78092611D02*
X76910281Y-77940230D01*
X76910281Y-77940230D02*
X76948376Y-77864039D01*
X76948376Y-77864039D02*
X76986471Y-77825944D01*
X76986471Y-77825944D02*
X77062662Y-77787849D01*
X77595995Y-77787849D02*
X78129329Y-77787849D01*
X78129329Y-77787849D02*
X77786471Y-78587849D01*
X86129329Y-55727849D02*
X85862662Y-55346896D01*
X85672186Y-55727849D02*
X85672186Y-54927849D01*
X85672186Y-54927849D02*
X85976948Y-54927849D01*
X85976948Y-54927849D02*
X86053138Y-54965944D01*
X86053138Y-54965944D02*
X86091233Y-55004039D01*
X86091233Y-55004039D02*
X86129329Y-55080230D01*
X86129329Y-55080230D02*
X86129329Y-55194515D01*
X86129329Y-55194515D02*
X86091233Y-55270706D01*
X86091233Y-55270706D02*
X86053138Y-55308801D01*
X86053138Y-55308801D02*
X85976948Y-55346896D01*
X85976948Y-55346896D02*
X85672186Y-55346896D01*
X86434090Y-55499277D02*
X86815043Y-55499277D01*
X86357900Y-55727849D02*
X86624567Y-54927849D01*
X86624567Y-54927849D02*
X86891233Y-55727849D01*
X87081709Y-54927849D02*
X87272185Y-55727849D01*
X87272185Y-55727849D02*
X87424566Y-55156420D01*
X87424566Y-55156420D02*
X87576947Y-55727849D01*
X87576947Y-55727849D02*
X87767424Y-54927849D01*
X86243614Y-52768801D02*
X86357900Y-52806896D01*
X86357900Y-52806896D02*
X86395995Y-52844992D01*
X86395995Y-52844992D02*
X86434091Y-52921182D01*
X86434091Y-52921182D02*
X86434091Y-53035468D01*
X86434091Y-53035468D02*
X86395995Y-53111658D01*
X86395995Y-53111658D02*
X86357900Y-53149754D01*
X86357900Y-53149754D02*
X86281710Y-53187849D01*
X86281710Y-53187849D02*
X85976948Y-53187849D01*
X85976948Y-53187849D02*
X85976948Y-52387849D01*
X85976948Y-52387849D02*
X86243614Y-52387849D01*
X86243614Y-52387849D02*
X86319805Y-52425944D01*
X86319805Y-52425944D02*
X86357900Y-52464039D01*
X86357900Y-52464039D02*
X86395995Y-52540230D01*
X86395995Y-52540230D02*
X86395995Y-52616420D01*
X86395995Y-52616420D02*
X86357900Y-52692611D01*
X86357900Y-52692611D02*
X86319805Y-52730706D01*
X86319805Y-52730706D02*
X86243614Y-52768801D01*
X86243614Y-52768801D02*
X85976948Y-52768801D01*
X86776948Y-52883087D02*
X87386472Y-52883087D01*
X87081710Y-53187849D02*
X87081710Y-52578325D01*
X85710281Y-81127849D02*
X85710281Y-80327849D01*
X85710281Y-80327849D02*
X86015043Y-80327849D01*
X86015043Y-80327849D02*
X86091233Y-80365944D01*
X86091233Y-80365944D02*
X86129328Y-80404039D01*
X86129328Y-80404039D02*
X86167424Y-80480230D01*
X86167424Y-80480230D02*
X86167424Y-80594515D01*
X86167424Y-80594515D02*
X86129328Y-80670706D01*
X86129328Y-80670706D02*
X86091233Y-80708801D01*
X86091233Y-80708801D02*
X86015043Y-80746896D01*
X86015043Y-80746896D02*
X85710281Y-80746896D01*
X86929328Y-81127849D02*
X86472185Y-81127849D01*
X86700757Y-81127849D02*
X86700757Y-80327849D01*
X86700757Y-80327849D02*
X86624566Y-80442134D01*
X86624566Y-80442134D02*
X86548376Y-80518325D01*
X86548376Y-80518325D02*
X86472185Y-80556420D01*
X87615043Y-80327849D02*
X87462662Y-80327849D01*
X87462662Y-80327849D02*
X87386471Y-80365944D01*
X87386471Y-80365944D02*
X87348376Y-80404039D01*
X87348376Y-80404039D02*
X87272186Y-80518325D01*
X87272186Y-80518325D02*
X87234090Y-80670706D01*
X87234090Y-80670706D02*
X87234090Y-80975468D01*
X87234090Y-80975468D02*
X87272186Y-81051658D01*
X87272186Y-81051658D02*
X87310281Y-81089754D01*
X87310281Y-81089754D02*
X87386471Y-81127849D01*
X87386471Y-81127849D02*
X87538852Y-81127849D01*
X87538852Y-81127849D02*
X87615043Y-81089754D01*
X87615043Y-81089754D02*
X87653138Y-81051658D01*
X87653138Y-81051658D02*
X87691233Y-80975468D01*
X87691233Y-80975468D02*
X87691233Y-80784992D01*
X87691233Y-80784992D02*
X87653138Y-80708801D01*
X87653138Y-80708801D02*
X87615043Y-80670706D01*
X87615043Y-80670706D02*
X87538852Y-80632611D01*
X87538852Y-80632611D02*
X87386471Y-80632611D01*
X87386471Y-80632611D02*
X87310281Y-80670706D01*
X87310281Y-80670706D02*
X87272186Y-80708801D01*
X87272186Y-80708801D02*
X87234090Y-80784992D01*
X85615043Y-62547849D02*
X85881710Y-63347849D01*
X85881710Y-63347849D02*
X86148376Y-62547849D01*
X86872186Y-63271658D02*
X86834090Y-63309754D01*
X86834090Y-63309754D02*
X86719805Y-63347849D01*
X86719805Y-63347849D02*
X86643614Y-63347849D01*
X86643614Y-63347849D02*
X86529328Y-63309754D01*
X86529328Y-63309754D02*
X86453138Y-63233563D01*
X86453138Y-63233563D02*
X86415043Y-63157373D01*
X86415043Y-63157373D02*
X86376947Y-63004992D01*
X86376947Y-63004992D02*
X86376947Y-62890706D01*
X86376947Y-62890706D02*
X86415043Y-62738325D01*
X86415043Y-62738325D02*
X86453138Y-62662134D01*
X86453138Y-62662134D02*
X86529328Y-62585944D01*
X86529328Y-62585944D02*
X86643614Y-62547849D01*
X86643614Y-62547849D02*
X86719805Y-62547849D01*
X86719805Y-62547849D02*
X86834090Y-62585944D01*
X86834090Y-62585944D02*
X86872186Y-62624039D01*
X87672186Y-63271658D02*
X87634090Y-63309754D01*
X87634090Y-63309754D02*
X87519805Y-63347849D01*
X87519805Y-63347849D02*
X87443614Y-63347849D01*
X87443614Y-63347849D02*
X87329328Y-63309754D01*
X87329328Y-63309754D02*
X87253138Y-63233563D01*
X87253138Y-63233563D02*
X87215043Y-63157373D01*
X87215043Y-63157373D02*
X87176947Y-63004992D01*
X87176947Y-63004992D02*
X87176947Y-62890706D01*
X87176947Y-62890706D02*
X87215043Y-62738325D01*
X87215043Y-62738325D02*
X87253138Y-62662134D01*
X87253138Y-62662134D02*
X87329328Y-62585944D01*
X87329328Y-62585944D02*
X87443614Y-62547849D01*
X87443614Y-62547849D02*
X87519805Y-62547849D01*
X87519805Y-62547849D02*
X87634090Y-62585944D01*
X87634090Y-62585944D02*
X87672186Y-62624039D01*
X86243615Y-60807849D02*
X85976948Y-60426896D01*
X85786472Y-60807849D02*
X85786472Y-60007849D01*
X85786472Y-60007849D02*
X86091234Y-60007849D01*
X86091234Y-60007849D02*
X86167424Y-60045944D01*
X86167424Y-60045944D02*
X86205519Y-60084039D01*
X86205519Y-60084039D02*
X86243615Y-60160230D01*
X86243615Y-60160230D02*
X86243615Y-60274515D01*
X86243615Y-60274515D02*
X86205519Y-60350706D01*
X86205519Y-60350706D02*
X86167424Y-60388801D01*
X86167424Y-60388801D02*
X86091234Y-60426896D01*
X86091234Y-60426896D02*
X85786472Y-60426896D01*
X86548376Y-60769754D02*
X86662662Y-60807849D01*
X86662662Y-60807849D02*
X86853138Y-60807849D01*
X86853138Y-60807849D02*
X86929329Y-60769754D01*
X86929329Y-60769754D02*
X86967424Y-60731658D01*
X86967424Y-60731658D02*
X87005519Y-60655468D01*
X87005519Y-60655468D02*
X87005519Y-60579277D01*
X87005519Y-60579277D02*
X86967424Y-60503087D01*
X86967424Y-60503087D02*
X86929329Y-60464992D01*
X86929329Y-60464992D02*
X86853138Y-60426896D01*
X86853138Y-60426896D02*
X86700757Y-60388801D01*
X86700757Y-60388801D02*
X86624567Y-60350706D01*
X86624567Y-60350706D02*
X86586472Y-60312611D01*
X86586472Y-60312611D02*
X86548376Y-60236420D01*
X86548376Y-60236420D02*
X86548376Y-60160230D01*
X86548376Y-60160230D02*
X86586472Y-60084039D01*
X86586472Y-60084039D02*
X86624567Y-60045944D01*
X86624567Y-60045944D02*
X86700757Y-60007849D01*
X86700757Y-60007849D02*
X86891234Y-60007849D01*
X86891234Y-60007849D02*
X87005519Y-60045944D01*
X87234091Y-60007849D02*
X87691234Y-60007849D01*
X87462662Y-60807849D02*
X87462662Y-60007849D01*
X85710281Y-65887849D02*
X85710281Y-65087849D01*
X85710281Y-65087849D02*
X86015043Y-65087849D01*
X86015043Y-65087849D02*
X86091233Y-65125944D01*
X86091233Y-65125944D02*
X86129328Y-65164039D01*
X86129328Y-65164039D02*
X86167424Y-65240230D01*
X86167424Y-65240230D02*
X86167424Y-65354515D01*
X86167424Y-65354515D02*
X86129328Y-65430706D01*
X86129328Y-65430706D02*
X86091233Y-65468801D01*
X86091233Y-65468801D02*
X86015043Y-65506896D01*
X86015043Y-65506896D02*
X85710281Y-65506896D01*
X86472185Y-65164039D02*
X86510281Y-65125944D01*
X86510281Y-65125944D02*
X86586471Y-65087849D01*
X86586471Y-65087849D02*
X86776947Y-65087849D01*
X86776947Y-65087849D02*
X86853138Y-65125944D01*
X86853138Y-65125944D02*
X86891233Y-65164039D01*
X86891233Y-65164039D02*
X86929328Y-65240230D01*
X86929328Y-65240230D02*
X86929328Y-65316420D01*
X86929328Y-65316420D02*
X86891233Y-65430706D01*
X86891233Y-65430706D02*
X86434090Y-65887849D01*
X86434090Y-65887849D02*
X86929328Y-65887849D01*
X87691233Y-65887849D02*
X87234090Y-65887849D01*
X87462662Y-65887849D02*
X87462662Y-65087849D01*
X87462662Y-65087849D02*
X87386471Y-65202134D01*
X87386471Y-65202134D02*
X87310281Y-65278325D01*
X87310281Y-65278325D02*
X87234090Y-65316420D01*
X76110281Y-73507849D02*
X76110281Y-72707849D01*
X76110281Y-72707849D02*
X76415043Y-72707849D01*
X76415043Y-72707849D02*
X76491233Y-72745944D01*
X76491233Y-72745944D02*
X76529328Y-72784039D01*
X76529328Y-72784039D02*
X76567424Y-72860230D01*
X76567424Y-72860230D02*
X76567424Y-72974515D01*
X76567424Y-72974515D02*
X76529328Y-73050706D01*
X76529328Y-73050706D02*
X76491233Y-73088801D01*
X76491233Y-73088801D02*
X76415043Y-73126896D01*
X76415043Y-73126896D02*
X76110281Y-73126896D01*
X77062662Y-72707849D02*
X77138852Y-72707849D01*
X77138852Y-72707849D02*
X77215043Y-72745944D01*
X77215043Y-72745944D02*
X77253138Y-72784039D01*
X77253138Y-72784039D02*
X77291233Y-72860230D01*
X77291233Y-72860230D02*
X77329328Y-73012611D01*
X77329328Y-73012611D02*
X77329328Y-73203087D01*
X77329328Y-73203087D02*
X77291233Y-73355468D01*
X77291233Y-73355468D02*
X77253138Y-73431658D01*
X77253138Y-73431658D02*
X77215043Y-73469754D01*
X77215043Y-73469754D02*
X77138852Y-73507849D01*
X77138852Y-73507849D02*
X77062662Y-73507849D01*
X77062662Y-73507849D02*
X76986471Y-73469754D01*
X76986471Y-73469754D02*
X76948376Y-73431658D01*
X76948376Y-73431658D02*
X76910281Y-73355468D01*
X76910281Y-73355468D02*
X76872185Y-73203087D01*
X76872185Y-73203087D02*
X76872185Y-73012611D01*
X76872185Y-73012611D02*
X76910281Y-72860230D01*
X76910281Y-72860230D02*
X76948376Y-72784039D01*
X76948376Y-72784039D02*
X76986471Y-72745944D01*
X76986471Y-72745944D02*
X77062662Y-72707849D01*
X78053138Y-72707849D02*
X77672186Y-72707849D01*
X77672186Y-72707849D02*
X77634090Y-73088801D01*
X77634090Y-73088801D02*
X77672186Y-73050706D01*
X77672186Y-73050706D02*
X77748376Y-73012611D01*
X77748376Y-73012611D02*
X77938852Y-73012611D01*
X77938852Y-73012611D02*
X78015043Y-73050706D01*
X78015043Y-73050706D02*
X78053138Y-73088801D01*
X78053138Y-73088801D02*
X78091233Y-73164992D01*
X78091233Y-73164992D02*
X78091233Y-73355468D01*
X78091233Y-73355468D02*
X78053138Y-73431658D01*
X78053138Y-73431658D02*
X78015043Y-73469754D01*
X78015043Y-73469754D02*
X77938852Y-73507849D01*
X77938852Y-73507849D02*
X77748376Y-73507849D01*
X77748376Y-73507849D02*
X77672186Y-73469754D01*
X77672186Y-73469754D02*
X77634090Y-73431658D01*
X85710281Y-68427849D02*
X85710281Y-67627849D01*
X85710281Y-67627849D02*
X86015043Y-67627849D01*
X86015043Y-67627849D02*
X86091233Y-67665944D01*
X86091233Y-67665944D02*
X86129328Y-67704039D01*
X86129328Y-67704039D02*
X86167424Y-67780230D01*
X86167424Y-67780230D02*
X86167424Y-67894515D01*
X86167424Y-67894515D02*
X86129328Y-67970706D01*
X86129328Y-67970706D02*
X86091233Y-68008801D01*
X86091233Y-68008801D02*
X86015043Y-68046896D01*
X86015043Y-68046896D02*
X85710281Y-68046896D01*
X86472185Y-67704039D02*
X86510281Y-67665944D01*
X86510281Y-67665944D02*
X86586471Y-67627849D01*
X86586471Y-67627849D02*
X86776947Y-67627849D01*
X86776947Y-67627849D02*
X86853138Y-67665944D01*
X86853138Y-67665944D02*
X86891233Y-67704039D01*
X86891233Y-67704039D02*
X86929328Y-67780230D01*
X86929328Y-67780230D02*
X86929328Y-67856420D01*
X86929328Y-67856420D02*
X86891233Y-67970706D01*
X86891233Y-67970706D02*
X86434090Y-68427849D01*
X86434090Y-68427849D02*
X86929328Y-68427849D01*
X87424567Y-67627849D02*
X87500757Y-67627849D01*
X87500757Y-67627849D02*
X87576948Y-67665944D01*
X87576948Y-67665944D02*
X87615043Y-67704039D01*
X87615043Y-67704039D02*
X87653138Y-67780230D01*
X87653138Y-67780230D02*
X87691233Y-67932611D01*
X87691233Y-67932611D02*
X87691233Y-68123087D01*
X87691233Y-68123087D02*
X87653138Y-68275468D01*
X87653138Y-68275468D02*
X87615043Y-68351658D01*
X87615043Y-68351658D02*
X87576948Y-68389754D01*
X87576948Y-68389754D02*
X87500757Y-68427849D01*
X87500757Y-68427849D02*
X87424567Y-68427849D01*
X87424567Y-68427849D02*
X87348376Y-68389754D01*
X87348376Y-68389754D02*
X87310281Y-68351658D01*
X87310281Y-68351658D02*
X87272186Y-68275468D01*
X87272186Y-68275468D02*
X87234090Y-68123087D01*
X87234090Y-68123087D02*
X87234090Y-67932611D01*
X87234090Y-67932611D02*
X87272186Y-67780230D01*
X87272186Y-67780230D02*
X87310281Y-67704039D01*
X87310281Y-67704039D02*
X87348376Y-67665944D01*
X87348376Y-67665944D02*
X87424567Y-67627849D01*
X81204819Y-59512619D02*
X80728628Y-59845952D01*
X81204819Y-60084047D02*
X80204819Y-60084047D01*
X80204819Y-60084047D02*
X80204819Y-59703095D01*
X80204819Y-59703095D02*
X80252438Y-59607857D01*
X80252438Y-59607857D02*
X80300057Y-59560238D01*
X80300057Y-59560238D02*
X80395295Y-59512619D01*
X80395295Y-59512619D02*
X80538152Y-59512619D01*
X80538152Y-59512619D02*
X80633390Y-59560238D01*
X80633390Y-59560238D02*
X80681009Y-59607857D01*
X80681009Y-59607857D02*
X80728628Y-59703095D01*
X80728628Y-59703095D02*
X80728628Y-60084047D01*
X81157200Y-59131666D02*
X81204819Y-58988809D01*
X81204819Y-58988809D02*
X81204819Y-58750714D01*
X81204819Y-58750714D02*
X81157200Y-58655476D01*
X81157200Y-58655476D02*
X81109580Y-58607857D01*
X81109580Y-58607857D02*
X81014342Y-58560238D01*
X81014342Y-58560238D02*
X80919104Y-58560238D01*
X80919104Y-58560238D02*
X80823866Y-58607857D01*
X80823866Y-58607857D02*
X80776247Y-58655476D01*
X80776247Y-58655476D02*
X80728628Y-58750714D01*
X80728628Y-58750714D02*
X80681009Y-58941190D01*
X80681009Y-58941190D02*
X80633390Y-59036428D01*
X80633390Y-59036428D02*
X80585771Y-59084047D01*
X80585771Y-59084047D02*
X80490533Y-59131666D01*
X80490533Y-59131666D02*
X80395295Y-59131666D01*
X80395295Y-59131666D02*
X80300057Y-59084047D01*
X80300057Y-59084047D02*
X80252438Y-59036428D01*
X80252438Y-59036428D02*
X80204819Y-58941190D01*
X80204819Y-58941190D02*
X80204819Y-58703095D01*
X80204819Y-58703095D02*
X80252438Y-58560238D01*
X80204819Y-58274523D02*
X80204819Y-57703095D01*
X81204819Y-57988809D02*
X80204819Y-57988809D01*
%TO.C,S1*%
X73040210Y-101205554D02*
X73040210Y-105105554D01*
X73040210Y-103155554D02*
X73040210Y-100155554D01*
X73040210Y-103155554D02*
X73040210Y-106155554D01*
X73040210Y-106155554D02*
X75640210Y-106155554D01*
X75640210Y-100155554D02*
X73040210Y-100155554D01*
X75640210Y-106155554D02*
X75640210Y-100155554D01*
%TO.C,U1*%
X72991710Y-51555554D02*
X90771710Y-51555554D01*
X72991710Y-84575554D02*
X72991710Y-51555554D01*
X88231710Y-54095554D02*
X88231710Y-56635554D01*
X88231710Y-54095554D02*
X90771710Y-54095554D01*
X88231710Y-56635554D02*
X90771710Y-56635554D01*
X90771710Y-51555554D02*
X90771710Y-84575554D01*
X90771710Y-84575554D02*
X72991710Y-84575554D01*
D12*
%TO.C,RST*%
X81550000Y-57565000D02*
X83550000Y-57565000D01*
X81550000Y-60365000D02*
X81550000Y-57565000D01*
X83550000Y-57565000D02*
X83550000Y-60365000D01*
X83550000Y-60365000D02*
X81550000Y-60365000D01*
%TD*%
M02*
