M48
; DRILL file {KiCad 8.0.0} date 2024-06-08T15:13:33+0200
; FORMAT={-:-/ absolute / metric / decimal}
; #@! TF.CreationDate,2024-06-08T15:13:33+02:00
; #@! TF.GenerationSoftware,Kicad,Pcbnew,8.0.0
; #@! TF.FileFunction,NonPlated,1,2,NPTH
FMAT,2
METRIC
; #@! TA.AperFunction,NonPlated,NPTH,ComponentDrill
T1C1.702
; #@! TA.AperFunction,NonPlated,NPTH,ComponentDrill
T2C3.000
; #@! TA.AperFunction,NonPlated,NPTH,ComponentDrill
T3C3.429
%
G90
G05
T1
X129.62Y-65.566
X134.59Y-81.823
X134.705Y-69.58
X138.168Y-68.521
X139.561Y-98.081
X139.675Y-85.837
X140.139Y-62.35
X143.138Y-84.778
X144.646Y-102.094
X145.11Y-78.607
X147.761Y-41.94
X148.108Y-101.035
X150.08Y-94.864
X150.713Y-58.681
X152.319Y-46.543
X153.665Y-75.423
X155.271Y-63.285
X155.885Y-45.914
X158.223Y-80.027
X158.594Y-40.03
X158.837Y-62.656
X161.546Y-56.771
X161.789Y-79.398
X164.498Y-73.513
X169.051Y-32.16
X170.533Y-49.095
X172.015Y-66.03
X173.191Y-37.143
X174.673Y-54.078
X176.154Y-71.013
X176.798Y-36.827
X178.28Y-53.762
X179.762Y-70.698
X180.01Y-31.201
X181.491Y-48.136
X182.973Y-65.071
X191.702Y-35.58
X191.702Y-52.58
X191.702Y-69.58
X195.391Y-40.905
X195.391Y-57.905
X195.391Y-74.905
X199.012Y-40.905
X199.012Y-57.905
X199.012Y-74.905
X202.702Y-35.58
X202.702Y-52.58
X202.702Y-69.58
X210.369Y-95.267
X210.702Y-38.413
X210.702Y-55.413
X210.702Y-72.413
X212.555Y-101.366
X214.391Y-43.738
X214.391Y-60.738
X214.391Y-77.738
X216.052Y-102.303
X218.012Y-43.738
X218.012Y-60.738
X218.012Y-77.738
X220.994Y-98.115
X221.702Y-38.413
X221.702Y-55.413
X221.702Y-72.413
X229.456Y-101.619
X229.989Y-108.076
X233.125Y-109.886
X238.982Y-107.119
X245.092Y-119.069
X246.249Y-112.695
X247.653Y-121.63
X254.027Y-120.473
T2
X129.002Y-61.834
X133.14Y-58.268
X133.14Y-58.268
X133.972Y-78.091
X138.11Y-74.525
X138.11Y-74.525
X138.942Y-94.348
X143.081Y-90.782
X143.081Y-90.782
X147.602Y-38.16
X150.554Y-54.902
X152.144Y-35.125
X152.144Y-35.125
X153.506Y-71.643
X155.096Y-51.867
X155.096Y-51.867
X158.048Y-68.608
X158.048Y-68.608
X169.223Y-28.38
X170.704Y-45.316
X172.186Y-62.251
X174.012Y-25.753
X174.012Y-25.753
X175.494Y-42.688
X175.494Y-42.688
X176.975Y-59.623
X176.975Y-59.623
X192.202Y-31.83
X192.202Y-48.83
X192.202Y-65.83
X197.202Y-29.63
X197.202Y-29.63
X197.202Y-46.63
X197.202Y-46.63
X197.202Y-63.63
X197.202Y-63.63
X211.202Y-34.663
X211.202Y-51.663
X211.202Y-68.663
X211.822Y-91.775
X216.202Y-32.463
X216.202Y-32.463
X216.202Y-49.463
X216.202Y-49.463
X216.202Y-66.463
X216.202Y-66.463
X217.222Y-90.944
X217.222Y-90.944
X231.764Y-98.622
X237.194Y-99.217
X237.194Y-99.217
X249.254Y-110.397
X254.345Y-112.377
X254.345Y-112.377
T3
X134.88Y-63.958
X139.85Y-80.215
X144.82Y-96.472
X153.178Y-40.985
X156.13Y-57.726
X159.082Y-74.468
X174.531Y-31.68
X176.012Y-48.615
X177.494Y-65.551
X197.202Y-35.58
X197.202Y-52.58
X197.202Y-69.58
X215.682Y-96.691
X216.202Y-38.413
X216.202Y-55.413
X216.202Y-72.413
X234.219Y-104.369
X250.138Y-116.584
M30
